<?xml version="1.0" encoding="utf-8"?>
<!-- Generator: Adobe Illustrator 26.4.1, SVG Export Plug-In . SVG Version: 6.00 Build 0)  -->
<svg version="1.1" id="Layer_1" xmlns="http://www.w3.org/2000/svg" xmlns:xlink="http://www.w3.org/1999/xlink" x="0px" y="0px"
	 viewBox="0 0 1000 471.58" style="enable-background:new 0 0 1000 471.58;" xml:space="preserve">
<style type="text/css">
	.st0{fill:#FFFFFF;}
	.st1{fill:#006F3B;}
	.st2{fill:url(#SVGID_1_);}
	.st3{fill:url(#SVGID_00000029012478566084475690000012035749176701648276_);}
	.st4{fill:#8C8C8C;}
	.st5{fill:url(#SVGID_00000124159642976573507640000013646039652926988705_);}
	.st6{fill:url(#SVGID_00000024684822794354003470000003052427590975302536_);}
	.st7{fill:url(#SVGID_00000177480959810265629460000008311624985159091367_);}
	.st8{fill:url(#SVGID_00000026140179501489265970000008019013600249451960_);}
</style>
<rect x="9.62" class="st0" width="980.77" height="449.62"/>
<g>
	<path class="st1" d="M194.97,290.03c-7.54,11.62-17.4,20.46-29.6,26.54c-12.2,6.06-26.38,9.11-42.55,9.11
		c-21.66,0-38.34-6.17-50.05-18.49c-11.72-12.33-17.58-29.86-17.58-52.6c0-21.1,5.84-37.2,17.54-48.29
		c11.69-11.1,31.02-18.7,57.97-22.81c6.18-0.96,14.28-2.05,24.31-3.29c25.4-3.28,38.11-10.6,38.11-21.96
		c0-9.02-2.82-15.48-8.44-19.38c-5.63-3.9-15.04-5.85-28.22-5.85c-12.09,0-21.36,2.39-27.81,7.17c-6.46,4.78-9.68,11.61-9.68,20.48
		v3.27H63.13v-4.1c0-22.81,8.08-40.74,24.25-53.79c16.16-13.04,38.49-19.57,66.98-19.57c31.23,0,55.17,5.4,71.82,16.19
		c16.64,10.79,24.97,26.37,24.97,46.72v127.08c0,9.31,0.96,16.25,2.89,20.84c1.93,4.58,5.16,8.05,9.7,10.37v10.05h-62.2
		c-2.05-3.83-3.62-8.07-4.72-12.73C195.72,300.37,195.11,295.37,194.97,290.03z M193.95,207.76c-9.73,4.53-20.93,8.16-33.59,10.9
		c-12.66,2.75-19.21,4.18-19.62,4.33c-10.55,3.02-17.91,6.8-22.08,11.32c-4.18,4.52-6.27,10.77-6.27,18.72
		c0,8.24,2.67,14.78,8.01,19.65c5.34,4.86,12.53,7.3,21.58,7.3c16.16,0,28.86-4.56,38.11-13.69c9.24-9.12,13.87-21.57,13.87-37.34
		V207.76z"/>
	<path class="st1" d="M281.2,339.37l65.41-0.21c1.91,7.53,5.84,13.14,11.78,16.83c5.94,3.7,13.9,5.55,23.88,5.55
		c18.58,0,31.55-3.94,38.94-11.81c7.37-7.88,11.07-22.44,11.07-43.67v-19.92c-6.3,10.81-14.47,18.78-24.53,23.91
		c-10.06,5.13-22.61,7.7-37.66,7.7c-28.87,0-52-10.29-69.38-30.91c-17.38-20.61-26.07-48.03-26.07-82.25
		c0-36.14,8.52-64.86,25.55-86.15c17.04-21.29,39.99-31.94,68.87-31.94c15.05,0,27.88,2.89,38.48,8.65
		c10.6,5.77,19.26,14.55,25.96,26.36V94.7h56.78v208.26c0,23.4-2.19,41.26-6.57,53.58c-4.38,12.31-11.84,22.64-22.39,30.99
		c-9.04,6.98-20.5,12.28-34.4,15.9c-13.9,3.63-29.75,5.44-47.54,5.44c-29.85,0-53.34-6.09-70.45-18.25
		C291.81,378.46,282.57,361.37,281.2,339.37z M335.11,202.56c0,20.95,4.2,37.03,12.63,48.26c8.42,11.24,20.44,16.84,36.05,16.84
		c15.75,0,27.76-5.6,36.05-16.84c8.29-11.22,12.43-27.58,12.43-49.08c0-20.4-4.29-36.18-12.84-47.34
		c-8.56-11.15-20.71-16.74-36.46-16.74c-15.2,0-26.98,5.68-35.33,17.05C339.28,166.08,335.11,182.03,335.11,202.56z"/>
	<path class="st1" d="M525.67,317.74V94.7h55.36v38.09c7.82-15.36,16.95-26.65,27.38-33.85c10.43-7.2,22.84-10.8,37.25-10.8
		c2.33,0,4.15,0.04,5.46,0.1c1.3,0.07,2.36,0.18,3.19,0.32l0.21,60.61h-19.97c-16.33,0-28.61,4.25-36.85,12.74
		c-8.24,8.49-12.35,21.08-12.35,37.78v118.06H525.67z"/>
	<g>
		<g>
			<radialGradient id="SVGID_1_" cx="872.6862" cy="147.1822" r="185.2843" gradientUnits="userSpaceOnUse">
				<stop  offset="0" style="stop-color:#FFF200"/>
				<stop  offset="0.9831" style="stop-color:#91A33D"/>
			</radialGradient>
			<path class="st2" d="M819.06,317.91c-51.64,0-96.59-28.59-119.93-70.78c-0.12-0.12-0.26-0.22-0.37-0.34
				c23.28,42.51,68.42,71.32,120.3,71.32c40.91,0,77.64-17.94,102.75-46.36c0.24-0.36,0.44-0.71,0.68-1.08
				C897.38,299.61,860.37,317.91,819.06,317.91z"/>
			
				<linearGradient id="SVGID_00000028301681404776790300000004255567923804607922_" gradientUnits="userSpaceOnUse" x1="766.0646" y1="252.162" x2="685.1417" y2="154.1426">
				<stop  offset="0" style="stop-color:#CBDB2A"/>
				<stop  offset="1" style="stop-color:#3E8731"/>
			</linearGradient>
			<path style="fill:url(#SVGID_00000028301681404776790300000004255567923804607922_);" d="M682.15,181
				c0,75.61,61.3,136.9,136.91,136.9v-81.25c-7.18,1.58-14.63,2.45-22.27,2.45c-56.83,0-102.9-46.07-102.9-102.9
				c0-4.19,0.28-8.31,0.76-12.37C686.65,141.24,682.15,160.59,682.15,181z"/>
			<path class="st4" d="M931.82,223.67c-4.49-20.52-20.27-37.09-40.19-42.24c-24.33-6.27-51.19,4.81-73.69,30.44
				c-47.79,54.38-82.23,55.04-102.71,46.01c-5.96-2.62-11.32-6.34-16.1-10.75c23.34,42.18,68.29,70.78,119.93,70.78
				c41.31,0,78.32-18.3,103.43-47.23C931.91,255.79,935.29,239.53,931.82,223.67z"/>
			<g>
				
					<radialGradient id="SVGID_00000161613682236396820080000004063977517939033489_" cx="901.519" cy="207.3252" r="148.7457" gradientUnits="userSpaceOnUse">
					<stop  offset="0" style="stop-color:#CBDB2A"/>
					<stop  offset="1" style="stop-color:#588B2C"/>
				</radialGradient>
				<path style="fill:url(#SVGID_00000161613682236396820080000004063977517939033489_);" d="M931.82,223.67
					c-4.49-20.52-20.27-37.09-40.19-42.24c-24.33-6.27-51.19,4.81-73.69,30.44c-47.79,54.38-82.23,55.04-102.71,46.01
					c-5.96-2.62-11.32-6.34-16.1-10.75c23.34,42.18,68.29,70.78,119.93,70.78c41.31,0,78.32-18.3,103.43-47.23
					C931.91,255.79,935.29,239.53,931.82,223.67z"/>
				<g>
					<path class="st0" d="M907.28,181.71c0,0,6.27,51.24-63.79,99.85c0,0,75.28-30.83,75.28-89.91L907.28,181.71z"/>
					<path class="st0" d="M910.77,197.12c0,0-9.32,14.92-38.3,12.77c0,0,26.56,12.59,39.21-3.07L910.77,197.12z"/>
					<path class="st0" d="M904,230.25c0,0-5.31,9.93,1.31,32.17c0,0-16.88-18.49-7.24-31.16L904,230.25z"/>
					<path class="st0" d="M883.97,245.99c0,0-8.49,9.43-28.81,4.29c0,0,17.3,12.26,28.25,2.71L883.97,245.99z"/>
				</g>
			</g>
		</g>
		<g>
			
				<radialGradient id="SVGID_00000116945159248777176990000013063248293428131985_" cx="-118.4491" cy="178.6463" r="185.2885" gradientTransform="matrix(-1 0 0 -1 646.9238 393.5681)" gradientUnits="userSpaceOnUse">
				<stop  offset="0" style="stop-color:#FFF200"/>
				<stop  offset="0.9831" style="stop-color:#91A33D"/>
			</radialGradient>
			<path style="fill:url(#SVGID_00000116945159248777176990000013063248293428131985_);" d="M819,44.18
				c51.64,0,96.59,28.59,119.93,70.8c0.11,0.11,0.25,0.2,0.37,0.32C916.02,72.8,870.87,43.98,819,43.98
				c-40.91,0-77.64,17.93-102.76,46.36c-0.23,0.36-0.44,0.72-0.67,1.08C740.68,62.51,777.69,44.18,819,44.18z"/>
			
				<linearGradient id="SVGID_00000124120481541654593930000008088747629539945633_" gradientUnits="userSpaceOnUse" x1="-308.984" y1="252.3521" x2="-172.0748" y2="252.3521" gradientTransform="matrix(-1 0 0 -1 646.9238 393.5681)">
				<stop  offset="0" style="stop-color:#FFC20E"/>
				<stop  offset="1" style="stop-color:#CB6419"/>
			</linearGradient>
			<path style="fill:url(#SVGID_00000124120481541654593930000008088747629539945633_);" d="M955.91,181.1
				c0-75.62-61.3-136.92-136.91-136.92v81.27c7.17-1.58,14.62-2.44,22.27-2.44c56.83,0,102.89,46.06,102.89,102.89
				c0,4.18-0.28,8.31-0.76,12.35C951.41,220.86,955.91,201.51,955.91,181.1z"/>
			<path class="st4" d="M706.23,138.44c4.49,20.52,20.27,37.08,40.19,42.23c24.33,6.27,51.19-4.81,73.69-30.43
				c47.79-54.38,82.24-55.04,102.71-46.01c5.96,2.62,11.32,6.35,16.11,10.76c-23.35-42.21-68.29-70.8-119.93-70.8
				c-41.31,0-78.32,18.32-103.43,47.24C706.14,106.32,702.76,122.58,706.23,138.44z"/>
			<g>
				
					<linearGradient id="SVGID_00000053513343100322388330000007267589878670349218_" gradientUnits="userSpaceOnUse" x1="-292.0072" y1="280.2856" x2="-57.9755" y2="280.2856" gradientTransform="matrix(-1 0 0 -1 646.9238 393.5681)">
					<stop  offset="0" style="stop-color:#FFC20E"/>
					<stop  offset="1" style="stop-color:#CB6419"/>
				</linearGradient>
				<path style="fill:url(#SVGID_00000053513343100322388330000007267589878670349218_);" d="M706.23,138.44
					c4.49,20.52,20.27,37.08,40.19,42.23c24.33,6.27,51.19-4.81,73.69-30.43c47.79-54.38,82.24-55.04,102.71-46.01
					c5.96,2.62,11.32,6.35,16.11,10.76c-23.35-42.21-68.29-70.8-119.93-70.8c-41.31,0-78.32,18.32-103.43,47.24
					C706.14,106.32,702.76,122.58,706.23,138.44z"/>
				<g>
					<path class="st0" d="M730.79,180.39c0,0-6.27-51.23,63.78-99.84c0,0-75.28,30.83-75.28,89.91L730.79,180.39z"/>
					<path class="st0" d="M727.29,164.98c0,0,9.32-14.92,38.29-12.78c0,0-26.55-12.58-39.21,3.06L727.29,164.98z"/>
					<path class="st0" d="M734.05,131.84c0,0,5.31-9.92-1.31-32.17c0,0,16.88,18.5,7.25,31.17L734.05,131.84z"/>
					<path class="st0" d="M754.09,116.11c0,0,8.49-9.43,28.81-4.29c0,0-17.29-12.26-28.25-2.72L754.09,116.11z"/>
				</g>
			</g>
		</g>
	</g>
</g>
<path class="st0" d="M822.62-336.11"/>
</svg>
