<svg id="Capa_1" enable-background="new 0 0 510 510" height="512" viewBox="0 0 510 510" width="512" xmlns="http://www.w3.org/2000/svg"><g><path d="m205.606 250.606 49.394-49.393 49.394 49.393 21.212-21.213-49.393-49.393 49.393-49.394-21.212-21.212-49.394 49.393-49.394-49.393-21.212 21.212 49.393 49.394-49.393 49.393z"/><path d="m333.982 341.719c59.768-29.31 101.018-90.785 101.018-161.719 0-99.252-80.748-180-180-180s-180 80.748-180 180c0 70.936 41.25 132.41 101.018 161.719l65.227 138.281h-166.245v30h360v-30h-166.245zm-228.982-161.719c0-82.71 67.29-150 150-150s150 67.29 150 150c0 83.031-67.613 150-150 150-82.63 0-150-67.211-150-150zm189.201 175.732-39.201 83.108-39.202-83.107c24.96 5.548 52.332 5.796 78.403-.001z"/></g></svg>