<svg id="Capa_1" enable-background="new 0 0 510 510" height="512" viewBox="0 0 510 510" width="512" xmlns="http://www.w3.org/2000/svg"><g><path d="m333.982 341.718c59.768-29.31 101.018-90.783 101.018-161.718 0-99.252-80.748-180-180-180s-180 80.748-180 180c0 70.935 41.25 132.408 101.018 161.718l65.227 138.282h-166.245v30h360v-30h-166.245zm-228.982-161.718c0-82.71 67.29-150 150-150s150 67.29 150 150c0 83.253-69.045 153.858-157.713 149.805-79.139-4.029-142.287-69.682-142.287-149.805zm189.202 175.733-39.202 83.107-39.202-83.107c24.66 5.48 52.004 5.867 78.404 0z"/><path d="m240 195h30v45h30v-120h-30v45h-30v-45h-30v120h30z"/></g></svg>