<svg id="Capa_1" enable-background="new 0 0 512 512" height="512" viewBox="0 0 512 512" width="512" xmlns="http://www.w3.org/2000/svg"><g><path d="m476.873 153.941 21.446-18.071c7.994-6.736 12.834-16.589 13.279-27.033s-3.539-20.673-10.931-28.066c-7.392-7.392-17.629-11.375-28.065-10.93-10.444.445-20.297 5.285-27.033 13.279l-5.548 6.584c-13.136-23.706-29.842-49.611-55.992-64.744-30.429-17.608-67.269-16.538-102.895-15.503-8.286.241-16.855.49-25.134.49s-16.847-.249-25.134-.49c-35.628-1.035-72.466-2.105-102.893 15.503-31.101 17.991-48.297 50.161-64.928 81.272-4.116 7.699-8.003 14.971-12.111 22.069-4.045 6.994-8.433 13.949-13.08 21.312-17.743 28.12-37.854 59.993-37.854 97.076s20.111 68.955 37.854 97.076c4.646 7.363 9.034 14.318 13.081 21.315 4.105 7.093 7.992 14.362 12.106 22.059 8.936 16.715 18.14 33.905 29.651 49.013l-.975.822c-7.994 6.736-12.834 16.589-13.279 27.033s3.539 20.673 10.931 28.065c7.019 7.019 16.593 10.965 26.483 10.965.526 0 1.054-.011 1.581-.034 10.444-.445 20.297-5.285 27.034-13.279l9.149-10.858c24.392 6.57 51.231 5.811 77.266 5.055 8.281-.241 16.843-.489 25.118-.489 8.279 0 16.847.249 25.134.49 8.446.245 16.957.492 25.438.492 27.293 0 54.242-2.562 77.456-15.996 31.101-17.991 48.297-50.161 64.928-81.272 4.115-7.699 8.003-14.971 12.111-22.069 4.046-6.995 8.434-13.949 13.08-21.312 17.742-28.121 37.853-59.993 37.853-97.076 0-35.196-18.116-65.694-35.127-92.748zm-3.418-64.078c4.919-.203 9.557 1.593 13.042 5.079 3.486 3.486 5.29 8.117 5.08 13.043-.21 4.925-2.402 9.386-6.171 12.562l-50.383 42.454-16.584-16.584 42.454-50.383c3.176-3.77 7.637-5.961 12.562-6.171zm-392.742 287.827c-4.012-7.504-8.16-15.264-12.433-22.646-4.239-7.328-8.936-14.773-13.478-21.972-17.09-27.086-34.762-55.093-34.762-86.383s17.672-59.297 34.762-86.383c4.543-7.2 9.24-14.644 13.477-21.97 4.276-7.388 8.426-15.151 12.439-22.658 15.306-28.634 31.134-58.242 57.291-73.374 25.501-14.757 57.936-13.814 92.276-12.818 8.429.245 17.145.498 25.715.498s17.286-.253 25.715-.498c34.34-1 66.775-1.94 92.276 12.818 22.601 13.08 36.848 35.634 52.168 63.85l-22.403 26.587c-3.467-2.075-7.431-3.207-11.578-3.207-6.048 0-11.735 2.356-16.013 6.633l-231.283 231.287c-7.474 7.474-8.594 18.905-3.412 27.596l-33.431 28.17c-10.306-13.717-18.939-29.842-27.326-45.53zm35.867 105.291c-4.928.211-9.556-1.594-13.042-5.08-3.485-3.485-5.289-8.117-5.079-13.042.209-4.925 2.401-9.386 6.171-12.563l50.383-42.454 16.584 16.584-42.454 50.383c-3.177 3.771-7.638 5.962-12.563 6.172zm340.619-149.909c-4.543 7.199-9.24 14.644-13.477 21.97-4.276 7.388-8.426 15.151-12.439 22.658-15.306 28.634-31.134 58.242-57.291 73.374-25.501 14.757-57.937 13.814-92.276 12.818-8.429-.245-17.145-.498-25.715-.498-8.565 0-17.276.253-25.7.498-22.025.64-43.077 1.233-62.155-2.268l18.244-21.651c3.559 2.122 7.567 3.208 11.587 3.208 5.798 0 11.596-2.206 16.01-6.62l92.943-92.944c3.913-3.912 3.913-10.257 0-14.17s-10.257-3.912-14.17 0l-92.942 92.943c-1.015 1.014-2.665 1.015-3.679 0l-37.086-37.086c-1.014-1.015-1.015-2.665 0-3.679l231.285-231.285c.631-.632 1.35-.764 1.842-.764.49 0 1.205.132 1.836.764l37.092 37.091c.626.625.758 1.341.758 1.831 0 .492-.133 1.211-.764 1.842l-74.819 74.819c-3.913 3.913-3.913 10.257 0 14.17 3.912 3.913 10.257 3.913 14.17 0l74.819-74.819c4.277-4.277 6.633-9.964 6.633-16.012 0-4.148-1.132-8.112-3.206-11.579l12.699-10.701c15.664 25.02 30.563 50.98 30.563 79.708 0 31.288-17.672 59.296-34.762 86.382z"/><circle cx="331.668" cy="304.831" r="10.02"/></g></svg>