<svg id="Capa_1" enable-background="new 0 0 512 512" height="512" viewBox="0 0 512 512" width="512" xmlns="http://www.w3.org/2000/svg"><g><path d="m420.291 7.247c-1.532-5.317-7.087-8.384-12.403-6.852l-64.093 18.477c-2.574.742-4.744 2.484-6.024 4.837l-17.899 32.877c-20.45-16.255-46.311-25.98-74.403-25.98h-7.975c-63.504 0-115.615 49.677-119.536 112.21-14.999 1.885-26.643 14.71-26.643 30.213 0 13.076 8.284 24.252 19.878 28.561l29.055 292.352c1.023 10.294 9.596 18.058 19.941 18.058h162.585c10.345 0 18.918-7.763 19.941-18.058l29.055-292.352c11.594-4.309 19.878-15.485 19.878-28.561 0-15.502-11.643-28.327-26.642-30.212-1.727-27.537-12.797-52.578-30.074-71.984l18.437-33.865 60.071-17.317c5.316-1.534 8.384-7.087 6.851-12.404zm-182.798 43.398h7.975c24.644 0 47.228 8.986 64.652 23.851l-37.061 68.072h-135.006c4.002-51.357 47.073-91.923 99.44-91.923zm85.28 441.316h-162.585l-23.64-237.863c6.118 1.098 10.182 3.361 14.945 6.027 7.781 4.355 16.6 9.292 33.533 9.292s25.752-4.937 33.533-9.292c6.726-3.765 12.039-6.739 23.745-6.739 11.707 0 17.02 2.974 23.746 6.739 7.781 4.356 16.601 9.292 33.535 9.292 16.933 0 25.753-4.936 33.534-9.292 4.312-2.414 8.051-4.497 13.258-5.686zm48.836-318.932c0 5.746-4.675 10.421-10.421 10.421h-74.784c-5.534 0-10.02 4.486-10.02 10.02s4.486 10.02 10.02 10.02h65.039l-3.013 30.316c-11.65 1.316-18.725 5.268-25.097 8.835-6.726 3.765-12.04 6.739-23.746 6.739-11.707 0-17.02-2.974-23.747-6.739-7.781-4.356-16.601-9.292-33.534-9.292s-25.752 4.937-33.533 9.292c-6.726 3.765-12.039 6.739-23.745 6.739-11.705 0-17.018-2.974-23.744-6.739-6.669-3.733-14.117-7.883-26.767-8.996l-2.997-30.155h65.031c5.534 0 10.02-4.486 10.02-10.02s-4.486-10.02-10.02-10.02h-74.777c-5.746 0-10.421-4.675-10.421-10.421s4.675-10.421 10.421-10.421h157.198c.011 0 .021.002.032.002.01 0 .02-.002.029-.002h82.155c5.746-.001 10.421 4.675 10.421 10.421zm-26.7-30.461h-49.033l28.745-52.799c11.416 14.872 18.748 33.034 20.288 52.799z"/><path d="m202.609 289.55c-16.574 0-30.059 13.484-30.059 30.059s13.484 30.059 30.059 30.059 30.059-13.484 30.059-30.059-13.485-30.059-30.059-30.059zm0 40.078c-5.525 0-10.02-4.495-10.02-10.02s4.495-10.02 10.02-10.02 10.02 4.495 10.02 10.02-4.495 10.02-10.02 10.02z"/><path d="m202.609 373.425c-16.574 0-30.059 13.484-30.059 30.059s13.484 30.059 30.059 30.059 30.059-13.484 30.059-30.059-13.485-30.059-30.059-30.059zm0 40.078c-5.525 0-10.02-4.495-10.02-10.02s4.495-10.02 10.02-10.02 10.02 4.495 10.02 10.02-4.495 10.02-10.02 10.02z"/><path d="m280.353 328.688c-16.574 0-30.059 13.484-30.059 30.059s13.484 30.059 30.059 30.059 30.059-13.484 30.059-30.059-13.485-30.059-30.059-30.059zm0 40.078c-5.525 0-10.02-4.495-10.02-10.02s4.495-10.02 10.02-10.02 10.02 4.495 10.02 10.02c-.001 5.525-4.495 10.02-10.02 10.02z"/><path d="m280.353 412.563c-16.574 0-30.059 13.484-30.059 30.059s13.484 30.059 30.059 30.059 30.059-13.484 30.059-30.059-13.485-30.059-30.059-30.059zm0 40.078c-5.525 0-10.02-4.495-10.02-10.02s4.495-10.02 10.02-10.02 10.02 4.495 10.02 10.02c-.001 5.525-4.495 10.02-10.02 10.02z"/><circle cx="241.464" cy="193.469" r="10"/></g></svg>