<svg id="Capa_1" enable-background="new 0 0 512 512" height="512" viewBox="0 0 512 512" width="512" xmlns="http://www.w3.org/2000/svg"><g><path d="m251.152 371.618c18.716-32.417 18.716-71.122 0-103.537l-71.21-123.339c-3.852-6.672-10.751-10.655-18.455-10.655-7.704 0-14.603 3.984-18.456 10.655l-71.21 123.338c-18.716 32.416-18.716 71.122 0 103.537 18.715 32.416 52.235 51.769 89.666 51.769 37.43 0 70.949-19.353 89.665-51.768zm-161.978-10.02c-15.094-26.142-15.094-57.356 0-83.499l71.21-123.338c.1-.174.367-.637 1.103-.637.735 0 1.001.462 1.102.636l71.21 123.339c15.093 26.141 15.093 57.356 0 83.499-15.094 26.142-42.126 41.749-72.312 41.749-30.187.001-57.22-15.606-72.313-41.749z"/><path d="m490.14 239.22-110.59-191.537c-6.06-10.513-16.924-16.792-29.058-16.795-.004 0-.007 0-.01 0-12.136 0-23.005 6.277-29.074 16.79l-65.424 113.321-65.427-113.325c-6.068-10.51-16.935-16.784-29.071-16.784s-23.003 6.274-29.071 16.784l-110.587 191.543c-16.605 28.761-23.967 61.083-21.291 93.469 2.53 30.607 13.753 59.877 32.457 84.646 3.335 4.416 9.619 5.292 14.033 1.958 4.416-3.334 5.292-9.617 1.958-14.033-16.414-21.736-26.261-47.401-28.478-74.221-2.339-28.302 4.119-56.588 18.675-81.8l110.587-191.543c2.446-4.236 6.826-6.765 11.718-6.765s9.272 2.529 11.718 6.765l110.588 191.543c25.528 44.215 25.528 97.01 0 141.225-8.955 15.51-20.403 28.818-33.686 39.572-.238.173-.469.355-.693.551-24.47 19.555-55.089 30.489-87.926 30.489-15.824 0-31.222-2.493-45.767-7.41-5.242-1.774-10.927 1.041-12.7 6.282-1.772 5.242 1.041 10.928 6.282 12.7 16.616 5.617 34.174 8.465 52.185 8.465 34.916 0 67.641-10.822 94.542-30.341 27.312 19.873 59.794 30.341 94.45 30.341 58.299 0 110.507-30.143 139.658-80.631 29.149-50.486 29.15-110.771.002-161.259zm-188.995-.003-.263-.456 48.495-84.002c.101-.175.368-.638 1.102-.638.733 0 1 .463 1.102.639l71.207 123.343c15.097 26.133 15.097 57.347-.001 83.497-15.093 26.143-42.124 41.75-72.308 41.75-15.983 0-31.094-4.307-44.187-12.495 23.887-48.398 22.172-104.32-5.147-151.638zm171.638 151.245c-25.528 44.215-71.249 70.612-122.304 70.612-28.606 0-55.496-8.114-78.476-23.571 9.102-8.624 17.274-18.41 24.34-29.24 16.116 9.915 34.616 15.126 54.136 15.126 37.428 0 70.946-19.353 89.661-51.769 18.721-32.426 18.72-71.133 0-103.538l-71.205-123.339c-3.853-6.674-10.752-10.659-18.456-10.659-7.705 0-14.604 3.985-18.456 10.658l-42.71 73.981-21.759-37.687 71.208-123.34c2.448-4.239 6.828-6.77 11.72-6.77h.004c4.961.001 9.226 2.468 11.708 6.771l110.592 191.543c25.526 44.213 25.525 97.007-.003 141.222z"/><path d="m120.709 315.352c-3.913-3.913-10.256-3.912-14.169 0-3.913 3.913-3.912 10.256 0 14.169l11.643 11.642c1.956 1.956 4.52 2.934 7.084 2.934s5.128-.978 7.085-2.935c3.913-3.913 3.912-10.256 0-14.169z"/><path d="m385.018 304.384c1.956 1.956 4.519 2.934 7.084 2.934 2.564 0 5.129-.978 7.085-2.935 3.913-3.913 3.913-10.257-.001-14.169l-11.643-11.642c-3.912-3.913-10.257-3.912-14.168 0-3.913 3.913-3.913 10.257.001 14.169z"/><path d="m169.755 263.086c3.912-3.913 3.912-10.257 0-14.169l-11.643-11.643c-3.913-3.913-10.257-3.913-14.169 0s-3.913 10.257 0 14.169l11.643 11.643c1.956 1.956 4.521 2.934 7.085 2.934s5.128-.977 7.084-2.934z"/><path d="m186.128 314.081c2.564 0 5.128-.978 7.084-2.934l11.643-11.642c3.913-3.913 3.913-10.256 0-14.169s-10.256-3.912-14.169 0l-11.643 11.642c-3.913 3.913-3.913 10.256 0 14.169 1.957 1.956 4.521 2.934 7.085 2.934z"/><path d="m170.364 376.827c2.564 0 5.128-.978 7.085-2.934l11.643-11.643c3.913-3.913 3.913-10.257 0-14.169s-10.257-3.913-14.169 0l-11.643 11.643c-3.912 3.913-3.912 10.257 0 14.169 1.956 1.956 4.52 2.934 7.084 2.934z"/><path d="m343.736 366.079c1.957 1.957 4.52 2.935 7.085 2.935 2.563 0 5.128-.978 7.085-2.934l11.643-11.643c3.913-3.913 3.913-10.256 0-14.169s-10.255-3.913-14.169 0l-11.643 11.643c-3.914 3.912-3.914 10.255-.001 14.168z"/><path d="m331.748 254.378c2.563 0 5.128-.978 7.085-2.934l11.643-11.643c3.913-3.913 3.913-10.256 0-14.169-3.912-3.913-10.254-3.913-14.169 0l-11.643 11.643c-3.913 3.913-3.913 10.256 0 14.169 1.956 1.956 4.519 2.934 7.084 2.934z"/><circle cx="72.785" cy="442.491" r="10"/></g></svg>