<svg id="Capa_1" enable-background="new 0 0 512 512" height="512" viewBox="0 0 512 512" width="512" xmlns="http://www.w3.org/2000/svg"><g><path d="m491.961 245.979h-102.951v-155.661c0-11.049-8.989-20.039-20.039-20.039h-225.942c-11.05 0-20.039 8.99-20.039 20.039v155.661h-102.951c-11.05 0-20.039 8.99-20.039 20.039v155.661c0 11.049 8.989 20.039 20.039 20.039h235.961 79.173c5.533 0 10.02-4.486 10.02-10.02s-4.486-10.02-10.02-10.02h-69.153v-104.39c5.464 1.437 9.347 4.06 13.843 7.115 7.706 5.236 17.296 11.751 35.124 11.751 17.83 0 27.42-6.516 35.126-11.751 6.815-4.63 12.198-8.288 23.863-8.288 11.666 0 17.05 3.658 23.866 8.288 7.705 5.236 17.296 11.751 35.126 11.751s27.421-6.516 35.126-11.751c6.816-4.63 12.2-8.288 23.866-8.288v105.563h-66.94c-5.533 0-10.02 4.486-10.02 10.02s4.486 10.02 10.02 10.02h66.941c11.05 0 20.039-8.99 20.039-20.039v-155.661c0-11.049-8.989-20.039-20.039-20.039zm-348.932-155.661h225.941v30.612c-12.815 1.662-20.676 6.819-27.203 11.117-7.099 4.675-12.706 8.368-24.917 8.368-12.21 0-17.818-3.693-24.917-8.368-7.895-5.2-17.721-11.671-35.938-11.671-18.216 0-28.041 6.472-35.936 11.671-7.099 4.675-12.705 8.368-24.916 8.368-12.209 0-17.815-3.693-24.913-8.367-6.528-4.3-14.392-9.458-27.212-11.119l-.002-30.61c.001-.001.005-.001.013-.001zm-.008 50.886c6.665 1.323 11.04 4.189 16.188 7.579 7.894 5.2 17.72 11.671 35.935 11.671 18.216 0 28.042-6.472 35.937-11.672 7.099-4.675 12.705-8.367 24.915-8.367s17.818 3.693 24.917 8.368c7.895 5.2 17.721 11.671 35.938 11.671s28.043-6.472 35.938-11.671c5.146-3.389 9.52-6.253 16.181-7.577v104.773h-225.942zm-122.982 124.814h225.941v30.834c-11.669 1.87-18.991 6.821-25.108 10.977-6.815 4.63-12.199 8.288-23.865 8.288s-17.05-3.658-23.866-8.288c-7.705-5.236-17.296-11.751-35.126-11.751-17.829 0-27.419 6.516-35.125 11.751-6.815 4.63-12.198 8.288-23.864 8.288-11.664 0-17.047-3.657-23.862-8.288-7.706-5.235-17.296-11.751-35.125-11.751h-.01l-.002-30.058c-.001-.001.003-.002.012-.002zm-.008 50.098h.009c11.665 0 17.048 3.658 23.863 8.288 7.706 5.236 17.295 11.751 35.124 11.751 17.83 0 27.42-6.516 35.126-11.751 6.815-4.63 12.198-8.288 23.863-8.288 11.666 0 17.05 3.658 23.866 8.288 7.705 5.236 17.296 11.751 35.126 11.751s27.421-6.516 35.126-11.751c4.497-3.055 8.381-5.678 13.846-7.115v104.391h-225.941zm436.803-8.288c-6.815 4.63-12.199 8.288-23.865 8.288s-17.05-3.658-23.866-8.288c-7.706-5.236-17.296-11.751-35.126-11.751-17.829 0-27.419 6.516-35.125 11.751-6.815 4.63-12.198 8.288-23.864 8.288-11.664 0-17.047-3.657-23.862-8.288-6.117-4.155-13.437-9.106-25.106-10.976v-30.834h225.941v30.059c-17.83 0-27.421 6.515-35.127 11.751z"/><circle cx="380.092" cy="431.702" r="10.02"/></g></svg>