<svg id="Capa_1" enable-background="new 0 0 512 512" height="512" viewBox="0 0 512 512" width="512" xmlns="http://www.w3.org/2000/svg"><g><path d="m256.054 42.593c-117.68 0-213.419 95.739-213.419 213.419s95.739 213.418 213.419 213.418 213.419-95.739 213.419-213.419-95.74-213.418-213.419-213.418zm0 406.799c-106.631 0-193.381-86.751-193.381-193.381s86.75-193.381 193.381-193.381 193.381 86.751 193.381 193.381-86.751 193.381-193.381 193.381z"/><path d="m151.151 168.298c4.497 2.47 9.435 3.726 14.426 3.726 2.82 0 5.657-.401 8.44-1.211l35.499-10.329c15.913-4.63 25.091-21.344 20.461-37.258-2.242-7.709-7.354-14.082-14.39-17.947-7.038-3.865-15.158-4.757-22.867-2.514l-35.498 10.329c-7.709 2.243-14.082 7.354-17.947 14.39-3.866 7.038-4.758 15.159-2.514 22.868 2.242 7.707 7.353 14.081 14.39 17.946zm5.686-31.169c1.289-2.346 3.414-4.049 5.983-4.797l35.498-10.329c.928-.27 1.874-.404 2.814-.404 1.663 0 3.31.419 4.809 1.242 2.345 1.288 4.049 3.413 4.797 5.984 1.543 5.304-1.517 10.876-6.82 12.419l-35.499 10.329c-2.567.747-5.275.45-7.622-.838-2.345-1.289-4.049-3.414-4.797-5.985-.748-2.569-.45-5.276.837-7.621z"/><path d="m183.43 289.835c-4.467-6.671-11.264-11.203-19.14-12.761l-36.267-7.176c-16.263-3.218-32.102 7.394-35.319 23.652-1.559 7.876.043 15.887 4.509 22.558 4.467 6.671 11.264 11.203 19.14 12.761l36.267 7.176c1.962.388 3.916.575 5.844.575 14.052 0 26.646-9.93 29.475-24.227 1.559-7.876-.043-15.887-4.509-22.558zm-15.147 18.67c-1.072 5.42-6.36 8.956-11.773 7.883l-36.267-7.176c-5.419-1.073-8.956-6.355-7.884-11.775s6.357-8.953 11.773-7.884l36.267 7.176c5.42 1.074 8.957 6.356 7.884 11.776z"/><path d="m264.62 144.101 28.842 23.129c5.385 4.319 11.939 6.611 18.744 6.611 1.109 0 2.226-.061 3.344-.184 7.981-.878 15.142-4.811 20.165-11.074 10.368-12.929 8.284-31.883-4.645-42.251l-28.842-23.129c-12.931-10.367-31.885-8.283-42.253 4.647-10.368 12.929-8.284 31.883 4.645 42.251zm10.989-29.717c3.456-4.31 9.774-5.003 14.084-1.548l28.842 23.129c4.31 3.456 5.003 9.775 1.547 14.085-3.456 4.309-9.773 5.004-14.084 1.549l-28.842-23.129c-4.31-3.457-5.004-9.776-1.547-14.086z"/><path d="m150.59 249.456 34.962 12.022c3.227 1.109 6.512 1.636 9.748 1.635 12.478-.001 24.168-7.84 28.449-20.286 5.39-15.672-2.976-32.807-18.648-38.196l-34.962-12.022c-15.672-5.39-32.806 2.977-38.197 18.651-5.39 15.672 2.977 32.807 18.648 38.196zm.301-31.682c.871-2.531 2.674-4.571 5.079-5.746 1.39-.679 2.884-1.021 4.387-1.021 1.097 0 2.198.182 3.266.55l34.962 12.022c2.531.87 4.571 2.673 5.745 5.078s1.34 5.123.471 7.655c-.871 2.531-2.674 4.571-5.079 5.746-2.405 1.174-5.123 1.342-7.653.471l-34.962-12.022c-2.531-.87-4.571-2.673-5.745-5.078s-1.341-5.124-.471-7.655z"/><path d="m254.819 337.676c-.03-.024-.061-.048-.091-.072-12.925-10.286-31.818-8.184-42.162 4.716l-23.129 28.842c-10.368 12.929-8.284 31.883 4.645 42.251.013.01.024.02.037.03 5.379 4.301 11.92 6.584 18.71 6.584 1.109 0 2.225-.061 3.343-.184 7.98-.877 15.141-4.81 20.164-11.073l23.128-28.842c10.368-12.929 8.284-31.883-4.645-42.252zm-10.987 29.716-23.128 28.842c-1.674 2.088-4.061 3.399-6.722 3.691-2.66.291-5.274-.469-7.362-2.143-.008-.006-.016-.013-.022-.019-4.291-3.46-4.978-9.764-1.527-14.067l23.129-28.842c3.456-4.31 9.774-5.003 14.083-1.548.018.015.036.029.054.043 4.263 3.466 4.937 9.751 1.495 14.043z"/><path d="m338.853 235.068c-19.591 0-35.53 15.939-35.53 35.53s15.939 35.53 35.53 35.53 35.53-15.939 35.53-35.53-15.939-35.53-35.53-35.53zm0 51.023c-8.542 0-15.493-6.95-15.493-15.493s6.95-15.493 15.493-15.493c8.542 0 15.493 6.95 15.493 15.493-.001 8.543-6.951 15.493-15.493 15.493z"/><path d="m508.76 215.436c-10.836-67.5-47.308-126.74-102.7-166.809-55.391-40.069-123.07-56.17-190.57-45.332-67.5 10.835-126.742 47.307-166.81 102.699-40.068 55.391-56.168 123.07-45.333 190.571 10.836 67.5 47.309 126.74 102.7 166.809 44.127 31.92 96.042 48.626 149.462 48.626 13.638 0 27.381-1.09 41.109-3.294 45.118-7.242 87.472-26.389 122.484-55.37 4.262-3.528 4.857-9.844 1.329-14.106s-9.844-4.858-14.106-1.329c-32.258 26.703-71.293 44.346-112.882 51.021-62.216 9.988-124.597-4.852-175.651-41.784-51.055-36.932-84.673-91.534-94.659-153.75-9.987-62.216 4.852-124.597 41.784-175.651 36.931-51.055 91.534-84.672 153.75-94.659 62.217-9.987 124.597 4.853 175.651 41.784 51.055 36.932 84.673 91.534 94.659 153.75 8.402 52.347-1.372 106.793-27.523 153.307-2.712 4.823-1 10.932 3.824 13.643 4.822 2.71 10.931 1 13.643-3.823 28.358-50.444 38.955-109.505 29.839-166.303z"/><path d="m368.87 355.152c-5.634 0-11.271-.998-16.556-1.934-4.852-.859-9.434-1.67-13.461-1.67s-8.609.811-13.46 1.67c-10.559 1.868-22.522 3.987-33.044-2.099-10.822-6.261-14.959-17.837-18.608-28.05-1.607-4.495-3.123-8.74-5.002-11.987-1.757-3.036-4.595-6.327-7.598-9.811-6.799-7.885-15.26-17.7-15.26-30.671 0-12.972 8.461-22.787 15.261-30.672 3.004-3.484 5.84-6.774 7.597-9.81 1.879-3.247 3.395-7.492 5.002-11.987 3.649-10.213 7.786-21.789 18.607-28.05 10.524-6.088 22.489-3.968 33.044-2.099 4.852.859 9.434 1.67 13.461 1.67s8.609-.811 13.461-1.67c10.556-1.87 22.522-3.988 33.043 2.1 10.822 6.261 14.96 17.837 18.609 28.05 1.607 4.495 3.123 8.739 5.002 11.987 1.757 3.036 4.594 6.326 7.597 9.81 6.8 7.886 15.261 17.7 15.261 30.672s-8.461 22.786-15.26 30.671c-3.004 3.484-5.841 6.775-7.598 9.811-1.879 3.247-3.395 7.492-5.002 11.987-3.649 10.213-7.787 21.79-18.609 28.051-5.255 3.037-10.869 4.031-16.487 4.031zm-60.003-149.079c-2.568 0-4.791.369-6.484 1.348-4.46 2.581-7.041 9.803-9.773 17.45-1.837 5.14-3.736 10.455-6.528 15.279-2.697 4.663-6.29 8.83-9.764 12.86-5.348 6.202-10.399 12.061-10.399 17.588s5.051 11.385 10.398 17.588c3.475 4.03 7.068 8.198 9.765 12.861 2.791 4.824 4.69 10.139 6.528 15.279 2.732 7.646 5.313 14.869 9.773 17.449 4.191 2.425 11.636 1.108 19.516-.288 5.49-.972 11.166-1.977 16.953-1.977s11.464 1.005 16.954 1.977c7.882 1.395 15.324 2.712 19.516.288 4.461-2.581 7.042-9.803 9.775-17.45 1.836-5.14 3.735-10.455 6.527-15.278 2.697-4.663 6.29-8.83 9.765-12.861 5.347-6.203 10.398-12.061 10.398-17.588s-5.051-11.386-10.399-17.588c-3.474-4.03-7.067-8.197-9.764-12.86-2.791-4.823-4.69-10.138-6.527-15.278-2.733-7.647-5.314-14.869-9.775-17.45-4.192-2.426-11.637-1.108-19.516.288-5.49.972-11.166 1.977-16.954 1.977-5.787 0-11.464-1.005-16.953-1.977-4.698-.832-9.242-1.637-13.032-1.637z"/><circle cx="444.786" cy="413.853" r="10.019"/><circle cx="296.8" cy="405.928" r="10.019"/><circle cx="146.919" cy="368.809" r="10.019"/><circle cx="226.764" cy="291.063" r="10.019"/><circle cx="95.098" cy="223.132" r="10.019"/><circle cx="374.383" cy="160.099" r="10.019"/></g></svg>