<svg id="Capa_1" enable-background="new 0 0 512 512" height="512" viewBox="0 0 512 512" width="512" xmlns="http://www.w3.org/2000/svg"><g><path d="m494.536 206.957c-4.088-7.152-7.949-13.908-10.621-20.613-2.779-6.975-4.654-14.808-6.638-23.101-3.941-16.471-8.017-33.502-19.907-46.854-11.063-12.421-26.663-18.506-41.75-24.39-8.677-3.384-16.871-6.58-24.003-10.83-6.738-4.015-13.237-9.649-20.117-15.614-12.215-10.59-24.845-21.539-41.467-25.961-15.351-4.084-31.178-1.176-46.481 1.636-9.644 1.772-18.752 3.446-27.551 3.446-8.798 0-17.907-1.674-27.55-3.446-15.305-2.813-31.13-5.721-46.482-1.636-16.621 4.422-29.252 15.372-41.467 25.961-6.881 5.965-13.379 11.599-20.117 15.614-7.132 4.25-15.326 7.446-24.002 10.829-15.087 5.884-30.687 11.968-41.75 24.39-11.891 13.352-15.966 30.384-19.908 46.855-1.984 8.293-3.859 16.126-6.637 23.1-2.672 6.705-6.533 13.46-10.62 20.612-8.589 15.025-17.468 30.56-17.468 49.045s8.879 34.02 17.465 49.044c4.088 7.152 7.948 13.908 10.62 20.613 2.779 6.975 4.654 14.808 6.638 23.101 3.941 16.471 8.016 33.502 19.908 46.855 2.702 3.033 5.872 5.885 9.422 8.478 4.469 3.264 10.737 2.287 14.001-2.181 3.264-4.469 2.287-10.737-2.182-14-2.44-1.782-4.493-3.622-6.277-5.625-7.348-8.251-10.834-19.693-13.906-32.096-2.254-9.931-5.776-38.877 4.577-54.925 3.839-5.951 9.262-9.564 16.578-11.046 5.424-1.098 8.93-6.385 7.831-11.809-1.098-5.424-6.388-8.929-11.809-7.831-12.709 2.574-22.614 9.243-29.439 19.821-2.853 4.422-4.963 9.286-6.501 14.327-.688-1.215-1.378-2.425-2.064-3.626-7.623-13.339-14.824-25.938-14.824-39.1s7.201-25.762 14.824-39.101c4.25-7.437 8.645-15.127 11.838-23.138 3.315-8.32 5.448-17.234 7.511-25.854 3.52-14.709 6.844-28.602 15.384-38.191 7.863-8.828 20.591-13.793 34.067-19.048 9.055-3.532 18.419-7.184 26.979-12.285 8.264-4.924 15.748-11.412 22.986-17.687 10.977-9.517 21.346-18.506 33.492-21.737 11.005-2.927 23.976-.544 37.708 1.979 10.102 1.856 20.548 3.776 31.172 3.776 2.697 0 5.382-.125 8.053-.341-9.773 10.721-19.595 22.975-21.948 39.049-2.18 14.894 3.554 29.173 9.1 42.982 2.78 6.923 5.655 14.082 7.317 20.932 1.465 6.037 1.922 13.061 2.407 20.497.415 6.371.864 13.13 2.016 19.902.013.103.025.201.033.259l.012-.002c1.379 7.975 3.747 15.963 8.248 23.352 7.259 11.919 17.473 20.927 28.178 28.54 1.289 1.595 4.984 6.667 6.599 14.196 2.613 12.175-1.204 25.167-11.342 38.613-3.331 4.419-2.45 10.701 1.968 14.033 1.807 1.362 3.924 2.02 6.024 2.02 3.038 0 6.039-1.376 8.008-3.988 13.957-18.512 16.902-34.947 16.007-47.314 3.403 2.197 6.66 4.398 9.711 6.685 5.876 4.403 11.755 9.426 17.44 14.283 16.135 13.785 32.819 28.04 53.341 31.93 4.392.833 8.716 1.21 12.975 1.21 15.777-.001 30.635-5.186 44.513-11.624-2.949 7.832-4.947 16.122-6.871 24.163-3.52 14.709-6.844 28.602-15.384 38.191-7.863 8.828-20.591 13.793-34.067 19.048-2.519.982-5.062 1.978-7.605 3.008-.798-15.405-12.249-26.168-13.634-27.415-4.113-3.704-10.448-3.371-14.151.741-3.703 4.113-3.371 10.448.741 14.151.074.067 7.387 7.015 7.036 14.779-.197 4.359-2.962 8.731-8.21 13.015-4.902 3.685-9.572 7.731-14.143 11.693-10.978 9.517-21.346 18.506-33.492 21.737-11.004 2.928-23.975.544-37.708-1.979-10.102-1.856-20.548-3.776-31.172-3.776-5.559 0-11.068.531-16.506 1.299.336-.727.654-1.464.949-2.215 7.968-20.296-3.119-41.222-3.595-42.103-2.631-4.868-8.723-6.705-13.59-4.074-4.868 2.63-6.695 8.687-4.065 13.556.072.137 7.167 13.832 2.559 25.393-2.599 6.521-8.808 11.586-18.442 15.074-5.73.385-11.167.163-16.19-1.174-11.353-3.02-21.105-9.208-31.62-20.064-3.851-3.974-10.194-4.076-14.168-.226-3.975 3.85-4.076 10.193-.226 14.168 13.191 13.618 25.794 21.479 40.863 25.488 7.91 2.104 15.946 2.345 23.971 1.707.184-.01 15.273-2.012 22.511-3.343 9.644-1.772 18.752-3.446 27.55-3.446s17.907 1.674 27.55 3.446c9.849 1.81 19.914 3.659 29.93 3.659 5.547 0 11.08-.568 16.552-2.023 16.621-4.422 29.252-15.372 41.467-25.961 3.84-3.329 17.793-14.229 20.117-15.614 7.132-4.25 15.326-7.446 24.002-10.829 15.087-5.884 30.687-11.968 41.75-24.39 11.891-13.352 15.966-30.384 19.908-46.855 1.984-8.293 3.859-16.126 6.637-23.1 2.672-6.705 6.533-13.46 10.62-20.612 8.588-15.024 17.467-30.56 17.467-49.045 0-18.484-8.878-34.019-17.464-49.043zm-83.632 103.699c-10.529-1.996-20.435-8.281-30.415-16.13 15.016-5.996 21.396-20.471 22.088-22.14 2.12-5.112-.29-11.011-5.402-13.131s-10.957.268-13.078 5.38c-.038.088-3.9 8.798-11.643 11.513-4.737 1.659-10.475.791-17.059-2.567-2.298-1.865-20.427-14.652-27.252-18.89-15.201-9.44-30.918-19.201-39.79-33.768-2.855-4.688-4.493-9.991-5.523-15.687-.064-.747-.424-6.48 2.825-12.501 4.717-8.744 14.811-14.411 30.003-16.847 5.464-.876 9.183-6.015 8.307-11.479-.876-5.463-6.014-9.183-11.479-8.307-15.337 2.459-25.882 7.642-33.14 13.56-.357-2.38-.787-4.739-1.348-7.05-2.002-8.253-5.15-16.093-8.195-23.675-4.764-11.864-9.264-23.069-7.867-32.612 1.785-12.194 11.095-22.206 20.953-32.807 4.009-4.312 8.156-8.771 11.774-13.42.145-.186.271-.38.401-.572 10.796-1.834 20.947-2.929 29.82-.567 12.146 3.231 22.515 12.22 33.492 21.737.277.24.558.482.836.723.516.901 1.175 1.74 1.989 2.472.074.067 7.387 7.015 7.036 14.779-.215 4.754-3.475 9.524-9.69 14.177-4.43 3.317-5.332 9.596-2.015 14.026 1.968 2.628 4.979 4.015 8.028 4.015 2.089 0 4.196-.651 5.998-2 10.407-7.792 16.273-16.822 17.486-26.869 6.631 3.316 13.55 6.016 20.299 8.649 13.476 5.255 26.204 10.22 34.067 19.048 8.539 9.588 11.863 23.481 15.383 38.189 2.063 8.621 4.196 17.535 7.511 25.855 3.192 8.011 7.587 15.702 11.838 23.139 7.623 13.339 14.823 25.937 14.823 39.099 0 11.331-5.339 22.246-11.688 33.573-.027.013-.055.023-.082.037-2.175 1.116-4.364 2.258-6.569 3.408-20.419 10.649-41.533 21.662-62.722 17.64z"/><circle cx="110.886" cy="414.932" r="10.02"/><circle cx="162.467" cy="199.9" r="10.02"/><circle cx="103.031" cy="175.555" r="10.02"/><circle cx="159.07" cy="140.461" r="10.02"/><circle cx="385.513" cy="204.867" r="10.02"/><circle cx="419.709" cy="166.813" r="10.02"/><circle cx="430.341" cy="221.324" r="10.02"/></g></svg>