<svg id="Capa_1" enable-background="new 0 0 512 512" height="512" viewBox="0 0 512 512" width="512" xmlns="http://www.w3.org/2000/svg"><g><path d="m172.642 197.625c3.995 1.904 8.084 3.546 12.244 4.938-4.88 5.183-9.256 10.862-13.078 17.014-17.105 27.549-20.841 60.948-10.252 91.633 1.408 4.08 5.242 6.752 9.465 6.751.425 0 .854-.027 1.284-.082 32.191-4.137 60.457-22.303 77.549-49.838 2.287-3.682 4.326-7.488 6.14-11.385 1.814 3.896 3.853 7.702 6.14 11.384 17.104 27.548 45.378 45.714 77.572 49.84.429.055.856.082 1.28.082 4.225 0 8.061-2.675 9.467-6.757 10.567-30.681 6.819-64.075-10.281-91.617-3.818-6.152-8.192-11.831-13.068-17.013 4.171-1.395 8.27-3.041 12.273-4.951 29.27-13.954 50.443-40.049 58.091-71.593 1.118-4.615-1.156-9.382-5.447-11.415-28.856-13.674-61.857-13.847-90.802-.545.298-3.272.466-6.564.466-9.875 0-32.42-14.432-62.764-39.596-83.25-3.682-2.998-8.964-2.999-12.648-.003-25.179 20.478-39.619 50.823-39.619 83.253 0 3.229.16 6.441.444 9.634-28.813-13.069-61.598-12.812-90.292.796-4.291 2.035-6.564 6.802-5.443 11.417 7.657 31.539 28.837 57.63 58.111 71.582zm60.189 59.846c-12.4 19.976-32.032 33.887-54.715 39.048-5.447-22.616-1.691-46.387 10.716-66.369 5.415-8.716 12.179-16.27 20.124-22.515 3.261.3 6.532.459 9.803.459 3.327 0 6.653-.171 9.97-.48 4.775 4.379 10.609 7.618 17.072 9.278-.888 14.332-5.32 28.262-12.97 40.579zm42.916-79.355c0 11.023-8.968 19.99-19.99 19.99s-19.99-8.967-19.99-19.99 8.968-19.99 19.99-19.99 19.99 8.968 19.99 19.99zm58.14 118.405c-22.682-5.155-42.32-19.068-54.728-39.052-7.67-12.349-12.104-26.322-12.975-40.71 9.952-2.688 18.378-9.122 23.665-17.694 3.535 1.868 6.946 3.972 10.196 6.316 9.251 6.649 17.024 14.985 23.103 24.777 12.406 19.98 16.17 43.748 10.739 66.363zm41.713-167.062c-7.621 21.976-23.613 39.955-44.847 50.078-7.182 3.426-14.723 5.837-22.462 7.198-4.014-2.66-8.206-5.043-12.543-7.136.018-.493.038-.985.038-1.482 0-10.963-4.433-20.908-11.597-28.145 2.767-2.776 5.714-5.368 8.831-7.742 4.771-3.645 9.966-6.819 15.435-9.432 21.234-10.124 45.271-11.24 67.145-3.339zm-119.839-87.301c16.546 16.343 25.886 38.519 25.886 62.038 0 8.233-1.142 16.341-3.384 24.15-4.211 3.421-8.156 7.172-11.807 11.205-3.409-.947-6.994-1.464-10.7-1.464-6.186 0-12.048 1.412-17.283 3.928-1.761-3.654-3.273-7.427-4.506-11.299-2.725-8.52-4.106-17.442-4.106-26.52.001-23.525 9.346-45.701 25.9-62.038zm-52.212 90.637c4.35 2.077 8.505 4.52 12.416 7.247 1.874 5.292 4.172 10.427 6.856 15.36-4.468 6.458-7.094 14.284-7.094 22.715 0 3.42.433 6.74 1.244 9.911-3.198-.066-6.392-.299-9.568-.717-9.026-1.195-17.821-3.811-26.14-7.775-21.235-10.12-37.233-28.097-44.861-50.071 21.878-7.909 45.919-6.797 67.147 3.33z"/><path d="m512 351.146v-30.516c0-16.732-13.612-30.344-30.344-30.344s-30.344 13.612-30.344 30.344v20.354c0 .079-.064.143-.142.143h-420.826c-16.732-.001-30.344 13.611-30.344 30.343 0 7.811 2.968 14.941 7.834 20.324-4.866 5.384-7.834 12.514-7.834 20.325 0 16.731 13.612 30.343 30.344 30.343h180.494c5.534 0 10.02-4.486 10.02-10.02s-4.486-10.02-10.02-10.02h-180.494c-5.682 0-10.305-4.622-10.305-10.304s4.623-10.305 10.305-10.305h430.988c16.889 0 30.629 13.74 30.629 30.629v30.516c0 5.682-4.623 10.305-10.305 10.305s-10.305-4.623-10.305-10.305v-20.354c0-11.128-9.053-20.182-20.181-20.182h-149.98c-5.534 0-10.02 4.486-10.02 10.02s4.486 10.02 10.02 10.02h149.98c.078 0 .142.064.142.142v20.354c0 16.732 13.612 30.344 30.344 30.344s30.344-13.611 30.344-30.343v-30.516c0-16.625-8.05-31.405-20.456-40.649 12.406-9.244 20.456-24.023 20.456-40.648zm-20.039 0c0 16.889-13.74 30.629-30.629 30.629h-430.988c-5.682 0-10.305-4.623-10.305-10.305s4.623-10.305 10.305-10.305h420.826c11.128 0 20.181-9.054 20.181-20.182v-20.354c0-5.682 4.623-10.305 10.305-10.305s10.305 4.623 10.305 10.305z"/><circle cx="256" cy="432.558" r="10.02"/></g></svg>