<svg id="Capa_1" enable-background="new 0 0 512 512" height="512" viewBox="0 0 512 512" width="512" xmlns="http://www.w3.org/2000/svg"><g><path d="m431.918 98.753c-3.106-4.58-9.339-5.773-13.916-2.668-4.579 3.107-5.774 9.337-2.667 13.916 28.463 41.963 43.508 92.448 43.508 145.998 0 130.109-90.995 235.961-202.842 235.961-111.849.001-202.843-105.851-202.843-235.96s90.994-235.961 202.842-235.961c34.541 0 68.648 10.287 98.632 29.749 4.642 3.013 10.847 1.691 13.859-2.95 3.013-4.642 1.693-10.847-2.949-13.86-33.241-21.574-71.119-32.978-109.542-32.978-59.811 0-115.956 26.817-158.093 75.509-41.779 48.28-64.789 112.38-64.789 180.491s23.009 132.211 64.789 180.491c42.137 48.692 98.282 75.509 158.093 75.509s115.956-26.817 158.093-75.509c41.78-48.28 64.789-112.38 64.789-180.491 0-57.577-16.24-111.952-46.964-157.247z"/><path d="m365.301 92.27c-30.403-29.99-69.202-46.5-109.301-46.5-40.106 0-78.911 16.516-109.317 46.516-2.088 2.001-4.616 4.326-6.861 7.289-6.993 8.873-11.251 19.989-11.503 32.079-20.866 7.533-35.501 27.559-35.501 50.562 0 11.809 3.758 22.965 10.701 32.196-6.945 10.75-10.701 23.353-10.701 36.28 0 16.696 6.204 32.566 17.237 44.778-4.82 8.197-7.41 17.598-7.41 27.234 0 20.609 11.728 39.139 29.811 48.127 1.178 18.042 9.537 34.151 22.25 45.49.15.151 1.494 1.345 2.013 1.771 28.935 24.447 63.262 37.366 99.28 37.366 37.113 0 72.295-13.647 101.741-39.466.336-.295.638-.612.925-.939 11.938-11.257 19.741-26.841 20.876-44.223 18.083-8.989 29.811-27.519 29.811-48.127 0-9.64-2.592-19.044-7.41-27.236 11.033-12.213 17.237-28.082 17.237-44.777 0-12.927-3.756-25.53-10.701-36.28 6.943-9.232 10.701-20.387 10.701-32.196 0-23.019-14.654-43.056-35.502-50.572-.255-12.079-4.507-23.186-11.491-32.055-.273-.398-4.612-5.224-6.885-7.317zm-49.135-11.444c-22.975 6.106-39.958 27.085-39.958 51.963 0 2.307.153 4.6.444 6.869-8.486 5.761-15.489 13.139-20.652 21.54-5.163-8.402-12.166-15.781-20.653-21.541.291-2.269.444-4.561.444-6.868 0-24.878-16.982-45.857-39.957-51.963 18.812-9.819 39.31-15.017 60.166-15.017s41.354 5.198 60.166 15.017zm-30.507 177.269c-11.195 10.128-17.72 24.603-17.72 39.882 0 5.644.917 11.267 2.653 16.619-5.82 4.726-10.725 10.325-14.593 16.546-3.868-6.221-8.773-11.819-14.592-16.545 1.736-5.352 2.653-10.975 2.653-16.619 0-15.28-6.525-29.754-17.72-39.883 12.579-6.1 22.761-15.358 29.66-26.54 6.898 11.182 17.08 20.44 29.659 26.54zm-154.864 42.687c5.434-6.354 12.972-10.442 21.225-11.512 5.488-.711 9.36-5.736 8.649-11.224s-5.734-9.359-11.224-8.649c-9.573 1.24-18.531 5.03-26.037 10.88-6.771-8.291-10.549-18.687-10.549-29.586 0-7.93 2.026-15.68 5.794-22.539 8.341 5.084 17.941 7.82 27.913 7.82 1.884 0 3.775-.1 5.623-.298 5.502-.589 9.485-5.527 8.897-11.029-.59-5.502-5.53-9.488-11.029-8.897-1.143.122-2.318.184-3.491.184-8.708 0-16.969-3.308-23.262-9.316-6.736-6.43-10.445-15.096-10.445-24.402 0-16.946 12.647-31.323 29.482-33.45 1.339-.178 2.76-.268 4.225-.268 6.761 0 13.266 1.984 18.811 5.739 4.583 3.104 10.812 1.903 13.914-2.679 3.103-4.582 1.903-10.812-2.679-13.914-8.311-5.627-17.951-8.77-27.998-9.146.809-6.34 3.38-12.135 7.212-16.875 1.401-1.505 2.78-2.933 4.115-4.265 5.924-5.159 13.654-8.294 22.106-8.294 18.586 0 33.706 15.129 33.706 33.726 0 3.153-.432 6.259-1.285 9.231-1.496 5.214 1.436 10.639 6.562 12.288 15.427 8.998 24.951 24.946 24.951 41.965 0 16.15-8.259 30.852-21.787 39.99-3.375-9.581-10.235-17.757-19.48-22.674-1.449-.77-3.07-1.173-4.711-1.173-5.534 0-10.017 4.486-10.017 10.02 0 3.898 2.227 7.276 5.478 8.932 6.653 3.612 10.874 10.516 11.028 18.062.002.119.003.15.01.269v.197c0 1.442-.142 2.859-.433 4.254-1.078 5.298-4.144 9.938-8.634 13.062-4.542 3.161-5.661 9.406-2.5 13.948 1.948 2.798 5.064 4.297 8.233 4.297 1.975 0 3.971-.583 5.715-1.796 2.855-1.987 5.409-4.297 7.635-6.861 4.787 5.933 7.503 13.386 7.503 21.178 0 5.474-1.273 10.697-3.783 15.524-2.278 4.279-.976 10.432 3.599 13.134 13.865 8.62 22.143 23.498 22.143 39.799 0 25.818-21.004 46.822-46.822 46.822s-46.822-21.004-46.822-46.822c0-9.866 3.03-19.298 8.762-27.278 3.228-4.495 2.202-10.755-2.293-13.983s-10.755-2.202-13.983 2.293c-4.628 6.443-8.022 13.547-10.101 21.047-7.469-6.278-12.035-15.633-12.035-25.807-.002-8.049 2.874-15.829 8.109-21.924zm88.728 129.331c15.274-4.896 28.168-15.143 36.476-28.527 8.311 13.389 21.212 23.639 36.493 28.533-11.802 3.504-24.029 5.301-36.492 5.301-12.444 0-24.67-1.798-36.477-5.307zm179.618-247.898c0 9.306-3.709 17.972-10.445 24.402-6.293 6.008-14.554 9.316-23.262 9.316-1.173 0-2.348-.062-3.49-.184-5.517-.585-10.44 3.395-11.029 8.897s3.394 10.44 8.896 11.029c1.848.198 3.741.298 5.623.298 9.973 0 19.573-2.736 27.914-7.82 3.768 6.859 5.794 14.609 5.794 22.54 0 10.899-3.779 21.296-10.55 29.587-7.509-5.853-16.466-9.641-26.036-10.881-5.487-.711-10.513 3.16-11.224 8.649-.711 5.488 3.16 10.513 8.649 11.224 8.252 1.069 15.791 5.158 21.238 11.527 5.221 6.079 8.097 13.859 8.097 21.907 0 10.173-4.567 19.529-12.035 25.807-2.079-7.5-5.473-14.604-10.102-21.047-3.229-4.493-9.489-5.521-13.983-2.292-4.494 3.228-5.521 9.489-2.293 13.983 5.733 7.979 8.762 17.412 8.762 27.278 0 25.818-21.004 46.822-46.822 46.822s-46.823-21.004-46.823-46.822c0-16.301 8.278-31.18 22.144-39.799 4.141-2.522 6.156-8.479 3.599-13.134-2.511-4.828-3.784-10.051-3.784-15.524 0-7.792 2.716-15.245 7.504-21.178 2.227 2.565 4.78 4.875 7.635 6.861 1.744 1.214 3.739 1.796 5.714 1.796 3.168 0 6.286-1.5 8.233-4.297 3.16-4.542 2.041-10.786-2.501-13.947-4.489-3.124-7.556-7.763-8.643-13.107-.281-1.351-.424-2.767-.424-4.209l-.003-.109c.007-.119.011-.239.014-.358.154-7.52 4.346-14.402 10.961-18.024 3.288-1.643 5.545-5.042 5.545-8.969 0-5.534-4.489-10.02-10.023-10.02-1.641 0-3.256.403-4.705 1.173-9.244 4.917-16.104 13.093-19.479 22.674-13.527-9.138-21.786-23.84-21.786-39.989 0-17.019 9.524-32.967 24.952-41.966 5.125-1.65 8.055-7.074 6.56-12.287-.852-2.973-1.285-6.079-1.285-9.231 0-18.596 15.12-33.726 33.706-33.726 8.456 0 16.189 3.137 22.114 8.301 1.332 1.328 2.706 2.751 4.102 4.251 3.835 4.741 6.407 10.539 7.217 16.882-10.047.376-19.687 3.519-27.998 9.146-4.582 3.103-5.782 9.332-2.679 13.914 3.101 4.582 9.332 5.78 13.914 2.68 5.545-3.755 12.05-5.739 18.811-5.739 1.464 0 2.885.09 4.29.277 16.769 2.115 29.416 16.492 29.416 33.438z"/><circle cx="395.251" cy="69.578" r="10.02"/></g></svg>