<svg id="Capa_1" enable-background="new 0 0 512 512" height="512" viewBox="0 0 512 512" width="512" xmlns="http://www.w3.org/2000/svg"><g><path d="m491.961 88.21h-471.922c-11.05 0-20.039 8.99-20.039 20.04v82.459c0 19.046 13.13 35.078 30.812 39.532v258.608c0 11.02 8.427 19.985 18.784 19.985h412.808c10.357 0 18.784-8.965 18.784-19.985v-258.608c17.682-4.455 30.812-20.487 30.812-39.533v-82.458c0-11.05-8.989-20.04-20.039-20.04zm-61.495 102.498c0 11.429-9.298 20.727-20.728 20.727s-20.728-9.298-20.728-20.727v-82.458h41.456zm-61.495 0c0 11.429-9.298 20.727-20.728 20.727s-20.728-9.298-20.728-20.727v-82.458h41.456zm-61.495 0c0 11.429-9.298 20.727-20.728 20.727s-20.728-9.298-20.728-20.727v-82.458h41.456zm-61.496 0c0 11.429-9.298 20.727-20.728 20.727s-20.728-9.298-20.728-20.727v-82.458h41.456zm-61.495 0c0 11.429-9.298 20.727-20.728 20.727s-20.728-9.298-20.728-20.727v-82.458h41.456zm-61.495 0c0 11.429-9.298 20.727-20.728 20.727s-20.728-9.298-20.728-20.727v-82.458h41.456zm-102.951 0v-82.458h41.456v82.459c0 11.429-9.298 20.727-20.728 20.727s-20.728-9.299-20.728-20.728zm180.497 298.087h-93.172v-129.967c0-25.687 20.898-46.586 46.586-46.586s46.586 20.898 46.586 46.586zm20.039 0v-129.967c0-36.737-29.887-66.625-66.625-66.625s-66.625 29.887-66.625 66.625v129.967h-36.474v-258.584c8.143-2.08 15.306-6.624 20.663-12.779 7.48 8.595 18.486 14.044 30.748 14.044s23.268-5.449 30.748-14.044c7.48 8.595 18.486 14.044 30.748 14.044s23.268-5.449 30.748-14.044c7.48 8.595 18.486 14.044 30.748 14.044s23.268-5.449 30.748-14.044c7.48 8.595 18.486 14.044 30.748 14.044s23.268-5.449 30.748-14.044c7.48 8.595 18.486 14.044 30.748 14.044s23.268-5.449 30.748-14.044c7.48 8.595 18.486 14.044 30.748 14.044s23.268-5.449 30.748-14.044c5.357 6.156 12.52 10.699 20.663 12.779v258.584zm271.386-298.087c0 11.429-9.298 20.727-20.728 20.727s-20.728-9.298-20.728-20.727v-82.458h41.456z"/><path d="m404.636 292.204h-124.368c-11.05 0-20.039 8.99-20.039 20.039v78.847c0 11.049 8.989 20.039 20.039 20.039h17.256c5.533 0 10.02-4.486 10.02-10.02s-4.486-10.02-10.02-10.02h-17.256v-78.847h124.368v78.847h-17.266c-5.533 0-10.02 4.486-10.02 10.02s4.486 10.02 10.02 10.02h17.266c11.05 0 20.039-8.99 20.039-20.039v-78.847c0-11.05-8.989-20.039-20.039-20.039z"/><g><path d="m223.382 10.335c-.034-.092-.07-.184-.108-.275-1.724-4.189-5.763-6.894-10.293-6.894-.004 0-.008 0-.012 0-4.534.005-8.573 2.72-10.29 6.917-.03.075-.061.151-.089.227l-18.388 48.281c-1.97 5.171.625 10.96 5.796 12.93 1.174.447 2.379.659 3.565.659 4.037 0 7.842-2.459 9.365-6.456l10.015-26.294 9.913 26.265c1.953 5.177 7.73 7.791 12.912 5.837 5.177-1.954 7.79-7.735 5.836-12.912z"/><path d="m389.719 10.335c-.035-.092-.071-.184-.109-.275-1.724-4.189-5.763-6.894-10.293-6.894-.004 0-.008 0-.012 0-4.534.005-8.573 2.72-10.29 6.917-.03.075-.061.151-.089.227l-18.388 48.281c-1.97 5.171.625 10.96 5.796 12.93 1.174.447 2.379.659 3.565.659 4.037 0 7.842-2.459 9.365-6.456l10.016-26.294 9.911 26.265c1.954 5.177 7.736 7.791 12.912 5.837 5.178-1.954 7.791-7.735 5.838-12.912z"/><path d="m453.909 4.278c-5.533 0-10.02 4.486-10.02 10.02v17.642l-16.051-23.244c-2.491-3.608-7.04-5.178-11.226-3.872-4.187 1.305-7.038 5.181-7.038 9.566v48.88c0 5.534 4.486 10.02 10.02 10.02s10.02-4.486 10.02-10.02v-16.739l14.789 21.415c2.747 3.969 7.573 5.705 12.012 4.318 4.495-1.404 7.516-5.682 7.516-10.646v-47.32c-.002-5.534-4.489-10.02-10.022-10.02z"/><path d="m80.823 23.429c5.533 0 10.02-4.486 10.02-10.02s-4.486-10.02-10.02-10.02h-20.446c-5.533 0-10.02 4.486-10.02 10.02v48.524c0 5.534 4.486 10.02 10.02 10.02h20.446c5.533 0 10.02-4.486 10.02-10.02s-4.486-10.02-10.02-10.02h-10.427v-4.223h8.919c5.533 0 10.02-4.486 10.02-10.02s-4.486-10.02-10.02-10.02h-8.919v-4.223h10.427z"/><path d="m128.124 28.656c-4.775-1.761-9.291-3.652-11.738-4.703.184-.134.466-.282.876-.405 4.427-1.338 10.304 1.796 12.031 3.008 4.465 3.212 10.697 2.221 13.943-2.233 3.26-4.472 2.279-10.739-2.193-14-1.477-1.076-14.851-10.394-29.562-5.963-8.229 2.479-14.06 9.025-15.216 17.085-1.099 7.656 2.224 15.023 8.673 19.227.442.289.907.542 1.389.757.288.129 7.147 3.182 14.861 6.027 2.629.969 3.675 2.01 3.912 2.405-.193.581-1.619 2.275-4.697 2.275-5.609 0-8.797-3.038-9.642-3.969-3.716-4.1-10.051-4.41-14.153-.695-4.1 3.716-4.411 10.053-.695 14.153 6.076 6.705 15.003 10.55 24.489 10.55 12.211 0 22.492-7.937 24.444-18.872 2.288-12.795-7.578-21.274-16.722-24.647z"/><path d="m287.826 5.842c-5.533 0-10.02 4.486-10.02 10.02v33.662c0 1.05 0 2.637-3.718 4.51-1.042.525-2.204.78-3.554.78-.004 0-.01 0-.014 0-1.417-.002-2.574-.321-3.647-1.006-3.057-1.953-3.057-3.068-3.057-4.248v-33.698c0-5.534-4.486-10.02-10.02-10.02s-10.02 4.486-10.02 10.02v33.698c0 8.807 4.141 15.918 12.307 21.135 4.307 2.752 9.156 4.151 14.408 4.158h.042c4.49 0 8.719-.983 12.567-2.922 9.508-4.788 14.744-12.745 14.744-22.407v-33.662c.001-5.534-4.485-10.02-10.018-10.02z"/><path d="m183.858 24.318c5.533 0 10.02-4.486 10.02-10.02s-4.486-10.02-10.02-10.02h-27.045c-5.533 0-10.02 4.486-10.02 10.02s4.486 10.02 10.02 10.02h3.448v38.952c0 5.534 4.486 10.02 10.02 10.02s10.02-4.486 10.02-10.02v-38.952z"/><path d="m501.98 4.278h-27.045c-5.533 0-10.02 4.486-10.02 10.02s4.486 10.02 10.02 10.02h3.448v38.952c0 5.534 4.486 10.02 10.02 10.02s10.02-4.486 10.02-10.02v-38.952h3.558c5.533 0 10.02-4.486 10.02-10.02s-4.487-10.02-10.021-10.02z"/><path d="m46.516 25.912c0-12.543-10.527-22.747-23.467-22.747h-13.014c-5.533 0-10.02 4.486-10.02 10.02l-.015 48.965c-.004 5.534 4.479 10.023 10.013 10.026h.007c5.53 0 10.016-4.481 10.02-10.013l.002-2.792 9.187 9.682c1.97 2.076 4.617 3.123 7.27 3.123 2.476 0 4.957-.912 6.895-2.751 4.014-3.809 4.18-10.151.371-14.165l-9.073-9.561c7.056-3.937 11.824-11.329 11.824-19.787zm-26.461-2.707h2.994c1.794 0 3.428 1.291 3.428 2.707 0 1.278-1.497 2.764-3.428 2.764h-2.994z"/><path d="m347.121 25.912c0-12.543-10.527-22.747-23.467-22.747h-13.014c-2.658 0-5.206 1.056-7.085 2.935s-2.934 4.428-2.934 7.085l-.016 48.963c-.004 5.534 4.478 10.023 10.013 10.027h.007c5.53 0 10.016-4.481 10.02-10.012l.002-2.792 9.187 9.681c1.97 2.076 4.617 3.123 7.27 3.123 2.476 0 4.957-.912 6.895-2.751 4.014-3.809 4.18-10.151.371-14.165l-9.073-9.561c7.057-3.936 11.824-11.328 11.824-19.786zm-23.466-2.707c1.794 0 3.428 1.291 3.428 2.707 0 1.278-1.497 2.764-3.428 2.764h-2.993l-.001-5.471z"/></g><circle cx="169.48" cy="397.48" r="10.02"/><circle cx="342.449" cy="401.11" r="10.02"/></g></svg>