<svg id="Capa_1" enable-background="new 0 0 512 512" height="512" viewBox="0 0 512 512" width="512" xmlns="http://www.w3.org/2000/svg"><g><path d="m491.961 87.659h-73.866c-5.533 0-10.02 4.486-10.02 10.02s4.486 10.02 10.02 10.02h73.866v218.093c0 2.744-1.088 5.305-3.063 7.211-1.974 1.904-4.574 2.905-7.332 2.802-5.318-.189-9.645-4.896-9.645-10.494v-39.366c0-5.966-3.532-11.371-8.999-13.771-5.446-2.392-11.795-1.338-16.169 2.685-5.108 4.699-11.993 7.187-18.88 6.851-6.432-.321-12.496-3.023-17.076-7.607-4.324-4.327-10.764-5.615-16.408-3.277-5.629 2.33-9.267 7.777-9.267 13.876v92.036c0 2.744-1.087 5.304-3.062 7.21s-4.565 2.911-7.33 2.805c-5.32-.191-9.648-4.9-9.648-10.497v-133.835c0-6.33-3.833-11.857-9.763-14.08-5.916-2.217-12.418-.576-16.565 4.18-5.643 6.47-13.684 10.356-22.06 10.662-9.247.332-18.086-3.553-24.321-10.671-4.179-4.771-10.706-6.415-16.635-4.187-5.905 2.22-9.72 7.737-9.72 14.054v88.319c0 2.679-1.04 5.191-2.937 7.083-1.927 1.927-4.459 2.962-7.214 2.936-5.452-.069-9.887-4.796-9.887-10.537v-42.993c0-5.855-3.286-11.057-8.573-13.576-5.271-2.512-11.359-1.789-15.888 1.885-7.114 5.771-15.726 8.821-24.904 8.821-12.695 0-24.709-6.159-32.138-16.476-3.8-5.28-10.523-7.481-16.732-5.48-6.249 2.016-10.446 7.771-10.446 14.322v69.304c0 2.673-1.043 5.188-2.937 7.082-1.893 1.894-4.409 2.937-7.082 2.937-5.524 0-10.02-4.49-10.02-10.01v-81.571c0-5.587-3.068-10.676-8.006-13.282-4.949-2.611-10.897-2.27-15.524.895-6.09 4.166-13.233 6.367-20.657 6.367-4.39 0-8.682-.766-12.754-2.275-4.605-1.707-9.761-1.052-13.795 1.752-4.035 2.808-6.445 7.42-6.445 12.337v124.062c0 2.679-1.039 5.191-2.937 7.083-1.927 1.927-4.457 2.969-7.214 2.936-5.452-.069-9.887-4.796-9.887-10.537v-286.06h308.222c5.533 0 10.02-4.486 10.02-10.02s-4.486-10.02-10.02-10.02h-308.224c-11.05.001-20.039 8.99-20.039 20.04v286.062c0 16.653 13.312 30.368 29.674 30.574.131.002.26.002.391.002 8.026 0 15.559-3.118 21.235-8.796 5.686-5.669 8.817-13.221 8.817-21.263v-117.323c4.226.988 8.561 1.487 12.955 1.487 8.436 0 16.644-1.843 24.148-5.382v72.934c0 16.569 13.484 30.049 30.059 30.049 8.025 0 15.573-3.128 21.252-8.806 5.679-5.679 8.806-13.227 8.806-21.252v-56.414c10.769 9.412 24.725 14.782 39.277 14.782 10.3 0 20.43-2.698 29.327-7.718v33.541c0 16.653 13.312 30.368 29.674 30.574 8.169.105 15.857-3.023 21.627-8.794 5.685-5.67 8.816-13.221 8.816-21.262v-77.012c9.081 6.54 20.032 9.93 31.369 9.522 9.932-.363 19.552-3.732 27.616-9.509v122.559c0 16.532 12.724 29.939 28.975 30.523 8.249.302 16.04-2.699 21.961-8.415 5.921-5.717 9.182-13.397 9.182-21.627v-81.729c6.518 3.998 13.962 6.328 21.712 6.715 8.733.439 17.448-1.694 25.009-5.977v29.565c0 16.537 12.726 29.943 28.972 30.52 8.255.295 16.038-2.694 21.96-8.409 5.924-5.717 9.186-13.399 9.186-21.631v-218.095c0-11.049-8.989-20.039-20.039-20.039z"/><circle cx="373.179" cy="97.678" r="10.02"/></g></svg>