<svg id="Capa_1" enable-background="new 0 0 512 512" height="512" viewBox="0 0 512 512" width="512" xmlns="http://www.w3.org/2000/svg"><g><path d="m412.185 245.98h-23.175v-88.134c0-55.038-44.777-99.815-99.815-99.815h-66.389c-55.038 0-99.815 44.777-99.815 99.815v88.134h-23.176c-55.038 0-99.815 44.777-99.815 99.815v88.134c0 11.049 8.99 20.039 20.039 20.039h314.012c5.534 0 10.02-4.486 10.02-10.02s-4.486-10.02-10.02-10.02h-68.031v-81.381h35.87v14.949c0 16.574 13.484 30.059 30.059 30.059 16.574 0 30.059-13.484 30.059-30.059v-14.949h28.305v22.484c0 16.574 13.484 30.059 30.059 30.059 16.574 0 30.059-13.484 30.059-30.059v-22.484h41.531v81.381h-68.037c-5.534 0-10.02 4.486-10.02 10.02s4.486 10.02 10.02 10.02h68.037c11.049 0 20.039-8.99 20.039-20.039v-88.134c-.001-55.038-44.778-99.815-99.816-99.815zm-189.38-167.91h66.389c39.792 0 72.867 29.285 78.818 67.434h-34.912c-11.049 0-20.039 8.99-20.039 20.039v9.939c0 5.525-4.495 10.02-10.02 10.02s-10.02-4.495-10.02-10.02v-9.939c0-11.049-8.99-20.039-20.039-20.039h-28.305c-11.049 0-20.039 8.99-20.039 20.039v27.494c0 5.525-4.495 10.02-10.02 10.02s-10.02-4.495-10.02-10.02v-27.494c0-11.049-8.99-20.039-20.039-20.039h-40.573c5.952-38.148 39.028-67.434 78.819-67.434zm-79.776 87.473h41.531v27.494c0 16.574 13.484 30.059 30.059 30.059s30.059-13.484 30.059-30.059v-27.494h28.305v9.939c0 16.574 13.484 30.059 30.059 30.059 16.574 0 30.059-13.484 30.059-30.059v-9.939h35.87v80.437h-23.175-179.592-23.175zm142.844 100.476c-12.608 9.494-22.902 21.902-29.873 36.216-6.972-14.313-17.265-26.721-29.873-36.216zm-186.058 0h66.389c39.461 0 72.302 28.806 78.649 66.49h-61.745c-11.049 0-20.039 8.99-20.039 20.039v9.939c0 5.525-4.495 10.02-10.02 10.02s-10.02-4.495-10.02-10.02v-3.928c0-5.534-4.486-10.02-10.02-10.02s-10.02 4.486-10.02 10.02v21.482c0 5.525-4.495 10.02-10.02 10.02s-10.02-4.495-10.02-10.02v-27.494c0-11.049-8.99-20.039-20.039-20.039h-61.744c6.347-37.683 39.188-66.489 78.649-66.489zm-79.776 86.53h62.873v27.494c0 16.574 13.484 30.059 30.059 30.059 13.032 0 24.148-8.338 28.307-19.957 3.617 1.545 7.595 2.403 11.771 2.403 16.574 0 30.059-13.484 30.059-30.059v-9.939h62.873v81.381h-225.942zm410.351 0v22.484c0 5.525-4.495 10.02-10.02 10.02s-10.02-4.495-10.02-10.02v-22.484c0-11.049-8.99-20.039-20.039-20.039h-28.305c-11.049 0-20.039 8.99-20.039 20.039v14.949c0 5.525-4.495 10.02-10.02 10.02s-10.02-4.495-10.02-10.02v-14.949c0-11.049-8.99-20.039-20.039-20.039h-34.743c6.347-37.684 39.188-66.49 78.649-66.49h66.389c39.461 0 72.302 28.806 78.649 66.49h-40.402c-11.05 0-20.04 8.989-20.04 20.039z"/><circle cx="378.99" cy="443.949" r="10.02"/></g></svg>