<svg id="Capa_1" enable-background="new 0 0 512 512" height="512" viewBox="0 0 512 512" width="512" xmlns="http://www.w3.org/2000/svg"><g><path d="m102.741 225.727v21.865c0 10.073 7.479 18.411 17.172 19.81l37.128 228.512c1.515 9.321 9.804 16.087 19.711 16.087h143.463c9.907 0 18.196-6.765 19.711-16.086l37.128-228.513c9.692-1.398 17.172-9.736 17.172-19.81v-21.865c0-11.049-8.989-20.039-20.039-20.039h-251.407c-11.049 0-20.039 8.989-20.039 20.039zm37.511 41.904h63.314c5.534 0 10.02-4.486 10.02-10.02s-4.486-10.02-10.02-10.02h-80.786v-21.865h251.406v21.864h-80.787c-5.534 0-10.02 4.486-10.02 10.02s4.486 10.02 10.02 10.02h63.315l-36.448 224.33c-.017 0-.034.001-.051.001h-143.464c-.018 0-.035 0-.051-.001z"/><path d="m296.818 310.447c5.534 0 10.02 4.486 10.02 10.02v117.516c0 5.534-4.486 10.02-10.02 10.02s-10.02-4.486-10.02-10.02v-117.516c0-5.534 4.486-10.02 10.02-10.02z"/><path d="m248.483 310.447c5.534 0 10.02 4.486 10.02 10.02v117.516c0 5.534-4.486 10.02-10.02 10.02s-10.02-4.486-10.02-10.02v-117.516c.001-5.534 4.486-10.02 10.02-10.02z"/><path d="m200.149 310.447c5.534 0 10.02 4.486 10.02 10.02v117.516c0 5.534-4.486 10.02-10.02 10.02s-10.02-4.486-10.02-10.02v-117.516c0-5.534 4.486-10.02 10.02-10.02z"/><path d="m77.774 135.329c3.525 4.781 8.358 8.37 13.809 10.424.353 5.817 2.354 11.496 5.877 16.274 4.843 6.569 11.956 10.859 20.027 12.077 1.546.233 3.092.349 4.627.349 6.476 0 12.759-2.054 18.067-5.968 9.38-6.916 13.809-18.416 12.022-29.476l29.881-22.032c5.026 1.361 10.331 2.053 15.769 2.053 14.54 0 30.012-4.896 43.533-14.866 29.448-21.713 38.649-59.39 20.511-83.989-9.033-12.25-23.227-19.393-39.969-20.115-15.927-.69-32.385 4.598-46.331 14.881s-23.859 24.439-27.912 39.861c-1.159 4.41-1.79 8.777-1.939 13.049l-29.807 21.979c-10.035-4.97-22.327-4.137-31.706 2.778-13.559 9.998-16.456 29.163-6.459 42.721zm93.441-48.292c-5.363-7.274-6.837-16.913-4.148-27.141 2.894-11.012 10.148-21.25 20.424-28.826 10.146-7.529 22.452-11.493 33.575-10.989 10.566.455 19.338 4.712 24.701 11.987 11.58 15.705 4.279 40.813-16.274 55.968-20.555 15.154-46.698 14.706-58.278-.999zm-75.09 21.699c4.038-2.977 9.642-2.68 13.324.704 3.531 3.245 8.868 3.534 12.727.688l27.624-20.368c1.409 3.219 3.163 6.292 5.286 9.17 2.133 2.893 4.565 5.459 7.219 7.733l-27.651 20.388c-3.861 2.847-5.162 8.03-3.104 12.363 2.148 4.522.776 9.966-3.262 12.943-2.259 1.666-5.034 2.352-7.81 1.933-2.777-.419-5.224-1.895-6.89-4.155-2.006-2.721-2.567-6.155-1.537-9.422.963-3.055.407-6.386-1.496-8.963-1.903-2.576-4.883-4.07-8.125-4.068-.024 0-.048 0-.071 0-3.386 0-6.465-1.545-8.457-4.246-3.44-4.664-2.442-11.259 2.223-14.7z"/><circle cx="248.483" cy="257.614" r="10.02"/><path d="m278.073 142.97c4.751 14.6 14.905 26.476 28.588 33.439 8.197 4.171 17.073 6.281 26.011 6.282 5.984 0 11.995-.945 17.85-2.851 14.6-4.751 26.476-14.905 33.439-28.588 6.573-12.915 7.766-27.17 4.443-40.218 1.667.206 3.351.326 5.047.358.289.005.581.008.87.008 16.024.001 31.526-8.146 42.657-22.453 4.132-5.311 4.276-13.128.342-18.588-10.788-14.971-26.34-23.73-42.671-24.031-3.768-.068-7.487.307-11.122 1.09l1.847-3.63c2.505-4.922.545-10.943-4.376-13.448-4.923-2.505-10.943-.545-13.448 4.376l-18.061 35.49c-26.166-7.989-55.158 3.695-67.985 28.902-6.964 13.685-8.183 29.262-3.431 43.862zm91.059-64.569c7.131-7.911 16.074-12.266 25.149-12.076 9.151.168 17.815 4.753 24.694 12.993-7.178 7.982-16.021 12.257-25.155 12.077-9.116-.168-17.853-4.827-24.688-12.994zm-69.804 29.779c4.541-8.923 12.285-15.543 21.805-18.642 3.817-1.242 7.738-1.859 11.639-1.859 5.829 0 11.615 1.375 16.96 4.095 18.419 9.374 25.779 31.986 16.405 50.405-4.541 8.923-12.285 15.543-21.805 18.642-9.521 3.099-19.677 2.305-28.6-2.237-8.923-4.541-15.543-12.285-18.642-21.805-3.097-9.519-2.303-19.676 2.238-28.599z"/></g></svg>