<svg id="Capa_1" enable-background="new 0 0 512 512" height="512" viewBox="0 0 512 512" width="512" xmlns="http://www.w3.org/2000/svg"><g><path d="m502.888 389.532v-227.603c0-11.684-9.506-21.19-21.19-21.19h-25.913c-7.017-32.521-29.271-57.077-56.962-64.077 3.248-2.494 6.31-5.27 9.118-8.349 12.859-14.099 19.29-32.359 18.106-51.415-.478-7.717-6.794-13.616-14.47-13.616-.149 0-.299.002-.45.007-18.541.551-35.662 8.211-48.417 21.577-1.476-3.693-5.08-6.306-9.3-6.306-5.533 0-10.02 4.486-10.02 10.02v51.302c-8.362-3.455-17.23-5.255-26.192-5.255-27.615 0-52.126 16.569-65.672 42.101-10.633-20.379-28.138-35.036-48.59-40.124 3.095-2.403 6.014-5.07 8.7-8.015 12.704-13.929 19.056-31.966 17.886-50.79-.487-7.831-7.025-13.79-14.855-13.549-18.148.542-34.917 7.974-47.478 20.952-1.388-3.868-5.077-6.64-9.423-6.64-5.534 0-10.02 4.486-10.02 10.02v51.302c-8.361-3.455-17.23-5.255-26.192-5.255-35.538 0-65.944 27.427-74.432 66.109h-27.083c-11.049-.002-20.039 8.987-20.039 20.037v286.678c0 11.049 8.99 20.039 20.039 20.039l339.249-.004c14.107 24.607 40.619 41.232 70.959 41.232 45.079 0 81.753-36.674 81.753-81.753 0-13.487-3.303-26.21-9.112-37.435zm-21.189-228.754c.634 0 1.151.517 1.151 1.151v202.522c-7.541-6.356-16.242-11.367-25.738-14.681v-188.992zm-415.878-.003h371.246v82.2h-371.246zm310.575-121.236c7.888-8.649 18.275-14.121 29.69-15.74-.566 11.515-5.062 22.36-12.95 31.009-7.854 8.611-18.344 14.105-29.682 15.732.581-11.438 5.089-22.391 12.942-31.001zm-59.197 55.127c9.584 0 19.081 2.932 27.466 8.481 3.38 2.236 7.774 2.218 11.132-.049 8.178-5.516 17.434-8.432 26.769-8.432 24.166 0 45.147 18.876 52.603 46.069h-171.762c7.619-27.194 29.071-46.069 53.792-46.069zm-136.66-54.442c7.715-8.458 17.861-13.826 29.012-15.448-.591 11.254-5.005 21.849-12.72 30.308-7.68 8.421-17.927 13.808-29.004 15.439.607-11.18 5.032-21.878 12.712-30.299zm-58.983 54.442c9.584 0 19.081 2.932 27.465 8.481 3.379 2.236 7.772 2.217 11.132-.049 8.179-5.516 17.435-8.432 26.77-8.432 24.166 0 45.147 18.876 52.602 46.069h-171.761c7.619-27.194 29.072-46.069 53.792-46.069zm-101.517 66.109h25.743v286.678h-25.743zm45.782 286.673v-82.196h68.517c5.534 0 10.02-4.486 10.02-10.02s-4.486-10.02-10.02-10.02h-68.517v-82.2h371.246v82.2h-212.203c-5.534 0-10.02 4.486-10.02 10.02s4.486 10.02 10.02 10.02h151.855c-17.272 15.001-28.225 37.095-28.225 61.714 0 7.071.904 13.934 2.6 20.482zm364.426 41.232c-34.028 0-61.713-27.685-61.713-61.714s27.685-61.714 61.713-61.714c34.029 0 61.714 27.685 61.714 61.714s-27.685 61.714-61.714 61.714z"/><path d="m464.992 390.376c-3.914-3.913-10.256-3.913-14.17 0l-20.575 20.575-20.575-20.575c-3.914-3.913-10.256-3.913-14.17 0-3.913 3.913-3.913 10.257 0 14.17l20.575 20.575-20.575 20.575c-3.913 3.913-3.913 10.257 0 14.17 1.957 1.956 4.521 2.934 7.085 2.934 2.565 0 5.128-.978 7.085-2.934l20.575-20.575 20.575 20.575c1.957 1.956 4.521 2.934 7.085 2.934s5.128-.978 7.085-2.934c3.913-3.913 3.913-10.257 0-14.17l-20.575-20.575 20.575-20.575c3.913-3.912 3.913-10.257 0-14.17z"/><circle cx="179.721" cy="355.231" r="10.02"/></g></svg>