<svg id="Capa_1" enable-background="new 0 0 512 512" height="512" viewBox="0 0 512 512" width="512" xmlns="http://www.w3.org/2000/svg"><g><path d="m497.01 217.662c3.147-3.546 5.041-8.214 5.041-13.323v-113.351c0-11.049-8.989-20.039-20.039-20.039h-70.146c-.585-1.126-1.173-2.266-1.775-3.438-6.523-12.7-13.267-25.832-26.062-33.238-12.604-7.295-27.245-6.604-41.404-5.938-9.324.44-18.133.855-25.337-1.072-6.747-1.801-13.919-6.437-21.514-11.345-11.542-7.462-24.626-15.918-39.774-15.918s-28.232 8.456-39.775 15.917c-7.595 4.908-14.767 9.544-21.519 11.346-7.199 1.926-16.007 1.51-25.332 1.071-14.158-.665-28.799-1.357-41.399 5.935-12.796 7.398-19.541 20.533-26.064 33.235-.603 1.174-1.192 2.317-1.778 3.445h-70.145c-11.05 0-20.039 8.99-20.039 20.039v113.351c0 5.107 1.892 9.772 5.044 13.318-7.216 11.19-14.993 23.813-14.993 38.343 0 15.147 8.456 28.231 15.917 39.775 4.908 7.594 9.544 14.767 11.346 21.519 1.926 7.199 1.51 16.006 1.07 25.332-.666 14.159-1.356 28.8 5.936 41.4 7.402 12.802 20.536 19.544 33.238 26.063 8.207 4.212 15.96 8.192 21.087 13.321 5.125 5.123 9.105 12.874 13.318 21.081 6.519 12.699 13.259 25.829 26.058 33.237 12.606 7.296 27.247 6.606 41.404 5.938 9.325-.439 18.133-.855 25.337 1.072 6.747 1.801 13.919 6.437 21.514 11.345 11.543 7.461 24.627 15.917 39.775 15.917s28.232-8.456 39.775-15.917c7.595-4.908 14.767-9.544 21.519-11.346 7.199-1.926 16.006-1.511 25.332-1.071 14.159.666 28.799 1.356 41.4-5.936 12.802-7.403 19.544-20.537 26.064-33.239 4.212-8.207 8.192-15.959 13.321-21.086 5.123-5.126 12.875-9.106 21.082-13.318 12.698-6.519 25.829-13.259 33.236-26.058 7.294-12.604 6.605-27.245 5.938-41.404-.439-9.325-.855-18.133 1.072-25.337 1.8-6.747 6.436-13.92 11.344-21.514 7.461-11.543 15.917-24.627 15.917-39.774 0-14.528-7.774-27.149-14.99-38.338zm-359-166.047c7.506-4.344 18.634-3.819 30.422-3.265 10.444.491 21.245 1.001 31.448-1.728 9.8-2.616 18.658-8.34 27.222-13.876 10.112-6.535 19.662-12.708 28.898-12.708s18.787 6.173 28.898 12.708c8.565 5.536 17.422 11.259 27.217 13.875 10.21 2.73 21.012 2.221 31.453 1.729 11.785-.554 22.916-1.08 30.422 3.264 6.292 3.642 10.872 10.99 15.305 19.334h-266.591c4.433-8.346 9.013-15.695 15.306-19.333zm341.243 233.283c-5.536 8.565-11.26 17.422-13.875 27.218-2.731 10.208-2.222 21.008-1.73 31.453.556 11.785 1.08 22.916-3.265 30.423-4.456 7.7-14.456 12.833-25.043 18.269-9.222 4.734-18.758 9.629-26.101 16.976-7.35 7.346-12.245 16.883-16.978 26.105-5.435 10.589-10.569 20.591-18.271 25.044-7.505 4.344-18.635 3.819-30.422 3.265-10.445-.493-21.246-1.001-31.448 1.728-9.8 2.616-18.658 8.34-27.222 13.876-10.112 6.535-19.662 12.708-28.898 12.708s-18.787-6.173-28.898-12.708c-8.565-5.536-17.422-11.26-27.217-13.875-10.208-2.73-21.009-2.221-31.453-1.729-11.788.554-22.917 1.079-30.422-3.265-7.701-4.457-12.835-14.457-18.27-25.045-4.734-9.222-9.629-18.757-16.976-26.099-7.346-7.351-16.883-12.246-26.106-16.979-10.588-5.435-20.59-10.569-25.042-18.27-4.345-7.507-3.821-18.638-3.265-30.423.492-10.445 1.001-21.245-1.728-31.448-2.616-9.8-8.341-18.658-13.877-27.223-6.535-10.113-12.707-19.664-12.707-28.899 0-9.234 6.169-18.78 12.701-28.886.581-.899 1.171-1.818 1.76-2.736h176.583c5.533 0 10.02-4.486 10.02-10.02s-4.486-10.02-10.02-10.02h-181.054-.04v-113.35h76.035.003 299.816c.01 0 .02.002.03.002s.021-.002.031-.002h76.108l.092 113.342-.092.009h-181.089c-5.533 0-10.02 4.486-10.02 10.02s4.486 10.02 10.02 10.02h176.578c.589.918 1.179 1.837 1.76 2.736 6.531 10.106 12.701 19.652 12.701 28.886-.001 9.234-6.173 18.785-12.709 28.897z"/><path d="m375.227 193.246c5.533 0 10.02-4.486 10.02-10.02v-26.762h29.179v26.762c0 5.534 4.486 10.02 10.02 10.02 5.533 0 10.02-4.486 10.02-10.02v-71.123c0-5.534-4.486-10.02-10.02-10.02-5.533 0-10.02 4.486-10.02 10.02v24.322h-29.179v-24.322c0-5.534-4.486-10.02-10.02-10.02-5.533 0-10.02 4.486-10.02 10.02v71.123c0 5.534 4.487 10.02 10.02 10.02z"/><path d="m116.17 122.384c5.533 0 10.02-4.486 10.02-10.02s-4.486-10.02-10.02-10.02h-28.615c-5.533 0-10.02 4.486-10.02 10.02v70.602c0 5.534 4.486 10.02 10.02 10.02 5.533 0 10.02-4.486 10.02-10.02v-25.95h16.323c5.533 0 10.02-4.486 10.02-10.02s-4.486-10.02-10.02-10.02h-16.324v-14.593h18.596z"/><path d="m256 192.921c5.533 0 10.02-4.486 10.02-10.02s-4.486-10.02-10.02-10.02h-19.675v-15.198h17.485c5.533 0 10.02-4.486 10.02-10.02s-4.486-10.02-10.02-10.02h-17.485v-15.198h19.675c5.533 0 10.02-4.486 10.02-10.02s-4.486-10.02-10.02-10.02h-29.695c-5.533 0-10.02 4.486-10.02 10.02v70.474c0 5.534 4.486 10.02 10.02 10.02h29.695z"/><path d="m313.919 193.246c15.536 0 28.59-9.956 31.039-23.673 1.851-10.366-2.797-23.888-21.396-30.749-8.544-3.151-16.512-6.579-19.156-7.735-1.324-1.142-1.345-2.651-1.224-3.498.15-1.041.923-3.59 4.865-4.777 9.419-2.837 18.256 4.098 18.535 4.319 4.235 3.506 10.513 2.945 14.058-1.272 3.561-4.236 3.013-10.556-1.223-14.117-.691-.581-17.142-14.142-37.15-8.118-10.244 3.086-17.493 11.178-18.921 21.117-1.342 9.354 2.713 18.353 10.584 23.485.443.289.908.542 1.39.757.413.184 10.241 4.559 21.306 8.64 2.225.821 9.421 3.854 8.604 8.425-.53 2.972-4.39 7.156-11.312 7.156-6.755 0-13.246-2.711-17.36-7.252-3.717-4.1-10.053-4.412-14.153-.696-4.101 3.716-4.412 10.052-.697 14.153 7.969 8.793 19.709 13.835 32.211 13.835z"/><path d="m199.098 130.588c0-15.717-13.256-28.503-29.55-28.503h-18.899c-5.533 0-10.02 4.486-10.02 10.02l-.023 71.116c-.004 5.534 4.479 10.023 10.013 10.026h.007c5.53 0 10.016-4.481 10.02-10.013l.011-15.404 21.155 22.294c1.97 2.076 4.617 3.123 7.27 3.123 2.476 0 4.957-.912 6.895-2.751 4.014-3.809 4.18-10.151.371-14.165l-17.625-18.574c11.814-3.744 20.375-14.505 20.375-27.169zm-29.55 8.546h-8.88v-17.011h8.88c5.156 0 9.511 3.876 9.511 8.464 0 4.553-4.445 8.547-9.511 8.547z"/><path d="m335.662 251.803c-33.616 11.026-61.446 33.074-79.662 62.796-18.225-29.729-46.056-51.777-79.658-62.793-10.323-3.394-21.752 2.159-25.47 12.376-13.792 37.892-11.688 78.716 5.922 114.951 19.075 39.266 54.32 67.903 96.695 78.569 1.124.194 2.355.565 5.02.002 42.37-10.668 77.613-39.304 96.695-78.568 17.613-36.246 19.717-77.072 5.924-114.959-3.781-10.381-14.965-15.819-25.466-12.374zm-160.843 118.572c-15.218-31.313-17.035-66.592-5.116-99.34.049-.134.255-.236.391-.19 33.099 10.852 59.717 34.081 74.942 65.392.001.003.003.006.004.009-5.882 14.398-9.403 29.474-10.545 44.696l-17.911-36.858c-2.418-4.977-8.414-7.05-13.391-4.633-4.977 2.419-7.051 8.414-4.632 13.391l37.739 77.659c-26.658-12.206-48.444-33.289-61.481-60.126zm162.361.003c-13.041 26.834-34.826 47.916-61.48 60.124l37.739-77.659c2.419-4.977.344-10.972-4.632-13.391-4.975-2.417-10.973-.346-13.391 4.633l-37.739 77.659c-6.872-28.501-3.757-58.656 9.283-85.489 15.22-31.32 41.838-54.55 74.948-65.41.023-.007.047-.011.072-.011.127 0 .276.088.317.201 11.921 32.74 10.104 68.022-5.117 99.343z"/><circle cx="256" cy="214.359" r="10.02"/></g></svg>