<svg id="Capa_1" enable-background="new 0 0 512 512" height="512" viewBox="0 0 512 512" width="512" xmlns="http://www.w3.org/2000/svg"><g><path d="m420.722 464.637c5.533 0 10.02-4.486 10.02-10.02v-69.551c0-5.534-4.486-10.02-10.02-10.02-5.533 0-10.02 4.486-10.02 10.02v23.563h-28.091v-23.563c0-5.534-4.486-10.02-10.02-10.02-5.533 0-10.02 4.486-10.02 10.02v69.551c0 5.534 4.486 10.02 10.02 10.02 5.533 0 10.02-4.486 10.02-10.02v-25.948h28.091v25.948c0 5.534 4.486 10.02 10.02 10.02z"/><path d="m119.261 395.341c5.533 0 10.02-4.486 10.02-10.02s-4.486-10.02-10.02-10.02h-27.983c-5.533 0-10.02 4.486-10.02 10.02v69.041c0 5.534 4.486 10.02 10.02 10.02 5.533 0 10.02-4.486 10.02-10.02v-25.154h15.74c5.533 0 10.02-4.486 10.02-10.02s-4.486-10.02-10.02-10.02h-15.74v-13.827z"/><path d="m256 395.404c5.533 0 10.02-4.486 10.02-10.02s-4.486-10.02-10.02-10.02h-29.038c-5.533 0-10.02 4.486-10.02 10.02v68.916c0 5.534 4.486 10.02 10.02 10.02h29.038c5.533 0 10.02-4.486 10.02-10.02s-4.486-10.02-10.02-10.02h-19.018v-14.418h16.877c5.533 0 10.02-4.486 10.02-10.02s-4.486-10.02-10.02-10.02h-16.877v-14.418z"/><path d="m343.21 441.305c1.826-10.226-2.75-23.56-21.065-30.316-8.315-3.067-16.073-6.402-18.689-7.545-1.191-1.048-1.208-2.424-1.098-3.2.141-.976.869-3.367 4.602-4.491 9.092-2.74 17.655 3.973 17.921 4.185 4.233 3.503 10.511 2.942 14.056-1.274 3.561-4.236 3.013-10.557-1.223-14.117-.679-.57-16.857-13.909-36.535-7.981-10.101 3.043-17.25 11.025-18.658 20.832-1.325 9.233 2.679 18.116 10.449 23.181.442.289.907.542 1.389.757.404.181 10.021 4.461 20.848 8.455 2.135.787 9.04 3.69 8.273 7.991-.585 3.278-4.898 6.815-10.845 6.815-6.544 0-12.829-2.624-16.812-7.019-3.717-4.1-10.053-4.412-14.153-.696-4.101 3.716-4.412 10.053-.697 14.153 7.834 8.644 19.374 13.601 31.662 13.601 15.304.001 28.161-9.812 30.575-23.331z"/><path d="m200.577 403.142c0-15.492-13.062-28.095-29.117-28.095h-18.482c-5.533 0-10.02 4.486-10.02 10.02l-.022 69.544c-.004 5.534 4.48 10.023 10.013 10.027h.007c5.531 0 10.016-4.482 10.02-10.013l.01-14.507 20.304 21.397c1.97 2.076 4.618 3.123 7.27 3.123 2.476 0 4.957-.912 6.896-2.752 4.014-3.809 4.18-10.151.371-14.165l-16.994-17.909c11.468-3.785 19.744-14.307 19.744-26.67zm-37.579-8.056h8.462c4.921 0 9.078 3.689 9.078 8.056 0 4.334-4.242 8.135-9.078 8.135h-8.462z"/><path d="m138.011 349.934c5.533 0 10.02-4.486 10.02-10.02v-66.823c0-5.534-4.486-10.02-10.02-10.02h-14.283c-5.533 0-10.02 4.486-10.02 10.02s4.486 10.02 10.02 10.02h4.263v56.803c0 5.534 4.486 10.02 10.02 10.02z"/><path d="m223.884 321.954v-30.903c0-16.18-13.164-29.343-29.343-29.343s-29.343 13.163-29.343 29.343v30.903c0 16.18 13.164 29.343 29.343 29.343s29.343-13.163 29.343-29.343zm-20.039 0c0 5.13-4.173 9.304-9.304 9.304-5.13 0-9.304-4.174-9.304-9.304v-30.903c0-5.13 4.173-9.304 9.304-9.304 5.13 0 9.304 4.174 9.304 9.304z"/><path d="m298.021 321.954v-30.903c0-16.18-13.164-29.343-29.343-29.343-16.18 0-29.343 13.163-29.343 29.343v30.903c0 16.18 13.164 29.343 29.343 29.343 16.179.001 29.343-13.163 29.343-29.343zm-20.04 0c0 5.13-4.173 9.304-9.304 9.304s-9.304-4.174-9.304-9.304v-30.903c0-5.13 4.173-9.304 9.304-9.304s9.304 4.174 9.304 9.304z"/><path d="m378.559 263.079c-5.105-2.141-10.976.259-13.117 5.362l-28.941 68.96c-2.142 5.102.259 10.975 5.361 13.116 1.267.532 2.581.783 3.874.783 3.915 0 7.633-2.309 9.243-6.145l28.941-68.96c2.142-5.102-.259-10.975-5.361-13.116z"/><path d="m471.099 217.368h-165.488c27.413-16.723 49.771-41.063 64.149-70.65 20.264-41.698 22.685-88.666 6.815-132.253-4.021-11.047-16.384-17.055-27.551-13.389-39.534 12.966-72.105 39.189-93.022 74.543-20.929-35.362-53.502-61.584-93.019-74.54-11.175-3.671-23.535 2.336-27.557 13.389-15.867 43.592-13.449 90.558 6.811 132.246 14.376 29.59 36.734 53.931 64.15 70.654h-165.486c-11.05 0-20.04 8.99-20.04 20.04v254.552c0 11.05 8.99 20.04 20.04 20.04h170.177c5.533 0 10.02-4.486 10.02-10.02s-4.486-10.02-10.02-10.02h-170.177v-254.552h430.199v254.552h-170.18c-5.533 0-10.02 4.486-10.02 10.02s4.486 10.02 10.02 10.02h170.18c11.05 0 20.04-8.99 20.04-20.04v-254.552c-.001-11.049-8.99-20.04-20.041-20.04zm-203.824-120.454c17.87-36.773 49.12-64.047 87.994-76.797.192-.063.389-.093.586-.093.812 0 1.603.51 1.89 1.296 13.996 38.443 11.861 79.865-6.009 116.638-15.968 32.859-43.097 58.373-76.237 72.38l45.757-94.158c2.419-4.977.344-10.972-4.632-13.391-4.976-2.416-10.973-.346-13.392 4.633l-45.756 94.156c-9.466-34.711-6.168-71.806 9.799-104.664zm-107.013 41.042c-17.868-36.764-20.001-78.186-6.005-116.634.354-.975 1.48-1.531 2.476-1.202 38.861 12.741 70.113 40.014 87.988 76.774.111.231.212.443.318.663-7.736 18.708-11.991 38.428-12.749 58.267l-23.521-48.401c-2.418-4.978-8.413-7.052-13.392-4.633-4.977 2.419-7.051 8.414-4.632 13.391l45.755 94.155c-33.142-14.007-60.274-39.521-76.238-72.38z"/><circle cx="336.57" cy="272.321" r="10.02"/><circle cx="383.995" cy="341.278" r="10.02"/><circle cx="256.001" cy="501.98" r="10.02"/></g></svg>