<svg id="Capa_1" enable-background="new 0 0 512 512" height="512" viewBox="0 0 512 512" width="512" xmlns="http://www.w3.org/2000/svg"><g><path d="m512 256c0-17.432-12.213-32.056-28.529-35.791l-64.864-107.356c-3.35-6.847-10.336-11.231-18-11.231h-289.214c-7.664 0-14.65 4.385-18 11.231l-64.864 107.356c-16.316 3.735-28.529 18.359-28.529 35.791s12.213 32.056 28.529 35.791l64.864 107.356c3.35 6.847 10.336 11.231 18 11.231h289.214c7.664 0 14.65-4.385 18-11.231l64.864-107.356c16.316-3.735 28.529-18.359 28.529-35.791zm-111.392-134.339c.17.382.363.752.579 1.11l58.307 96.504h-130.496l23.225-97.615zm-197.007 97.614-9.229-38.788h123.256l-9.229 38.788zm118.795-58.826h-132.792l-9.229-38.788h151.25zm-211.583-37.678c.216-.358.41-.729.58-1.111h48.384l23.226 97.615h-130.497zm364.463 149.914h-174.359c-5.534 0-10.02 4.486-10.02 10.02s4.486 10.02 10.02 10.02h158.577l-58.307 96.504c-.216.358-.41.729-.58 1.111h-289.215c-.17-.382-.363-.752-.579-1.11l-58.307-96.504h158.572c5.534 0 10.02-4.486 10.02-10.02s-4.486-10.02-10.02-10.02h-174.354c-9.2 0-16.685-7.485-16.685-16.685s7.485-16.685 16.685-16.685h438.552c9.2 0 16.685 7.485 16.685 16.685s-7.485 16.684-16.685 16.684z"/><circle cx="256" cy="282.705" r="10.02"/></g></svg>