<svg id="Capa_1" enable-background="new 0 0 512 512" height="512" viewBox="0 0 512 512" width="512" xmlns="http://www.w3.org/2000/svg"><g><path d="m448.539 434.293c-5.534 0-10.02 4.486-10.02 10.02l-.015 47.649-365.029-.015.015-347.422 365.029.015v209.77c0 5.534 4.486 10.02 10.02 10.02s10.02-4.486 10.02-10.02v-209.77c0-11.058-8.996-20.054-20.054-20.054h-70.015v-72.205c-.138-2.076-.416-4.332-2.754-6.9l-40.137-42.262c-1.892-1.991-4.519-3.119-7.266-3.119h-124.671c-2.747 0-5.373 1.128-7.265 3.119l-40.137 42.262c-1.209 1.373-2.763 3.655-2.754 6.9v72.204h-70.015c-11.058 0-20.054 8.996-20.054 20.054v347.408c0 11.058 8.996 20.054 20.054 20.054h365.014c11.058 0 20.054-8.996 20.054-20.054v-47.634c0-5.535-4.486-10.02-10.02-10.02zm-142.349-371.993v62.184h-100.384v-62.184zm20.039 62.185v-62.185h22.222v62.184h-22.222zm-128.264-104.446h116.067l21.105 22.222h-158.278zm-34.42 42.261h22.222v62.184h-22.222z"/><path d="m212.33 458.803c16.591 0 30.088-13.498 30.088-30.089v-151.62c12.991-9.371 21.47-24.624 21.47-41.829v-30.945c0-5.534-4.486-10.02-10.02-10.02s-10.02 4.486-10.02 10.02v30.945c0 13.877-9.019 25.68-21.5 29.877v-60.822c0-5.534-4.486-10.02-10.02-10.02s-10.02 4.486-10.02 10.02v60.822c-12.481-4.197-21.5-16-21.5-29.877v-30.945c0-5.534-4.486-10.02-10.02-10.02s-10.02 4.486-10.02 10.02v30.945c0 17.205 8.48 32.458 21.47 41.829v151.62c.004 16.592 13.501 30.089 30.092 30.089zm10.049-30.088c0 5.541-4.508 10.049-10.049 10.049s-10.049-4.508-10.049-10.049v-142.881c3.252.645 6.611.991 10.049.991s6.797-.345 10.049-.99z"/><path d="m284.033 225.836v204.852c0 16.574 13.484 30.059 30.059 30.059h.059c16.574 0 30.059-13.484 30.059-30.059v-244.93c0-5.534-4.545-10.02-10.079-10.02-27.624 0-50.098 22.474-50.098 50.098zm20.039 0c0-13.085 8.404-24.244 20.098-28.363v123.396h-20.098zm20.099 204.852c0 5.525-4.495 10.02-10.02 10.02h-.059c-5.525 0-10.02-4.495-10.02-10.02v-89.779h20.098v89.779z"/><circle cx="448.544" cy="399.292" r="10.02"/></g></svg>