<svg id="Capa_1" enable-background="new 0 0 512 512" height="512" viewBox="0 0 512 512" width="512" xmlns="http://www.w3.org/2000/svg"><g><path d="m44.881 160.225c-.104-.203-.222-.392-.338-.584l14.248-9.742c4.567-3.123 5.739-9.359 2.615-13.927-3.124-4.567-9.358-5.738-13.927-2.615l-43.114 29.48c-4.568 3.123-5.739 9.359-2.616 13.927 1.941 2.838 5.083 4.365 8.28 4.365 1.948 0 3.917-.567 5.647-1.75l12.235-8.366c10.14 19.428 22.75 37.53 37.515 53.82 1.977 2.182 4.697 3.291 7.427 3.291 2.4 0 4.808-.857 6.726-2.596 4.1-3.716 4.411-10.053.695-14.153-14.004-15.449-25.912-32.659-35.393-51.15z"/><path d="m507.635 162.837-43.116-29.481c-4.568-3.122-10.803-1.952-13.927 2.616-3.123 4.568-1.952 10.803 2.615 13.926l14.249 9.743c-.115.192-.234.382-.338.584-19.608 38.241-49.273 70.496-85.789 93.28-37.527 23.415-80.865 35.791-125.329 35.791-37.854 0-74.023-8.651-107.503-25.712-4.931-2.514-10.965-.553-13.476 4.378-2.513 4.931-.552 10.964 4.378 13.476 36.325 18.511 75.555 27.897 116.601 27.897 20.079 0 39.946-2.337 59.238-6.889l31.974 51.001c10.566 16.872 28.78 26.945 48.721 26.945 10.771 0 21.302-3.035 30.452-8.775 26.828-16.824 34.972-52.342 18.156-79.177l-25.795-41.156c26.911-22.015 49.18-49.302 65.342-80.272l12.235 8.366c1.73 1.182 3.699 1.75 5.647 1.75 3.197 0 6.34-1.527 8.28-4.365 3.124-4.568 1.953-10.803-2.615-13.926zm-80.074 140.245c10.95 17.475 5.647 40.604-11.824 51.56-5.957 3.737-12.805 5.712-19.804 5.712-12.994 0-24.858-6.558-31.74-17.546l-28.825-45.978c8.557-2.772 16.968-5.997 25.2-9.661l18.209 29.045c1.902 3.034 5.163 4.699 8.499 4.699 1.818 0 3.658-.495 5.312-1.532 4.689-2.939 6.107-9.123 3.167-13.812l-17.126-27.317c4.502-2.446 8.943-5.023 13.307-7.746 3.651-2.278 7.238-4.645 10.76-7.095z"/><circle cx="106.042" cy="248.499" r="10.02"/></g></svg>