<svg id="Capa_1" enable-background="new 0 0 512 512" height="512" viewBox="0 0 512 512" width="512" xmlns="http://www.w3.org/2000/svg"><g><path d="m508.328 140.877c-9.214-13.267-10.57-25.865-12.14-40.452-2.041-18.973-4.356-40.478-26.289-62.429-22.145-22.161-42.715-23.303-60.864-24.31-13.522-.751-25.2-1.399-37.917-10.141-5.38-3.697-12.235-4.561-18.338-2.311-6.059 2.233-10.676 7.294-12.351 13.536l-19.65 73.218c-11.22-4.314-22.92-7.517-34.981-9.532-36.29-6.061-73.004-1.052-106.18 14.485-5.012 2.347-7.171 8.312-4.824 13.324 2.347 5.011 8.31 7.171 13.323 4.825 29.48-13.806 62.116-18.257 94.379-12.868 32.957 5.505 62.91 20.947 86.622 44.659 62.375 62.375 62.375 163.867 0 226.243-30.216 30.216-70.39 46.857-113.121 46.857-42.732 0-82.906-16.64-113.121-46.857-54.616-54.615-62.485-140.326-18.711-203.8 3.141-4.555 1.995-10.795-2.561-13.937-4.554-3.141-10.794-1.996-13.937 2.56-34.627 50.211-40.545 112.781-19.665 166.87l-73.138 19.566c-6.266 1.677-11.339 6.311-13.569 12.399-2.243 6.124-1.355 12.987 2.375 18.357 9.214 13.264 10.57 25.861 12.14 40.446 2.041 18.972 4.355 40.475 26.286 62.424 22.144 22.16 42.712 23.301 60.859 24.309 13.521.751 25.197 1.398 37.912 10.139 3.403 2.339 7.397 3.545 11.417 3.544 2.335 0 4.679-.406 6.921-1.233 6.059-2.233 10.675-7.293 12.351-13.536l19.639-73.177c20.4 7.858 42.286 11.966 64.803 11.966 48.084 0 93.291-18.725 127.292-52.726 51.839-51.839 65.381-127.685 40.647-192.078l73.198-19.582c6.266-1.677 11.339-6.311 13.569-12.399 2.243-6.126 1.355-12.989-2.376-18.359zm-356.103 351.07c-.002-.002-.003-.004-.005-.006-17.345-11.924-33.713-12.832-48.154-13.634-16.67-.925-31.067-1.724-47.793-18.464-16.938-16.951-18.606-32.453-20.538-50.403-1.626-15.112-3.469-32.238-15.588-49.728l76.237-20.395c3.156 6.038 6.675 11.927 10.55 17.636l-38.547 18.911c-4.969 2.437-7.02 8.441-4.582 13.408 1.741 3.549 5.301 5.609 9.003 5.609 1.481 0 2.985-.33 4.405-1.027l42.136-20.672c2.973 3.461 6.086 6.838 9.358 10.109 3.268 3.268 6.642 6.392 10.11 9.375l-20.705 42.119c-2.441 4.966-.394 10.971 4.572 13.412 1.423.699 2.93 1.03 4.413 1.03 3.7 0 7.258-2.058 9-5.602l18.943-38.535c5.697 3.875 11.591 7.404 17.657 10.577zm263.371-319.245c-3.146-6.037-6.665-11.928-10.542-17.648l38.556-18.915c4.968-2.437 7.02-8.441 4.582-13.409-2.437-4.968-8.441-7.02-13.408-4.583l-42.128 20.667c-2.969-3.458-6.091-6.829-9.366-10.105-3.266-3.266-6.639-6.391-10.11-9.375l20.705-42.119c2.441-4.966.394-10.971-4.572-13.412-4.971-2.443-10.972-.394-13.413 4.572l-18.944 38.536c-5.694-3.869-11.592-7.396-17.67-10.57l20.476-76.289c.001.001.002.003.004.005 17.347 11.926 33.716 12.834 48.159 13.635 16.672.925 31.07 1.725 47.798 18.466 16.94 16.954 18.609 32.457 20.541 50.409 1.626 15.114 3.47 32.242 15.59 49.732z"/><path d="m179.188 332.811c20.517 20.516 47.795 31.815 76.81 31.815s56.292-11.299 76.809-31.815c20.516-20.516 31.815-47.795 31.815-76.809s-11.299-56.292-31.815-76.809c-42.352-42.352-111.265-42.352-153.618 0-42.353 42.353-42.352 111.266-.001 153.618zm139.448-14.171c-16.731 16.732-38.977 25.946-62.638 25.946-23.662 0-45.908-9.215-62.639-25.946-14.311-14.311-22.673-32.341-25.125-51.008h175.572c-2.51 19.253-11.212 37.052-25.17 51.008zm-125.277-125.277c17.27-17.27 39.954-25.904 62.639-25.904s45.369 8.634 62.638 25.904c14.734 14.733 23.629 33.743 25.546 54.23h-176.329c1.872-19.805 10.373-39.097 25.506-54.23z"/><circle cx="146.011" cy="126.413" r="10.02"/></g></svg>