<svg id="Capa_1" enable-background="new 0 0 512.009 512.009" height="512" viewBox="0 0 512.009 512.009" width="512" xmlns="http://www.w3.org/2000/svg"><g><path d="m506.837 257.971c-3.984-5.256-9.671-8.674-16.018-9.744 4.056-11.827 6.115-24.201 6.115-36.923 0-62.887-51.167-114.05-114.06-114.05-16.814 0-33.504 3.752-48.601 10.866-21.892-18.463-49.483-28.576-78.27-28.576-28.788 0-56.38 10.114-78.269 28.576-15.097-7.114-31.786-10.866-48.601-10.866-18.066 0-36.058 4.333-52.026 12.53-3.686 1.892-5.139 6.412-3.247 10.097 1.891 3.686 6.413 5.138 10.097 3.248 14.058-7.216 29.257-10.875 45.177-10.875 12.672 0 25.256 2.453 36.923 7.131-20.176 22.238-31.572 51.434-31.572 81.679 0 16.09 3.219 32.051 9.359 46.8h-106.801c-4.623-11.608-6.968-23.883-6.968-36.56 0-25.661 9.773-49.993 27.521-68.514 2.866-2.991 2.765-7.738-.227-10.604-2.989-2.865-7.737-2.765-10.604.226-20.436 21.327-31.69 49.345-31.69 78.892 0 12.722 2.059 25.096 6.115 36.923-6.346 1.07-12.034 4.488-16.018 9.744-4.837 6.38-6.374 14.446-4.22 22.128 11.985 42.748 44.028 81.559 90.228 109.284 46.293 27.782 104.829 43.082 164.824 43.082 65.529 0 128.126-17.884 176.257-50.358 3.434-2.317 4.34-6.979 2.022-10.412-2.316-3.434-6.979-4.339-10.411-2.022-45.68 30.82-105.297 47.793-167.868 47.793-116.444 0-217.636-59.474-240.608-141.416-.877-3.124-.246-6.41 1.729-9.016 2.009-2.649 5.062-4.168 8.379-4.168h6.558c.009 0 .018.002.027.002.012 0 .025-.002.037-.002h447.756c.012 0 .025.002.037.002.009 0 .018-.002.027-.002h6.558c3.316 0 6.37 1.52 8.379 4.168 1.976 2.606 2.606 5.892 1.729 9.017-7.309 26.069-23.17 51.071-45.868 72.303-3.025 2.83-3.184 7.576-.354 10.601 1.477 1.579 3.476 2.376 5.479 2.376 1.835 0 3.675-.67 5.121-2.022 24.703-23.107 42.016-50.497 50.065-79.208 2.156-7.685.619-15.75-4.218-22.13zm-24.903-46.667c0 12.677-2.345 24.952-6.969 36.56h-106.8c6.14-14.749 9.359-30.71 9.359-46.8 0-30.247-11.397-59.443-31.571-81.68 11.667-4.677 24.25-7.13 36.922-7.13 54.622.001 99.059 44.434 99.059 99.05zm-297.955-88.707c19.69-18.09 45.27-28.053 72.025-28.053s52.335 9.963 72.028 28.056c21.92 20.114 34.491 48.713 34.491 78.464 0 16.238-3.734 32.321-10.813 46.8h-191.412c-7.079-14.479-10.813-30.562-10.813-46.8 0-29.751 12.571-58.35 34.494-78.467z"/><path d="m192.63 200.881c4.143 0 7.5-3.358 7.5-7.5v-12.178c0-4.142-3.357-7.5-7.5-7.5s-7.5 3.358-7.5 7.5v12.178c0 4.142 3.357 7.5 7.5 7.5z"/><path d="m319.38 200.881c4.143 0 7.5-3.358 7.5-7.5v-12.178c0-4.142-3.357-7.5-7.5-7.5s-7.5 3.358-7.5 7.5v12.178c0 4.142 3.357 7.5 7.5 7.5z"/><path d="m256.005 208.131c8.571 0 16.722-3.712 22.362-10.184 2.722-3.123 2.396-7.86-.727-10.582-3.125-2.721-7.862-2.396-10.582.727-2.791 3.203-6.819 5.04-11.054 5.04-4.234 0-8.263-1.837-11.054-5.04-2.723-3.122-7.46-3.447-10.582-.727-3.122 2.722-3.448 7.459-.727 10.582 5.642 6.472 13.792 10.184 22.364 10.184z"/></g></svg>