<svg id="Capa_1" enable-background="new 0 0 512.01 512.01" height="512" viewBox="0 0 512.01 512.01" width="512" xmlns="http://www.w3.org/2000/svg"><g><path d="m411.328 47.786c-12.361-6.538-43.942-19.527-71.395.231-9.775 7.119-14.438 18.77-18.948 30.038-2.965 7.409-6.031 15.07-10.507 21.591-3.42 4.949-8.553 9.791-13.988 14.918-9.036 8.524-19.278 18.186-23.977 31.051-4.258 11.646-3.773 23.969-3.345 34.841.136 3.46.26 6.827.245 10.064-.251-.666-.506-1.332-.742-1.999-2.721-7.632-3.698-16.41-4.732-25.704-1.436-12.906-2.921-26.252-9.128-39.228-6.817-14.231-18.396-24.707-29.594-34.838-6.67-6.035-12.97-11.734-17.554-17.671-5.989-7.793-10.564-16.763-14.989-25.437-6.755-13.242-13.136-25.75-24.038-33.607-31.729-22.664-62.785-7.743-74.724-.226-12.059 7.319-39.278 28.425-33.178 66.984 2.152 13.227 10.486 24.515 19.309 36.466 5.787 7.839 11.771 15.945 16.061 24.782 2.699 5.586 4.763 12.286 6.59 18.693 1.136 3.984 5.287 6.292 9.27 5.156s6.292-5.286 5.155-9.269c-2.012-7.055-4.314-14.495-7.515-21.119-4.9-10.094-11.302-18.766-17.493-27.152-7.715-10.45-15.001-20.321-16.566-29.934-4.515-28.542 14.476-44.713 26.198-51.813.039-.023.078-.047.116-.072 11.595-7.313 34.558-17.077 58.033-.309 7.934 5.718 13.514 16.656 19.421 28.236 4.733 9.278 9.628 18.873 16.468 27.773 5.412 7.009 12.509 13.431 19.374 19.641 10.121 9.157 20.587 18.626 26.127 30.192 5.11 10.681 6.452 22.744 7.75 34.41 1.083 9.737 2.204 19.806 5.504 29.064 2.679 7.572 6.178 14.875 9.699 21.732-1.37 3.613-2.871 7.201-4.339 10.694-2.099 4.997-4.123 9.822-5.71 14.568-44.147-89.953-105.646-164.109-106.28-164.87-2.654-3.181-7.383-3.607-10.562-.955-3.181 2.653-3.608 7.383-.956 10.563.62.744 60.554 73.049 103.83 160.857-12.916 2.643-25.921 6.662-38.301 11.839-5.254-7.273-10.778-14.593-17.182-21.245-6.823-7.102-15.327-12.604-23.551-17.925-9.856-6.377-20.048-12.971-27.318-22.315-2.241-2.88-4.229-6.119-6.079-9.901-1.819-3.721-6.311-5.261-10.032-3.442s-5.262 6.311-3.442 10.032c2.308 4.721 4.832 8.817 7.715 12.522 8.83 11.349 20.105 18.643 31.009 25.698 7.851 5.08 15.266 9.877 20.887 15.729 5.074 5.27 9.695 11.226 14.116 17.267-5.928 3.016-11.652 6.291-17.083 9.795-25.105 16.161-37.622 37.219-36.197 60.891.432 7.272 2.23 14.746 5.347 22.217 9.306 22.269 30.564 42.667 47.646 59.057 6.388 6.129 12.421 11.918 16.98 16.98.027.03.054.06.081.089 3.539 3.805 6.937 9.859 9.503 14.711 1.716 3.242 3.432 6.676 5.249 10.312 11.925 23.867 26.766 53.57 56.42 53.57 29.756 0 44.567-29.851 56.468-53.837 4.996-10.069 9.715-19.581 14.5-24.806 4.532-4.962 10.459-10.618 16.733-16.605 17.286-16.494 38.798-37.021 48.179-59.471 8.343-19.966 7.081-39.563-3.651-56.673-2.202-3.509-6.831-4.57-10.339-2.368-3.509 2.201-4.569 6.83-2.368 10.339 6.883 10.973 8.533 22.988 4.98 35.795h-36.466c-4.142 0-7.5 3.358-7.5 7.5s3.358 7.5 7.5 7.5h30.08c-9.633 16.809-26.688 33.089-40.769 46.526-3.599 3.435-7.078 6.758-10.304 9.955-.52-.114-1.058-.178-1.612-.178h-29.888c-4.142 0-7.5 3.358-7.5 7.5s3.358 7.5 7.5 7.5h18.728c-3.889 6.007-7.493 13.269-11.239 20.819-10.583 21.329-22.577 45.503-43.031 45.503-20.258 0-32.253-23.763-42.81-44.89h25.343c4.142 0 7.5-3.358 7.5-7.5s-3.358-7.5-7.5-7.5h-33.115c-3.499-6.245-6.458-10.523-9.564-13.873-4.918-5.456-11.128-11.415-17.702-17.722-16.079-15.427-36.089-34.627-44.19-54.012-1.317-3.158-2.325-6.291-3.039-9.379h50.847c4.142 0 7.5-3.358 7.5-7.5s-3.358-7.5-7.5-7.5h-51.858c2.006-18.894 16.554-32.212 29.184-40.342 28.443-18.309 62.986-29.412 96.904-29.412 23.998 0 47.982 5.702 69.961 15.177 9.333 4.023 18.224 8.754 26.424 14.061 3.435 2.224 8.147 1.216 10.371-2.222 2.25-3.478 1.256-8.121-2.222-10.371-6.477-4.191-13.345-8.043-20.496-11.51 2.164-3.085 4.478-6.12 7.01-8.923 4.362-4.856 10.677-8.928 17.364-13.239 9.142-5.894 19.504-12.575 26.589-22.744 7.83-11.234 9.854-25.162 11.64-37.45 1.076-7.399 2.091-14.389 4.174-20.015 2.772-7.425 7.279-14.331 11.638-21.009 6.636-10.169 13.499-20.684 13.705-32.824.41-33.768-28.363-52.16-40.817-58.523zm14.553 83.15c-4.582 7.021-9.774 14.977-13.136 23.981-2.639 7.13-3.818 15.241-4.958 23.084-1.623 11.163-3.3 22.706-9.103 31.031-5.394 7.742-13.66 13.071-22.411 18.713-7.222 4.656-14.69 9.471-20.38 15.807-3.706 4.102-6.925 8.48-9.847 12.813-13.225-5.234-27.061-9.118-40.708-11.434 32.252-86.157 84.178-141.468 84.713-142.031 2.855-3.001 2.738-7.748-.263-10.604s-7.748-2.738-10.604.263c-2.311 2.428-55.916 59.427-89.13 150.435-.434-.036-.885-.081-1.31-.112-4.251-.333-8.543-.503-12.757-.503-2.183 0-4.385.059-6.591.148 1.264-3.438 2.771-7.04 4.33-10.751 3.575-8.51 7.152-17.11 9.199-26.14 1.919-8.313 1.57-17.188 1.232-25.771-.392-9.949-.797-20.236 2.445-29.104 3.483-9.536 11.971-17.544 20.181-25.288 13.147-12.403 21.431-25.112 28.128-41.847 4.061-10.146 7.568-18.91 13.818-23.461 19.894-14.319 43.392-5.582 55.627.9.034.018.068.036.103.053 12.335 6.293 32.984 20.51 32.69 44.971-.132 7.784-5.292 15.691-11.268 24.847z"/><path d="m213.551 358.786v10.556c0 4.142 3.358 7.5 7.5 7.5s7.5-3.358 7.5-7.5v-10.556c0-4.142-3.358-7.5-7.5-7.5s-7.5 3.358-7.5 7.5z"/><path d="m323.419 358.786v10.556c0 4.142 3.358 7.5 7.5 7.5s7.5-3.358 7.5-7.5v-10.556c0-4.142-3.358-7.5-7.5-7.5s-7.5 3.358-7.5 7.5z"/><path d="m284.814 364.1c-2.23 2.559-5.448 4.026-8.83 4.026s-6.599-1.467-8.829-4.025c-2.721-3.124-7.459-3.448-10.582-.727s-3.448 7.459-.727 10.582c5.079 5.828 12.418 9.171 20.137 9.171 7.718 0 15.058-3.342 20.137-9.17 2.722-3.123 2.396-7.86-.726-10.582-3.121-2.723-7.858-2.398-10.58.725z"/></g></svg>