<svg id="Capa_1" enable-background="new 0 0 512 512" height="512" viewBox="0 0 512 512" width="512" xmlns="http://www.w3.org/2000/svg"><g><path d="m456.032 208.04c0-40.085-22.491-76.847-57.777-95.246.47-3.335.708-6.71.708-10.089 0-39.55-32.176-71.726-71.727-71.726-5.222 0-10.406.563-15.472 1.679-17.965-20.817-43.712-32.658-71.393-32.658-12.707 0-25.041 2.485-36.658 7.387-3.816 1.61-5.605 6.009-3.995 9.826 1.61 3.816 6.008 5.606 9.826 3.995 9.762-4.12 20.134-6.208 30.827-6.208 24.68 0 47.535 11.195 62.704 30.713 1.894 2.438 5.089 3.467 8.049 2.59 5.214-1.542 10.635-2.324 16.112-2.324 31.279 0 56.727 25.447 56.727 56.726 0 4.273-.478 8.536-1.421 12.669-.792 3.475.97 7.027 4.216 8.499 32.97 14.944 54.274 47.981 54.274 84.167 0 50.927-41.432 92.359-92.358 92.359-15.206 0-30.282-3.776-43.598-10.921-3.143-1.687-7.043-.925-9.32 1.823-1.707 2.06-3.515 4.01-5.413 5.847-.041.039-.084.076-.123.116-13.339 12.851-31.101 20.089-49.847 20.089-24.035 0-46.382-11.942-59.78-31.944-1.269-1.895-3.332-3.109-5.604-3.3-2.275-.192-4.509.663-6.076 2.32-6.751 7.138-14.983 12.274-24.041 15.132-.307.069-.607.155-.898.261-5.205 1.547-10.668 2.362-16.278 2.362-31.279 0-56.727-25.447-56.727-56.727 0-21.688 12.076-41.164 31.517-50.827 3.304-1.643 4.923-5.444 3.817-8.964-1.879-5.983-2.833-12.226-2.833-18.555 0-30.262 21.618-55.896 51.402-60.953 3.746-.636 6.425-3.973 6.235-7.768-.067-1.342-.101-2.697-.101-4.025 0-21.25 8.29-41.214 23.342-56.216 2.934-2.924 2.942-7.672.018-10.606s-7.672-2.943-10.606-.018c-17.508 17.449-27.321 40.544-27.739 65.194-33.709 8.653-57.551 38.972-57.551 74.392 0 5.775.641 11.496 1.908 17.077-21.373 12.977-34.409 35.927-34.409 61.269 0 39.55 32.176 71.727 71.727 71.727 4.085 0 8.108-.343 12.045-1.002 3.528 30.831 19.032 69.988 43.882 89.385 1.817 1.417 2.859 3.508 2.859 5.738v56.299c0 24.48 19.912 44.396 44.387 44.396h45.597c24.475 0 44.387-19.916 44.387-44.396v-5.843c0-4.142-3.358-7.5-7.5-7.5s-7.5 3.358-7.5 7.5v5.843c0 16.209-13.183 29.396-29.387 29.396h-45.597c-16.204 0-29.387-13.187-29.387-29.396v-56.299c0-6.886-3.148-13.29-8.633-17.565-21.49-16.775-35.859-53.416-38.459-81.659 6.826-2.732 13.216-6.518 18.973-11.298 8.675 10.509 19.588 18.716 31.797 24.127 4.293 22.778 24.026 39.718 47.654 40.126.281.005.56.007.84.007 12.813 0 24.954-5.012 34.266-14.166 9.61-9.448 15.122-22.551 15.122-35.95v-9.28c.091-.095.184-.187.275-.282 14.125 6.58 29.685 10.035 45.358 10.035 1.085 0 2.165-.021 3.243-.053-3.116 27.516-16.349 61.936-37.428 78.391-5.489 4.278-8.637 10.682-8.637 17.568v18.165c0 4.142 3.358 7.5 7.5 7.5s7.5-3.358 7.5-7.5v-18.165c0-2.23 1.042-4.321 2.863-5.741 25.446-19.863 40.618-59.911 43.437-91.761 50.421-8.785 88.879-52.866 88.879-105.764zm-202.963 141.998c-13.372-.231-24.946-8.07-30.415-19.51 5.767 1.198 11.697 1.825 17.717 1.825 17.11 0 33.542-4.99 47.505-14.119-.793 8.226-4.508 16.083-10.473 21.947-6.625 6.51-15.285 10.022-24.334 9.857z"/><path d="m182.905 186.05v12c0 4.142 3.358 7.5 7.5 7.5s7.5-3.358 7.5-7.5v-12c0-4.142-3.358-7.5-7.5-7.5s-7.5 3.358-7.5 7.5z"/><path d="m256 213.355c8.796 0 17.16-3.809 22.948-10.451 2.721-3.123 2.396-7.86-.727-10.582-3.123-2.721-7.86-2.396-10.582.727-2.938 3.372-7.181 5.306-11.64 5.306s-8.701-1.934-11.64-5.306c-2.721-3.123-7.459-3.447-10.582-.727-3.123 2.722-3.448 7.459-.727 10.582 5.79 6.642 14.154 10.451 22.95 10.451z"/><path d="m317.506 197.715c0-3.532 2.874-6.406 6.406-6.406s6.406 2.874 6.406 6.406c0 4.142 3.358 7.5 7.5 7.5s7.5-3.358 7.5-7.5c0-11.803-9.603-21.406-21.406-21.406s-21.406 9.603-21.406 21.406c0 4.142 3.358 7.5 7.5 7.5s7.5-3.358 7.5-7.5z"/></g></svg>