<svg id="Capa_1" enable-background="new 0 0 511.981 511.981" height="512" viewBox="0 0 511.981 511.981" width="512" xmlns="http://www.w3.org/2000/svg"><g><path d="m371.445 373.118c-3.82-1.608-8.216.181-9.825 3.998-5.539 13.138-12.138 25.789-19.707 37.859h-47.928c-4.143 0-7.5 3.358-7.5 7.5s3.357 7.5 7.5 7.5h37.808c-17.418 24.024-38.898 45.338-63.71 63.034-7.459 5.322-16.729 5.321-24.188 0-14.36-10.243-27.796-21.887-39.934-34.61-2.86-2.996-7.606-3.107-10.604-.25-2.997 2.859-3.108 7.607-.25 10.604 12.79 13.406 26.947 25.676 42.077 36.467 6.32 4.508 13.562 6.761 20.805 6.761 7.241 0 14.486-2.254 20.805-6.761 44.059-31.424 78.17-73.707 98.647-122.277 1.611-3.818-.179-8.216-3.996-9.825z"/><path d="m364.729 154.06c.51-.28 1.018-.561 1.517-.841.063-.036.128-.073.191-.111 33.686-20.262 48.528-50.279 36.948-74.711-3.907-8.502-10.503-17.621-18.567-25.675-8.069-8.081-17.189-14.677-25.688-18.579-13.612-6.444-29.157-4.819-43.963 4.276-4.151-16.522-13.925-28.401-27.88-33.386-8.753-3.246-19.864-5.033-31.297-5.033-11.431 0-22.542 1.787-31.293 5.032-13.958 4.982-23.733 16.862-27.883 33.387-14.807-9.095-30.351-10.72-43.962-4.277-8.497 3.901-17.618 10.497-25.681 18.571-8.073 8.061-14.668 17.181-18.578 25.686-11.575 24.432 3.268 54.448 36.951 74.708.062.038.125.074.188.11.477.268.963.537 1.438.798 6.963 3.947 14.273 7.069 21.835 9.38-20.033 21.301-34.867 47.887-43.346 77.961-10.546 37.404-10.251 76.678.853 113.577.379 1.259.769 2.518 1.152 3.726 9.06 29.21 23.267 56.98 42.226 82.54 1.472 1.984 3.736 3.032 6.03 3.032 1.553 0 3.12-.48 4.462-1.477 3.327-2.468 4.023-7.166 1.556-10.492-8.157-10.997-15.373-22.424-21.634-34.208h18.146c4.142 0 7.5-3.358 7.5-7.5s-3.358-7.5-7.5-7.5h-25.504c-4.256-9.436-7.926-19.073-10.97-28.888-.376-1.184-.743-2.368-1.1-3.554-11.653-38.723-9.844-80.401 3.22-117.132h40.6c4.142 0 7.5-3.358 7.5-7.5s-3.358-7.5-7.5-7.5h-34.51c10.321-22.502 25.116-42.533 43.807-58.031 37.082-30.746 86.912-30.746 123.994 0 9.208 7.635 17.464 16.32 24.712 25.821h-30.747c-4.143 0-7.5 3.358-7.5 7.5s3.357 7.5 7.5 7.5h40.949c24.977 41.333 33.022 94.118 19.791 143.738-1.067 4.002 1.312 8.112 5.314 9.179 4.001 1.067 8.112-1.312 9.18-5.314 17.727-66.48-.013-138.343-44.223-185.462 7.559-2.307 14.851-5.431 21.766-9.351zm-180.31-5.158c-.913.757-1.816 1.524-2.712 2.299-9.497-1.973-18.612-5.402-27.138-10.235-.026-.015-.118-.066-.145-.081-.417-.229-.833-.459-1.242-.688-26.67-16.077-39.134-38.333-31.019-55.407.015-.031.029-.062.043-.093 3.181-6.936 8.708-14.525 15.57-21.377 6.853-6.862 14.441-12.389 21.367-15.562.032-.014.063-.029.094-.044 13.677-6.495 27.19.975 35.372 7.457-.242 9.133.897 18.813 3.41 28.882.107.413.224.821.341 1.23l.14.495c4.38 15.842 12.169 30.277 22.757 42.358-13.115 4.44-25.539 11.398-36.838 20.766zm71.571-26.504c-6.091 0-12.113.525-18.041 1.525-11.882-11.398-20.502-25.909-24.994-42.158l-.174-.613c-.083-.289-.166-.576-.224-.799-2.473-9.909-3.413-19.333-2.796-28.013.709-9.992 4.251-27.591 20.011-33.194.034-.012.068-.024.102-.037 7.128-2.65 16.403-4.11 26.116-4.11s18.988 1.459 26.117 4.11l.1.037c15.76 5.606 19.303 23.204 20.012 33.196.616 8.65-.316 18.042-2.771 27.916l-.426 1.523c-4.492 16.245-13.111 30.755-24.989 42.143-5.928-1-11.952-1.526-18.043-1.526zm34.735 5.739c10.583-12.072 18.369-26.5 22.74-42.309l.46-1.646c.019-.065.036-.13.052-.196 2.499-10.011 3.637-19.684 3.394-28.815 8.183-6.481 21.697-13.951 35.371-7.457.031.015.062.03.095.044 6.927 3.173 14.515 8.699 21.373 15.568 6.856 6.846 12.383 14.435 15.562 21.369.015.032.029.063.044.094 8.116 17.073-4.346 39.329-31.017 55.406-.432.242-.875.486-1.389.77-8.527 4.834-17.643 8.263-27.139 10.236-.896-.775-1.799-1.543-2.711-2.3-11.296-9.366-23.72-16.324-36.835-20.764z"/><path d="m200.028 309.519c4.142 0 7.5-3.358 7.5-7.5v-10.753c0-4.142-3.358-7.5-7.5-7.5s-7.5 3.358-7.5 7.5v10.753c0 4.142 3.358 7.5 7.5 7.5z"/><path d="m319.452 302.019v-10.753c0-4.142-3.357-7.5-7.5-7.5s-7.5 3.358-7.5 7.5v10.753c0 4.142 3.357 7.5 7.5 7.5s7.5-3.358 7.5-7.5z"/><path d="m255.99 315.92c7.823 0 15.262-3.388 20.408-9.294 2.722-3.123 2.396-7.86-.727-10.582-3.125-2.721-7.861-2.396-10.582.727-2.298 2.636-5.614 4.148-9.1 4.148s-6.802-1.512-9.1-4.149c-2.722-3.123-7.459-3.448-10.582-.726-3.123 2.721-3.448 7.459-.726 10.582 5.149 5.907 12.587 9.294 20.409 9.294z"/></g></svg>