<svg id="Capa_1" enable-background="new 0 0 512 512" height="512" viewBox="0 0 512 512" width="512" xmlns="http://www.w3.org/2000/svg"><g><path d="m478.451 151.25c-.309-.377-.653-.723-1.027-1.032 8.151-13.41 9.047-30.852 2.187-48.004-6.355-15.888-21.123-26.75-41.582-30.586-.251-.047-.504-.081-.759-.103-11.737-.976-22.963 1.349-32.289 6.606-14.815-14.245-37.897-13.991-55.836-4.978-2.32-6.738-5.816-12.9-10.361-18.165-8.616-9.979-20.008-15.706-32.263-16.272-6.236-22.483-27.028-38.716-50.874-38.716-12.793 0-25.135 4.637-34.751 13.058-7.811 6.84-13.396 15.778-16.125 25.651-12.146.557-23.627 6.281-32.26 16.278-4.476 5.182-7.935 11.237-10.253 17.842-11.589-6.135-24.481-7.987-37.24-5.15-.063.014-.127.029-.19.045-7.618 1.904-13.454 6.418-18.572 10.757-13.395-8.36-30.621-9.754-46.394-3.445-.046.018-.092.037-.137.056-14.972 6.335-26.445 19.908-30.689 36.308-3.505 13.542-1.68 27.311 4.966 38.71-10.436 12.264-13.988 29.843-9.005 46.563.97 3.255 3.953 5.36 7.185 5.36.709 0 1.431-.102 2.146-.314 3.969-1.183 6.229-5.36 5.045-9.33-4.056-13.608-.535-27.295 9.187-35.722 3.02-2.617 3.457-7.143.994-10.29-6.722-8.589-8.907-19.968-5.995-31.219 3.075-11.885 11.276-21.682 21.943-26.222 12.756-5.077 26.678-3.23 36.344 4.826 2.781 2.317 6.822 2.317 9.604 0 .921-.768 1.842-1.558 2.77-2.354 4.683-4.019 9.106-7.815 14.158-9.109 10.536-2.316 21.276-.17 30.654 6.022-.119 1.566-.183 3.139-.183 4.709 0 14.327 4.853 27.837 13.661 38.04 4.242 4.917 6.579 11.52 6.579 18.591 0 7.072-2.335 13.669-6.577 18.579-5.857 6.783-9.952 15.032-12.048 24.005-9.332-11.323-23.072-25.253-38.894-32.599-3.759-1.744-8.218-.113-9.961 3.645-1.744 3.757-.112 8.216 3.645 9.961 21.996 10.212 40.515 37.173 44.449 43.184 1.738 10.546 6.142 20.154 12.81 27.876 4.531 5.247 9.822 9.588 15.372 12.761-8.095 4.046-15.776 8.771-22.856 14.114-10.272 7.752-18.837 16.467-25.566 25.88-8.472-5.325-14.797-12.301-18.824-20.825-1.022-3.221-1.487-6.64-1.978-10.251-.704-5.184-1.502-11.06-4.118-16.945-1.729-4.032-4.058-7.516-7.331-10.961-7.402-7.792-17.601-12.936-28.716-14.485l-.727-.101c-4.056-.562-7.888-1.093-11.286-2.443-3.107-1.299-6.104-2.927-8.905-4.84-3.423-2.337-8.088-1.456-10.423 1.966-2.335 3.421-1.455 8.087 1.966 10.423 3.659 2.498 7.576 4.624 11.644 6.318.033.014.066.027.1.041 5.109 2.043 10.282 2.76 14.846 3.393l.716.1c7.767 1.083 14.838 4.619 19.911 9.959 2.037 2.144 3.399 4.161 4.459 6.63 1.788 4.023 2.378 8.366 3.002 12.963.581 4.275 1.181 8.696 2.736 13.362.088.263.19.521.307.773 5.301 11.479 13.636 20.776 24.812 27.738-6.495 12.759-9.881 26.477-9.861 40.615 0 26.927 12.761 55.753 35.933 81.167 20.335 22.304 46.001 38.813 71.231 45.979v7.663c0 14.719 11.975 26.694 26.693 26.694 14.719 0 26.693-11.975 26.693-26.694v-7.663c21.067-5.985 42.561-18.533 61.12-35.775 3.035-2.819 3.21-7.564.391-10.599-2.818-3.034-7.563-3.211-10.6-.39-18.372 17.067-39.706 29.01-60.07 33.628-3.416.775-5.841 3.812-5.841 7.314v13.484c0 6.448-5.246 11.694-11.693 11.694s-11.693-5.246-11.693-11.694v-13.485c0-3.503-2.425-6.54-5.841-7.314-46.857-10.626-101.324-62.743-101.323-114.02-.037-25.25 13.2-49.161 37.272-67.327 22.8-17.206 52.531-27.317 81.585-27.749 29.054.432 58.784 10.543 81.584 27.749 24.073 18.166 37.311 42.077 37.273 67.338.001 17.641-6.687 36.701-19.34 55.122-2.346 3.414-1.479 8.083 1.936 10.429 3.412 2.344 8.084 1.479 10.428-1.936 14.378-20.931 21.978-42.929 21.977-63.604.021-14.08-3.334-27.742-9.773-40.454 12.082-7.46 21.366-18.615 25.964-31.49 1.73-4.757 2.452-9.37 3.149-13.831.133-.845.264-1.687.402-2.525 1.11-6.718 4.686-12.842 10.065-17.244 3.434-2.81 7.519-4.802 11.813-5.764 1.746-.391 3.499-.725 5.354-1.078 4.035-.769 8.207-1.563 12.539-3.007.088-.029.175-.06.262-.093 8.44-3.166 16.404-8.454 23.67-15.719.16-.16.312-.328.458-.502 5.558-6.668 8.806-13.165 11.946-19.447.035-.07.069-.14.102-.211 6.939-15.04 4.124-34.287-7.008-47.893zm-270.375 96.756c-7.512 0-17.242-5.424-24.213-13.497-5.124-5.935-8.432-13.477-9.565-21.81h-.001c-.014-.099-.028-.198-.046-.296-.269-2.025-.404-4.084-.404-6.123 0-10.729 3.558-20.757 10.015-28.236 6.594-7.631 10.226-17.711 10.226-28.384 0-10.667-3.63-20.75-10.224-28.392-6.459-7.481-10.017-17.51-10.017-28.239 0-2.264.165-4.535.478-6.67l.068-.428c1.221-8.071 4.495-15.381 9.471-21.14 6.961-8.06 16.467-12.043 26.097-10.941 4.034.472 7.717-2.376 8.283-6.404 1.257-8.921 5.708-17.126 12.534-23.104 6.88-6.024 15.712-9.342 24.869-9.342 18.707 0 34.787 13.951 37.404 32.45.568 4.018 4.226 6.858 8.26 6.403 1.104-.124 2.149-.184 3.196-.184 8.59 0 16.73 3.95 22.923 11.122 5.01 5.802 8.294 13.173 9.498 21.315.005.036.011.071.017.106l.021.128c.318 2.196.48 4.446.48 6.688 0 10.729-3.558 20.758-10.017 28.238-13.745 15.918-13.745 40.856 0 56.773 6.459 7.481 10.017 17.509 10.017 28.238 0 2.039-.136 4.097-.404 6.123-.018.099-.032.197-.046.296h-.001c-1.134 8.333-4.441 15.875-9.565 21.81-7.838 9.078-17.656 14.235-25.831 13.639-5.015-1.632-10.115-3.022-15.265-4.151.122-28.555.208-62.461-.671-86.85-.146-4.291-.319-8.445-.517-12.352-.114-14.126-12.036-25.828-27.82-27.263-.226-.021-.452-.031-.679-.031-14.931 0-30.371 9.831-30.499 26.294-.219 4.336-.399 8.7-.536 12.951-.859 24.367-.771 58.594-.657 87.251-5.177 1.136-10.303 2.534-15.344 4.178-.497-.101-1.007-.166-1.535-.166zm47.465-7.595c-5.19.073-10.401.43-15.597 1.05-.108-28.002-.166-60.798.658-84.209.137-4.239.316-8.569.534-12.872.007-.126.01-.253.01-.379 0-7.705 8.921-11.368 15.162-11.497 6.861.758 13.838 5.574 13.838 12.497 0 .126.003.253.01.38.196 3.874.369 8.003.515 12.291.845 23.42.788 55.904.674 83.789-5.194-.62-10.404-.976-15.593-1.049-.07-.001-.141-.001-.211-.001zm216.341-47.653c-2.817 5.636-5.494 10.967-9.782 16.181-5.632 5.576-11.671 9.609-17.956 11.99-3.34 1.101-6.805 1.761-10.471 2.459-1.89.36-3.845.732-5.824 1.176-6.565 1.469-12.802 4.509-18.035 8.792-8.204 6.712-13.661 16.09-15.366 26.406-.146.88-.284 1.766-.423 2.654-.614 3.926-1.194 7.634-2.441 11.062-3.455 9.675-10.46 18.087-19.62 23.768-6.749-9.483-15.359-18.258-25.696-26.059-7.037-5.31-14.667-10.008-22.708-14.038 5.414-3.156 10.597-7.477 15.225-12.837 6.682-7.738 11.09-17.371 12.82-27.944 4.204-6.621 26.152-39.467 49.521-42.479 4.107-.529 7.009-4.289 6.479-8.397-.529-4.109-4.291-7.011-8.397-6.48-19.875 2.562-37.284 19.256-48.453 32.909-2.119-8.848-6.184-16.981-11.971-23.682-8.699-10.073-8.699-27.093 0-37.167 8.811-10.204 13.663-23.714 13.663-38.042 0-1.485-.054-2.974-.161-4.456 7.238-4.56 15.828-6.981 23.972-6.704 6.419.227 15.326 2.236 21.31 10.521 1.191 1.65 3.003 2.745 5.018 3.033 2.017.288 4.06-.255 5.667-1.504 7.116-5.535 17.085-8.251 27.395-7.476 10.725 2.075 24.488 7.468 30.037 21.341 5.77 14.423 4.363 28.768-3.762 38.37-2.52 2.978-2.336 7.39.422 10.148.452.452.868.958 1.351 1.543.936 1.137 2.138 2.598 3.88 3.83 6.945 9.151 8.688 21.48 4.306 31.082z"/><path d="m183.807 345.738v12.363c0 4.142 3.357 7.5 7.5 7.5s7.5-3.358 7.5-7.5v-12.363c0-4.142-3.357-7.5-7.5-7.5s-7.5 3.358-7.5 7.5z"/><path d="m312.486 345.738v12.363c0 4.142 3.357 7.5 7.5 7.5s7.5-3.358 7.5-7.5v-12.363c0-4.142-3.357-7.5-7.5-7.5s-7.5 3.358-7.5 7.5z"/><path d="m266.956 352.805c-2.856 3.277-6.979 5.156-11.31 5.156s-8.453-1.879-11.31-5.156c-2.721-3.122-7.459-3.447-10.581-.726-3.123 2.722-3.447 7.459-.726 10.582 5.705 6.545 13.948 10.299 22.616 10.299s16.911-3.754 22.616-10.299c2.722-3.123 2.397-7.86-.726-10.582-3.12-2.721-7.858-2.397-10.579.726z"/></g></svg>