<svg id="Capa_1" enable-background="new 0 0 512.017 512.017" height="512" viewBox="0 0 512.017 512.017" width="512" xmlns="http://www.w3.org/2000/svg"><g><path d="m413.767 233.491c-.012-.047-.024-.094-.037-.141-.189-.702-.388-1.404-.573-2.058-4.495-16.246-11.842-31.196-21.836-44.474.251-10.13-1.003-20.886-3.774-32.034-.017-.068-.034-.136-.054-.204-8.607-29.929-26.159-55.114-52.704-71.788-4.114-2.584-8.807-3.679-13.417-3.302-.449-2.07-.911-4.145-1.531-6.176-8.169-29.51-26.723-54.353-52.165-69.907-7.195-4.533-16.138-4.534-23.251-.051-25.529 15.619-44.083 40.461-52.248 69.958-.595 1.976-1.082 4.136-1.526 6.173-4.602-.383-9.276.7-13.348 3.259-25.528 15.629-44.081 40.477-52.246 69.967-.194.661-.379 1.315-.576 2.071-2.77 11.149-4.025 21.901-3.773 32.022-10.001 13.276-17.347 28.224-21.833 44.437-.199.703-.397 1.405-.587 2.107-.013.047-.025.094-.037.141-11.582 46.532 1.313 85.151 32.088 96.121 10.714 3.973 24.324 6.161 38.331 6.161.691 0 1.376-.012 2.062-.023-7.072 39.44-8.461 79.322-4.096 118.697 3.122 28.228 21.622 50.49 44.991 54.137 14.726 2.289 29.553 3.433 44.382 3.433s29.66-1.145 44.388-3.434c23.365-3.646 41.865-25.908 44.987-54.134 1.301-11.737 2.105-23.639 2.391-35.375.101-4.141-3.175-7.579-7.315-7.68-4.121-.111-7.58 3.174-7.681 7.315-.274 11.307-1.05 22.775-2.303 34.088-2.38 21.515-15.7 38.36-32.388 40.964-27.921 4.34-56.235 4.34-84.152.001-16.691-2.605-30.012-19.45-32.392-40.966-4.345-39.205-2.767-78.939 4.657-118.197 6.322-.856 12.32-2.174 17.687-3.911 3.393 2.207 7.037 4.013 10.881 5.384 11.543 4.27 26.187 6.621 41.241 6.621 15.064 0 29.707-2.351 41.24-6.621 3.843-1.37 7.488-3.176 10.881-5.384 5.373 1.739 11.376 3.058 17.693 3.912 3.147 16.639 5.273 33.442 6.307 50.032.247 3.976 3.549 7.034 7.479 7.034.156 0 .314-.005.473-.015 4.135-.257 7.277-3.817 7.02-7.952-.99-15.902-2.952-31.988-5.815-47.951.687.01 1.373.023 2.063.023 14.008 0 27.617-2.188 38.332-6.161 30.772-10.968 43.666-49.587 32.084-96.119zm-86.883-137.951c22.286 13.635 38.493 35.38 45.635 61.23.012.041.023.082.035.122 1.163 3.945 1.932 8.019 2.564 12.079-5.965-5.453-12.409-10.333-19.306-14.553-7.694-4.824-17.245-4.822-24.849-.043-10.316 6.312-19.593 14.025-27.713 22.958-7.346-8.877-15.698-16.768-24.937-23.498-1-.733-2.017-1.438-3.034-2.139 7.765-23.575 23.24-43.363 44.014-56.108.036-.021.071-.043.107-.064.027-.016.054-.032.081-.049 2.267-1.406 5.074-1.397 7.403.065zm-120.301-18.049c.012-.04.023-.081.035-.121 7.14-25.842 23.347-47.583 45.718-61.271 2.267-1.427 5.08-1.427 7.431.053 22.284 13.625 38.49 35.365 45.633 61.218.801 2.661 1.354 5.411 1.89 8.115-21.032 14.165-36.882 34.806-45.445 59.118-3.848-.948-7.843-.95-11.675-.008-8.566-24.316-24.413-44.954-45.438-59.109.529-2.692 1.08-5.37 1.851-7.995zm-67.121 79.401c.012-.041.023-.082.035-.122 7.139-25.839 23.347-47.584 45.71-61.277 2.258-1.417 5.063-1.422 7.327-.013.006.004.013.008.019.011.042.026.084.049.126.074.041.024.079.047.122.072 20.731 12.736 36.176 32.503 43.934 56.058-1.012.698-2.024 1.398-3.014 2.125-9.261 6.746-17.616 14.642-24.951 23.512-8.126-8.934-17.393-16.639-27.642-22.91-7.683-4.826-17.232-4.827-24.854-.047-6.937 4.244-13.398 9.135-19.369 14.591.535-3.437 1.227-6.927 2.107-10.469.142-.537.292-1.067.45-1.605zm152.809 165.293c-11.279 4.689-24.569 5.507-36.263 5.507-13.34 0-26.15-2.025-36.073-5.703-.031-.012-.062-.023-.094-.034-22.754-7.932-29.306-34.759-28.899-56.152.078-4.142-3.215-7.562-7.356-7.641-4.15-.095-7.562 3.214-7.642 7.356-.409 21.522 4.866 40.026 14.956 53.086-3.701.765-7.632 1.341-11.709 1.701-.01.001-.02.001-.029.002-.02.002-.041.003-.061.005-3.348.305-6.858.461-10.432.461-12.29 0-24.066-1.861-33.157-5.24-.034-.013-.068-.025-.103-.038-23.129-8.216-32.215-39.681-22.621-78.31.167-.614.341-1.23.529-1.893 4.215-15.235 11.235-29.169 20.878-41.428 8.364-10.688 18.427-19.67 29.978-26.737 2.774-1.739 6.213-1.74 9.052.043 9.932 6.077 18.797 13.62 26.427 22.455-7.97 12.058-14.053 25.257-18.106 39.318-1.146 3.98 1.149 8.137 5.13 9.284 3.977 1.148 8.137-1.149 9.284-5.129 7.663-26.582 24.233-50.864 46.615-67.167 2.669-1.957 5.434-3.793 8.254-5.527 3.193-2.006 7.166-2.003 10.43.043 2.793 1.75 5.546 3.549 8.204 5.499 10.505 7.651 19.736 16.957 27.442 27.663 10.973 15.244 18.53 33.018 21.979 51.478 4.198 22.471 4.396 51.438-13.489 68.685-3.815 3.677-8.284 6.402-13.124 8.413zm84.337-6.69c-.034.012-.068.024-.103.038-9.091 3.379-20.867 5.24-33.157 5.24-3.57 0-7.075-.156-10.452-.463-.032-.003-.066-.005-.099-.008-4.061-.358-7.982-.933-11.678-1.697.332-.431.666-.859.987-1.301 15.971-22.017 15.604-51.027 11.197-76.623-.61-3.543-1.45-6.781-2.41-10.248-4.044-14.614-10.268-28.314-18.521-40.808 7.62-8.832 16.492-16.381 26.496-22.502 2.763-1.737 6.202-1.735 9.046.047 11.479 7.024 21.545 16.009 29.927 26.716 9.63 12.256 16.647 26.187 20.872 41.455.175.615.349 1.229.516 1.844 9.594 38.629.508 70.094-22.621 78.31z"/><path d="m198.508 389.343v9.608c0 4.142 3.357 7.5 7.5 7.5s7.5-3.358 7.5-7.5v-9.608c0-4.142-3.357-7.5-7.5-7.5s-7.5 3.357-7.5 7.5z"/><path d="m298.508 389.343v9.608c0 4.142 3.357 7.5 7.5 7.5s7.5-3.358 7.5-7.5v-9.608c0-4.142-3.357-7.5-7.5-7.5s-7.5 3.357-7.5 7.5z"/><path d="m263.538 393.736c-1.902 2.182-4.646 3.434-7.529 3.434s-5.627-1.251-7.529-3.434c-2.721-3.122-7.459-3.446-10.581-.726-3.123 2.722-3.447 7.459-.726 10.582 4.751 5.451 11.616 8.577 18.836 8.577s14.085-3.126 18.836-8.577c2.722-3.123 2.397-7.86-.726-10.582-3.122-2.722-7.862-2.396-10.581.726z"/></g></svg>