<svg id="Capa_1" enable-background="new 0 0 513.69 513.69" height="512" viewBox="0 0 513.69 513.69" width="512" xmlns="http://www.w3.org/2000/svg"><g><path d="m497.757 105.084c-4.465-8.407-13.713-13.078-22.946-11.994 0 0 29.055-29.055 29.058-29.058 13.095-13.108 13.094-34.427-.002-47.524l-6.3-6.3c-13.106-13.106-34.432-13.105-47.537 0l-29.03 29.031c1.058-9.211-3.602-18.437-11.983-22.908l-18.36-9.77c-6.186-3.291-13.425-3.584-19.863-.801-6.441 2.784-11.193 8.263-13.038 15.039l-1.911 7.042c-7.006 25.843-20.714 49.509-39.645 68.439l-116.533 116.531c-20.144 20.142-46.249 34.593-73.731 40.154-9.538 1.919-18.745 5.069-27.484 9.305-11.424 5.578-21.879 13.092-30.869 22.075-6.795 7.16 3.439 17.429 10.62 10.593 15.007-15.303 34.971-24.765 55.969-28.432 25.648-6.134 49.688-19.026 69.609-36.955l80.721 80.722c-16.524 18.415-28.619 40.642-35.526 64.804-2.134 7.156-3.256 14.633-5.664 21.701-4.86 14.643-13.08 27.979-24.122 39.022-31.413 31.42-81.078 37.73-119.715 16.039-8.176-4.59-15.693-10.343-22.229-17.068-29.236-30.078-36.403-75.713-17.833-113.558 1.825-3.719.29-8.212-3.429-10.037-3.717-1.825-8.212-.29-10.037 3.429-11.023 22.465-14.136 47.316-9.96 70.869-10.248 1.654-26.795 5.62-34.248 14.563-2.652 3.182-2.222 7.911.96 10.563 3.065 2.554 7.906 2.228 10.563-.96 3.796-4.555 16.19-7.967 26.298-9.531 4.287 13.564 11.12 26.388 20.354 37.713-13.041 7.503-36.674 23.77-44.742 46.82-1.368 3.91.692 8.188 4.602 9.557 3.865 1.351 8.204-.738 9.556-4.602 7.083-20.237 31.061-35.007 41.136-40.464 12.388 11.592 26.915 20.135 42.682 25.258-1.735 10.847-5.224 22.208-9.428 25.71-3.182 2.651-3.614 7.379-.964 10.562 2.589 3.109 7.465 3.545 10.563.964 8.645-7.199 12.655-22.959 14.432-33.536 6.584 1.209 13.322 1.852 20.16 1.9.278.002.553.003.831.003 29.901 0 59.729-12.256 81.056-33.583 13.38-13.38 23.141-29.695 28.592-47.609 6.717-31.502 19.362-61.405 42.426-83.966l67.82-67.819c.186-.153.367-.317.54-.491l7.938-7.938c2.929-2.929 2.929-7.678 0-10.606-2.929-2.929-7.678-2.929-10.606 0l-7.427 7.427c-.187.153-.367.317-.541.491l-63.599 63.599-80.374-80.374 112.239-112.239c20.779-20.778 35.826-46.755 43.515-75.12l1.908-7.034c.638-2.343 2.284-4.24 4.515-5.204 2.227-.963 4.729-.862 6.865.275l18.354 9.766c3.288 1.754 4.925 5.626 3.894 9.205-2.996 10.39-5.991 20.78-8.99 31.17-6.569 22.78-18.521 44.032-34.569 61.466-5.344 5.821-5.03 14.935.697 20.315 5.28 4.96 14.313 5 19.792-.031 17.411-15.997 38.622-27.916 61.341-34.47 10.033-2.895 21.64-4.75 31.195-8.997 3.574-1.033 7.44.604 9.19 3.899l9.768 18.345c1.141 2.147 1.242 4.658.276 6.887-.963 2.223-2.856 3.861-5.197 4.495l-7.039 1.91c-28.361 7.691-54.337 22.742-75.121 43.525l-15.858 15.858c-2.929 2.929-2.929 7.678 0 10.606 1.464 1.464 3.384 2.197 5.303 2.197s3.839-.732 5.303-2.197l15.858-15.858c18.936-18.936 42.602-32.647 68.441-39.655l7.037-1.909c6.768-1.833 12.248-6.575 15.036-13.009 2.791-6.44 2.501-13.69-.797-19.895zm-118.79 30.04c14.788-17.826 25.892-38.76 32.313-61.023l1.594-5.523 47.763-47.763c7.258-7.257 19.066-7.257 26.323 0l6.3 6.3c7.251 7.251 7.25 19.056-.003 26.316l-47.799 47.8-5.462 1.574c-22.257 6.418-43.198 17.527-61.029 32.319z"/><path d="m104.637 332.443 8.416-8.416c2.929-2.929 2.929-7.678 0-10.606-2.929-2.929-7.678-2.929-10.606 0l-8.416 8.416c-2.929 2.929-2.929 7.678 0 10.606 1.464 1.464 3.384 2.197 5.303 2.197s3.839-.733 5.303-2.197z"/><path d="m192.23 420.036 8.416-8.416c2.929-2.929 2.929-7.678 0-10.606-2.929-2.93-7.678-2.929-10.606 0l-8.416 8.416c-2.929 2.929-2.929 7.678 0 10.606 1.464 1.465 3.384 2.197 5.303 2.197s3.839-.733 5.303-2.197z"/><path d="m132.348 351.657c-4.13-.292-7.712 2.836-7.996 6.969-.578 8.419 2.507 16.666 8.465 22.624 5.484 5.484 12.906 8.535 20.618 8.535.667 0 1.336-.023 2.006-.069 4.133-.284 7.252-3.864 6.969-7.996-.284-4.133-3.873-7.24-7.996-6.969-4.097.287-8.098-1.216-10.99-4.107-2.891-2.891-4.388-6.897-4.107-10.99.283-4.134-2.836-7.714-6.969-7.997z"/></g></svg>