<svg id="Capa_1" enable-background="new 0 0 512.015 512.015" height="512" viewBox="0 0 512.015 512.015" width="512" xmlns="http://www.w3.org/2000/svg"><g><path d="m461.993 233.634c-3.19-13.968-13.85-24.628-27.746-27.804-1.281-.307-2.549-.589-3.817-.87.464-19.965-1.642-39.819-6.278-59.047-3.192-13.969-13.849-24.629-27.729-27.802-5.206-1.251-10.508-2.322-15.813-3.21-19.53-46.259-57.784-85.257-108.11-110.098-12.632-6.4-28.32-6.399-40.87-.035-15.642 7.723-30.279 16.892-43.503 27.252-3.26 2.554-3.833 7.269-1.278 10.529 2.555 3.261 7.269 3.833 10.529 1.278 12.415-9.726 26.173-18.342 40.965-25.646 8.31-4.214 19.056-4.215 27.447.036 44.171 21.804 78.305 55.038 97.348 94.447-37.502-3.338-75.592 2.56-111.109 17.274-35.525-14.713-73.616-20.611-111.114-17.273 7.855-16.267 18.308-31.542 31.186-45.542 2.804-3.049 2.606-7.793-.442-10.598-3.05-2.805-7.793-2.606-10.598.442-16.159 17.568-28.798 37.039-37.614 57.932-5.3.887-10.587 1.954-15.727 3.19-13.968 3.192-24.628 13.853-27.801 27.736-4.816 20.003-6.898 40.566-6.224 61.215-11.892 4.199-20.781 14.044-23.626 26.504-13.865 57.566-5.041 118.319 24.85 171.076.617 1.125 1.244 2.24 1.896 3.397.036.063.072.126.11.188 28.354 47.138 66.176 78.793 103.98 87.119 4.521 2.82 9.358 5.161 14.409 6.956 16.948 6.274 38.505 9.729 60.708 9.729 22.13 0 43.619-3.433 60.542-9.668.042-.014.083-.028.124-.043 5.07-1.797 9.917-4.142 14.436-6.966 31.61-6.961 63.414-30.24 89.706-65.722 2.466-3.328 1.767-8.025-1.561-10.491-3.329-2.466-8.026-1.768-10.491 1.561-24.426 32.964-53.5 54.348-81.888 60.231-.058.011-.115.022-.173.034-24.273 4.936-46.648-3.909-66.473-17.422-8.112-5.526-16.324-12.122-24.106-19.314 14.768-10.74 48.89-36.349 82.169-66.966 7.337 9.007 21.701 23.685 39.814 27.417 2.921.602 5.816.902 8.683.902 8.536 0 16.811-2.665 24.689-7.965 3.437-2.312 4.349-6.973 2.036-10.409-2.312-3.437-6.974-4.349-10.409-2.036-7.141 4.804-14.314 6.383-21.929 4.826-14.16-2.896-26.147-15.795-31.919-23.048 12.275-11.811 24.112-24.167 34.47-36.558 10.792 5.242 21.049 7.855 30.428 7.855 14.216 0 26.416-5.985 35.397-17.835 2.502-3.301 1.854-8.005-1.447-10.507-3.302-2.503-8.006-1.854-10.507 1.447-11.972 15.795-29.507 13.462-44.279 6.971 7.512-10.003 13.832-19.919 18.387-29.472 1.783-3.739.197-8.215-3.542-9.998-3.741-1.783-8.216-.198-9.998 3.542-5.118 10.734-12.782 22.087-22.007 33.57-.094.107-.18.221-.268.334-5.091 6.318-10.652 12.673-16.529 18.986-8.9-6.684-26.241-24.625-13.151-56.517 1.573-3.832-.259-8.213-4.091-9.786-3.831-1.572-8.214.259-9.786 4.091-11.456 27.911-4.14 47.837 4.015 59.639 4.058 5.873 8.713 10.314 12.589 13.415-13.148 13.262-27.287 26.12-40.885 37.792-6.44-3.971-31.368-22.196-16.375-58.725 1.573-3.832-.259-8.213-4.091-9.786s-8.213.259-9.786 4.091c-11.456 27.911-4.14 47.837 4.015 59.639 4.703 6.806 10.207 11.689 14.37 14.791-22.442 18.622-41.954 33.111-50.888 39.599-14.157-14.976-25.727-31.271-32.901-46.472-5.954-12.211-8.246-25.728-6.653-39.224 2.405-20.379 13.191-41.699 31.192-61.658 11.763-13.05 26.278-25.197 43.139-36.102 36.93-23.739 80.831-36.43 124.711-35.541 15.462.308 30.988 2.324 46.028 5.923 8.306 1.898 14.643 8.235 16.56 16.625 12.459 51.727 5.205 106.741-20.428 154.909-1.946 3.657-.559 8.198 3.098 10.145 1.123.597 2.328.88 3.517.88 2.683 0 5.279-1.444 6.627-3.978 27.358-51.407 35.089-110.171 21.79-165.381zm-87.845-104.574c.012.002.023.003.034.005 6.272.929 12.576 2.152 18.818 3.651 8.297 1.896 14.631 8.234 16.55 16.626 4.158 17.247 6.143 34.972 5.932 52.807-10.038-1.542-20.221-2.431-30.381-2.633-.001 0-.002 0-.002 0h-.001c-12.652-.249-25.407.557-37.997 2.377-15.497-21.069-37.799-40.677-64.804-56.916-3.768-2.157-7.453-4.19-11.296-6.18 33.386-11.449 68.715-14.826 103.147-9.737zm-279.625 20.196c1.898-8.304 8.236-14.642 16.621-16.559 6.163-1.481 12.469-2.703 18.766-3.636 39.986-5.913 81.192-.413 119.158 15.903 30.946 13.299 60.076 33.698 81.407 59.936-26.302 5.749-51.456 15.93-74.453 29.976-4.161-2.627-8.998-5.251-13.177-7.488-25.38-13.453-52.545-22.163-80.738-25.889-24.398-3.23-49.321-2.586-73.5 2.018-.341-18.281 1.635-36.477 5.916-54.261zm193.674 345.065c-10.111 1.76-21.027 2.694-32.175 2.694s-22.064-.934-32.175-2.694c4.299-1.249 8.524-2.853 12.665-4.819 6.383-2.93 12.927-6.558 19.509-10.791 6.581 4.233 13.124 7.86 19.506 10.79 4.144 1.966 8.37 3.57 12.67 4.82zm-82.385-218.21c-14.374 15.937-24.624 32.851-30.323 49.784-26.841-17.776-40.031-40.55-40.173-40.799-2.04-3.599-6.609-4.868-10.211-2.832-3.607 2.037-4.88 6.611-2.843 10.218.682 1.208 16.406 28.568 49.319 48.7-.28 1.627-.525 3.251-.717 4.872-.936 7.921-.81 15.68.349 23.22-27.401 10.028-53.702-9.021-54.059-9.284-3.315-2.471-8.006-1.792-10.485 1.518-2.483 3.315-1.808 8.016 1.508 10.499 1.109.831 20.819 15.299 46.15 15.299 6.544 0 13.466-.975 20.536-3.391-.381.21 3.564 8.63 4.026 9.61 9.73 20.616 24.182 39.095 40.24 55.153 7.565 7.565 15.455 14.474 23.546 20.648-4.216 2.491-8.383 4.692-12.46 6.562-.031.015-.062.029-.094.044-13.78 6.553-28.747 8.263-44.482 5.089-.106-.027-.213-.051-.321-.073-43.098-8.816-76.756-46.654-97.27-83.579-.017-.031-.034-.062-.052-.092-27.42-48.372-36.374-106.116-23.323-160.302 1.896-8.303 8.234-14.64 16.579-16.547 25.83-5.904 52.604-7.536 78.888-4.057 26.42 3.491 51.882 11.657 75.706 24.285 1.915 1 4.123 2.23 6.296 3.455-13.86 9.861-26.048 20.593-36.33 32z"/><path d="m201.536 92.034v-11.144c0-4.142-3.358-7.5-7.5-7.5s-7.5 3.358-7.5 7.5v11.144c0 4.142 3.358 7.5 7.5 7.5s7.5-3.358 7.5-7.5z"/><path d="m317.525 92.034v-11.144c0-4.142-3.358-7.5-7.5-7.5s-7.5 3.358-7.5 7.5v11.144c0 4.142 3.358 7.5 7.5 7.5s7.5-3.358 7.5-7.5z"/><path d="m252.031 106.168c8.027 0 15.661-3.476 20.944-9.538 2.722-3.123 2.396-7.86-.726-10.582s-7.86-2.397-10.582.726c-2.434 2.792-5.946 4.393-9.636 4.393-3.691 0-7.203-1.601-9.636-4.393-2.722-3.124-7.458-3.448-10.582-.727-3.123 2.722-3.448 7.459-.727 10.582 5.283 6.062 12.917 9.539 20.945 9.539z"/></g></svg>