<svg id="Capa_1" enable-background="new 0 0 511.931 511.931" height="512" viewBox="0 0 511.931 511.931" width="512" xmlns="http://www.w3.org/2000/svg"><g><path d="m473.405 205.49c-20.2-22.462-50.951-34.525-80.86-31.391 12.492-47.411.03-97.799-33.883-134.062-.975-1.09-2.205-2.335-3.336-3.515-18.021-18.021-42.851-28.356-68.123-28.356-16.534 0-32.737 4.398-46.858 12.718-10.304 6.072-19.237 13.667-26.518 22.535-13.316 16.004-20.908 36.164-21.716 56.889-.187 4.783-.012 9.595.537 14.392 1.411 11.772-10.005 21.309-21.42 18.793-24.838-2.18-49.818 5.559-68.855 21.387-.002.002-.004.003-.006.005-.009.007-.018.014-.026.021-.009.007-.016.016-.025.023-8.882 7.304-16.457 16.219-22.516 26.501-21.578 36.646-15.295 83.665 15.228 114.56-21.617.096-43.236 7.98-59.826 21.736-8.896 7.312-16.474 16.233-22.521 26.514-18.471 31.36-16.638 71.357 4.67 101.897 1.458 2.09 3.789 3.209 6.158 3.209 1.481 0 2.978-.438 4.285-1.35 3.397-2.37 4.229-7.045 1.859-10.442-17.961-25.742-19.549-59.382-4.045-85.706 3.762-6.397 8.214-12.156 13.279-17.221 1.971 2.435 4.063 4.771 6.273 6.981 17.292 17.292 40.005 25.938 62.718 25.938s45.427-8.646 62.718-25.938c2.653-2.653 5.157-5.491 7.441-8.435 0 0 .001-.001.002-.002 27.282-35.18 24.082-85.475-7.443-116.989-2.224-2.224-4.565-4.321-6.996-6.289 16.17-16.338 39.364-25.673 62.515-23.689 19.365 1.47 37.646 9.896 51.486 23.737 1.046 1.088 2.083 2.137 2.945 3.101 12.059 12.882 21.14 27.758 27.029 44.229-.803 6.199-.999 12.492-.558 18.782 1.016 6.476.462 13.283-4.662 18.108-4.688 4.908-11.242 5.687-17.518 4.698-6.172-.463-12.323-.315-18.438.413-19.624 2.309-38.4 10.898-52.976 24.239-7.343 6.688-13.697 14.552-18.882 23.37-21.113 35.856-15.551 81.642 13.29 112.539-45.026 34.799-108.924 35.697-154.952 1.236-3.317-2.482-8.016-1.807-10.499 1.509-2.482 3.316-1.807 8.017 1.509 10.499 24.633 18.442 54.891 28.449 85.732 28.449 1.757 0 3.517-.033 5.276-.098 30.604-1.135 60.166-12.162 83.97-31.194 25.87 21.981 58.394 33.944 92.513 33.944.798 0 1.602-.007 2.401-.02 37.312-.613 72.398-15.488 98.796-41.885l48.261-48.253c2.93-2.929 2.93-7.677.001-10.606s-7.678-2.93-10.606-.001l-48.262 48.253c-49.007 49.007-127.089 50.422-177.794 3.223-1.032-.92-2.158-2.039-3.399-3.222-26.043-26.053-31.517-65.843-13.309-96.766 3.752-6.379 8.213-12.153 13.287-17.23 1.96 2.425 4.047 4.774 6.274 7.001 16.749 16.753 39.021 25.979 62.714 25.979s45.966-9.226 62.713-25.979c.001-.001-.001.001.001-.001 16.751-16.752 25.979-39.027 25.979-62.717 0-23.692-9.227-45.965-25.973-62.711-2.208-2.214-4.552-4.312-7.002-6.293 5.052-5.049 10.807-9.492 17.24-13.279 6.513-3.837 13.532-6.681 20.872-8.454 5.979-1.452 12.16-2.188 18.371-2.188 22.733-.031 45.202 10.03 60.465 27.076 41.696 44.536 46.136 112.752 10.557 162.204-2.419 3.362-1.654 8.049 1.708 10.468 3.36 2.417 8.05 1.654 10.468-1.708 39.739-55.235 34.803-131.413-11.738-181.166zm-380.679-16.447c3.769-6.397 8.221-12.154 13.286-17.219 1.964 2.426 4.057 4.762 6.277 6.982 10.756 10.764 24.114 18.531 38.62 22.633-17.171 18.175-26.713 43-25.934 68.095-.031 4.287 1.151 9.131.313 13.162-1.028 5.12-4.603 9.634-9.251 12.062-3.236-2.63-6.545-5.595-10.033-8.99-26.015-26.052-31.475-65.821-13.278-96.725zm73.463 134.935c-1.902 2.45-3.987 4.814-6.198 7.025-28.734 28.734-75.489 28.734-104.224 0-1.888-1.888-3.676-3.881-5.354-5.965 11.529-7.902 25.152-12.73 39.089-13.817 8.552-1.155 17.143 1.523 25.576-.31 10.678-2.268 19.76-10.368 23.575-20.55 2.831-6.788 1.708-14.4 1.317-21.208-.495-16.852 4.567-33.861 14.056-47.721 2.075 1.671 4.069 3.462 5.966 5.359 26.194 26.184 28.857 67.966 6.197 97.187zm7.037-140.284c-2.832 1.683-5.603 3.493-8.264 5.405-15.861-2.174-30.705-9.529-42.065-20.896-1.899-1.899-3.69-3.895-5.359-5.969 12.612-8.612 27.717-13.466 42.967-14.021 3.822-.121 7.655-.001 11.456.427 10.285 1.166 20.572-2.849 27.543-10.671 5.726-6.396 8.655-14.647 8.201-23.127-.418-4.401-.773-8.819-.583-13.245.544-15.255 5.406-30.363 14.027-42.973 2.091 1.681 4.086 3.47 5.97 5.354 28.726 28.735 28.726 75.49 0 104.225-.988.988-1.997 1.943-3.019 2.857-17.816-.774-35.63 3.633-50.874 12.634zm190.211 97.847c0 19.685-7.666 38.192-21.587 52.112 0 0 0 0-.001.001-13.914 13.919-32.419 21.584-52.104 21.584-19.687 0-38.191-7.666-52.106-21.585-1.9-1.901-3.69-3.896-5.352-5.964 15.786-10.793 35.434-15.771 54.415-13.599 19.673 2.708 38.306-15.921 35.595-35.608-.735-6.624-.663-13.336.255-19.938 1.693-12.323 6.251-24.223 13.33-34.476 2.093 1.683 4.088 3.474 5.97 5.36 13.919 13.921 21.585 32.428 21.585 52.113zm-8.348-95.209c-11.042 6.5-20.414 14.669-27.978 24.338-5.562 7.062-10.107 14.933-13.437 23.239-5.905-11.233-13.303-21.633-22.131-31.072-1.091-1.208-2.229-2.36-3.346-3.515-12.693-12.693-28.568-21.517-45.75-25.659 29.748-34.81 28.191-87.369-4.72-120.291-2.208-2.208-4.548-4.301-6.991-6.276 5.057-5.058 10.82-9.516 17.225-13.289 11.815-6.962 25.386-10.642 39.243-10.642 21.323 0 42.287 8.734 57.487 23.933 1.021 1.082 2.114 2.167 2.977 3.142 32.07 34.26 42.746 82.623 28.317 127.075-7.305 2.125-14.32 5.143-20.896 9.017z"/><path d="m317.343 397.457c-2.929 2.929-2.929 7.678.001 10.606l8.485 8.485c1.464 1.465 3.384 2.197 5.303 2.197s3.839-.732 5.304-2.197c2.929-2.929 2.929-7.678-.001-10.606l-8.485-8.485c-2.928-2.93-7.678-2.929-10.607 0z"/><path d="m405.659 309.141c-2.929 2.929-2.929 7.678 0 10.606l8.485 8.485c1.465 1.464 3.385 2.197 5.304 2.197s3.839-.732 5.304-2.197c2.929-2.929 2.929-7.678 0-10.606l-8.485-8.485c-2.93-2.929-7.678-2.929-10.608 0z"/><path d="m363.909 370.994c-4.129-.291-7.713 2.836-7.996 6.969-.283 4.132 2.837 7.712 6.969 7.996.674.046 1.347.069 2.017.069 7.761 0 15.229-3.069 20.745-8.586 5.995-5.994 9.1-14.291 8.519-22.763-.283-4.133-3.87-7.255-7.996-6.969-4.132.284-7.252 3.863-6.969 7.996.284 4.145-1.231 8.202-4.16 11.129-2.928 2.928-6.994 4.439-11.129 4.159z"/></g></svg>