<svg id="Capa_1" enable-background="new 0 0 512.01 512.01" height="512" viewBox="0 0 512.01 512.01" width="512" xmlns="http://www.w3.org/2000/svg"><g><path d="m459.856 85.854c-.166-.04-.336-.076-.506-.112l-.118-.024c-.053-.013-.105-.025-.158-.036-11.314-2.452-20.897-10.117-25.635-20.502-2.112-4.631-4.754-9.028-7.854-13.069-2.52-3.287-7.228-3.909-10.516-1.387-3.286 2.521-3.907 7.229-1.387 10.515 2.41 3.144 4.465 6.563 6.108 10.166 6.683 14.65 20.152 25.458 36.041 28.923.145.034.292.065.439.096l.184.04c25.399 5.798 42.738 29.725 40.331 55.652-.786 8.433-3.459 16.272-7.946 23.305-11.211 17.59-14.575 38.876-9.229 58.406 1.948 7.099 2.359 14.426 1.222 21.774-1.384 8.912-5.059 17.34-10.628 24.373-10.977 13.855-13.896 32.822-7.621 49.499 3.542 9.412 4.266 19.639 2.093 29.578-3.715 17.014-15.725 31.005-32.124 37.425-25.937 10.143-48.52 24.473-67.12 42.591l-6.442 6.272c-13.445 13.098-32.057 18.121-49.779 14.077 2.142-2.389 4.146-4.942 5.985-7.662 14.331-21.192 33.437-39.3 56.784-53.821 18.548-11.535 30.411-31.324 31.733-52.936.759-12.415-1.886-24.73-7.648-35.612-2.053-3.879-3.445-7.989-4.189-12.177l47.34-33.878c3.368-2.411 4.145-7.095 1.733-10.464-2.41-3.369-7.096-4.145-10.463-1.734l-37.413 26.774c.746-2.392 1.717-4.73 2.917-6.982 5.137-9.646 7.852-20.555 7.852-31.546 0-9.562-1.969-18.802-5.853-27.465-6.551-14.61-6.473-31.728.215-46.964 4.32-9.844 6.174-20.339 5.509-31.193-2.048-33.471-28.829-60.493-62.308-62.856l-.728-.047c-7.104-.424-13.86-2.903-19.472-6.962 4.563-2.634 8.718-5.943 12.277-9.876 11.855-13.091 29.341-19.292 46.771-16.593 2.804.435 5.58 1.098 8.253 1.969 3.944 1.284 8.172-.87 9.455-4.807 1.283-3.938-.868-8.171-4.807-9.455-3.438-1.12-7.004-1.971-10.602-2.53-22.431-3.474-44.935 4.502-60.19 21.349-3.251 3.592-7.194 6.472-11.578 8.503-12.627-17.735-32.918-28.251-54.779-28.251-21.862 0-42.153 10.517-54.781 28.252-4.384-2.031-8.328-4.912-11.579-8.505-15.254-16.845-37.761-24.822-60.189-21.348-22.436 3.48-41.458 17.903-50.884 38.579-4.739 10.387-14.322 18.051-25.636 20.503-.024.006-.122.028-.147.034l-.129.027c-.17.036-.34.072-.443.097-32.704 7.466-55.029 38.275-51.929 71.668 1.01 10.832 4.453 20.918 10.232 29.975 8.939 14.026 11.641 30.93 7.413 46.374-2.513 9.153-3.044 18.588-1.579 28.046 1.78 11.469 6.515 22.322 13.692 31.387 7.726 9.751 9.771 23.125 5.34 34.901-4.564 12.128-5.501 25.291-2.708 38.062 4.787 21.924 20.23 39.94 41.315 48.195 24.06 9.409 44.959 22.655 62.12 39.369l6.438 6.268c13.252 12.91 30.668 19.654 48.328 19.654 9.316 0 18.698-1.883 27.574-5.722 11.371 7.906 24.929 12.195 39.298 12.195.604 0 1.209-.008 1.814-.023 13.254-.332 25.69-4.27 36.274-11.237 8.3 3.258 16.921 4.865 25.462 4.864 17.609-.001 34.862-6.78 48.153-19.729l6.442-6.271c17.159-16.713 38.059-29.958 62.121-39.369 21.082-8.253 36.525-26.27 41.312-48.192 2.793-12.773 1.856-25.935-2.708-38.063-4.432-11.776-2.386-25.15 5.341-34.903 7.177-9.063 11.911-19.917 13.692-31.388 1.464-9.455.933-18.89-1.579-28.038-4.229-15.448-1.527-32.353 7.409-46.375 5.782-9.061 9.226-19.147 10.235-29.981 3.104-33.391-19.221-64.201-51.863-71.652zm-306.839 363.483-6.438-6.269c-18.603-18.119-41.186-32.449-67.119-42.591-16.402-6.421-28.412-20.413-32.127-37.428-2.173-9.937-1.449-20.165 2.093-29.576 6.275-16.677 3.355-35.644-7.62-49.498-5.57-7.035-9.246-15.463-10.628-24.372-1.139-7.351-.728-14.678 1.222-21.782 5.346-19.525 1.981-40.811-9.231-58.405-4.485-7.029-7.158-14.869-7.944-23.299-2.407-25.93 14.932-49.856 40.386-55.667l.129-.027c.146-.031.294-.062.439-.096 15.888-3.464 29.358-14.273 36.042-28.924 7.326-16.069 22.105-27.276 39.534-29.98 17.438-2.702 34.917 3.501 46.771 16.591 3.558 3.932 7.708 7.248 12.269 9.884-5.61 4.055-12.362 6.532-19.464 6.956l-.738.048c-33.466 2.362-60.247 29.383-62.295 62.854-.665 10.854 1.188 21.349 5.509 31.193 6.688 15.236 6.766 32.354.215 46.964-3.884 8.663-5.853 17.903-5.853 27.465 0 11.617 3.015 23.069 8.717 33.121.932 1.643 1.704 3.353 2.352 5.103l-36.988-26.469c-3.366-2.409-8.052-1.634-10.463 1.734s-1.635 8.053 1.733 10.464l47.237 33.804c-.739 3.698-2.052 7.307-3.952 10.674-6.364 11.28-9.306 24.14-8.509 37.189 1.371 22.406 13.871 42.578 33.436 53.959.665.387 1.329.778 1.989 1.173 3.557 2.125 8.16.966 10.286-2.591 2.124-3.556.965-8.161-2.591-10.285-.711-.424-1.424-.844-2.141-1.262-15.221-8.854-24.943-24.522-26.007-41.91-.621-10.154 1.662-20.149 6.601-28.903 8.759-15.524 8.783-34.715.062-50.083-4.425-7.798-6.764-16.691-6.764-25.718 0-7.433 1.527-14.608 4.54-21.328 8.28-18.468 8.22-40.02-.166-59.129-3.354-7.639-4.791-15.797-4.272-24.249 1.59-25.991 22.389-46.974 48.366-48.807l.591-.039c16.251-.971 31.245-9.592 40.107-23.062 9.709-14.756 26.035-23.566 43.672-23.566 17.636 0 33.962 8.81 43.672 23.566 8.862 13.47 23.856 22.091 40.105 23.062l.58.038c25.99 1.834 46.789 22.817 48.379 48.809.519 8.451-.919 16.609-4.272 24.248-8.386 19.109-8.446 40.661-.166 59.128 3.013 6.72 4.54 13.896 4.54 21.329 0 8.542-2.106 17.012-6.092 24.496-8.714 16.362-8.692 36 .06 52.529 4.472 8.445 6.522 18.017 5.932 27.678-1.025 16.77-10.253 32.14-24.683 41.114-25.148 15.641-45.769 35.207-61.288 58.155-9.522 14.08-24.49 22.624-41.323 23.719v-64.511l64.271-64.271c2.929-2.929 2.929-7.678 0-10.606-2.93-2.929-7.678-2.929-10.607 0l-53.664 53.664v-61.345l64.271-64.271c2.929-2.929 2.929-7.678 0-10.606-2.93-2.929-7.678-2.929-10.607 0l-53.664 53.664v-76.359c0-4.142-3.357-7.5-7.5-7.5s-7.5 3.358-7.5 7.5v75.545l-49.392-52.512c-2.838-3.017-7.584-3.162-10.602-.324-3.017 2.838-3.162 7.584-.324 10.602l60.317 64.128v60.664l-49.392-52.512c-2.838-3.017-7.584-3.162-10.602-.325-3.017 2.838-3.162 7.584-.324 10.602l60.317 64.129v63.612c-12.656-2.659-23.927-9.772-31.975-20.477l-5.4-7.183c-8.114-10.792-17.592-20.872-28.169-29.961-3.142-2.701-7.877-2.341-10.576.8s-2.341 7.877.801 10.577c9.758 8.385 18.49 17.671 25.955 27.599l5.399 7.183c1.056 1.404 2.159 2.754 3.298 4.06-18.475 5.266-38.639.462-52.763-13.298z"/><path d="m189.363 172.963c4.143 0 7.5-3.358 7.5-7.5v-12.806c0-4.142-3.357-7.5-7.5-7.5s-7.5 3.358-7.5 7.5v12.806c0 4.142 3.358 7.5 7.5 7.5z"/><path d="m322.646 172.963c4.143 0 7.5-3.358 7.5-7.5v-12.806c0-4.142-3.357-7.5-7.5-7.5s-7.5 3.358-7.5 7.5v12.806c0 4.142 3.358 7.5 7.5 7.5z"/><path d="m256.005 180.586c8.901 0 17.366-3.855 23.224-10.577 2.722-3.123 2.396-7.86-.727-10.582-3.125-2.721-7.862-2.396-10.582.727-3.008 3.452-7.351 5.431-11.915 5.431s-8.907-1.979-11.915-5.431c-2.723-3.123-7.458-3.448-10.582-.727-3.122 2.721-3.448 7.458-.727 10.582 5.858 6.722 14.322 10.577 23.224 10.577z"/></g></svg>