<svg id="Capa_1" enable-background="new 0 0 512.002 512.002" height="512" viewBox="0 0 512.002 512.002" width="512" xmlns="http://www.w3.org/2000/svg"><g><path d="m392.377 165.509c-14.389-21.226-34.569-37.829-57.496-47.518l14.708-23.183c6.078-9.58 8.063-20.955 5.589-32.029-2.475-11.076-9.114-20.523-18.698-26.605-9.293-5.888-20.226-7.908-30.804-5.84-11.054-18.861-29.605-30.334-49.669-30.334s-38.616 11.473-49.67 30.334c-10.579-2.068-21.512-.048-30.807 5.842-12.35 7.833-19.723 21.255-19.723 35.904 0 8.052 2.289 15.913 6.617 22.728l14.698 23.167c-25.191 10.606-46.724 29.325-61.287 53.489-14.065 23.306-20.297 49.433-18.019 75.576.71 7.918 3.021 17.958 7.065 30.691 1.014 3.193 3.965 5.232 7.146 5.232.752 0 1.517-.114 2.272-.354 3.948-1.253 6.132-5.47 4.878-9.418-3.658-11.518-5.818-20.767-6.42-27.472-1.882-21.598 2.893-43.246 13.821-62.875h54.866c4.142 0 7.5-3.358 7.5-7.5s-3.358-7.5-7.5-7.5h-44.964c14.042-18.206 32.91-31.855 54.284-39.001.001 0 .003 0 .004-.001 10.206-3.418 20.79-5.252 31.421-5.452 22.439-.309 45.194-.308 67.596-.001 10.669.201 21.253 2.035 31.459 5.453.001 0 .002.001.003.001 27.841 9.313 50.692 29.64 64.401 54.7h-26.622c-4.142 0-7.5 3.358-7.5 7.5s3.358 7.5 7.5 7.5h33.508c5.629 14.979 8.128 31.066 6.723 47.162-1.191 13.362-8.268 35.755-21.603 68.354h-62.323c-4.142 0-7.5 3.358-7.5 7.5s3.358 7.5 7.5 7.5h56.055c-6.661 15.642-14.714 33.716-24.827 55.733h-31.228c-4.142 0-7.5 3.358-7.5 7.5s3.358 7.5 7.5 7.5h24.314c-4.486 9.694-8.974 19.33-12.995 27.953-1.75 3.754-.126 8.216 3.628 9.967 1.025.478 2.103.705 3.165.705 2.824 0 5.53-1.604 6.802-4.333 5.502-11.8 11.88-25.493 17.934-38.654 13.521-29.345 23.506-51.904 31.426-70.994 15.375-37.061 23.189-61.654 24.594-77.412 2.459-28.18-5.291-57.129-21.822-81.515zm-136.359-57.35c-11.376 0-22.761.078-34.072.233-10.237.192-20.4 1.699-30.293 4.486l-16.565-26.109c-2.801-4.41-4.281-9.489-4.281-14.689 0-9.483 4.769-18.17 12.754-23.235 7.23-4.581 15.997-5.543 24.052-2.64 3.635 1.311 7.672-.357 9.324-3.851 7.976-16.872 22.946-27.354 39.07-27.354s31.093 10.482 39.069 27.355c1.652 3.494 5.688 5.162 9.324 3.851 8.056-2.904 16.822-1.941 24.048 2.637 6.196 3.932 10.491 10.043 12.092 17.208s.317 14.524-3.616 20.721l-16.563 26.106c-9.894-2.788-20.062-4.294-30.331-4.487-11.285-.155-22.644-.232-34.012-.232z"/><path d="m321.82 455.854c-3.756-1.747-8.216-.115-9.962 3.641l-1.215 2.618c-9.985 21.521-30.92 34.889-54.637 34.889s-44.652-13.369-54.636-34.888c-4.642-10.01-9.356-20.114-14.072-30.221l-.538-1.152h54.876c4.142 0 7.5-3.358 7.5-7.5s-3.358-7.5-7.5-7.5h-61.869c-6.682-14.361-14.023-30.201-21.063-45.729h40.576c4.142 0 7.5-3.358 7.5-7.5s-3.358-7.5-7.5-7.5h-47.321c-8.541-19.164-15.401-35.29-20.917-49.171-1.529-3.85-5.891-5.731-9.739-4.2-3.85 1.529-5.73 5.89-4.2 9.739 6.017 15.142 13.588 32.87 23.148 54.196 9.15 20.424 19.217 42.108 27.937 60.833l5.517 11.827c4.71 10.096 9.42 20.189 14.058 30.19 12.471 26.878 38.62 43.576 68.243 43.576s55.772-16.697 68.244-43.577l1.211-2.609c1.746-3.756.116-8.216-3.641-9.962z"/><path d="m201.058 233.139v-12c0-4.142-3.358-7.5-7.5-7.5s-7.5 3.358-7.5 7.5v12c0 4.142 3.358 7.5 7.5 7.5s7.5-3.358 7.5-7.5z"/><path d="m325.955 233.139v-12c0-4.142-3.358-7.5-7.5-7.5s-7.5 3.358-7.5 7.5v12c0 4.142 3.358 7.5 7.5 7.5s7.5-3.358 7.5-7.5z"/><path d="m256.007 247.782c8.478 0 16.54-3.671 22.119-10.073 2.721-3.123 2.396-7.86-.727-10.582-3.124-2.721-7.861-2.396-10.582.727-2.729 3.132-6.669 4.929-10.81 4.929s-8.081-1.796-10.81-4.929c-2.722-3.123-7.459-3.447-10.582-.727-3.123 2.722-3.448 7.459-.727 10.582 5.579 6.402 13.641 10.073 22.119 10.073z"/></g></svg>