<svg id="Capa_1" enable-background="new 0 0 512 512" height="512" viewBox="0 0 512 512" width="512" xmlns="http://www.w3.org/2000/svg"><g><path d="m415.584 437.77c-38.693 38.016-93.877 58.496-159.584 59.23-66.371-.741-121.937-21.601-160.688-60.325-.025-.025-.051-.05-.077-.075-41.342-40.147-65.804-102.112-65.435-165.715.343-30.305 5.354-56.009 14.895-76.398 1.756-3.752.138-8.216-3.614-9.972-3.755-1.755-8.217-.137-9.972 3.614-10.454 22.341-15.94 50.127-16.309 82.627-.392 67.627 25.757 133.63 69.946 176.567 41.597 41.544 100.785 63.908 171.172 64.676h.082.082c69.695-.76 128.485-22.729 170.014-63.53 2.955-2.903 2.997-7.652.094-10.606s-7.651-2.995-10.606-.093z"/><path d="m479.455 185.155c-11.442-22.961-28.413-40.183-50.441-51.188-8.928-4.704-18.897-8.477-30.239-11.487 1.942-8.616 2.178-17.446.647-25.925-.915-5.101-4.021-9.541-8.521-12.183-4.609-2.706-10.156-3.257-15.223-1.513-24.936 8.589-50.771 14.467-76.92 17.527l4.552-61.694c.739-9.956-2.732-19.86-9.523-27.175-6.797-7.319-16.421-11.517-26.407-11.517h-22.76c-9.986 0-19.61 4.198-26.406 11.517-6.792 7.316-10.264 17.223-9.523 27.175l4.552 61.696c-26.171-3.069-52.006-8.94-76.909-17.515-5.04-1.744-10.56-1.195-15.143 1.507-4.604 2.715-7.772 7.307-8.69 12.596-1.448 8.341-1.188 17.026.723 25.506-11.334 3.001-21.299 6.775-30.237 11.485-11.764 5.877-22.189 13.604-30.987 22.967-2.836 3.019-2.688 7.765.33 10.602 1.448 1.36 3.293 2.034 5.135 2.034 1.997 0 3.991-.793 5.467-2.364 7.598-8.086 16.623-14.766 26.825-19.854.052-.026.104-.052.154-.079 8.216-4.337 17.5-7.811 28.199-10.575 8.173 17.599 23.129 31.519 42.074 39.342-12.009 8.201-24.598 15.524-37.571 21.849-4.287 2.09-7.425 5.93-8.608 10.534-1.188 4.62-.287 9.517 2.472 13.434 8.573 12.181 21.895 20.373 37.511 23.068 17.85 3.08 36.432-1.417 52.327-12.663 17.698-12.531 34.389-26.704 49.686-42.188 15.297 15.483 31.987 29.656 49.688 42.189 12.627 8.934 26.95 13.608 41.254 13.608 3.702 0 7.402-.313 11.071-.946 15.616-2.695 28.938-10.887 37.509-23.066 2.761-3.919 3.662-8.816 2.474-13.436-1.184-4.604-4.321-8.443-8.609-10.534-12.973-6.324-25.561-13.647-37.569-21.848 18.945-7.823 33.901-21.747 42.073-39.348 10.708 2.773 19.991 6.249 28.2 10.581.051.027.103.053.154.079 39.079 19.487 59.251 61.049 59.957 123.491.294 50.828-15.812 102.293-44.191 141.202-2.44 3.346-1.707 8.038 1.64 10.479 1.334.973 2.881 1.441 4.414 1.441 2.314 0 4.597-1.068 6.065-3.081 30.228-41.443 47.385-96.163 47.072-150.169-.387-33.916-6.356-62.702-17.748-85.561zm-250.248-163.432c4.025-4.336 9.498-6.723 15.413-6.723h22.76c5.915 0 11.389 2.387 15.413 6.723 4.022 4.332 5.996 9.965 5.558 15.861v.004l-5.84 79.149c-.807 10.925-10.022 19.482-20.98 19.482h-11.061c-10.395 0-19.127-7.433-20.767-17.692-.102-.624-.171-1.207-.214-1.792l-5.84-79.151c-.438-5.896 1.536-11.529 5.558-15.861zm153.146 103.656c-7.206 20.285-25.403 35.5-48.679 40.701-2.851.637-5.072 2.871-5.692 5.725-.621 2.854.472 5.809 2.8 7.573 16.291 12.34 33.797 23.104 52.031 31.993.344.167.564.433.655.788.066.255.083.647-.212 1.065-6.262 8.898-16.133 14.907-27.795 16.919-13.889 2.396-28.492-1.198-41.107-10.124-18.54-13.127-35.929-28.133-51.684-44.603-1.437-1.501-3.394-2.333-5.508-2.315-.771.009-1.553.009-2.324 0-2.068-.021-4.071.814-5.508 2.315-15.755 16.47-33.144 31.476-51.682 44.602-12.617 8.928-27.217 12.524-41.109 10.125-11.662-2.013-21.533-8.021-27.797-16.921-.293-.416-.276-.808-.21-1.063.091-.355.312-.62.654-.787 18.235-8.89 35.741-19.653 52.032-31.993 2.328-1.764 3.421-4.718 2.801-7.573-.621-2.854-2.843-5.088-5.693-5.725-23.274-5.202-41.473-20.415-48.679-40.692-3.014-8.48-3.832-17.417-2.368-25.846.226-1.298 1.056-1.962 1.53-2.242.462-.272 1.415-.668 2.629-.249 26.841 9.242 54.708 15.479 82.928 18.572.122 1.671.24 3.634.527 5.29 2.808 17.561 17.77 30.306 35.576 30.306h11.061c18.771 0 34.557-14.661 35.939-33.376l.165-2.229c28.196-3.084 56.063-9.321 82.927-18.574.919-.315 1.918-.218 2.745.267.516.303 1.168.877 1.353 1.905 1.543 8.539.745 17.587-2.306 26.166z"/><path d="m177.168 324.974v-13.863c0-4.142-3.357-7.5-7.5-7.5s-7.5 3.358-7.5 7.5v13.863c0 4.142 3.357 7.5 7.5 7.5s7.5-3.358 7.5-7.5z"/><path d="m290.871 336.478c0-26.005-23.553-26.005-34.871-26.005s-34.871 0-34.871 26.005c0 21.024 15.644 38.128 34.871 38.128s34.871-17.104 34.871-38.128zm-54.742 0c0-7.82 1.797-11.005 19.871-11.005s19.871 3.185 19.871 11.005c0 12.753-8.914 23.128-19.871 23.128s-19.871-10.375-19.871-23.128z"/><path d="m349.832 324.974v-13.863c0-4.142-3.357-7.5-7.5-7.5s-7.5 3.358-7.5 7.5v13.863c0 4.142 3.357 7.5 7.5 7.5s7.5-3.358 7.5-7.5z"/></g></svg>