<svg id="Capa_1" enable-background="new 0 0 512 512" height="512" viewBox="0 0 512 512" width="512" xmlns="http://www.w3.org/2000/svg"><g><path d="m448.189 206.83c-7.661-21.139-20.777-39.293-37.937-52.948 10.564-35.618 8.52-73.808-5.909-108.144-3.849-9.164-11.505-16.035-21.006-18.852-9.434-2.797-19.511-1.228-27.685 4.324l-.475.327c-12.825 8.703-17.745 25.517-11.699 39.978 7.497 17.94 9.249 37.881 5.128 56.822-18.124-2.041-36.612.103-54.261 6.5-11.426 4.141-21.979 9.877-31.424 16.981-2.645-5.773-5.513-11.362-8.581-16.73 1.485-.878 2.944-1.796 4.345-2.793 2.746-1.954 3.852-5.499 2.704-8.667-15.305-42.226-57.46-68.386-101.619-63.859-14.364-26.029-37.202-46.4-64.826-57.679-7.784-3.18-16.473-2.712-23.838 1.286-7.315 3.97-12.405 10.94-13.948 19.034l-.118.583c-2.448 12.873 4.663 25.867 16.909 30.897 13.703 5.626 25.463 15.303 33.665 27.585-31.647 26.011-43.914 69.682-29.777 108.674 1.087 2.999 3.93 4.944 7.046 4.944.35 0 .704-.024 1.059-.075.511-.072 3.509-.545 7.953-2.038.706 15.25 2.144 30.703 4.386 46.931.519 3.755 3.733 6.475 7.42 6.475.342 0 .688-.023 1.036-.072 4.104-.567 6.97-4.353 6.403-8.456-2.488-18.004-3.96-35.012-4.51-51.845 7.053-4.372 15.344-11.178 22.461-21.569 7.521 7.125 20.774 15.91 40.262 15.667 1.329-.017 2.629-.387 3.769-1.072 1-.601 21.446-13.217 22.322-38.083 10.425 2.716 26.609 5.062 43.061.173 3.858 6.616 7.392 13.614 10.551 20.913-10.072 9.906-18.404 21.629-24.57 34.807-1.505 3.215-.549 7.045 2.291 9.177.44.33 4.245 3.114 10.782 6.131-25.499 27.743-49.3 58.903-74.264 97.197-9.341 14.264-18.823 29.394-28.03 44.281-.167-.698-.338-1.413-.505-2.108-5.649-23.576-10.984-45.845-15.262-66.361-.93-4.411-1.82-8.808-2.644-13.069-.787-4.067-4.725-6.726-8.788-5.94-4.067.787-6.726 4.721-5.94 8.788.84 4.344 1.747 8.824 2.69 13.299 4.319 20.717 9.68 43.091 15.356 66.778 1.305 5.446 2.637 11.012 3.982 16.659l-5.836 9.507c-13.381 21.808-27.218 44.358-42.576 68.55-6.81 10.634-8.566 22.566-4.82 32.738 3.548 9.635 11.661 16.817 22.822 20.215 20.134 6.192 41.855 9.31 64.278 9.31 14.81 0 29.928-1.36 45.089-4.093 38.103-6.868 74.966-22.136 106.61-44.156 2.194-1.463 4.398-2.983 6.554-4.518 3.375-2.402 4.162-7.085 1.759-10.459-2.401-3.375-7.084-4.162-10.459-1.759-2.051 1.46-4.149 2.906-6.236 4.298-.042.028-.084.057-.125.085-61.082 42.531-138.891 56.693-203.08 36.95-6.679-2.033-11.221-5.856-13.135-11.055-2.109-5.727-.878-12.822 3.393-19.491 15.435-24.313 29.302-46.913 42.713-68.769 14.706-23.954 29.348-47.957 44.747-71.474 25.944-39.798 50.55-71.684 77.151-99.986 11.054 2.756 25.141 4.022 41.395.565-.058 12.48 3.163 32.757 21.199 50.331.951.927 2.131 1.584 3.42 1.906 11.543 2.878 35.494 2.581 53.303-15.164 6.529 11.713 19.253 29.787 39.697 40.326-12.199 47.525-40.216 94.397-77.535 129.415-3.021 2.834-3.172 7.581-.337 10.601 1.477 1.574 3.471 2.368 5.471 2.368 1.839 0 3.683-.673 5.13-2.031 38.87-36.473 68.184-85.207 81.324-134.808 2.559.723 5.2 1.337 7.947 1.799.418.07.835.104 1.249.104 2.872 0 5.542-1.654 6.79-4.322 13.596-29.059 15.064-61.672 4.133-91.834zm-368.542-166.815c-5.684-2.334-8.994-8.315-7.89-14.129l.117-.579c.714-3.745 3.042-6.933 6.386-8.749 1.901-1.032 3.996-1.552 6.104-1.552 1.656 0 3.322.322 4.908.969 22.879 9.342 42.054 25.732 54.837 46.679-2.62.71-5.21 1.531-7.755 2.456-5.727 2.073-11.236 4.669-16.458 7.75-9.842-14.616-23.893-26.13-40.249-32.845zm112.417 83.392c-2.574-1.152-5.576-.765-7.772 1.005s-3.213 4.622-2.634 7.381c3.94 18.759-8.219 29.906-12.699 33.295-21.768-.754-32.216-16.72-32.641-17.385-1.431-2.302-3.983-3.652-6.701-3.535-2.708.119-5.141 1.691-6.364 4.11-7.513 14.868-18.164 22.812-25.782 26.862-2.836 1.51-5.443 2.591-7.602 3.354-8.98-33.145 3.597-68.967 31.971-89.043 6.035-4.266 12.636-7.711 19.629-10.243 38.342-13.881 82.574 3.193 101.467 39.604.739 1.424 1.436 2.869 2.09 4.333-1.339.718-2.714 1.371-4.118 1.955-22.99 9.517-48.603-1.586-48.844-1.693zm165.253-57.678c-3.306-7.907-.664-17.067 6.317-21.804l.478-.329c4.405-2.993 9.858-3.841 14.961-2.329 5.17 1.533 9.34 5.28 11.441 10.281 12.441 29.607 14.736 62.376 6.695 93.294-3.552-2.129-7.23-4.092-11.032-5.871-7.399-3.463-15.029-6.134-22.79-8.019 4.61-21.761 2.537-44.629-6.07-65.223zm75.526 221.113c-34.589-9.429-49.749-47.765-49.901-48.159-1.005-2.635-3.402-4.483-6.207-4.785-.269-.029-.537-.043-.803-.043-2.514 0-4.884 1.265-6.278 3.399-14.109 21.608-36.475 19.964-43.124 18.92-19.821-20.757-14.611-45.352-14.382-46.38.617-2.64-.239-5.408-2.239-7.238-2-1.831-4.834-2.44-7.408-1.592-19.272 6.342-35.437 4.615-46.798 1.296-.577-.255-1.176-.442-1.788-.544-4.484-1.435-8.13-3.084-10.817-4.487 5.691-10.416 13.014-19.641 21.634-27.439 28.766-26.022 71.008-34.068 107.471-20.433 28.395 10.618 51.499 33.933 61.883 62.584 8.888 24.521 8.411 50.892-1.243 74.901z"/><path d="m229.931 276.931-3.84 12.892c-1.183 3.97 1.077 8.146 5.047 9.329.714.213 1.435.314 2.144.314 3.231 0 6.215-2.105 7.185-5.361l3.84-12.892c1.183-3.97-1.077-8.146-5.047-9.329-3.972-1.185-8.147 1.077-9.329 5.047z"/><path d="m367.455 339.435c3.231 0 6.215-2.105 7.185-5.361l3.84-12.891c1.182-3.97-1.077-8.146-5.047-9.329-3.972-1.186-8.147 1.077-9.329 5.047l-3.84 12.891c-1.182 3.97 1.077 8.146 5.047 9.329.714.213 1.435.314 2.144.314z"/><path d="m314.154 310.497c-4.156 2.631-9.235 3.336-13.934 1.938-4.7-1.4-8.564-4.771-10.602-9.247-1.716-3.77-6.163-5.435-9.934-3.718-3.77 1.716-5.434 6.164-3.718 9.934 3.835 8.423 11.114 14.768 19.971 17.407 2.99.891 6.06 1.329 9.116 1.329 5.998 0 11.944-1.689 17.125-4.97 3.5-2.216 4.54-6.849 2.324-10.349-2.215-3.499-6.848-4.541-10.348-2.324z"/></g></svg>