<svg id="Capa_1" enable-background="new 0 0 511.983 511.983" height="512" viewBox="0 0 511.983 511.983" width="512" xmlns="http://www.w3.org/2000/svg"><g><path d="m399.976 196.508c-25.254-12.481-41.414-36.69-43.227-64.755-.855-13.226-12.44-24.072-25.685-24.072-13.305 0-24.832 10.795-25.694 24.067-.735 11.376-3.815 22.159-9.155 32.05-7.664 14.171-19.446 25.481-34.058 32.702-1.981.974-3.78 1.912-5.438 2.834-22.494 12.243-41.233 29.85-54.192 50.917-13.027 21.179-19.913 45.367-19.913 69.95 0 35.996 14.441 67.003 41.766 89.676 29.35 24.353 68.775 34.964 106.685 34.964 41.614 0 79.5-12.418 106.679-34.968 27.327-22.674 41.771-53.682 41.771-89.672-.001-52.051-30.478-99.448-79.539-123.693zm28.189 201.821c-24.493 20.321-58.978 31.512-97.101 31.512-33.698 0-70.773-9.695-97.111-31.512-23.773-19.725-36.339-46.742-36.339-78.128 0-44.176 25.396-85.441 66.336-107.726 1.494-.831 3.071-1.652 4.837-2.521 17.428-8.612 31.476-22.107 40.627-39.031 6.374-11.806 10.05-24.661 10.925-38.206.353-5.439 5.263-10.035 10.721-10.037 5.279-.002 10.383 4.765 10.72 10.034 2.164 33.481 21.435 62.356 51.551 77.24 43.907 21.698 71.183 63.942 71.183 110.246 0 31.382-12.57 58.398-36.349 78.129z"/><path d="m414.365 167.397c-15.376-7.594-25.311-23.619-25.311-40.825 0-28.32-23.04-51.36-51.36-51.36h-13.27c-28.32 0-51.36 23.04-51.36 51.36 0 2.703-.246 5.373-.713 8.002-9.124-5.573-18.56-10.374-28.162-14.312-20.757-8.507-35.16-27.76-37.587-50.24-.697-6.5-3.885-12.336-8.976-16.433-5.086-4.093-11.463-5.964-17.952-5.264l-1.862.201c-.763-7.523-.743-20.231 5.928-30.139 2.313-3.436 1.403-8.097-2.033-10.41-3.435-2.313-8.096-1.403-10.41 2.033-9.267 13.764-9.412 30.322-8.407 40.125l-12.642 1.363c-11.396-40.805-41.337-49.391-42.671-49.752-4.001-1.082-8.146 1.274-9.229 5.272-1.082 3.999 1.253 8.108 5.251 9.19.967.279 22.074 6.74 31.496 36.923l-1.152.124c-6.497.698-12.331 3.882-16.429 8.965-4.101 5.088-5.972 11.47-5.268 17.964 1.184 10.998-.606 22.118-5.18 32.162-4.581 10.069-11.789 18.694-20.835 24.937-6.82 4.692-13.494 9.966-19.835 15.674-3.079 2.771-3.329 7.513-.558 10.592 1.481 1.646 3.525 2.483 5.577 2.483 1.788 0 3.582-.635 5.015-1.925 5.86-5.274 12.019-10.141 18.312-14.472 11.289-7.791 20.272-18.537 25.976-31.075 5.686-12.486 7.913-26.311 6.441-39.986-.272-2.511.45-4.976 2.033-6.94s3.839-3.195 6.357-3.465l45.725-4.93c2.508-.272 4.979.453 6.946 2.036 1.965 1.581 3.196 3.835 3.466 6.352 3.019 27.963 20.957 51.917 46.811 62.514 9.793 4.016 19.407 9.019 28.668 14.883-.302.534-.612 1.063-.935 1.583-6.328 10.194-15.587 14.999-25.711 20.584-4.568-4.526-9.357-8.925-14.311-13.131-7.857-6.603-16.158-12.742-24.672-18.246-20.268-13.11-47.325-10.194-64.335 6.933-7.161 7.212-13.962 14.974-20.235 23.098-33.428 43.708-49.855 95.112-45.07 141.046 4.508 42.524 27.137 79.788 65.656 108.338-22.704-4.9-44.577-13.97-63.598-26.56-34.401-23.053-54.568-53.955-58.32-89.35-3.803-36.507 9.493-77.673 36.46-112.918 1.256-1.628 2.552-3.255 3.85-4.835 2.629-3.201 2.167-7.927-1.034-10.556-3.202-2.631-7.927-2.167-10.556 1.034-1.395 1.698-2.786 3.445-4.154 5.218-29.29 38.28-43.681 83.335-39.484 123.626 4.236 39.972 26.673 74.635 64.922 100.267 30.02 19.87 66.539 31.629 102.83 33.111.104.004.208.006.312.006.773 0 1.519-.12 2.223-.34 7.271 2.255 14.861 3.406 22.475 3.406 5.411 0 10.831-.59 16.158-1.764 21.579 16.245 48.008 27.722 77.032 33.457-.011.37-.035.74-.035 1.111 0 20.049 16.311 36.36 36.36 36.36h16.14c9.716 0 18.849-3.781 25.713-10.646 6.866-6.865 10.647-15.998 10.647-25.714 0-.367-.024-.732-.035-1.099 35.963-7.091 67.362-22.712 91.161-45.423 2.997-2.859 3.108-7.607.248-10.604-2.859-2.996-7.606-3.107-10.604-.248-23.17 22.11-54.426 36.896-90.391 42.761-11.291 1.846-23.003 2.782-34.81 2.782s-23.519-.936-34.815-2.783c-30.683-4.994-58.438-16.742-80.268-33.974-32.789-25.883-50.847-63.298-50.847-105.354 0-54.446 29.131-104.236 77.933-133.193 16.225-9.627 33.221-19.344 40.586-37.736.015-.035.03-.07.045-.106.006-.014.012-.028.018-.041 2.886-7.192 4.35-14.78 4.35-22.553 0-20.049 16.311-36.36 36.36-36.36h13.27c20.049 0 36.36 16.311 36.36 36.36 0 23.221 12.901 44.018 33.667 54.273 55.06 27.213 89.263 80.611 89.263 139.356 0 27.842-7.512 53.04-22.327 74.894-2.324 3.429-1.429 8.092 2 10.417 3.428 2.323 8.092 1.428 10.417-2 16.53-24.383 24.911-52.413 24.911-83.311-.002-64.492-37.406-123.042-97.62-152.803zm-53.936 308.067c-.317 5.21-2.471 10.066-6.19 13.784-4.032 4.033-9.397 6.253-15.106 6.253h-16.14c-11.332 0-20.604-8.876-21.293-20.037 9.622 1.221 19.463 1.847 29.363 1.847 9.902.001 19.745-.626 29.366-1.847zm-186.814-240.109c-15.362 25.735-23.481 55.075-23.481 84.847 0 41.091 15.526 78.2 44.054 106.131-10.979.132-21.928-2.713-31.453-8.359-2.906-1.727-5.788-3.533-8.525-5.342-39.75-26.645-63.057-62.373-67.396-103.307-4.391-42.152 10.942-89.669 42.046-130.339 5.874-7.606 12.261-14.897 18.985-21.669 12.042-12.125 31.196-14.188 45.547-4.907 7.992 5.167 15.786 10.931 23.138 17.109 3.688 3.13 7.273 6.392 10.751 9.73-21.968 14.663-40.41 33.898-53.666 56.106z"/><path d="m382.186 232.517c-8.395-4.148-16.193-9.232-23.316-15.193-4.274-3.576-8.304-7.469-12.074-11.663-2.695-2.99-6.234-5.156-10.125-6.237-.018-.005-.036-.007-.055-.012-7.765-2.104-15.918.287-21.29 6.256-10.047 11.179-21.953 20.213-35.365 26.84-1.119.549-2.216 1.118-3.308 1.702-33.234 17.801-53.879 50.75-53.879 85.991 0 23.985 9.168 43.756 27.243 58.755 22.266 18.479 52.584 25.715 81.047 25.715 2.018 0 4.022-.036 6.011-.107 49.117-1.751 102.269-29.009 102.269-84.364 0-36.661-21.902-70.259-57.158-87.683zm-121.993 134.195c-13.44-11.193-22.42-26.607-22.42-46.51 0-29.7 17.611-57.583 45.956-72.766.934-.499 1.876-.989 2.857-1.47 15.146-7.484 28.569-17.669 39.892-30.267 1.182-1.313 2.835-2.029 4.565-2.029 1.723 0 3.451.748 4.602 2.026 11.326 12.602 24.749 22.786 39.895 30.27.941.465 1.87.943 2.789 1.434 28.465 15.223 46.014 42.854 46.014 72.802 0 19.319-7.344 35.205-21.831 47.22-17.28 14.348-42.654 22.25-71.449 22.25-1.667 0-3.323-.03-4.968-.082-22.821-.731-48.22-8.152-65.902-22.878z"/><path d="m331.062 369.95c20.275 0 36.157-22.59 36.157-51.429 0-18.171-6.405-34.582-17.133-43.899-2.23-1.937-4.199-4.52-5.85-7.677-2.641-5.048-7.688-8.184-13.174-8.183-5.485 0-10.533 3.136-13.172 8.183-1.651 3.157-3.62 5.74-5.851 7.677-10.729 9.318-17.134 25.729-17.134 43.899-.001 28.839 15.882 51.429 36.157 51.429zm-9.188-84.003c3.595-3.122 6.685-7.099 9.188-11.825 2.503 4.726 5.594 8.703 9.188 11.825 7.382 6.413 11.969 18.895 11.969 32.574 0 19.747-9.689 36.429-21.157 36.429s-21.157-16.683-21.157-36.429c-.001-13.681 4.586-26.162 11.969-32.574z"/></g></svg>