<svg id="Capa_1" enable-background="new 0 0 512.029 512.029" height="512" viewBox="0 0 512.029 512.029" width="512" xmlns="http://www.w3.org/2000/svg"><g><path d="m500.563 161.535c-14.794-11.587-33.069-18.469-52.131-19.745-.703-17.65-6.146-34.433-15.896-48.882-4.014-6.103-11.004-9.295-18.16-8.333-2.056.252-4.101.594-6.136.983-.472-6.567-1.479-13.112-3.036-19.577-1.944-8.504-8.435-14.995-16.854-16.919-24.417-5.881-50.501-3.883-74.254 5.57-10.329-21.359-26.168-38.955-46.1-51.147-7.387-4.64-16.567-4.64-23.881-.046-20 12.236-35.845 29.835-46.174 51.193-23.75-9.454-49.829-11.453-74.168-5.589-8.505 1.944-14.996 8.436-16.919 16.854-1.565 6.497-2.576 13.07-3.05 19.661-2.018-.386-4.041-.725-6.06-.973-7.235-.967-14.229 2.219-18.192 8.248-9.793 14.514-15.243 31.305-15.946 48.956-19.06 1.276-37.329 8.152-52.059 19.688-5.798 4.428-8.486 11.624-7.031 18.699 4.558 23.51 17.987 44.376 37.817 58.763.415.31.829.61 1.243.911.053.039.106.076.16.113 13.083 8.977 26.894 14.343 39.47 15.412 17.537 43.792 35.074 87.589 52.611 131.393 4.063 10.147 10.378 19.317 18.335 26.669 8.37 34.364 35.504 61.937 71.122 70.018 1.315 15.977 14.738 28.575 31.049 28.575h7.468c17.073 0 30.982-13.805 31.153-30.838 31.537-10.245 55.097-36.337 62.879-67.696 7.986-7.365 14.323-16.557 18.4-26.727l23.383-58.4c1.539-3.845-.329-8.211-4.175-9.75-3.842-1.541-8.211.328-9.751 4.174l-23.382 58.398c-.565 1.411-1.196 2.778-1.857 4.125l-8.846-187.586c14.675-7.865 28.547-21.913 39.482-40.096.032-.053.063-.106.094-.16.34-.598.676-1.198.964-1.722 9.725-17.154 15.2-35.927 16.235-54.9 2.592-.591 5.229-1.069 7.916-1.398 1.478-.199 2.9.453 3.768 1.771 9.395 13.923 14.028 30.376 13.401 47.582-.074 2.05.693 4.041 2.126 5.51 1.432 1.469 3.424 2.284 5.454 2.263.309-.003.616-.005.926-.005 18.029 0 35.525 5.939 49.428 16.827 1.181.902 1.727 2.373 1.408 3.922-3.834 19.777-15.176 37.358-31.938 49.504-.031.023-.062.046-.094.07-.343.256-.685.504-1.026.752-12.378 8.476-25.106 13.093-35.961 12.921-3.084-.008-5.907 1.832-7.061 4.711l-17.894 44.686c-1.539 3.845.33 8.21 4.175 9.75.914.366 1.857.539 2.786.539 2.976 0 5.791-1.783 6.965-4.714l16.084-40.167c12.574-1.069 26.388-6.436 39.47-15.411.053-.037.104-.073.156-.111.416-.301.831-.603 1.247-.914 19.83-14.387 33.259-35.252 37.8-58.68 1.47-7.157-1.217-14.353-6.943-18.725zm-121.521-13.102c-.286.519-.575 1.035-.866 1.549-10.509 17.444-23.763 30.339-37.328 36.314-2.838 1.25-4.614 4.119-4.468 7.217l9.13 193.591c1.775 37.655-23.43 71.803-59.933 81.197-3.314.853-5.631 3.841-5.631 7.263v5.31c0 8.908-7.247 16.155-16.155 16.155h-7.468c-8.908 0-16.155-7.247-16.155-16.155v-3.63c0-3.688-2.682-6.83-6.325-7.407-40.298-6.394-69.236-41.961-67.313-82.733l4.836-102.56c.195-4.138-3.001-7.65-7.138-7.845-4.15-.211-7.65 3-7.845 7.138l-4.786 101.48c-.66-1.347-1.29-2.714-1.855-4.125-18.14-45.31-36.28-90.611-54.42-135.911-1.153-2.879-3.967-4.731-7.061-4.711-10.843.164-23.583-4.446-35.958-12.92-.343-.249-.685-.497-1.028-.754-.031-.023-.062-.047-.094-.07-16.761-12.146-28.104-29.727-31.955-49.587-.301-1.466.245-2.938 1.499-3.895 14.068-11.019 31.902-16.956 50.281-16.766 2.034.019 4.021-.794 5.454-2.263 1.432-1.469 2.2-3.459 2.125-5.509-.627-17.206 4.008-33.659 13.452-47.656.818-1.244 2.24-1.896 3.801-1.686 2.636.323 5.254.799 7.836 1.388 1.03 18.978 6.493 37.723 16.186 54.82.333.603.669 1.204 1.009 1.801.03.054.062.107.093.16 10.936 18.183 24.808 32.231 39.482 40.096l-2.412 51.145c-.195 4.137 3.001 7.649 7.138 7.845 4.147.199 7.65-3.001 7.845-7.138l2.644-56.067c.146-3.098-1.63-5.967-4.468-7.217-13.565-5.975-26.82-18.872-37.328-36.315-.292-.514-.583-1.034-.911-1.627-9.352-16.497-14.241-34.673-14.44-52.954.016-.321.013-.64-.012-.955-.016-8.408.961-16.833 2.957-25.121.649-2.84 2.817-5.008 5.744-5.678 23.54-5.67 48.884-2.972 71.364 7.599 1.857.874 3.99.947 5.903.206 1.913-.742 3.438-2.235 4.221-4.132 8.892-21.547 23.849-39.212 43.329-51.13 2.466-1.55 5.533-1.551 8.076.046 19.404 11.87 34.361 29.535 43.254 51.084.782 1.897 2.308 3.39 4.221 4.132 1.914.742 4.047.667 5.903-.206 22.48-10.571 47.827-13.269 71.449-7.58 2.842.649 5.01 2.818 5.68 5.744 1.981 8.225 2.953 16.594 2.941 24.956-.033.372-.036.749-.012 1.128-.219 18.237-5.116 36.407-14.488 52.939z"/><path d="m193.571 98.709c-4.142 0-7.5 3.358-7.5 7.5v12c0 4.142 3.358 7.5 7.5 7.5s7.5-3.358 7.5-7.5v-12c0-4.142-3.358-7.5-7.5-7.5z"/><path d="m318.468 98.709c-4.143 0-7.5 3.358-7.5 7.5v12c0 4.142 3.357 7.5 7.5 7.5s7.5-3.358 7.5-7.5v-12c0-4.142-3.358-7.5-7.5-7.5z"/><path d="m277.41 112.197c-3.122-2.721-7.861-2.396-10.581.727-2.729 3.132-6.669 4.928-10.81 4.928s-8.081-1.796-10.81-4.929c-2.722-3.123-7.458-3.447-10.582-.727-3.123 2.722-3.448 7.459-.727 10.582 5.579 6.402 13.641 10.073 22.119 10.073s16.54-3.672 22.118-10.074c2.722-3.121 2.396-7.858-.727-10.58z"/></g></svg>