<svg id="Capa_1" enable-background="new 0 0 511.983 511.983" height="512" viewBox="0 0 511.983 511.983" width="512" xmlns="http://www.w3.org/2000/svg"><g><path d="m462.502 260.99c-4.209-22.506-12.666-41.286-24.494-54.531-3.912-24.736-12.483-49.211-24.271-69.156-18.764-31.748-44.375-50.195-70.738-51.181-4.248-13.416-9.851-26.165-16.351-37.147-18.635-31.548-44.369-49.385-70.668-48.967-26.25-.405-52.032 17.418-70.665 48.962-6.506 10.998-12.106 23.742-16.35 37.139-16.194.573-32.227 7.715-46.538 20.755-3.062 2.79-3.283 7.533-.493 10.595 2.789 3.062 7.534 3.283 10.595.493 36.604-33.368 78.568-10.202 100.544 26.98.588.995 1.16 2.013 1.728 3.034-19.647 5.416-38.358 18.812-54.634 39.249-3.019 3.796-5.916 7.818-8.677 11.973-24.678-15.221-49.438-19.229-70.394-11.218-3.057 1.057-6.005 2.379-8.861 3.909 4.259-16.931 10.744-33.141 18.906-46.95.219-.372.439-.741.662-1.109 2.143-3.545 1.005-8.156-2.54-10.298-3.544-2.142-8.155-1.005-10.298 2.54-.25.414-.498.83-.74 1.24-11.79 19.945-20.361 44.42-24.272 69.157-11.829 13.246-20.285 32.025-24.494 54.53-5.795 30.973-2.877 68.574 7.629 98.167 10.091 27.944 26.796 45.361 49.684 51.774 7.143 1.966 14.98 2.946 23.335 2.946 7.604 0 15.64-.828 23.96-2.448-1.154 17.207-.635 34.557 1.565 51.715 3.167 24.684 22.602 43.669 47.265 46.168 17.612 1.782 35.349 2.673 53.085 2.673s35.474-.891 53.086-2.673c24.662-2.499 44.097-21.484 47.264-46.168 2.201-17.164 2.72-34.52 1.566-51.715 8.315 1.618 16.347 2.446 23.95 2.446 8.363 0 16.216-.982 23.377-2.954 22.854-6.404 39.56-23.82 49.664-51.803 1.361-3.834 2.62-7.886 3.743-12.043 1.079-3.999-1.288-8.116-5.287-9.195-3.997-1.081-8.115 1.287-9.195 5.286-1.021 3.785-2.164 7.464-3.381 10.895-5.363 15.113-14.391 28.365-28.359 36.661-17.248 10.244-36.956 9.435-56.012 5.061-.094-.753-.205-1.511-.307-2.268 14.922-16.646 22.46-39.705 22.392-68.672-.053-6.005-.396-12.19-1.017-18.367-3.217-32.8-13.801-66.931-29.187-94.485 20.662-12.767 40.826-16.324 57.329-9.973.086.033.172.065.259.095 7.191 2.468 13.734 6.732 19.451 12.677.066.076.135.15.204.223 10.682 11.21 18.372 28.062 22.238 48.736 2.65 14.165 3.37 30.106 2.081 46.101-.333 4.129 2.744 7.746 6.873 8.078.205.017.408.025.61.025 3.869 0 7.151-2.974 7.468-6.898 1.392-17.3.601-34.612-2.29-50.064zm-278.059-173.865c3.733-11.02 8.416-21.448 13.785-30.523 15.841-26.818 36.823-41.948 57.613-41.596.092.002.186.002.277 0 20.743-.374 41.772 14.778 57.617 41.603 5.363 9.058 10.045 19.484 13.78 30.515-23.198 4.314-44.765 21.795-61.543 50.181-1.542 2.612-3.024 5.31-4.445 8.052-1.842-.108-3.696-.148-5.547-.119-1.854-.029-3.706.011-5.547.119-1.421-2.742-2.904-5.441-4.447-8.055-16.775-28.38-38.339-45.859-61.543-50.177zm-73.66 309.352c-18.172-5.092-31.121-18.966-39.576-42.378-9.658-27.207-12.343-61.827-7.006-90.352 3.866-20.673 11.557-37.525 22.238-48.735.069-.073.138-.147.203-.223 5.718-5.944 12.261-10.209 19.452-12.677.087-.03.173-.062.259-.095 16.501-6.353 36.663-2.803 57.318 9.958-26.512 47.867-48.364 136.531-7.801 181.539-.102.757-.213 1.516-.307 2.268-16.883 3.878-32.292 4.133-44.78.695zm230.667 64.757c-2.273 17.728-16.213 31.36-33.896 33.152-34.224 3.462-68.928 3.462-103.149 0-17.684-1.792-31.623-15.425-33.896-33.152-2.281-17.785-2.632-35.784-1.092-53.61.707-.213 1.418-.435 2.13-.66 20.64 13.525 50.059 20.927 83.366 20.927.343 0 .688-.001 1.032-.002.347.001.688.002 1.034.002 33.393-.001 62.837-7.413 83.435-20.926.711.224 1.422.447 2.128.66 1.54 17.809 1.19 35.816-1.092 53.609zm23.287-136.298c-.195 27.066-8.296 51.986-29.924 67.684-.105.077-.214.151-.316.234-18.4 13.067-46.252 20.2-78.552 20.035-32.228.148-60.083-6.968-78.483-20.035-51.314-36.906-24.881-133.269 2.684-179.352 15.848-26.495 42.403-53.881 75.699-53.263.09.001.178.001.268 0 33.977-.59 60.835 28.085 76.84 55.158 15.796 26.717 32.066 70.375 31.784 109.539zm-24.272-125.749c-2.782-4.185-5.678-8.204-8.677-11.969-16.265-20.434-34.975-33.833-54.613-39.25.567-1.016 1.126-2.042 1.71-3.033 12.749-21.599 33.057-42.257 59.85-43.692 27.524-1.474 49.235 21.947 62.088 43.691 8.159 13.805 14.646 30.013 18.904 46.945-2.856-1.53-5.805-2.853-8.862-3.91-20.957-8.011-45.718-4.005-70.4 11.218z"/><path d="m205.555 285.008c-4.143 0-7.5 3.358-7.5 7.5v9.689c0 4.142 3.357 7.5 7.5 7.5s7.5-3.358 7.5-7.5v-9.689c0-4.142-3.357-7.5-7.5-7.5z"/><path d="m306.404 285.008c-4.143 0-7.5 3.358-7.5 7.5v9.689c0 4.142 3.357 7.5 7.5 7.5s7.5-3.358 7.5-7.5v-9.689c0-4.142-3.357-7.5-7.5-7.5z"/><path d="m274.201 296.254c-3.123-2.722-7.861-2.396-10.581.727-1.93 2.214-4.714 3.484-7.641 3.484-2.926 0-5.71-1.27-7.64-3.484-2.723-3.123-7.459-3.448-10.581-.727-3.123 2.721-3.449 7.458-.728 10.582 4.778 5.484 11.686 8.629 18.948 8.629 7.264 0 14.171-3.146 18.949-8.629 2.723-3.123 2.397-7.861-.726-10.582z"/></g></svg>