<svg id="Capa_1" enable-background="new 0 0 512.053 512.053" height="512" viewBox="0 0 512.053 512.053" width="512" xmlns="http://www.w3.org/2000/svg"><g><path d="m500.612 44.517-34.067-34.067c-13.031-13.032-33.557-13.989-47.744-2.229l-25.433 21.082c-2.15-.129-4.316-.219-6.493-.219-40.979 0-84.654 23.229-114.005 60.651-40.65 52.374-110.658 98.267-172.425 138.759-7.229 4.738-14.301 9.375-21.146 13.906-3.454 2.286-4.4 6.94-2.114 10.394 1.443 2.18 3.828 3.361 6.261 3.361 1.422 0 2.859-.404 4.133-1.247 6.828-4.52 13.882-9.144 21.091-13.869 62.747-41.134 133.867-87.757 176.027-142.077 23.586-30.073 57.119-50.011 89.887-54.09l-8.918 7.392c-6.556 5.434-9.558 13.679-8.03 22.056.822 4.51 2.868 8.513 5.83 11.688-18.62 17.447-45.562 40.641-55.349 43.632-3.962 1.21-6.191 5.403-4.981 9.365.987 3.231 3.959 5.31 7.17 5.31.727 0 1.465-.106 2.194-.329 15.97-4.88 52.837-39.045 64.758-50.373l16.705 5.75c8.385 2.887 14.849 9.351 17.734 17.735l7.239 21.031c.648 1.883 1.517 3.632 2.562 5.237l-34.116 45.165c-2.497 3.305-1.842 8.008 1.464 10.505 1.354 1.022 2.94 1.516 4.515 1.516 2.271 0 4.516-1.028 5.99-2.98l34.012-45.027c1.09.368 2.215.669 3.378.881 1.439.262 2.873.391 4.29.391 6.835 0 13.265-2.992 17.766-8.422l7.176-8.657c-1.55 24.567-10.431 49.884-25.838 72.987-8.532 12.802-17.765 26.612-27.462 40.861-2.331 3.424-1.443 8.089 1.98 10.42 1.292.879 2.76 1.301 4.213 1.301 2.398 0 4.756-1.149 6.207-3.281 9.733-14.302 18.99-28.149 27.543-40.98 20.802-31.194 30.761-66.302 28.215-99.233l22.01-26.552c11.759-14.188 10.801-34.714-2.229-47.744zm-9.321 38.172-44.044 53.134c-2.776 3.35-6.391 3.107-7.817 2.847s-4.895-1.309-6.311-5.422l-7.239-21.03c-4.398-12.781-14.253-22.636-27.035-27.037l-21.03-7.239c-4.113-1.416-5.162-4.885-5.422-6.311s-.503-5.042 2.846-7.817l53.135-44.043c3.833-3.178 8.466-4.747 13.083-4.747 5.25 0 10.479 2.03 14.481 6.033l34.067 34.067c7.523 7.523 8.076 19.373 1.286 27.565z"/><path d="m402.811 278.177c-3.392-2.378-8.069-1.554-10.446 1.837-37.525 53.542-94.768 130.651-158.347 181.911-24.632 19.849-53.345 31.8-82.348 34.523l45.831-52.124c2.734-3.11 2.431-7.85-.681-10.584-3.111-2.736-7.851-2.431-10.585.68l-54.87 62.404c-45.164-2.573-82.558-27.638-100.467-67.587-.043-.095-.087-.189-.134-.282-2.624-5.257-4.9-10.585-6.83-15.885 5.418-10.356 28.365-49.975 80.415-89.365 3.304-2.5 3.955-7.203 1.455-10.506-2.499-3.301-7.202-3.955-10.506-1.455-41.542 31.436-65.281 62.693-76.995 81.134-8.315-43.079 6.652-86.089 41.83-117.777 3.078-2.772 3.325-7.515.553-10.592-2.772-3.079-7.516-3.325-10.592-.553-44.494 40.081-59.97 96.551-41.401 151.05 2.32 6.834 5.207 13.733 8.581 20.508 20.799 46.25 64.566 74.834 117.107 76.467 1.534.047 3.064.071 4.6.071 36.638 0 73.56-13.557 104.45-38.449 65.062-52.454 123.169-130.693 161.217-184.98 2.378-3.392 1.555-8.069-1.837-10.446z"/><path d="m203.006 245.646c1.919 0 3.839-.732 5.304-2.197l7.687-7.687c2.929-2.929 2.929-7.678 0-10.606-2.93-2.929-7.678-2.929-10.607 0l-7.687 7.687c-2.929 2.929-2.929 7.678 0 10.606 1.464 1.465 3.384 2.197 5.303 2.197z"/><path d="m288.313 323.455 7.688-7.687c2.93-2.929 2.93-7.678.001-10.607-2.93-2.928-7.679-2.929-10.606 0l-7.688 7.688c-2.93 2.929-2.93 7.677-.001 10.606 1.465 1.465 3.384 2.197 5.304 2.197 1.918 0 3.838-.733 5.302-2.197z"/><path d="m233.204 259.892c-4.14-.289-7.713 2.836-7.996 6.969-.541 7.878 2.347 15.594 7.922 21.168 5.132 5.131 12.075 7.985 19.291 7.985.624 0 1.25-.021 1.877-.064 4.133-.284 7.253-3.864 6.969-7.997s-3.871-7.246-7.996-6.968c-3.558.25-7.027-1.055-9.535-3.563-2.508-2.507-3.807-5.982-3.562-9.534.282-4.133-2.838-7.713-6.97-7.996z"/></g></svg>