<svg id="Capa_1" enable-background="new 0 0 512.005 512.005" height="512" viewBox="0 0 512.005 512.005" width="512" xmlns="http://www.w3.org/2000/svg"><g><path d="m504.423 153.181c.179-2.174 1.574-4.949 3.051-7.887 2.241-4.458 4.781-9.51 4.51-15.356-.283-6.17-3.424-11.229-6.194-15.69-1.618-2.606-3.292-5.302-3.684-7.275-.429-2.145.053-5.165.564-8.363.815-5.105 1.74-10.893-.482-16.571-2.304-5.895-7.089-9.655-11.311-12.974-2.507-1.971-4.875-3.833-6.018-5.605-1.138-1.764-1.853-4.65-2.611-7.708-1.295-5.229-2.764-11.157-7.294-15.688-4.532-4.531-10.461-6-15.693-7.295-3.054-.756-5.938-1.471-7.7-2.606-1.769-1.14-3.631-3.509-5.604-6.018-3.321-4.224-7.084-9.011-12.972-11.312-5.676-2.226-11.466-1.302-16.575-.487-3.201.51-6.224.994-8.38.563-1.96-.388-4.654-2.06-7.259-3.677-4.461-2.77-9.517-5.908-15.683-6.191-5.843-.275-10.895 2.267-15.349 4.504-2.941 1.478-5.719 2.873-7.906 3.051-1.956.153-5.006-.791-7.961-1.713-4.887-1.521-10.425-3.248-16.314-2.104-5.627 1.091-9.903 4.625-13.675 7.743-2.549 2.106-4.957 4.097-7.012 4.708-1.864.552-5.065.191-8.16-.156-4.994-.563-10.655-1.201-16.137.953-5.274 2.076-8.836 6.262-11.978 9.955-2.053 2.414-4.176 4.909-6.07 5.832-1.75.851-4.978.99-8.099 1.126-4.96.214-10.581.457-15.608 3.373-4.885 2.835-7.789 7.487-10.351 11.592-1.679 2.69-3.415 5.472-5.131 6.635-1.614 1.091-4.793 1.665-7.868 2.22-4.846.874-10.339 1.865-14.902 5.407-4.443 3.454-6.709 8.438-8.708 12.835-1.316 2.893-2.677 5.885-4.227 7.255-1.459 1.291-4.54 2.257-7.519 3.191-4.674 1.466-9.973 3.128-14.038 7.192-4.063 4.063-5.725 9.361-7.191 14.036-.934 2.979-1.9 6.059-3.193 7.521-.722.817-1.898 1.581-3.269 2.313-5.41-5.027-12.537-8.173-20.327-8.827-11.553-.973-23.197 3.492-31.945 12.239l-48.079 48.079c-29.195 29.195-49.479 65.034-58.66 103.642-.958 4.03 1.532 8.073 5.562 9.032.583.139 1.167.205 1.741.205 3.394 0 6.471-2.32 7.29-5.767 8.538-35.904 27.443-69.275 54.673-96.505l48.079-48.08c5.62-5.619 12.94-8.506 20.084-7.898 5.728.48 10.564 3.111 13.617 7.406.001.002.003.004.005.006.003.004.005.008.008.013 1.234 1.726 2.164 3.719 2.763 5.925.081.296.179.586.294.87l31.754 77.754c12.038 29.472 10.573 63.819-3.942 94.722-29.136 9.471-57.001 23.328-86.954 30.178-23.628 6.03-47.965 9.876-72.336 11.431-3.226.206-6.315 1.178-9.034 2.787-3.435-15.188-4.68-31.043-3.68-47.344.254-4.134-2.892-7.691-7.026-7.945-4.144-.231-7.691 2.893-7.945 7.027-1.498 24.41 1.626 47.955 9.274 69.993 2.968 14.772 8.362 28.848 16.06 41.928l-8.342 8.342c-15.078 15.078-15.078 39.61 0 54.688l13.245 13.244c7.305 7.307 17.019 11.33 27.351 11.33s20.045-4.023 27.351-11.329l13.826-13.826c1.649.688 3.307 1.349 4.964 1.979 23.476 9.276 49.542 13.872 76.342 13.872 33.831 0 68.831-7.325 101.247-21.808 3.782-1.689 5.478-6.125 3.789-9.907-1.689-3.781-6.124-5.479-9.907-3.788-54.505 24.352-116.562 27.216-166.002 7.663-.032-.013-.064-.025-.097-.037-2.995-1.137-5.999-2.388-8.94-3.724-24.875-11.233-45.287-28.406-59.037-49.672-.005-.007-.009-.015-.014-.022-.007-.011-.013-.022-.02-.032-8.458-13.052-14.247-27.289-17.205-42.318-.59-3.662 1.742-5.76 4.759-6.133 25.298-1.614 50.562-5.606 75.085-11.863 31.303-7.116 60.263-21.762 90.769-31.342 42.758-13.053 83.566-15.607 118.016-7.388 27.072 6.961 55.087 11.755 83.27 14.249.067.006.133.011.2.015 3.853.237 6.78 1.652 8.706 4.213 6.468 8.578 2.098 28.549-14.69 44.58-24.987 23.627-52.384 45.015-81.429 63.568-3.491 2.229-4.513 6.867-2.283 10.357 2.229 3.491 6.867 4.513 10.358 2.283 29.84-19.062 57.987-41.035 83.687-65.336 10.331-9.863 17.671-21.809 20.67-33.635 2.329-9.183 1.92-17.95-1.019-24.998 2.672-3.643 4.027-7.878 5.227-11.704.935-2.979 1.9-6.059 3.191-7.519 1.371-1.551 4.365-2.912 7.261-4.229 4.396-2 9.379-4.267 12.833-8.71 3.537-4.557 4.53-10.048 5.406-14.894.556-3.073 1.131-6.251 2.225-7.865 1.166-1.726 3.947-3.463 6.637-5.143 4.101-2.562 8.748-5.465 11.577-10.34 2.923-5.024 3.166-10.648 3.381-15.61.135-3.119.274-6.344 1.126-8.091.926-1.899 3.421-4.025 5.834-6.08 3.69-3.144 7.874-6.707 9.95-11.98 2.153-5.47 1.517-11.13.956-16.123-.348-3.097-.707-6.299-.152-8.173.608-2.059 2.602-4.47 4.711-7.022 3.113-3.768 6.642-8.037 7.737-13.653 1.146-5.895-.582-11.437-2.107-16.325-.923-2.957-1.876-6.015-1.718-7.964zm-419.697 323.838-10.029 10.029c-4.473 4.473-10.419 6.937-16.745 6.937s-12.271-2.464-16.744-6.937l-13.245-13.245c-4.471-4.471-6.933-10.414-6.933-16.737 0-6.322 2.462-12.266 6.933-16.737l6.209-6.209c13.029 17.49 30.25 32.11 50.554 42.899zm409.347-338.462c-1.959 3.897-4.181 8.315-4.599 13.399-.396 4.858 1.061 9.531 2.346 13.653 1.045 3.353 2.126 6.818 1.703 8.993-.364 1.868-2.505 4.459-4.576 6.965-2.839 3.435-6.057 7.328-7.532 12.321-1.418 4.782-.862 9.734-.372 14.104.384 3.418.781 6.952-.007 8.956-.701 1.78-3.252 3.953-5.719 6.054-3.418 2.912-7.293 6.213-9.59 10.926-2.221 4.552-2.438 9.58-2.63 14.017-.146 3.388-.298 6.89-1.364 8.723-.964 1.662-3.806 3.437-6.554 5.153-3.83 2.393-8.17 5.104-11.113 9.457-2.868 4.231-3.769 9.211-4.563 13.604-.597 3.303-1.215 6.717-2.492 8.362-1.183 1.521-4.24 2.912-7.198 4.257-4.125 1.877-8.799 4.003-12.288 7.948-3.409 3.855-4.927 8.695-6.266 12.966-.422 1.347-.853 2.705-1.318 3.943-3.621-2.168-7.853-3.443-12.566-3.748-27.362-2.427-54.554-7.084-80.827-13.844-.042-.011-.083-.021-.125-.031-32.874-7.857-70.862-6.664-110.668 3.367 11.611-31.56 11.538-65.487-.586-95.17l-31.59-77.353c-.246-.861-.523-1.706-.83-2.534 2.221-1.292 4.364-2.856 6.183-4.915 3.409-3.855 4.927-8.695 6.266-12.965.996-3.176 2.026-6.459 3.486-7.919 1.46-1.461 4.744-2.49 7.92-3.486 4.27-1.34 9.11-2.857 12.965-6.267 3.945-3.487 6.07-8.16 7.945-12.283 1.345-2.957 2.736-6.017 4.257-7.198 1.649-1.28 5.062-1.896 8.363-2.491 4.392-.793 9.37-1.69 13.614-4.561 4.351-2.949 7.059-7.286 9.447-11.113 1.718-2.751 3.493-5.597 5.154-6.56 1.833-1.063 5.339-1.216 8.729-1.362 4.435-.191 9.461-.409 14.017-2.625 4.719-2.299 8.018-6.177 10.929-9.599 2.099-2.467 4.269-5.018 6.043-5.716 2.011-.79 5.548-.393 8.968-.007 4.368.492 9.319 1.052 14.108-.369 4.987-1.483 8.872-4.693 12.299-7.526 2.508-2.072 5.101-4.216 6.978-4.579 2.177-.423 5.642.655 8.992 1.7 4.125 1.286 8.798 2.742 13.65 2.342 5.086-.414 9.51-2.637 13.413-4.597 2.948-1.481 5.982-3.028 7.926-2.924 2.265.104 5.416 2.06 8.462 3.951 3.571 2.217 7.618 4.729 12.25 5.646 4.785.953 9.502.2 13.662-.464 3.375-.536 6.865-1.095 8.746-.357 2.088.816 4.406 3.764 6.646 6.614 2.526 3.213 5.389 6.854 9.269 9.354 3.858 2.488 8.302 3.589 12.222 4.56 3.496.865 7.111 1.761 8.692 3.342 1.58 1.58 2.476 5.193 3.341 8.688.972 3.924 2.074 8.37 4.564 12.229 2.502 3.883 6.143 6.744 9.354 9.27 2.849 2.238 5.794 4.554 6.611 6.644.735 1.88.178 5.369-.361 8.743-.665 4.163-1.418 8.882-.462 13.661.922 4.638 3.435 8.685 5.651 12.255 1.893 3.048 3.85 6.2 3.954 8.469.088 1.925-1.446 4.976-2.929 7.927z"/><path d="m334.295 146.455c-9.006-2.939-17.617-.381-25.595 7.604-15.764 15.78-16.864 40.333-2.45 54.732 6.774 6.768 15.787 10.105 25.074 10.105 10.475 0 21.3-4.247 29.656-12.61 19.371-19.392 1.716-37.029-6.768-45.505-6.983-6.976-13.042-12.081-19.917-14.326zm16.073 49.23c-9.918 9.927-24.955 11.047-33.517 2.495-8.562-8.554-7.458-23.591 2.461-33.52 3.554-3.558 6.118-4.396 7.943-4.396 1.006 0 1.787.255 2.385.45 4.284 1.398 9.246 5.959 13.971 10.679 13.386 13.373 13.445 17.598 6.757 24.292z"/><path d="m300.381 117.437c1.815 0 3.521.706 4.806 1.99 1.285 1.283 1.993 2.99 1.994 4.807s-.706 3.523-1.989 4.809c-2.928 2.931-2.925 7.679.005 10.606 1.464 1.463 3.382 2.194 5.301 2.194 1.92 0 3.841-.733 5.306-2.199 4.116-4.119 6.38-9.595 6.377-15.418s-2.273-11.297-6.393-15.411c-4.117-4.113-9.587-6.378-15.407-6.378-.003 0-.007 0-.011 0-5.823.003-11.296 2.273-15.411 6.393-2.927 2.931-2.925 7.68.006 10.606s7.679 2.926 10.606-.005c1.283-1.285 2.99-1.993 4.807-1.994z"/><path d="m375.388 199.169c-2.928 2.931-2.925 7.679.005 10.606s7.679 2.925 10.606-.005c2.65-2.652 6.963-2.653 9.616-.005 2.653 2.65 2.655 6.964.005 9.616-2.928 2.931-2.925 7.679.005 10.606 1.464 1.463 3.382 2.194 5.301 2.194 1.92 0 3.841-.733 5.306-2.199 8.496-8.504 8.489-22.334-.016-30.829-8.502-8.495-22.333-8.486-30.828.016z"/></g></svg>