<svg id="Capa_1" enable-background="new 0 0 512 512" height="512" viewBox="0 0 512 512" width="512" xmlns="http://www.w3.org/2000/svg"><g><path d="m487.069 111.264c-1.292-3.935-5.533-6.079-9.465-4.786-3.936 1.292-6.079 5.53-4.787 9.465 11.098 33.804 10.482 72.564-1.733 109.143-18.956 56.773-63.646 99.932-113.854 109.949-1.784.356-3.378 1.349-4.484 2.792-13.162 17.17-24.739 36.547-35.252 59.005-3.759-1.95-7.879-3.142-12.185-3.499 2.404-26.606 7.061-50.123 14.186-71.568 22.821-13.701 42.121-34.516 55.937-60.365 14.593-27.302 22.306-58.959 22.306-91.55 0-53.324-20.391-102.517-55.166-134.564 19.493-4.238 39.095-3.316 57.38 2.787 23.848 7.965 44.05 24.204 58.422 46.961 1.427 2.259 3.86 3.496 6.349 3.496 1.369 0 2.754-.375 3.998-1.16 3.502-2.212 4.548-6.844 2.336-10.346-16.242-25.716-39.186-44.104-66.354-53.179-24.422-8.153-50.808-8.21-76.558-.242-21.771-15.443-46.618-23.603-72.117-23.603s-50.346 8.16-72.117 23.604c-25.751-7.968-52.137-7.912-76.559.243-36.16 12.077-64.418 40.338-79.568 79.577-14.957 38.738-15.326 83.632-1.04 126.411 7.26 21.745 17.852 41.655 31.481 59.177 2.542 3.269 7.254 3.857 10.525 1.315 3.27-2.543 3.858-7.255 1.315-10.524-12.584-16.179-22.373-34.588-29.094-54.719-27.045-80.984 4.865-164.877 71.132-187.01 18.287-6.106 37.89-7.031 57.383-2.79-34.778 32.047-55.168 81.24-55.168 134.565 0 32.591 7.713 64.248 22.306 91.55 13.816 25.85 33.116 46.664 55.937 60.365 7.165 21.567 11.836 45.229 14.228 72.023-4.102.777-7.989 2.338-11.494 4.607-10.696-23.102-22.518-42.994-35.983-60.566-1.107-1.444-2.701-2.438-4.486-2.794-21.725-4.334-43.042-15.034-61.646-30.944-3.148-2.692-7.882-2.323-10.575.826-2.692 3.147-2.322 7.882.826 10.574 19.753 16.892 42.391 28.49 65.64 33.66 13.176 17.582 24.721 37.68 35.191 61.239-2.521 4.685-3.854 9.9-3.854 15.321 0 6.34 1.89 12.499 5.283 17.722-9.961 6.748-16.521 18.156-16.521 31.068 0 20.678 16.822 37.5 37.5 37.5h102.125c20.678 0 37.5-16.822 37.5-37.5 0-12.902-6.55-24.303-16.5-31.053 3.421-5.234 5.262-11.345 5.262-17.737 0-6.712-2.043-13.136-5.816-18.547 10.096-22.201 21.171-41.244 33.742-58.013 25.986-5.77 50.885-19.399 72.176-39.54 22.488-21.273 39.83-48.859 50.152-79.774 13.231-39.615 13.855-81.726 1.758-118.572zm-284.58 198.934c-44.45-25.401-73.171-80.491-73.171-140.349 0-54.151 22.59-103.48 60.43-131.956.001 0 .001-.001.002-.002 19.892-14.975 42.811-22.891 66.278-22.891s46.386 7.916 66.28 22.894c37.839 28.476 60.43 77.805 60.43 131.956 0 59.857-28.722 114.947-73.171 140.349-1.58.903-2.778 2.35-3.37 4.07-8.137 23.633-13.364 49.524-15.939 78.941h-54.13-14.324c-2.574-29.421-7.807-55.307-15.944-78.941-.593-1.721-1.791-3.167-3.371-4.071zm106.306 186.802h-102.125c-12.407 0-22.5-10.094-22.5-22.5s10.093-22.5 22.5-22.5h102.125c12.407 0 22.5 10.094 22.5 22.5s-10.093 22.5-22.5 22.5zm-6.237-88.79c9.409 0 17.5 8.139 17.5 17.5 0 4.446-1.667 8.632-4.675 11.881-2.141-.381-4.339-.591-6.588-.591h-102.125c-2.256 0-4.462.212-6.609.595-2.986-3.211-4.653-7.398-4.653-11.885 0-9.474 8.094-17.5 17.5-17.5z"/><path d="m231.708 249.002v44.908c0 13.39 11.262 24.649 24.65 24.649 13.279 0 24.65-11.422 24.65-24.649v-8.512s64.284-45.179 64.329-45.21c10.804-7.593 13.573-23.569 6-34.337-7.709-10.961-23.382-13.691-34.341-5.998l-35.988 25.288v-66.181c0-13.586-11.058-24.639-24.65-24.64-13.291 0-24.65 11.409-24.65 24.64v29.791s-12.989-9.131-12.998-9.138l-23.654-16.622c-11.129-7.81-26.532-5.118-34.333 5.994-7.683 10.943-4.903 26.702 5.992 34.342 0 0 44.34 31.159 44.346 31.163zm-56.375-57.953c-4.301-3.023-5.349-9.155-2.336-13.44 3.053-4.35 9.084-5.398 13.439-2.342 0 0 23.65 16.62 23.659 16.626l24.801 17.434c2.29 1.609 5.286 1.81 7.77.521 2.484-1.291 4.043-3.857 4.043-6.656 0 0 0-44.169 0-44.23 0-5.258 4.402-9.64 9.65-9.64 5.321 0 9.65 4.324 9.65 9.64v80.62c0 2.799 1.559 5.365 4.042 6.655s5.48 1.09 7.77-.52c0 0 47.722-33.535 47.796-33.587 4.227-2.97 10.498-1.855 13.446 2.345 3.001 4.275 1.909 10.451-2.348 13.44l-66.861 46.916c-2.375 1.324-3.847 3.83-3.847 6.55v12.53c0 4.024-2.727 7.807-6.513 9.127-2.083.734-4.519.708-6.684-.157-3.708-1.457-6.104-4.979-6.104-8.97v-49.061c0-2.827-1.589-5.413-4.111-6.69z"/><path d="m200.148 95.633c4.142 0 7.5-3.357 7.5-7.5v-10.738c0-4.143-3.358-7.5-7.5-7.5s-7.5 3.357-7.5 7.5v10.738c0 4.142 3.358 7.5 7.5 7.5z"/><path d="m311.907 95.633c4.142 0 7.5-3.357 7.5-7.5v-10.738c0-4.143-3.358-7.5-7.5-7.5s-7.5 3.357-7.5 7.5v10.738c0 4.142 3.358 7.5 7.5 7.5z"/><path d="m245.451 99.866c3.343 1.429 6.902 2.153 10.577 2.153s7.234-.725 10.545-2.14c3.75-1.582 7.155-4.055 9.846-7.15 2.717-3.126 2.386-7.863-.741-10.58-3.126-2.718-7.863-2.385-10.581.74-1.197 1.377-2.703 2.473-4.387 3.184-2.939 1.256-6.394 1.27-9.397-.014-1.652-.697-3.158-1.793-4.354-3.17-2.718-3.128-7.455-3.459-10.581-.74-3.126 2.717-3.458 7.454-.741 10.58 2.691 3.096 6.095 5.569 9.814 7.137z"/></g></svg>