<svg id="Capa_1" enable-background="new 0 0 512.026 512.026" height="512" viewBox="0 0 512.026 512.026" width="512" xmlns="http://www.w3.org/2000/svg"><g><path d="m508.696 342.102c-1.935-8.467-8.396-14.928-16.778-16.844-11.262-2.712-22.756-3.761-34.17-3.195l-45.005-77.943c.652-.615 1.304-1.229 1.932-1.858.007-.008.015-.016.022-.023 13.682-13.831 19.225-28.434 16.492-43.312-2.331-13.662-11.469-25.431-24.472-38.897-.061-.062-.123-.125-.186-.186-13.467-13.003-25.235-22.141-38.805-24.455-5.867-1.076-11.676-.86-17.406.601l-36.399-63.037c-9.994-17.315-27.139-27.991-47.038-29.292-15.738-1.016-30.939 4.192-42.473 14.23l-11.693-24.049c-3.194-6.569-9.716-10.65-17.02-10.65s-13.826 4.081-17.02 10.65l-21.736 44.703c-6.519 13.408-5.805 29.06 1.912 41.867 4.085 6.78 9.82 12.153 16.512 15.753-4.687 7.798-39.097 67.562-43.779 76.136-4.412 8.756 7.899 15.661 13.078 7.345l14.743-25.536h139.795c-1 3.161-1.869 6.358-2.565 9.579-1.901 8.627-2.325 16.922-1.39 24.594l-11.514 11.514c-2.683 2.684-6.228 4.068-9.728 3.787-9.07-.712-17.722 2.82-23.714 9.701-9.279 10.654-9.256 26.705.051 37.334 4.277 4.89 10.071 8.118 16.332 9.268.224 1.224.552 2.423.932 3.604h-171.353l30.768-53.285c2.071-3.587.842-8.174-2.745-10.245s-8.174-.843-10.245 2.745l-49.212 85.227c-11.992-6.564-25.707-8.459-38.637-5.335-5.123 1.167-9.033 5.071-10.186 10.106-2.857 11.863-1.54 24.296 3.662 35.471-12.003 11.034-18.963 26.235-19.61 42.999-.715 18.52 6.623 37.049 20.133 50.835.035.036.07.071.106.106 13.249 12.988 30.58 20.171 48.264 20.17 1.872 0 3.75-.08 5.625-.243 2.97-.255 5.982-.254 8.945-.001 19.588 1.704 39.236-5.563 53.896-19.924.038-.036.075-.073.112-.111 3.471-3.546 6.544-7.395 9.176-11.477h133.142c4.143 0 7.5-3.357 7.5-7.5s-3.357-7.5-7.5-7.5h-125.819c8.578-24.6 2.283-51.408-17.068-68.356-12.578-11.348-26.171-15.062-40.398-11.042-3 .846-6.056 1.466-9.143 1.869 1.915-4.839 5.818-10.304 8.965-13.62 2.854-2.995 2.744-7.736-.248-10.596-2.994-2.862-7.742-2.755-10.604.239-.59.617-2.704 2.893-5.13 6.209-.936-1.132-1.957-2.239-3.048-3.319l10.642-18.423h191.339c4.751 3.151 10.237 4.737 15.722 4.737 5.49 0 10.968-1.588 15.69-4.737h128.017s3.161 5.481 3.161 5.481c-.785-1.361-17.286 4.514-19.091 5.16-28.863 10.331-60.492 33.546-67.462 65.178-2.256 10.237-1.3 20.953 3.207 30.458 1.643 3.575 3.671 7.186 5.997 10.762h-47.388c-4.143 0-7.5 3.357-7.5 7.5s3.357 7.5 7.5 7.5h50.029c-7.128 5.656-14.836 14.651-19.062 28.629-1.199 3.965 1.043 8.151 5.008 9.35.724.219 1.455.323 2.174.323 3.22 0 6.196-2.09 7.176-5.331 4.797-15.867 15.381-22.952 21.027-25.705 8.166 7.551 17.206 13.904 26.024 17.958 6.279 2.978 12.882 4.415 19.618 4.415 23.164-.002 47.847-17.022 65.876-46.999.028-.047.057-.094.084-.142.342-.599.679-1.203.967-1.729 15.602-27.518 20.206-59.227 12.987-89.196zm-78.998-38.61h-107.977c1.11-3.469 1.556-7.168 1.253-10.942-.276-3.497 1.104-7.042 3.787-9.725l11.491-11.491c2.575.314 5.22.478 7.927.478 5.352 0 10.938-.62 16.663-1.881 13.571-2.934 26.788-8.664 38.055-16.329zm-69.312-153.737c14.211-.153 26.129 11.62 35.632 20.788 9.547 9.896 18.606 20.484 20.4 31 1.836 9.999-2.21 19.855-12.372 30.133-18.615 18.647-62.038 37.877-84.607 15.489-22.501-22.32-2.974-66.27 15.432-84.636 6.833-6.818 15.734-12.669 25.515-12.774zm-189.953-64.65 21.736-44.703c.969-1.993 2.791-2.209 3.53-2.209.738 0 2.56.216 3.529 2.209l21.736 44.703c4.29 8.822 3.815 19.128-1.27 27.567-5.003 8.305-13.359 13.252-22.921 13.575-.713.023-1.439.023-2.146 0-9.566-.323-17.922-5.271-22.925-13.575-5.084-8.439-5.559-18.745-1.269-27.567zm-2.61 94.007c2.147-3.857 4.374-7.959 6.717-12.427 5.098-8.496 10.208-17.012 15.493-25.801 2.385.325 4.828.443 7.243.355 14.521-.491 27.705-8.276 35.266-20.826 7.716-12.808 8.431-28.459 1.912-41.867l-3.154-6.488c8.829-9.313 21.443-14.292 34.608-13.428 14.812.968 27.579 8.921 35.025 21.822l35.576 61.614c-4.126 2.596-8.2 5.856-12.21 9.822-7.585 7.569-14.112 16.943-19.116 27.223h-137.36zm-67.586 191.458c9.202-2.603 17.564-.13 26.311 7.776.031.027.062.055.093.083 21.893 19.162 19.164 53.219-.179 73.031-11.523 11.258-26.847 16.961-42.058 15.64-3.818-.326-7.688-.327-11.516.001-15.217 1.314-30.533-4.382-42.047-15.641-10.601-10.846-16.361-25.313-15.805-39.704.719-18.616 16.167-44.516 37.8-42.029 8.761.964 16.816 3.825 25.82 3.825 7.304 0 14.564-1.003 21.581-2.982zm-28.84-12.434c-3.466-.391-6.897-1.055-10.257-2.003-2.236-.63-4.459-1.07-6.61-1.31-.004 0-.008-.002-.012-.002-.003 0-.007-.001-.01-.001-.01-.001-.02-.003-.03-.004-.014-.001-.027-.001-.04-.002-7.656-.869-15.136.591-22.323 4.329-2.695-7.093-3.317-14.729-1.719-22.122 9.344-2.046 19.174-.51 27.772 4.364.075.043.151.084.228.124.124.064.247.135.37.204 1.438.87 2.808 1.798 4.062 2.751 4.581 3.496 7.831 7.518 9.16 11.269-.229.794-.427 1.595-.591 2.403zm214.716-52.951c-.1-.082-.206-.168-.292-.242-3.317-2.909-4.976-7.083-4.549-11.452.218-2.23-.573-4.441-2.157-6.027-1.583-1.586-3.795-2.378-6.024-2.167-4.385.421-8.559-1.237-11.46-4.556-4.39-5.013-4.401-12.58-.026-17.603 2.84-3.261 6.93-4.933 11.222-4.6 7.883.624 15.724-2.341 21.516-8.133l5.552-5.552c2.261 4.829 5.237 9.186 8.94 12.918 3.713 3.684 8.048 6.654 12.86 8.908l-5.539 5.539c-5.792 5.793-8.757 13.635-8.132 21.524.344 4.281-1.333 8.368-4.616 11.228-.069.061-.138.121-.271.229-4.846 3.982-12.157 3.98-17.024-.014zm196.503 118.804c-11.78 21.407-39.708 51.206-67.057 38.198-.031-.015-.062-.03-.093-.044-6.594-3.026-13.441-7.689-19.815-13.252l20.607-20.607 35.198 5.056c.361.052.721.077 1.076.077 3.669 0 6.877-2.696 7.414-6.435.589-4.1-2.258-7.901-6.357-8.49l-24.079-3.459 27.726-27.726c2.929-2.93 2.929-7.678 0-10.607-2.929-2.928-7.677-2.928-10.607 0l-27.726 27.726-3.459-24.08c-.589-4.101-4.396-6.942-8.49-6.357-4.1.589-6.946 4.391-6.357 8.49l5.056 35.198-20.591 20.591c-.172-.209-.358-.407-.552-.596-5.328-6.199-9.788-12.82-12.717-19.203-.014-.031-.028-.062-.043-.093-9.756-20.515 4.979-47.111 36.664-66.198 12.912-7.778 27.772-12.712 42.716-14.499 12.385-1.481 25.173-.754 37.362 2.183 2.803.641 4.941 2.779 5.603 5.668 6.054 26.458 1.562 54.76-11.479 78.459z"/><path d="m193.032 367.441v12c0 4.143 3.358 7.5 7.5 7.5s7.5-3.357 7.5-7.5v-12c0-4.143-3.358-7.5-7.5-7.5s-7.5 3.357-7.5 7.5z"/><path d="m332.929 379.441v-12c0-4.143-3.357-7.5-7.5-7.5s-7.5 3.357-7.5 7.5v12c0 4.143 3.357 7.5 7.5 7.5s7.5-3.358 7.5-7.5z"/><path d="m273.79 374.156c-2.729 3.132-6.669 4.928-10.81 4.928s-8.081-1.796-10.81-4.928c-2.721-3.124-7.459-3.448-10.582-.728-3.123 2.721-3.448 7.459-.727 10.581 5.579 6.402 13.641 10.074 22.119 10.074s16.54-3.672 22.118-10.074c2.722-3.122 2.396-7.86-.728-10.581-3.121-2.721-7.859-2.396-10.58.728z"/></g></svg>