<svg id="Capa_1" enable-background="new 0 0 512.012 512.012" height="512" viewBox="0 0 512.012 512.012" width="512" xmlns="http://www.w3.org/2000/svg"><g><path d="m489.141 280.065c2.524-6.69 1.634-14.337-2.697-20.353-5.632-7.828-12.052-14.878-19.136-21.02 7.067-18.117 9.042-38.262 5.7-58.625-1.5-9.221-8.713-16.426-17.942-17.927-20.558-3.361-40.895-1.555-59.191 5.208-4.787-5.607-10.149-10.797-16.003-15.525 5.317-19.814 6.319-41.307 2.857-62.516-1.836-11.193-10.601-19.938-21.803-21.757-13.445-2.198-26.886-2.707-40.025-1.521-10.596-23.782-27.993-44.804-50.598-61.061-9.225-6.624-21.602-6.626-30.791-.01-2.638 1.895-5.241 3.89-7.738 5.929-3.208 2.621-3.684 7.346-1.063 10.554 2.622 3.207 7.345 3.684 10.554 1.063 2.257-1.844 4.611-3.648 7.005-5.367 3.963-2.854 9.301-2.848 13.279.012 21.933 15.772 38.405 36.419 47.638 59.705 1.263 3.188 4.526 5.119 7.928 4.675 13.501-1.735 27.429-1.458 41.4.825 4.839.786 8.621 4.556 9.411 9.374 2.89 17.702 2.336 35.585-1.548 52.243-5.947-1.356-12.327-.183-17.489 3.529-18.272 13.137-31.807 30.406-39.32 50.114-2.254.862-4.488 1.81-6.693 2.839-8.572-14.237-20.398-26.977-34.544-37.139-7.897-5.69-18.512-5.695-26.409-.017-13.913 9.992-25.467 22.59-33.755 36.717-1.894-.859-3.802-1.666-5.722-2.401-7.514-19.709-21.047-36.977-39.319-50.113-5.158-3.71-11.534-4.884-17.488-3.525-3.885-16.66-4.44-34.544-1.55-52.242.791-4.824 4.573-8.594 9.42-9.382 13.589-2.222 27.186-2.537 40.407-.937 3.442.418 6.717-1.577 7.928-4.822 3.774-10.111 9.001-19.821 15.536-28.858 2.427-3.356 1.673-8.045-1.684-10.472-3.354-2.426-8.044-1.675-10.473 1.683-6.153 8.511-11.277 17.567-15.276 26.991-12.793-1.059-25.84-.518-38.853 1.61-11.208 1.821-19.973 10.565-21.81 21.765-3.461 21.203-2.459 42.695 2.858 62.51-5.853 4.727-11.215 9.918-16.003 15.526-18.297-6.764-38.634-8.568-59.186-5.209-9.235 1.502-16.448 8.707-17.947 17.918-3.342 20.372-1.368 40.518 5.699 58.635-7.084 6.141-13.504 13.191-19.135 21.018-4.333 6.019-5.223 13.67-2.699 20.357-13.785 4.959-22.775 17.134-22.382 31.726 1.204 53.045 32.245 106.528 80.941 139.531 26.479 18.379 60.882 28.919 94.386 28.919 7.689 0 15.253-.554 22.57-1.634 10.102 20.208 32.457 33.404 57.62 33.404s47.518-13.195 57.62-33.404c7.317 1.08 14.881 1.634 22.569 1.634 33.505 0 67.907-10.54 94.318-28.872 10.499-7.116 20.372-15.329 29.343-24.408 2.911-2.946 2.883-7.695-.063-10.606-2.948-2.912-7.697-2.883-10.606.063-8.284 8.385-17.398 15.967-27.157 22.582-24.028 16.677-55.313 26.241-85.834 26.241-8.852 0-17.502-.796-25.705-2.365-6.353-1.22-12.427-2.892-18.071-4.977-9.843-3.611-18.171-8.469-24.859-14.471 17.568-4.175 34.946-10.063 51.875-17.579 5.023 10.192 15.6 21.288 33.891 21.288 3.009 0 6.228-.301 9.662-.955 4.069-.774 6.74-4.701 5.965-8.771s-4.707-6.745-8.77-5.964c-16.512 3.139-23.995-5.747-27.154-12.029 5.887-2.963 11.699-6.12 17.345-9.424 26.077-15.261 40.769-28.928 41.382-29.502 3.02-2.831 3.172-7.571.344-10.594-2.829-3.023-7.575-3.18-10.599-.354-.129.122-12.36 11.458-33.875 24.613-3.132-5.244-4.412-16.904 5.222-37.353 1.765-3.747.158-8.216-3.589-9.981-3.747-1.764-8.215-.158-9.981 3.589-12.719 26.996-9.562 42.689-4.55 51.171-4.696 2.555-9.466 5.005-14.276 7.295-20.648 9.832-42.056 17.085-63.685 21.592-4.295-7.13-6.743-14.967-7.275-23.353-.628-9.949 1.563-20.373 6.336-30.148 1.965-4.079 4.184-8.083 6.613-11.906 17.268-28.232 49.01-48.89 82.538-58.559 40.259-12.811 85.671-17.586 131.34-13.82.016.001.032.002.049.004.024.002.049.004.073.006.386.026.78.061 1.185.098 11.579 1.024 19.176 8.511 18.902 18.66-.641 28.213-10.375 56.56-28.152 81.976-2.374 3.395-1.548 8.07 1.847 10.444 3.395 2.376 8.072 1.546 10.444-1.847 19.479-27.85 30.149-59.052 30.856-90.201.393-14.623-8.601-26.804-22.383-31.76zm-451.396-11.593c5.965-8.29 12.919-15.573 20.668-21.646 2.728-2.138 3.636-5.865 2.197-9.018-7.642-16.74-9.993-35.87-6.801-55.332.463-2.843 2.694-5.066 5.558-5.532 19.729-3.223 39.141-1.046 56.133 6.302 3.147 1.361 6.816.415 8.912-2.299 5.849-7.572 12.847-14.397 20.792-20.282.442-.327.885-.654 1.306-.959 2.363-1.697 5.52-1.706 7.859-.023 16.779 12.063 28.924 28.043 35.119 46.211.75 2.2 2.479 3.928 4.679 4.678.83.283 1.658.597 2.486.909-8.25-.244-16.581.3-24.882 1.661-9.602 1.562-17.111 9.061-18.686 18.658-2.3 14.022-2.218 27.975.242 41.466.916 5.036 2.165 9.953 3.717 14.728-37.099-9.854-77.672-13.475-118.492-10.546-.276-.374-.558-.747-.828-1.123-1.682-2.342-1.675-5.498.021-7.853zm52.17 170.482c-44.815-30.373-73.334-79.228-74.431-127.534-.272-10.118 7.324-17.604 18.921-18.63.387-.035.781-.069 1.167-.096.034-.003.067-.005.102-.008 45.679-3.773 91.103 1.007 131.37 13.822 6.054 1.933 11.481 3.843 17.39 6.146 26.441 10.568 48.03 27.38 62.697 48.746-1.594 2.739-3.096 5.529-4.46 8.331l-.174.364c-.037.068-.071.138-.105.207-5.942 12.134-8.663 25.191-7.87 37.765.417 6.565 1.811 12.997 4.092 19.108-22.194-5.867-43.809-14.567-64.019-25.592 5.013-8.482 8.168-24.175-4.55-51.171-1.767-3.748-6.237-5.353-9.981-3.589-3.747 1.766-5.354 6.234-3.589 9.981 9.633 20.447 8.353 32.107 5.222 37.352-21.514-13.155-33.745-24.491-33.874-24.613-3.022-2.828-7.766-2.671-10.597.347-2.833 3.022-2.68 7.769.342 10.602.613.574 15.305 14.241 41.381 29.501 5.646 3.305 11.458 6.461 17.345 9.424-3.159 6.282-10.641 15.171-27.153 12.03-4.062-.78-7.995 1.896-8.77 5.964-.775 4.069 1.896 7.996 5.965 8.771 3.437.655 6.652.955 9.662.955 18.291 0 28.87-11.1 33.893-21.293 17.423 7.745 35.45 13.8 54.002 18.088-6.598 5.777-14.739 10.46-24.314 13.974-5.627 2.079-11.7 3.75-18.052 4.97-8.208 1.57-16.857 2.366-25.709 2.366-30.522 0-61.807-9.564-85.903-26.288zm208.313 36.479c-8.339 13.175-24.313 21.578-42.222 21.578-17.903 0-33.871-8.396-42.213-21.562 3.781-1.009 7.449-2.167 10.966-3.467 12.395-4.547 22.867-10.858 31.247-18.804 8.379 7.946 18.849 14.256 31.231 18.798 3.527 1.303 7.208 2.448 10.991 3.457zm-42.223-127.381c-16.169-21.488-38.8-38.451-66.057-49.345-5.101-1.992-9.621-3.611-14.721-5.307-3.278-7.142-5.683-14.803-7.142-22.823-2.151-11.799-2.217-24.029-.196-36.351.529-3.23 3.059-5.755 6.301-6.282 10.714-1.756 21.46-2.006 31.94-.745 3.435.412 6.71-1.577 7.921-4.819 1.165-3.114 2.496-6.165 3.967-9.089 7.304-14.636 18.596-27.709 32.658-37.81 2.657-1.912 6.229-1.908 8.896.012 14.367 10.321 25.993 23.587 33.621 38.36 1.494 2.896 2.837 5.842 3.99 8.758 1.262 3.188 4.519 5.118 7.925 4.681 10.712-1.368 21.722-1.147 32.725.653 3.234.526 5.764 3.051 6.293 6.278 3.42 20.901.887 41.301-7.322 59.168-31.981 9.82-62.113 29.211-80.799 54.661zm98.99-60.068c5.744-17.571 7.117-36.718 3.932-56.186-1.574-9.598-9.084-17.096-18.679-18.657-8.312-1.361-16.637-1.923-24.888-1.679.826-.312 1.655-.608 2.485-.892 2.2-.75 3.929-2.478 4.679-4.678 6.195-18.168 18.34-34.147 35.12-46.212 2.337-1.683 5.494-1.673 7.827.001.452.328.895.655 1.33.978 7.952 5.89 14.95 12.715 20.799 20.287 2.097 2.714 5.767 3.66 8.912 2.299 16.991-7.348 36.401-9.526 56.139-6.301 2.857.465 5.089 2.688 5.553 5.541 3.191 19.452.84 38.582-6.802 55.322-1.438 3.152-.53 6.88 2.197 9.018 7.749 6.073 14.703 13.356 20.669 21.648 1.694 2.354 1.702 5.509.011 7.86-.266.371-.546.741-.82 1.112-40.812-2.929-81.373.691-118.464 10.539z"/><path d="m191.277 113.65v10.998c0 4.143 3.357 7.5 7.5 7.5s7.5-3.357 7.5-7.5v-10.998c0-4.143-3.357-7.5-7.5-7.5s-7.5 3.357-7.5 7.5z"/><path d="m320.736 124.648v-10.998c0-4.143-3.357-7.5-7.5-7.5s-7.5 3.357-7.5 7.5v10.998c0 4.143 3.357 7.5 7.5 7.5s7.5-3.358 7.5-7.5z"/><path d="m256.006 138.694c7.951 0 15.512-3.443 20.743-9.447 2.721-3.123 2.395-7.86-.729-10.582-3.122-2.719-7.86-2.396-10.582.729-2.381 2.733-5.819 4.301-9.433 4.301s-7.052-1.567-9.433-4.301c-2.723-3.124-7.46-3.448-10.582-.729-3.123 2.722-3.449 7.459-.729 10.582 5.234 6.003 12.794 9.447 20.745 9.447z"/></g></svg>