<svg id="Capa_1" enable-background="new 0 0 512 512" height="512" viewBox="0 0 512 512" width="512" xmlns="http://www.w3.org/2000/svg"><g><path d="m294.676 310.215c6.234-13.76 12.376-28.21 21.576-37.146 8.71-8.698 19.887-14.923 32.327-17.999 13.236-3.28 26.958-2.864 39.699 1.2 26.766 9.545 56.535 40.766 69.594 65.704 12.125 28.293 4.275 62.801-18.658 82.043-6.736 5.635-20.892 12.874-43.275 22.133-3.828 1.583-5.647 5.97-4.064 9.797 1.584 3.867 6.065 5.636 9.797 4.064 24.145-9.987 39.132-17.769 47.174-24.496 13.812-11.589 23.627-28.046 27.639-46.341 3.259-14.862 2.603-30.418-1.767-44.696l6.91-1.547c7.832-1.747 14.514-6.44 18.816-13.215s5.708-14.817 3.959-22.661c-1.568-6.971-5.453-13-10.969-17.231 3.072-13.957-.517-27.808-9.933-37.214-9.417-9.427-23.271-13.018-37.222-9.94-4.231-5.514-10.261-9.398-17.237-10.969-7.8-1.743-15.775-.324-22.379 3.786.168-2.468.261-4.949.261-7.446 0-40.083-22.493-76.846-57.779-95.248.471-3.337.709-6.711.709-10.082 0-38.671-30.245-70.153-68.855-71.674-6.11-.216-12.334.29-18.346 1.622-17.962-20.818-43.708-32.659-71.388-32.659-15.485 0-30.845 3.834-44.419 11.087-3.653 1.952-5.032 6.496-3.08 10.149 1.952 3.654 6.497 5.03 10.149 3.081 11.406-6.095 24.322-9.317 37.35-9.317 24.68 0 47.532 11.194 62.698 30.712 1.894 2.437 5.088 3.468 8.047 2.591 6.049-1.796 12.418-2.543 18.747-2.264 30.365 1.376 54.099 26.202 54.099 56.671 0 4.259-.479 8.52-1.423 12.664-.792 3.475.971 7.025 4.216 8.497 32.972 14.947 54.277 47.985 54.277 84.169 0 11.088-1.934 21.862-5.742 32.118-13.441-3.13-27.551-3.031-41.209.352-15.088 3.732-28.686 11.322-39.327 21.952-10.358 10.143-16.331 23.537-22.387 36.504-9.531-1.69-18.688-4.871-27.291-9.484-3.143-1.687-7.04-.924-9.317 1.821-1.681 2.026-3.477 3.966-5.348 5.774-20.045 18.585-49.714 25.399-75.527 15.632-14.048-5.333-25.905-14.772-34.289-27.3-1.269-1.896-3.332-3.111-5.605-3.302-2.275-.193-4.51.663-6.077 2.321-6.487 6.861-14.641 12.032-23.585 14.955-5.666 1.855-11.599 2.797-17.635 2.797-31.275 0-56.72-25.444-56.72-56.72 0-21.693 12.073-41.172 31.509-50.834 3.303-1.643 4.922-5.443 3.817-8.963-1.875-5.971-2.826-12.213-2.826-18.553 0-30.26 21.615-55.896 51.396-60.957 3.742-.636 6.418-3.966 6.235-7.757-.067-1.39-.102-2.748-.102-4.036 0-18.124 6.268-35.847 17.65-49.901 2.607-3.219 2.11-7.941-1.109-10.548-3.218-2.607-7.941-2.11-10.548 1.108-13.195 16.292-20.611 36.721-20.98 57.697-33.706 8.658-57.544 38.979-57.544 74.395 0 5.78.639 11.5 1.902 17.074-21.368 12.977-34.402 35.93-34.402 61.275 0 39.546 32.173 71.72 71.72 71.72 4.206 0 8.373-.376 12.47-1.096v.346c0 35.226 15.973 67.868 43.818 89.555 1.806 1.409 2.842 3.484 2.842 5.695v56.08c0 24.395 19.873 44.24 44.3 44.24h45.48c21.619 0 39.659-15.549 43.524-36.034 20.463 7.717 35.673-.369 54.736-7.222 14.379-5.232 29.022-10.561 43.266-15.931 9.15-3.71 4.069-17.291-5.292-14.035-20.685 7.797-41.909 15.398-62.699 23.018-11.054 4.044-22.912 2.634-32.548-3.88-11.72-7.944-20.537-24.157-13.824-42.486zm-91.915 21.378c.055-.006.109-.013.164-.021 13.014-1.751 25.223-6.343 36.002-13.444-.607 8.485-4.345 16.638-10.483 22.672-6.607 6.494-15.227 9.963-24.291 9.831-13.401-.229-25.196-8.444-30.572-20.104 5.789 1.198 11.697 1.823 17.684 1.823 3.785 0 7.652-.255 11.496-.757zm37.811 78.678c-7.755 21.174-1.226 43.837 16.218 57.655-.089 16.046-13.195 29.074-29.295 29.074h-45.48c-16.156 0-29.3-13.117-29.3-29.24v-56.08c0-6.865-3.141-13.252-8.622-17.526-24.174-18.827-38.039-47.156-38.039-77.724v-4.726c6.556-2.724 12.702-6.406 18.186-10.93 8.632 10.485 19.519 18.727 31.987 24.215 4.016 23.075 23.747 40.23 47.669 40.64.282.005.562.007.843.007 26.9 0 49.285-23.274 49.285-49.945v-10.135c.06-.062.119-.124.179-.187 7.363 3.441 15.048 5.995 22.966 7.672-3.438 8.25-7.192 17.716-11.374 28.679zm247.209-108.596c-2.154 3.392-5.499 5.741-9.424 6.616l-9.506 2.128-2.781-4.346c-15.269-23.825-36.154-44.118-60.415-58.729l2.149-9.606c.625-2.791 2.02-5.331 4.034-7.345 3.669-3.67 8.877-5.188 13.92-4.057 4.58 1.03 8.347 4.052 10.337 8.291 1.644 3.501 5.682 5.176 9.321 3.872 10.338-3.707 20.866-1.903 27.478 4.717 6.607 6.6 8.412 17.128 4.708 27.476-1.302 3.64.375 7.673 3.873 9.316 4.24 1.99 7.262 5.759 8.289 10.324.876 3.923.171 7.95-1.983 11.343z"/><path d="m144.443 160.486c4.142 0 7.5-3.357 7.5-7.5v-12c0-4.143-3.358-7.5-7.5-7.5s-7.5 3.357-7.5 7.5v12c0 4.143 3.358 7.5 7.5 7.5z"/><path d="m276.84 152.986v-12c0-4.143-3.358-7.5-7.5-7.5s-7.5 3.357-7.5 7.5v12c0 4.143 3.358 7.5 7.5 7.5s7.5-3.357 7.5-7.5z"/><path d="m206.892 167.63c8.478 0 16.54-3.672 22.119-10.073 2.721-3.123 2.396-7.86-.727-10.582-3.123-2.721-7.86-2.396-10.582.727-2.729 3.133-6.669 4.929-10.81 4.929s-8.081-1.796-10.81-4.929c-2.722-3.122-7.459-3.447-10.582-.727-3.123 2.722-3.448 7.459-.727 10.582 5.579 6.401 13.641 10.073 22.119 10.073z"/></g></svg>