<svg id="Capa_1" enable-background="new 0 0 512.015 512.015" height="512" viewBox="0 0 512.015 512.015" width="512" xmlns="http://www.w3.org/2000/svg"><g><path d="m505.389 133.051c-.028-.232-.059-.464-.096-.696-1.301-9.187-6.428-17.462-14.081-22.719-7.642-5.248-17.188-7.052-26.191-4.944-16.214 3.794-32.104 8.944-47.405 15.308-3.054-25.462-25.293-53.83-63.802-61.115-3.072-.577-6.176.801-7.8 3.469-21.261 34.921-13.626 72.083 4.907 90.747 1.018 1.024 2.101 1.986 3.237 2.884-14.978 11.081-28.968 23.543-41.67 37.202-.142.155-.281.315-.425.469-17.562 18.906-32.683 40.042-44.998 62.869-13.221 2.398-26.894 7.936-40.747 16.516-6.507-5.071-13.209-9.17-20.018-12.245-1.847-31.552-8.534-62.512-19.92-92.094-8.106-21.083-18.529-41.179-31.034-59.901 1.707-.523 3.389-1.14 5.03-1.876 28.598-12.834 52.971-50.989 44.218-99.082-.559-3.072-2.964-5.477-6.036-6.036-48.094-8.75-86.25 15.619-99.083 44.218-.018.039-.032.079-.05.119-13.397-11.338-27.837-21.578-43.095-30.486-7.982-4.66-17.635-5.744-26.485-2.975-8.867 2.776-16.204 9.184-20.144 17.588-.105.214-.202.421-.296.636-7.212 15.579-1.429 33.884 13.473 42.609 43.064 25.229 76.495 62.727 96.687 108.44.016.039.026.079.043.117 11.113 25.169 17.921 52.795 19.809 80.247.016.241.026.482.041.723-11.112 5.812-21.848 14.35-31.974 25.441-2.793 3.059-2.577 7.803.481 10.596 3.06 2.793 7.803 2.577 10.596-.482 10.091-11.052 20.698-19.146 31.53-24.062.007-.003.015-.007.022-.01.028-.012.055-.024.083-.036.04-.018.081-.034.121-.053 8.157-3.688 16.534-5.566 24.872-5.584 7.051.009 14.149 1.358 21.099 4.007.103.041.207.078.312.114 8.234 3.174 16.415 8.223 24.336 15.021 4.88 4.17 9.741 9.093 14.416 14.598 19.704 23.49 33.675 54.572 38.33 85.27 4.905 32.509-1.922 60.654-19.275 79.306-8.513 9.332-19.676 16.684-33.183 21.852-13.651 5.23-29.47 7.993-45.789 7.993-.155-.001-.306-.001-.46 0-32.906 0-61.688-10.872-79.036-29.898-17.312-18.607-24.14-46.752-19.227-79.246 3.25-21.429 10.95-42.988 22.269-62.35 2.091-3.576.887-8.169-2.689-10.26-3.574-2.092-8.169-.887-10.26 2.689-12.268 20.984-20.619 44.384-24.15 67.674-5.612 37.114 2.583 69.684 23.023 91.653 20.133 22.083 52.953 34.737 90.048 34.737.174.001.346.001.519 0 17.354 0 33.671-2.706 48.546-8.037 1.759.585 3.547 1.158 5.371 1.696 14.253 4.238 28.423 6.333 41.935 6.333 20.295 0 39.101-4.728 54.45-14.016 16.763-9.908 30.134-25.846 38.667-46.088 1.609-3.816-.181-8.215-3.998-9.824-3.818-1.61-8.215.182-9.824 3.998-7.274 17.256-18.504 30.742-32.544 39.041-19.415 11.749-45.624 14.884-73.233 9.021 7.84-4.764 14.738-10.38 20.598-16.805 20.481-22.014 28.676-54.583 23.074-91.712-5.057-33.35-20.245-67.125-41.698-92.701-2.85-3.355-5.763-6.508-8.71-9.447 12.027-6.923 23.715-11.196 34.831-12.706 8.862-1.2 17.404-.623 25.369 1.719 7.207 2.138 14.02 5.744 20.251 10.721.041.034.082.067.124.101 10.975 8.759 20.32 21.756 27.761 38.591 12.152 27.922 16.771 61.482 12.673 92.074-.55 4.105 2.333 7.88 6.438 8.43.338.045.673.067 1.005.067 3.7 0 6.919-2.737 7.424-6.505 4.451-33.227-.574-69.694-13.804-100.092-7.327-16.579-16.441-29.989-27.141-39.965 10.845-17.607 24.069-33.701 39.057-47.935 30.144-28.501 67.446-48.604 107.894-58.139 16.818-3.963 27.725-19.767 25.401-36.782zm-149.177-58.268c29.344 7.597 45.669 30.025 46.729 49.353.042.803.037 1.608-.007 2.41-12.284 5.917-24.167 12.658-35.552 20.161-2.167-1.075-4.143-2.489-5.821-4.177-13.632-13.73-19.353-40.877-5.349-67.747zm-177.406-59.79c3.84 0 7.792.246 11.839.762 4.843 37.996-14.15 67.497-36.411 77.484-6.516 2.924-13.968 3.278-20.986.996-10.703-2.056-19.027-10.383-21.083-21.084-2.281-7.017-1.928-14.47.996-20.986 8.924-19.89 33.421-37.172 65.645-37.172zm-148.348 45.579c-8.21-4.807-11.4-14.87-7.421-23.409.026-.057.052-.113.077-.171l.053-.113c.032-.063.062-.127.092-.19 2.154-4.631 6.188-8.162 11.067-9.69 4.901-1.533 10.03-.962 14.44 1.613 16.802 9.811 32.562 21.308 46.931 34.173-.118 4.891.565 9.833 2.081 14.633 3.458 15.559 15.645 27.745 31.204 31.204 3.071.97 6.201 1.595 9.337 1.895 11.833 16.689 21.873 34.62 29.944 53.465-12.868.529-25.5 2.531-37.702 5.978-21.694-45.927-56.183-83.658-100.103-109.388zm144.725 193.282c-7.096.015-14.165 1.109-21.123 3.21-2.111-25.101-8.024-49.853-17.426-73.22 12.12-3.239 24.702-4.919 37.519-5.006 9.014 24.685 14.684 50.587 16.755 76.786-5.207-1.161-10.463-1.764-15.725-1.77zm109.795 1.393c10.078-17.309 21.959-33.564 35.374-48.436 12.374 3.875 24.04 9.493 34.819 16.764-12.839 13.097-24.284 27.533-34.044 43.066-10.932-7.021-23.196-10.903-36.149-11.394zm191.571-100.013c-41.059 9.679-79.068 29.604-110.324 57.756-10.708-7.563-22.239-13.626-34.446-18.119 12.456-12.328 26.017-23.538 40.477-33.378 12.902-8.752 26.586-16.55 40.69-23.086 17.69-8.204 36.36-14.634 55.493-19.11 4.976-1.165 10.047-.205 14.281 2.703 4.276 2.938 7.021 7.384 7.73 12.52.014.098.017.118.034.215l.018.147c.006.051.012.103.02.154 1.295 9.331-4.712 18.015-13.973 20.198z"/><path d="m133.067 389.836v-9.536c0-4.143-3.358-7.5-7.5-7.5s-7.5 3.357-7.5 7.5v9.536c0 4.143 3.358 7.5 7.5 7.5s7.5-3.357 7.5-7.5z"/><path d="m232.326 389.836v-9.536c0-4.143-3.358-7.5-7.5-7.5s-7.5 3.357-7.5 7.5v9.536c0 4.143 3.358 7.5 7.5 7.5s7.5-3.357 7.5-7.5z"/><path d="m175.196 403.013c7.183 0 14.013-3.109 18.739-8.532 2.722-3.122 2.396-7.86-.726-10.582-3.122-2.721-7.86-2.396-10.582.727-1.876 2.153-4.585 3.388-7.431 3.388s-5.554-1.234-7.431-3.388c-2.722-3.124-7.459-3.447-10.582-.727-3.123 2.722-3.448 7.46-.726 10.582 4.727 5.423 11.557 8.532 18.739 8.532z"/></g></svg>