<svg id="Capa_1" enable-background="new 0 0 512 512" height="512" viewBox="0 0 512 512" width="512" xmlns="http://www.w3.org/2000/svg"><g><path d="m188.56 406.79c-7.149-11.344-11.458-24.345-12.457-37.582-1.463-19.932-3.94-40.01-6.771-59.898h55.154c4.142 0 7.5-3.357 7.5-7.5s-3.358-7.5-7.5-7.5h-57.352c-7.347-48.929-15.378-97.523-17.086-147.059-.092-4.726-.11-9.454-.046-14.18h56.919c4.142 0 7.5-3.357 7.5-7.5s-3.358-7.5-7.5-7.5h-56.426c.118-2.231.249-4.461.408-6.688 1.586-15.657 12.996-31.58 31.319-43.703 13.56-8.971 29.564-15.114 45.666-17.74 17.614-3.475 38.229-2.885 55.924.007 16.087 2.629 32.075 8.768 45.625 17.733 5.677 3.756 10.688 7.877 14.951 12.241h-47.744c-4.143 0-7.5 3.357-7.5 7.5s3.357 7.5 7.5 7.5h58.904c2.868 5.402 4.649 10.948 5.207 16.461.773 10.769 1.08 22.145.913 33.813-.06 4.142 3.25 7.547 7.392 7.606.037.001.073.001.109.001 4.092 0 7.438-3.287 7.497-7.393.174-12.136-.148-23.98-.957-35.208-.005-.066-.01-.132-.017-.198-2.024-20.496-15.512-39.971-37.979-54.835-13.137-8.691-28.32-15.037-43.874-18.541.224-1.861.134-5.254.151-7.167 0-16.244-13.22-29.46-29.47-29.46h-17.38c-16.25 0-29.47 13.216-29.47 29.46.017 1.93-.074 5.29.151 7.167-15.554 3.504-30.737 9.85-43.875 18.542-22.467 14.864-35.955 34.338-37.979 54.834-.006.066-.012.132-.017.198-3.042 42.203 1.326 84.693 7.272 126.419-9.884 4.541-29.374 15.222-39.153 32.421-2.048 3.601-.789 8.18 2.812 10.227 1.17.666 2.444.981 3.7.981 2.609 0 5.145-1.363 6.526-3.794 6.575-11.562 19.627-19.763 28.4-24.255 1.093 7.26 2.211 14.495 3.325 21.695 4.16 26.889 8.433 54.555 11.069 81.925-7.19 1.324-17.032 4.759-24.188 13.574-8.479 10.443-10.849 25.362-7.043 44.341.714 3.563 3.845 6.026 7.346 6.026.489 0 .985-.048 1.482-.147 4.061-.814 6.693-4.767 5.879-8.828-2.884-14.385-1.545-25.13 3.981-31.937 3.877-4.775 9.402-6.968 13.835-7.979 1.26 15.494 6.325 30.669 14.691 43.941 3.723 5.858 7.53 12.027 11.98 19.414 1.408 2.337 3.888 3.63 6.431 3.63 1.317 0 2.652-.348 3.863-1.077 3.548-2.138 4.691-6.747 2.553-10.295-4.511-7.49-8.378-13.754-12.151-19.693zm44.11-373.15v-4.18c0-7.974 6.491-14.46 14.47-14.46h17.379c7.979 0 14.471 6.486 14.471 14.46-.006.323.02 4.534-.027 4.718-4.171-.439-8.332-.682-12.449-.682-8.482.1-25.562-.388-33.816.682-.007-.18-.028-.357-.028-.538z"/><path d="m225.425 160.011c0-4.143-3.358-7.5-7.5-7.5h-25.681c-4.142 0-7.5 3.357-7.5 7.5s3.358 7.5 7.5 7.5h25.681c4.142 0 7.5-3.358 7.5-7.5z"/><path d="m211.64 347.175h25.68c4.142 0 7.5-3.357 7.5-7.5s-3.358-7.5-7.5-7.5h-25.68c-4.142 0-7.5 3.357-7.5 7.5s3.358 7.5 7.5 7.5z"/><path d="m335.69 414.855c8.437-13.324 13.545-28.601 14.796-44.224 4.508.872 10.421 2.937 14.601 7.827 5.799 6.784 7.25 17.66 4.312 32.326-.813 4.062 1.819 8.013 5.881 8.826.497.1.992.148 1.48.147 3.501 0 6.632-2.464 7.346-6.028 3.907-19.502 1.302-34.697-7.741-45.161-7.452-8.623-17.509-11.792-24.59-12.938 2.636-27.302 6.901-54.905 11.052-81.736 1.119-7.232 2.245-14.526 3.348-21.857 8.773 4.456 22.062 12.714 28.716 24.416 1.382 2.431 3.917 3.794 6.526 3.794 1.257 0 2.53-.315 3.7-.981 3.601-2.048 4.86-6.626 2.812-10.227-9.885-17.385-29.698-28.115-39.476-32.57 2.631-18.458 4.966-37.077 6.461-55.564.334-4.129-2.742-7.746-6.871-8.08-4.143-.34-7.746 2.743-8.08 6.871-2.47 30.544-7.295 61.737-11.962 91.904-4.937 31.911-10.041 64.909-12.438 97.499-.552 7.291-2.11 14.501-4.582 21.398h-51.126c-4.143 0-7.5 3.357-7.5 7.5s3.357 7.5 7.5 7.5h43.974c-.265.437-.527.876-.8 1.308-3.965 6.212-7.824 12.464-11.599 18.685h-63.808c-4.142 0-7.5 3.357-7.5 7.5s3.358 7.5 7.5 7.5h54.801c-.765 1.282-1.539 2.577-2.299 3.851-8.913 14.951-18.13 30.411-28.139 45.583-2.844 4.366-9.1 7.074-16.334 7.074-.016 0-.033 0-.049 0-7.227-.013-13.468-2.729-16.313-7.128-7.706-11.761-14.715-23.342-20.555-33.119-2.124-3.557-6.729-4.717-10.285-2.593s-4.717 6.729-2.593 10.284c5.919 9.91 13.03 21.658 20.862 33.61 5.632 8.711 16.42 13.924 28.858 13.945h.076c12.434 0 23.234-5.188 28.878-13.851z"/><path d="m196.725 201.044v9.916c0 4.143 3.358 7.5 7.5 7.5s7.5-3.357 7.5-7.5v-9.916c0-4.143-3.358-7.5-7.5-7.5s-7.5 3.357-7.5 7.5z"/><path d="m299.936 201.044v9.916c0 4.143 3.357 7.5 7.5 7.5s7.5-3.357 7.5-7.5v-9.916c0-4.143-3.357-7.5-7.5-7.5s-7.5 3.357-7.5 7.5z"/><path d="m263.782 205.737c-2.009 2.305-4.907 3.626-7.952 3.626s-5.943-1.321-7.951-3.626c-2.722-3.122-7.459-3.447-10.582-.727-3.123 2.722-3.448 7.459-.727 10.582 4.858 5.573 11.877 8.771 19.26 8.771 7.382 0 14.401-3.196 19.259-8.771 2.722-3.122 2.397-7.859-.726-10.581-3.123-2.723-7.86-2.397-10.581.726z"/></g></svg>