<svg id="Capa_1" enable-background="new 0 0 511.996 511.996" height="512" viewBox="0 0 511.996 511.996" width="512" xmlns="http://www.w3.org/2000/svg"><g><path d="m486.064 232.726c-.257-.256-.504-.503-.751-.759-.028-.03-.058-.06-.087-.089-7.587-7.622-12.086-11.746-20.306-17.556-3.385-2.393-8.063-1.587-10.453 1.795-2.392 3.383-1.588 8.062 1.795 10.453 7.636 5.397 11.624 9.151 18.291 15.848.297.308.593.604.845.854 15.937 16.298 23.811 38.309 21.062 58.879-2.263 16.934-11.304 30.838-25.458 39.15l-27.066 15.896c1.975-13.031 1.912-28.658-5.196-41.66-1.987-3.633-6.546-4.97-10.179-2.983-3.635 1.987-4.97 6.544-2.983 10.179 10.82 19.793-.989 50.885-2.561 54.818l-16.686 28.419c-8.31 14.152-22.211 23.192-39.145 25.454-19.553 2.611-40.414-4.379-56.487-18.832 6.082-16.243 7.377-33.788 6.2-50.986-1.788-30.198-10.008-60.062-23.605-85.281-5.23-9.724-11.229-18.711-17.848-26.776.564-4.637.509-9.347-.19-14.056l-1.02-6.784c-.813-5.44.951-10.79 4.842-14.678 3.885-3.882 9.228-5.644 14.669-4.824l6.785 1.007c9.886 1.488 19.858.138 28.845-3.907 4.586-2.063 9.338-3.815 14.123-5.206 11.823-3.432 24.15-4.762 36.708-3.935 16.395.921 30.408 4.452 45.438 11.449 3.753 1.751 8.217.122 9.964-3.634 1.749-3.755.122-8.216-3.634-9.964-16.837-7.839-32.543-11.795-50.857-12.824-10.182-.667-20.273-.075-30.136 1.746.607-4.024 1.024-8.001 1.24-11.891 1.32-20.118-2.19-39.599-10.433-57.896-2.86-6.362-3.813-13.44-2.753-20.481l1.009-6.779c1.529-10.19-1.773-20.214-9.061-27.501s-17.312-10.587-27.49-9.061l-6.803 1.012c-7.027 1.06-14.105.104-20.464-2.752-18.299-8.244-37.775-11.757-57.831-10.44-36.296 2.04-75.236 20.615-104.152 49.675-.323.324-.637.638-.908.92-18.88 19.307-28.147 44.656-25.427 69.551 1.902 17.412 9.507 32.549 21.688 43.598-1.984 1.126-4.048 2.108-6.19 2.922-22.337 8.473-41.682 21.912-57.451 39.895-11.879 13.291-23.389 33.943-29.635 47.591-1.725 3.766-.068 8.217 3.698 9.94 1.012.463 2.072.683 3.116.683 2.844 0 5.563-1.626 6.824-4.381 7.653-16.719 18.321-33.926 27.227-43.89 14.182-16.171 31.522-28.22 51.546-35.814 6.729-2.558 12.903-6.282 18.348-11.068.003-.003.006-.006.01-.009 3.285-2.895 6.253-6.128 8.818-9.602l4.92-6.651c4.219-5.702 10.707-8.974 17.803-8.975h.004c7.099 0 13.593 3.272 17.811 8.97l4.913 6.655c6.978 9.434 16.376 16.585 27.181 20.683 20.015 7.591 37.359 19.641 51.605 35.874.561.625 1.121 1.27 1.672 1.915.002.003.005.005.008.008.003.004.006.008.009.011 6.808 7.911 12.947 16.922 18.254 26.788 14.379 26.669 22.257 59.016 22.182 91.101.029 12.675-2.392 25.51-7.301 37.076-14.905 35.353-48.514 54.009-81.722 45.375l-38.954-10.128c-.21-.055-.421-.101-.631-.154 13.306-9.294 27.72-22.994 32.986-40.96 1.165-3.975-1.112-8.142-5.088-9.307-3.974-1.16-8.141 1.114-9.307 5.088-7.848 26.772-45.556 43.648-49.788 45.466l-38.444 9.995c-19.57 5.094-39.548.863-56.255-11.906-20.201-15.439-32.447-41.3-32.757-69.095l-.01-1.468c-.035-15.205 1.67-30.4 5.067-45.162.93-4.037-1.59-8.062-5.626-8.991-4.035-.93-8.062 1.59-8.991 5.626-3.654 15.876-5.488 32.215-5.45 48.545l.01 1.533c.362 32.456 14.81 62.71 38.647 80.93 14.771 11.289 31.681 17.112 49.025 17.112 6.673 0 13.41-.862 20.115-2.606l38.96-10.13-.001-.002c.048-.012.095-.024.142-.038 7.738-1.985 15.9-1.973 23.613.04l38.96 10.13c19.993 5.195 41.036 2.37 59.256-7.963 14.641-8.305 26.985-21.15 35.521-36.739 15.962 12.984 35.506 20.154 54.819 20.154 3.382-.001 6.76-.221 10.106-.667 21.606-2.887 39.397-14.509 50.094-32.728l16.851-28.701c.004-.007.008-.014.012-.021l.087-.148c.052-.089.103-.179.151-.27 3.279-5.45 7.897-10.024 13.368-13.24l28.86-16.949c18.22-10.7 29.844-28.492 32.73-50.1 3.356-25.106-6.066-51.78-25.262-71.411zm-272.204-27.909c-8.109-3.075-15.177-8.462-20.437-15.572l-4.915-6.658c-7.082-9.566-17.97-15.052-29.872-15.052-.002 0-.005 0-.007 0-11.9.002-22.783 5.489-29.858 15.054l-4.925 6.658c-.771 1.044-1.59 2.059-2.452 3.04-10.46-8.703-16.989-21.145-18.571-35.619-2.231-20.416 5.511-41.35 21.28-57.476.247-.256.494-.503.764-.772 26.391-26.522 61.671-43.454 94.444-45.296 17.645-1.163 34.721 1.919 50.765 9.146 8.993 4.042 18.968 5.394 28.838 3.907l6.8-1.011c5.429-.814 10.78.945 14.667 4.833 3.888 3.887 5.648 9.232 4.832 14.677l-1.008 6.775c-1.488 9.882-.138 19.858 3.908 28.857 7.225 16.04 10.301 33.117 9.139 50.834-.306 5.498-1.059 11.165-2.23 16.894-3.998 1.325-7.951 2.861-11.799 4.593-6.353 2.859-13.427 3.811-20.471 2.75l-6.788-1.008c-10.185-1.525-20.202 1.77-27.487 9.051-7.29 7.285-10.598 17.31-9.073 27.51l.294 1.957c-13.369-12.16-28.723-21.581-45.838-28.072z"/><path d="m91.404 323.141v-12c0-4.143-3.357-7.5-7.5-7.5s-7.5 3.357-7.5 7.5v12c0 4.143 3.357 7.5 7.5 7.5s7.5-3.357 7.5-7.5z"/><path d="m189.831 333.099c0-23.52-21.857-23.52-31.19-23.52-9.336 0-31.2 0-31.2 23.52 0 18.753 13.996 34.01 31.2 34.01 17.197 0 31.19-15.257 31.19-34.01zm-47.391 0c0-5.907.655-8.52 16.2-8.52 15.536 0 16.19 2.612 16.19 8.52 0 10.482-7.263 19.01-16.19 19.01-8.932 0-16.2-8.528-16.2-19.01z"/><path d="m240.868 323.141v-12c0-4.143-3.357-7.5-7.5-7.5s-7.5 3.357-7.5 7.5v12c0 4.143 3.357 7.5 7.5 7.5s7.5-3.357 7.5-7.5z"/></g></svg>