<svg id="Capa_1" enable-background="new 0 0 511.588 511.588" height="512" viewBox="0 0 511.588 511.588" width="512" xmlns="http://www.w3.org/2000/svg"><g><path d="m55.66 309.735c-.136 7.66 3.036 15.01 8.707 20.17l.281.257c9.856 8.968 24.93 9.258 35.063.676 44.467-37.668 109.016-37.668 153.482 0 4.928 4.174 11.022 6.249 17.119 6.249 6.438 0 12.879-2.316 17.939-6.921l.292-.266c5.665-5.155 8.837-12.505 8.701-20.165-.136-7.666-3.569-14.905-9.421-19.863-30.986-26.253-70.539-40.711-111.372-40.711s-80.386 14.458-111.373 40.711c-5.849 4.957-9.283 12.197-9.418 19.863zm19.117-8.418c58.914-49.916 144.438-49.916 203.352 0 2.597 2.199 4.06 5.283 4.12 8.684.06 3.395-1.289 6.521-3.794 8.801l-.291.265c-4.304 3.916-10.87 4.056-15.274.326-24.051-20.373-54.748-31.594-86.437-31.594s-62.386 11.221-86.437 31.594c-4.405 3.729-10.97 3.588-15.279-.33l-.28-.256c-2.511-2.284-3.859-5.411-3.8-8.806.06-3.401 1.523-6.485 4.12-8.684z"/><path d="m511.573 151.522c-.018-1.221-.029-2.591-.101-4.008-.794-23.81-7.779-47.093-20.201-67.335-12.098-19.713-29.095-36.202-49.154-47.684-3.594-2.058-8.178-.812-10.234 2.783-2.058 3.595-.812 8.177 2.783 10.234 37.299 21.351 60.407 59.69 61.816 102.559.081 1.419.064 2.771.106 4.113 0 35.264-23.221 65.899-56.471 74.5-11.698 3.032-23.42 3.498-34.835 1.386-2.276-.421-4.615.231-6.346 1.768-1.729 1.536-2.652 3.785-2.503 6.093 1.597 24.609 4.321 47.094 8.329 68.739.014.071.027.143.043.214 1.641 7.62-.876 16.269-7.087 24.351-10.622 13.823-29.202 22.668-49.604 23.655-8.882.312-17.89.312-26.673.004-.518-.025-1.031-.073-1.547-.108 20.635-17.012 33.422-42.997 33.422-71.514 0-.22-.007-.438-.015-.655l-.004-.136c-.009-1.058-.027-2.449-.098-3.878-1.196-35.813-16.038-69.294-41.796-94.279-1.803-1.749-3.65-3.437-5.531-5.075 36.882-9.204 76.284-.325 105.587 24.5 4.931 4.175 11.026 6.25 17.122 6.25 6.394 0 12.788-2.284 17.831-6.826.131-.112.263-.231.4-.36 5.667-5.155 8.839-12.507 8.702-20.17-.136-7.666-3.57-14.905-9.421-19.86-28.584-24.214-63.552-38.186-101.121-40.402-35.663-2.11-71.661 7.072-101.73 25.877-9.039-1.843-18.321-2.796-27.738-2.796h-42.297c4.473-64.339 57.398-114.086 122.459-114.086h78.11c10.143 0 20.224 1.238 29.962 3.68 4.014 1.012 8.092-1.432 9.099-5.45 1.008-4.018-1.433-8.092-5.45-9.099-10.931-2.741-22.239-4.131-33.61-4.131h-78.11c-36.004 0-70.061 13.802-95.896 38.864-24.782 24.039-39.454 55.943-41.596 90.222h-20.778c-.002 0 0 0-.002 0-31.88 0-62.967 11.145-87.528 31.379-24.226 19.958-41.052 47.788-47.379 78.364-.839 4.056 1.769 8.024 5.825 8.864 4.054.83 8.024-1.769 8.864-5.825 11.725-56.659 62.284-97.783 120.22-97.782l78.109-.001c66.613 0 120.511 52.139 122.703 118.699.002.043.004.087.006.13.059 1.171.075 2.385.082 3.281.001.201.007.402.015.603l.004.098c0 35.263-23.221 65.897-56.469 74.5-11.71 3.028-23.43 3.496-34.837 1.387-2.271-.421-4.615.231-6.344 1.768-1.729 1.536-2.653 3.784-2.504 6.092 1.591 24.575 4.315 47.061 8.328 68.741.014.07.027.142.043.212 1.64 7.622-.878 16.271-7.09 24.353-10.621 13.82-29.202 22.665-49.606 23.655-8.881.313-17.888.313-26.673.004-20.503-.994-39.085-9.839-49.706-23.659-6.211-8.082-8.729-16.73-7.089-24.353.016-.07.029-.142.043-.212 4.013-21.681 6.737-44.166 8.328-68.741.149-2.308-.774-4.556-2.504-6.092-1.729-1.536-4.072-2.19-6.344-1.768-11.408 2.108-23.127 1.641-34.835-1.387-30.401-7.864-52.943-34.716-56.095-66.817-.404-4.123-4.073-7.137-8.196-6.731-4.122.404-7.137 4.074-6.731 8.196 3.763 38.341 30.795 70.44 67.267 79.874 10.63 2.751 21.294 3.71 31.819 2.869-1.599 20.427-4.045 39.405-7.44 57.766-2.535 11.969.973 24.939 9.884 36.535 13.271 17.269 36.026 28.297 60.972 29.506 4.602.163 9.236.244 13.883.244 4.676 0 9.365-.082 14.046-.248 24.846-1.204 47.602-12.233 60.872-29.501 8.912-11.597 12.42-24.565 9.885-36.534-3.395-18.36-5.842-37.341-7.44-57.768 10.528.84 21.19-.119 31.822-2.869 5.342-1.382 10.459-3.25 15.331-5.526 6.362 1.734 13.012 2.781 19.879 3.113 4.602.162 9.235.243 13.882.243 4.675 0 9.364-.082 14.044-.247 24.845-1.202 47.601-12.23 60.872-29.502 8.912-11.598 12.419-24.567 9.882-36.535-3.392-18.333-5.838-37.312-7.439-57.763 10.53.839 21.198-.118 31.821-2.87 39.868-10.312 67.712-46.92 67.712-89.021-.001-.219-.008-.442-.016-.664zm-75.171 20.707c2.595 2.197 4.058 5.28 4.118 8.681.06 3.396-1.289 6.524-3.775 8.786l-.138.128c-.061.052-.12.104-.18.157-4.297 3.918-10.862 4.055-15.271.322-35.994-30.492-85.5-39.643-130.096-24.306-8.661-5.699-17.899-10.372-27.555-13.956 55.695-28.151 124.6-20.724 172.897 20.188z"/><path d="m123.951 202.781v-11.529c0-4.143-3.357-7.5-7.5-7.5s-7.5 3.357-7.5 7.5v11.529c0 4.143 3.357 7.5 7.5 7.5s7.5-3.357 7.5-7.5z"/><path d="m243.955 202.781v-11.529c0-4.143-3.357-7.5-7.5-7.5s-7.5 3.357-7.5 7.5v11.529c0 4.143 3.357 7.5 7.5 7.5s7.5-3.357 7.5-7.5z"/><path d="m176.453 217.146c8.23 0 16.058-3.564 21.474-9.779 2.722-3.123 2.396-7.86-.727-10.582-3.124-2.722-7.86-2.396-10.582.727-2.566 2.945-6.271 4.635-10.165 4.635s-7.599-1.689-10.165-4.635c-2.723-3.123-7.46-3.447-10.582-.727-3.122 2.722-3.448 7.459-.727 10.582 5.416 6.214 13.243 9.779 21.474 9.779z"/></g></svg>