<svg id="Capa_1" enable-background="new 0 0 512 512" height="512" viewBox="0 0 512 512" width="512" xmlns="http://www.w3.org/2000/svg"><g><path d="m390.678 409.264c-3.147-2.69-7.882-2.32-10.574.828-21.034 24.607-52.086 42.534-86.585 50.311 13.884-11.447 21.513-25.163 25.69-36.682 7.354-20.283 5.777-37.941 5.707-38.683-.394-4.124-4.054-7.161-8.179-6.754-4.123.393-7.147 4.055-6.754 8.178.014.148 1.34 15.003-4.875 32.146-8.023 22.127-24.491 37.171-48.916 44.789-58.789-18.087-54.401-74.526-54.183-76.947.383-4.115-2.636-7.767-6.753-8.161-4.124-.399-7.786 2.628-8.181 6.751-.071.744-1.659 18.456 5.761 38.77 4.204 11.51 11.874 25.201 25.814 36.614-59.55-13.554-116.09-59.931-116.09-128.329-.017-22.599 7.689-46.078 22.285-67.899 2.303-3.443 1.379-8.101-2.064-10.404-3.443-2.304-8.101-1.378-10.404 2.064-16.254 24.3-24.836 50.667-24.817 76.244 0 36.911 14.621 70.702 42.283 97.72 23.876 23.32 55.928 39.619 90.941 46.395-2.269 7.668-6.359 17.998-12.029 22.323-3.293 2.513-3.926 7.219-1.414 10.512 1.476 1.936 3.709 2.951 5.968 2.951 1.586 0 3.186-.501 4.544-1.537 10.005-7.633 15.431-22.89 17.892-31.947 4.275.486 8.588.827 12.914 1.025l.178 18.164c.041 4.117 3.39 7.427 7.498 7.427h.075c4.142-.041 7.467-3.432 7.426-7.573l-.177-18.039c4.235-.204 8.44-.545 12.579-1.014 2.46 9.056 7.887 24.322 17.896 31.958 1.358 1.036 2.957 1.537 4.543 1.537 2.259 0 4.492-1.017 5.968-2.951 2.512-3.293 1.879-7.999-1.414-10.512-5.639-4.302-9.736-14.641-12.017-22.32 39.833-7.736 76.036-28.005 100.289-56.379 2.695-3.151 2.324-7.885-.825-10.576z"/><path d="m340.371 198.659c-.377-.24-.736-.504-1.097-.765l48.573-51.309c11.291-11.931 17.028-28.165 15.742-44.541-1.286-16.374-9.488-31.514-22.503-41.536l-43.792-33.722c-2.766-2.128-5.709-3.983-8.754-5.565-11.107-13.498-27.36-21.221-44.9-21.221h-55.28c-4.533 0-8.981.515-13.276 1.511-12.327 2.859-23.386 9.701-31.622 19.71-3.046 1.582-5.989 3.438-8.757 5.567l-43.79 33.72c-13.015 10.022-21.217 25.162-22.503 41.536-1.286 16.376 4.451 32.61 15.743 44.542l48.572 51.308c-.363.262-.723.528-1.102.769-13.05 8.304-25.187 18.069-36.073 29.026-2.919 2.938-2.904 7.688.034 10.606 1.463 1.454 3.375 2.18 5.286 2.18 1.927 0 3.855-.738 5.32-2.214 10.104-10.17 21.37-19.235 33.479-26.939 3.632-2.307 6.823-5.215 9.483-8.642 6.025-7.759 8.791-17.468 7.788-27.342l-.067-.658h118.252l-.067.661c-1.003 9.868 1.761 19.574 7.782 27.332.002.002.003.004.004.006 2.661 3.428 5.852 6.336 9.479 8.64 37.307 23.737 77.156 67.93 77.116 120.781 0 17.618-3.8 34.552-11.293 50.329-1.777 3.741-.184 8.216 3.557 9.992 1.039.494 2.134.728 3.212.728 2.806 0 5.497-1.582 6.78-4.284 8.456-17.805 12.744-36.903 12.744-56.759.043-58.923-43.397-107.567-84.07-133.447zm48.264-95.44c.955 12.153-3.304 24.201-11.682 33.055l-46.335 48.945c-.704-2.684-.926-5.508-.637-8.357l.89-8.726c.008-.065.022-.128.029-.194l10.61-103.86c.19-1.865.291-3.727.303-5.581.023-3.343-.256-6.656-.797-9.914l30.916 23.807c9.661 7.437 15.749 18.672 16.703 30.825zm-265.27 0c.955-12.152 7.042-23.388 16.701-30.826l30.917-23.807c-.841 5.066-1.026 10.269-.493 15.498l10.61 103.859c.452 5.048 1.819 12.345.268 17.261l-46.32-48.929c-8.38-8.855-12.638-20.903-11.683-33.056zm71.977 56.461-8.089-79.105-1.842-18.015c-1.129-11.074 1.992-22.009 8.789-30.788 8.253-10.659 20.704-16.772 34.16-16.772h55.28c13.456 0 25.907 6.113 34.159 16.771 1.699 2.195 3.169 4.525 4.399 6.958 3.077 6.082 4.662 12.809 4.615 19.688-.009 1.376-.084 2.757-.225 4.141l-9.931 97.122z"/><path d="m256.014 333.32c20.61-.012 37.368-18.384 37.356-40.954-.015-27.677-25.259-27.677-37.395-27.677-12.13.008-37.37.024-37.355 27.714.012 22.562 16.785 40.917 37.394 40.917zm-.034-53.631c19.296 0 22.385 3.012 22.39 12.685.006 14.299-10.026 25.939-22.36 25.946-12.338 0-22.382-11.63-22.39-25.925-.005-9.677 3.078-12.693 22.36-12.706z"/><path d="m176.657 284.492c4.143-.002 7.499-3.362 7.496-7.504-.001-1.871.727-3.63 2.049-4.954 1.322-1.323 3.081-2.053 4.952-2.054h.004c3.861 0 7.003 3.14 7.005 7.001.002 4.141 3.359 7.496 7.5 7.496h.004c4.142-.002 7.498-3.361 7.496-7.504-.006-12.13-9.875-21.993-22.005-21.993-.003 0-.008 0-.011 0-5.878.003-11.403 2.295-15.557 6.453s-6.44 9.685-6.437 15.562c.002 4.141 3.359 7.496 7.5 7.496.001.001.003.001.004.001z"/><path d="m306.315 284.427c4.143-.002 7.499-3.362 7.496-7.504-.001-1.871.727-3.63 2.049-4.954 1.322-1.323 3.081-2.053 4.952-2.054h.004c3.861 0 7.003 3.14 7.005 7.001.002 4.141 3.359 7.496 7.5 7.496h.004c4.142-.002 7.498-3.361 7.496-7.504-.006-12.13-9.875-21.993-22.005-21.993-.003 0-.008 0-.011 0-5.878.003-11.403 2.295-15.557 6.453s-6.44 9.685-6.437 15.562c.002 4.141 3.359 7.496 7.5 7.496.001.001.003.001.004.001z"/></g></svg>