<svg id="Capa_1" enable-background="new 0 0 512.073 512.073" height="512" viewBox="0 0 512.073 512.073" width="512" xmlns="http://www.w3.org/2000/svg"><g><path d="m402.791 404.023-4.127-38.8c-.438-4.118-4.128-7.095-8.251-6.665-4.119.438-7.103 4.133-6.665 8.251l4.127 38.799c2.474 23.297-5.092 46.647-20.758 64.064-15.663 17.413-38.078 27.4-61.499 27.4h-99.164c-23.428 0-45.848-9.989-61.511-27.406-15.662-17.416-23.223-40.764-20.745-64.058l17.09-160.735c.438-4.119-2.546-7.812-6.665-8.251-4.116-.436-7.813 2.546-8.251 6.665l-17.09 160.735c-2.927 27.517 6.005 55.099 24.507 75.673 18.503 20.576 44.988 32.377 72.665 32.377h99.164c27.668 0 54.148-11.798 72.651-32.37 18.507-20.573 27.445-48.157 24.522-75.679z"/><path d="m134.187 217.996h.049c4.119 0 7.472-3.326 7.499-7.451.153-23.669 4.685-50.422 13.125-77.604 2.346.995 4.793 2.082 7.433 3.301 23.78 10.958 46.906 25.586 68.736 43.476.002.002.004.003.007.005.002.001.003.003.004.004.718.587 1.433 1.176 2.145 1.767 4.852 4.03 10.798 6.044 16.748 6.044 5.964 0 11.933-2.025 16.8-6.073 4.03-3.353 8.172-6.645 12.314-9.787 22.09-16.775 45.302-30.237 68.992-40.013 2.626-1.083 5.236-2.113 7.788-3.074 11.068 34.054 16.168 68.831 14.022 95.99-.005.068-.01.143-.014.218-.333 4.271-.296 8.397.111 12.277l10.109 95.027c.41 3.85 3.663 6.708 7.449 6.708.265 0 .533-.015.803-.043 4.119-.438 7.103-4.133 6.665-8.251l-10.108-95.019c-.316-3.006-.337-6.262-.062-9.676.006-.072.01-.151.014-.232 2.381-30.556-3.323-68.083-16.073-105.7-.957-2.811-2.958-5.071-5.636-6.365-.517-.25-1.05-.445-1.589-.61-7.194-19.119-16.045-37.401-26.391-54.394-2.514-4.124-6.673-7.002-11.409-7.896-1.985-.375-3.997-.369-5.95-.043-9.596-14.298-20.318-27.225-31.948-38.469-16.703-16.146-42.87-16.147-59.573.001-11.726 11.341-22.528 24.4-32.187 38.839-5.894-.093-11.589 2.847-14.889 8.146-11.13 17.905-20.516 37.252-27.989 57.575-1.173.132-2.328.444-3.416.948-2.783 1.29-4.924 3.7-5.88 6.628-9.739 30.03-14.977 59.838-15.147 86.2-.03 4.14 3.306 7.519 7.448 7.546zm212.487-101.942c-1.448.57-2.897 1.141-4.358 1.744-24.883 10.267-49.223 24.375-72.339 41.931-4.317 3.275-8.636 6.707-12.837 10.202-3.656 3.04-8.751 3.422-12.757 1.141.123-.379.248-.755.375-1.128 4.016-11.731 10.061-24.236 17.967-37.169 14.533-23.802 34.064-46.945 56.483-66.929.005-.005.042-.038.069-.061.027-.021.055-.041.082-.062.603-.458 1.244-.424 1.573-.361.412.078.986.309 1.385.962 9.473 15.558 17.642 32.26 24.357 49.73zm-110.002-93.16c10.856-10.494 27.864-10.494 38.721 0 10.747 10.391 20.688 22.342 29.617 35.581-18.634 17.195-35.231 36.467-48.641 56.439-13.602-20.58-30.237-40.194-48.684-57.374 8.765-12.864 18.495-24.498 28.987-34.646zm-44.767 44.127c.67-1.073 1.907-1.264 2.745-.914.265.113.497.262.693.439 20.157 18.408 38.133 39.905 52.212 62.387-6.521 11.106-11.757 21.952-15.616 32.346-20.267-15.621-41.539-28.604-63.363-38.661-1.059-.489-2.082-.952-3.091-1.404 7.085-19.135 15.945-37.343 26.42-54.193z"/><path d="m174.59 310.594v11.874c0 4.143 3.358 7.5 7.5 7.5s7.5-3.357 7.5-7.5v-11.874c0-4.143-3.358-7.5-7.5-7.5s-7.5 3.357-7.5 7.5z"/><path d="m225.087 332.318c0 18.604 13.884 33.74 30.95 33.74 17.061 0 30.94-15.136 30.94-33.74 0-23.351-21.682-23.351-30.94-23.351-9.261.001-30.95.001-30.95 23.351zm46.891 0c0 10.333-7.151 18.74-15.94 18.74-8.795 0-15.95-8.407-15.95-18.74 0-5.791.645-8.351 15.95-8.351 15.295.001 15.94 2.56 15.94 8.351z"/><path d="m322.478 310.594v11.874c0 4.143 3.358 7.5 7.5 7.5s7.5-3.357 7.5-7.5v-11.874c0-4.143-3.358-7.5-7.5-7.5s-7.5 3.357-7.5 7.5z"/></g></svg>