<svg id="Capa_1" enable-background="new 0 0 505.786 505.786" height="512" viewBox="0 0 505.786 505.786" width="512" xmlns="http://www.w3.org/2000/svg"><path d="m484.702 164.662c1.202-5.438 1.813-10.991 1.813-16.547 0-.444-.001-.878-.011-1.254-.478-28.907-12.116-58.957-32.772-84.615-22.423-27.852-53.623-48.507-90.224-59.73-11.75-3.613-24.657 1.545-30.688 12.259-6.661 11.828-12.032 24.127-16.054 36.693-5.097-4.33-10.434-8.489-15.956-12.429-12.362-8.815-29.358-7.7-40.411 2.651-5.414 5.068-10.607 10.408-15.425 15.859-4.255 4.797-8.288 9.768-12.095 14.87 1.951-5.933 3.647-11.989 5.055-18.101 3.002-13.033-1.637-26.36-12.099-34.771-7.853-6.336-18.07-8.941-28.034-7.143-36.037 6.517-70.441 20.856-99.493 41.468-3.378 2.397-4.174 7.079-1.777 10.457 2.397 3.379 7.079 4.175 10.457 1.777 27.27-19.348 59.595-32.813 93.478-38.941 5.759-1.038 11.422.403 15.96 4.064 5.951 4.783 8.591 12.34 6.891 19.721-1.983 8.607-4.569 17.096-7.691 25.247-3.303 8.682-.459 18.408 6.923 23.871.263.215.545.409.836.585 1.718 1.133 3.573 2.004 5.517 2.562 4.073 1.184 8.062 2.801 11.854 4.807 28.856 15.274 41.27 50.656 28.243 80.592-.651 1.522-1.332 2.944-2.081 4.348h.001l-.051.092c-.023.043-.047.086-.07.129-3.916 7.339-3.052 16.219 2.17 22.673.773.935 1.657 1.879 2.539 2.641 22.084 19.25 27.923 50.806 14.202 76.733-3.542 6.68-8.17 12.583-13.759 17.55-7.989 7.105-9.059 19.312-2.443 27.781 18.615 23.913 27.878 53.737 26.08 83.98-.928 15.706-4.81 30.946-11.539 45.297l-.643 1.321c-2.492 5.132-4.868 10.017-8.336 13.201-14.145-8.095-27.667-17.723-40.232-28.677-34.343-49.756-2.512-75.754-1.044-76.911 3.264-2.522 3.879-7.21 1.371-10.49-2.517-3.289-7.224-3.915-10.514-1.4-.483.369-11.903 9.246-17.58 26.038-2.759 8.16-4.427 19.121-1.878 32.51-14.151-16.786-26.961-35.742-38.273-56.713-.011-.02-.018-.041-.029-.061-.009-.017-.021-.033-.031-.05-13.063-24.255-24.054-50.991-32.694-79.487 4.585-20.458 15.734-37.377 33.2-50.289 13.616-10.066 26.193-13.841 26.467-13.922 3.974-1.146 6.271-5.294 5.131-9.271-1.141-3.982-5.293-6.28-9.276-5.145-2.022.579-42.784 12.736-62.479 53.209-6.78-27.768-8.717-46.507-8.74-46.739-.41-4.122-4.078-7.134-8.205-6.722-4.122.409-7.131 4.082-6.722 8.204.125 1.262 3.211 31.365 15.661 73.029.023.081.047.161.073.241 8.212 27.452 18.558 53.363 30.783 77.154-11.834 5.063-22.514 5.834-31.81 2.25-18.737-7.228-26.937-29.888-27.088-30.312-1.354-3.908-5.618-5.979-9.53-4.634-3.916 1.35-5.997 5.618-4.647 9.534.414 1.201 10.425 29.518 35.749 39.361 5.676 2.207 11.61 3.309 17.776 3.309 8.476 0 17.392-2.084 26.685-6.24 18.773 33.306 41.309 61.621 67.062 84.234.012.011.025.021.037.032.011.01.022.019.033.029 9.443 8.285 19.411 15.853 29.757 22.645-15.212-.902-30.432-3.197-45.348-6.858l-25.838-7.808c-11.44-4.113-22.806-9.145-33.785-14.955-57.835-30.606-100.98-80.544-121.486-140.614-20.448-59.905-15.921-122.728 12.75-176.899 10.58-19.993 24.115-38.105 40.232-53.841 2.739-2.674 3.307-7.001 1.008-10.062-2.777-3.697-8.051-4.017-11.254-.899-17.334 16.878-31.884 36.319-43.244 57.785-30.626 57.866-35.486 124.902-13.685 188.763 21.746 63.699 67.44 116.625 128.666 149.025 11.664 6.173 23.747 11.516 35.916 15.881.12.043.241.083.363.12l26.21 7.92c.125.037.25.071.376.103 18.376 4.525 37.197 7.104 55.934 7.664.341.011.682.016 1.022.016 6.044 0 12.078-1.641 17.333-4.681.039-.022.077-.048.116-.072.088-.052.173-.11.261-.162 1.776-.119 3.643-.266 5.66-.448 74.393-6.71 140.1-44.453 180.272-103.551 2.329-3.426 1.439-8.091-1.985-10.419-3.43-2.33-8.092-1.439-10.419 1.985-35.77 52.62-93.256 87.158-158.871 95.872.927-1.762 1.785-3.523 2.613-5.229l.654-1.345c.018-.035.034-.07.051-.106 6.748-14.375 10.939-29.555 12.501-45.195 16.778-4.062 32.117-10.255 45.94-18.507 14.458 7.17 26.278 9.628 35.672 9.628 6.737 0 12.226-1.258 16.551-2.934 5.287-2.049 6.409-9.035 2.051-12.661l-.055-.046c-2.102-1.749-4.974-2.154-7.532-1.188-5.984 2.26-16.293 3.5-32.106-2.71 7.259-5.583 14.025-11.812 20.246-18.725.014-.015.027-.029.041-.044s.028-.029.041-.044c24.046-26.765 31.09-53.62 31.378-54.75 1.021-4.008-1.396-8.078-5.401-9.108-4-1.032-8.091 1.384-9.13 5.388-.059.231-5.939 22.231-24.955 44.919-6.959-2.405-11.966-6.258-15.22-11.714-7.432-12.458-3.086-29.212-3.048-29.356 1.095-3.994-1.258-8.12-5.253-9.214-3.999-1.097-8.121 1.258-9.214 5.253-.254.926-6.09 22.892 4.563 40.887 4.04 6.823 9.806 12.099 17.204 15.783-16.785 15.837-37.271 27.044-61.087 33.473-.377-30.392-10.657-59.91-29.456-84.059-1.765-2.26-1.509-5.488.581-7.347 6.928-6.156 12.663-13.468 17.048-21.738 8.261-15.608 10.979-33.737 7.655-51.045-2.544-13.245-8.542-25.629-17.212-35.836 2.643-1.845 4.881-4.334 6.475-7.367 17.71-34.969 65.86-44.659 95.695-19.255 8.808 7.615 23.394 5.469 29.82-4.207 5.164-7.396 10.454-13.968 16.559-20.551 2.391-2.581 5.27-4.405 8.545-5.419 9.275-2.967 20.17 1.876 23.959 10.938 27.417 61.683 27.088 130.569-.897 189.028-1.702 3.555-.504 7.951 2.912 9.917 1.196.688 2.487 1.012 3.757 1.012 2.794 0 5.477-1.569 6.767-4.257 29.789-62.075 30.384-135.088 1.703-200.548zm-197.599 28.838c-1.527 2.247-2.986 4.68-4.336 7.23-.024.044-.044.08-.055.103-.036.063-.07.127-.104.191-.691 1.315-1.835 2.245-3.162 2.698-.175-1.156 0-2.358.566-3.439.025-.046.046-.084.057-.106.028-.05.056-.1.082-.149.94-1.763 1.829-3.617 2.621-5.47 7.807-17.939 8.557-38.028 2.111-56.567-6.479-18.636-19.659-33.986-37.112-43.226-3.028-1.601-6.167-2.98-9.369-4.169 5.337-8.027 11.298-15.771 17.802-23.104 4.515-5.108 9.375-10.105 14.447-14.853 5.86-5.488 14.882-6.072 21.447-1.39 7.143 5.096 13.948 10.579 20.284 16.332-7.682 34.287-5.165 68.873 7.116 98.701-13.057 5.913-24.379 15.367-32.395 27.218zm184.407-45.022c-8.597-5.629-19.559-7.28-29.431-4.238-5.751 1.779-10.98 5.084-15.118 9.55-.61.656-1.208 1.325-1.809 1.99-2.757-9.22-6.032-19.042-9.811-29.379-9.549-26.137-18.832-46.202-19.223-47.044-1.743-3.757-6.201-5.391-9.959-3.646-3.758 1.743-5.39 6.202-3.647 9.96.079.169 6.746 14.586 14.433 34.436-15.62-4.407-26.867-17.762-27.104-18.048-2.617-3.202-7.334-3.684-10.542-1.07-3.213 2.614-3.697 7.338-1.082 10.551.811.997 18.947 22.89 44.766 24.819 4.27 11.998 7.811 23.213 10.569 33.457-2.62 2.764-4.091 7.854-8.331 8.535-.861.117-2.532.124-4.079-1.158-4.04-3.337-8.47-6.294-13.177-8.796-5.717-3.026-11.782-5.33-18.019-6.847-11.906-2.91-24.301-2.926-36.225-.113-11.905-28.326-13.975-61.645-5.758-94.578 3.828-15.352 9.86-30.398 17.929-44.726 2.596-4.613 8.15-6.839 13.215-5.278 76.135 23.347 111.635 83.886 112.402 130.322.008.315.007.622.007.938 0 .121-.005.242-.006.363z"/></svg>