<svg id="Capa_1" enable-background="new 0 0 512.004 512.004" height="512" viewBox="0 0 512.004 512.004" width="512" xmlns="http://www.w3.org/2000/svg"><g><path d="m407.637 430.075c-4.362 4.47-9.101 8.854-14.051 13.004-19.794 16.404-43.086 29.286-67.816 37.745 44.059-39.371 67.256-87.574 67.166-139.891-.192-55.279-26.366-114.382-71.811-162.152-.007-.008-.014-.016-.021-.023-8.518-8.879-17.626-17.264-27.072-24.923-22.036-17.864-54.023-17.866-76.06 0-9.439 7.653-18.548 16.038-27.094 24.945-45.442 47.77-71.616 106.872-71.81 162.167-.091 52.292 23.099 100.487 67.171 139.879-24.735-8.461-48.021-21.338-67.789-37.72-36.753-30.813-56.14-68.922-56.068-110.196.149-42.488 20.533-88.193 55.903-125.375 1.635-1.705 3.325-3.414 5.022-5.079 2.956-2.9 3.002-7.649.101-10.606-2.901-2.955-7.649-3.002-10.606-.101-1.805 1.771-3.603 3.589-5.363 5.426-38.004 39.95-59.894 89.404-60.057 135.696-.08 45.875 21.162 87.969 61.464 121.757 31.436 26.052 71.115 43.816 111.841 50.102 11.05 4.786 22.99 7.274 35.316 7.274 12.336 0 24.284-2.492 35.341-7.286 40.707-6.276 80.376-24.036 111.847-50.118 5.363-4.496 10.471-9.224 15.181-14.049 2.894-2.964 2.836-7.712-.129-10.605-2.965-2.894-7.714-2.835-10.606.129zm-195.994 52.178c-3.272-2.45-6.511-5.001-9.592-7.555-44.562-37.371-68.069-83.613-67.982-133.712.18-51.491 24.848-106.845 67.655-151.845 8.094-8.435 16.738-16.394 25.695-23.654 8.28-6.714 18.432-10.071 28.582-10.071 10.151 0 20.303 3.357 28.583 10.071 8.961 7.265 17.604 15.221 25.689 23.648 42.821 45.021 67.482 100.367 67.662 151.837.087 50.114-23.421 96.356-67.949 133.698-3.114 2.582-6.352 5.132-9.623 7.581-26.12 19.553-62.602 19.554-88.72.002z"/><path d="m404.544 197.152c-17.378-18.117-36.802-33.046-57.73-44.373-23.052-12.483-37.371-36.648-37.371-63.065 0-7.221-2.811-14-7.907-19.084-5.1-5.099-11.88-7.906-19.093-7.906h-3.268c-.072-8.692 1.293-24.34 10.752-35.572 2.669-3.168 2.263-7.899-.905-10.567-3.167-2.67-7.899-2.265-10.567.905-12.491 14.832-14.379 34.241-14.295 45.234h-16.676c-7.612-48.21-40.661-61.637-42.126-62.208-3.86-1.506-8.232.397-9.735 4.256-1.504 3.859.381 8.197 4.24 9.701 1.108.451 25.56 10.827 32.403 48.251h-2.702c-14.888 0-27 12.107-27 26.99 0 12.928-3.47 25.622-10.032 36.709-6.587 11.123-16.04 20.237-27.337 26.355-8.336 4.511-16.571 9.691-24.478 15.398-3.358 2.424-4.116 7.111-1.691 10.471 2.424 3.358 7.112 4.116 10.471 1.691 7.384-5.329 15.067-10.164 22.839-14.37 13.687-7.412 25.134-18.443 33.104-31.904 7.933-13.399 12.125-28.735 12.125-44.351 0-6.611 5.383-11.99 12-11.99h52.881c3.207 0 6.221 1.248 8.493 3.52 2.262 2.256 3.507 5.265 3.507 8.471 0 31.928 17.33 61.147 45.23 76.256 19.562 10.588 37.745 24.572 54.025 41.543 35.391 37.204 55.774 82.909 55.924 125.384.044 25.095-7.042 48.974-21.062 70.973-2.226 3.493-1.198 8.129 2.295 10.355 1.249.796 2.645 1.176 4.023 1.176 2.478 0 4.901-1.227 6.332-3.471 15.583-24.454 23.46-51.053 23.411-79.072-.165-46.279-22.055-95.733-60.08-135.706z"/><path d="m181.966 287.305c-4.143 0-7.5 3.357-7.5 7.5v11.888c0 4.143 3.357 7.5 7.5 7.5s7.5-3.357 7.5-7.5v-11.888c0-4.143-3.358-7.5-7.5-7.5z"/><path d="m256.002 293.19c-9.269 0-30.973 0-30.973 23.369 0 18.618 13.895 33.766 30.973 33.766s30.973-15.147 30.973-33.766c0-23.369-21.704-23.369-30.973-23.369zm0 42.134c-8.808 0-15.973-8.418-15.973-18.766 0-5.804.646-8.369 15.973-8.369s15.973 2.565 15.973 8.369c0 10.348-7.165 18.766-15.973 18.766z"/><path d="m330.038 314.193c4.143 0 7.5-3.357 7.5-7.5v-11.888c0-4.143-3.357-7.5-7.5-7.5s-7.5 3.357-7.5 7.5v11.888c0 4.142 3.358 7.5 7.5 7.5z"/></g></svg>