<svg id="Capa_1" enable-background="new 0 0 511.982 511.982" height="512" viewBox="0 0 511.982 511.982" width="512" xmlns="http://www.w3.org/2000/svg"><g><path d="m478.301 234.141c-.023-.025-.046-.051-.069-.076-.705-.768-1.412-1.525-2.138-2.282-21.316-23.276-47.993-41.924-77.154-53.932-28.683-11.811-58.693-17.09-89.308-15.743-6.63-34.004-17.005-67.304-30.88-99.081-4.315-9.873-12.605-17.576-22.744-21.135-10.222-3.587-21.134-2.789-30.728 2.25l-33.448 17.569c-17.74 9.318-25.425 31.1-17.496 49.584 7.016 16.374 12.826 33.363 17.348 50.618-40.005.285-78.974 11.952-113.265 34.018-3.483 2.242-4.49 6.882-2.249 10.366 2.242 3.484 6.883 4.489 10.366 2.249 33.76-21.725 72.36-32.622 111.809-31.58-43.813 33.435-74.245 81.817-85.759 136.406-.254 1.099-.498 2.188-.731 3.286-.007.033-.014.067-.021.1-9.274 46.671 3.003 90.855 32.842 118.209.285.271.572.539.861.807-18.91-2.457-39.828-9.877-62.472-22.186-35.309-22.584-57.015-47.346-64.515-73.598-.012-.043-.025-.086-.038-.129-9.436-30.918.401-66.684 26.311-95.681.643-.698 1.286-1.387 1.947-2.076.042-.043.083-.087.123-.131 4.028-4.404 8.312-8.684 12.732-12.719 3.059-2.793 3.274-7.537.481-10.596-2.793-3.06-7.537-3.275-10.596-.481-4.729 4.318-9.313 8.896-13.627 13.608-.724.755-1.428 1.511-2.133 2.276-.024.026-.048.053-.072.08-29.445 32.927-40.482 74.057-29.53 110.034 8.567 29.908 32.477 57.563 71.067 82.197.146.093.296.182.448.265 30.561 16.647 58.609 25.047 83.564 25.046 2.726 0 5.418-.103 8.071-.303 22.704 12.611 52.424 19.657 88.431 20.917.087.003.175.004.262.004s.175-.001.262-.004c36.013-1.26 65.736-8.308 88.431-20.917 2.653.201 5.342.303 8.07.303 24.954 0 53.006-8.4 83.564-25.046.152-.083.302-.171.447-.265 5.368-3.427 10.51-6.948 15.284-10.466 3.335-2.457 4.046-7.152 1.589-10.487s-7.152-4.045-10.487-1.588c-4.441 3.272-9.229 6.555-14.237 9.757-22.649 12.31-43.568 19.723-62.481 22.179.289-.267.585-.529.87-.799 29.839-27.354 42.117-71.538 32.823-118.307-.233-1.1-.478-2.189-.731-3.288-11.54-54.717-41.906-102.952-85.728-136.378 56.53-1.381 112.531 22.479 151.42 64.978.04.043.08.086.12.128.662.69 1.306 1.379 1.947 2.078 25.914 28.998 35.749 64.762 26.312 95.682-.013.042-.025.085-.038.129-4.051 14.181-12.291 28.033-24.491 41.17-2.818 3.035-2.643 7.781.393 10.599 1.444 1.341 3.275 2.004 5.102 2.004 2.013 0 4.021-.805 5.498-2.396 13.804-14.865 23.192-30.743 27.904-47.194 10.952-35.977-.086-77.105-29.533-110.032zm-279.491-159.151 33.448-17.569c5.864-3.081 12.535-3.569 18.783-1.375 6.314 2.216 11.275 6.829 13.966 12.986 13.242 30.328 23.187 62.092 29.618 94.529-.161.036-.322.075-.482.113-6.596-4.023-13.449-7.758-20.446-11.089-11.255-5.569-24.155-5.569-35.411-.001-6.998 3.332-13.851 7.068-20.448 11.091-3.46-.865-6.98-1.037-10.556-1.297-4.85-19.44-11.272-38.588-19.158-56.993-4.865-11.342-.172-24.692 10.686-30.395zm185.922 241.546c.01.049.021.097.032.146.239 1.036.47 2.062.67 3 8.249 41.51-2.334 80.488-28.308 104.267-.032.029-.064.059-.096.089-5.216 4.945-11.186 9.381-17.754 13.191-20.748 12.08-48.767 18.83-83.286 20.066-34.52-1.236-62.539-7.987-83.287-20.066-.002-.001-.005-.002-.007-.004-.001-.001-.002-.001-.003-.002-6.559-3.805-12.528-8.241-17.743-13.185-.032-.03-.063-.06-.096-.089-25.963-23.769-36.547-62.725-28.318-104.214.218-1.021.444-2.032.681-3.053.011-.048.022-.097.032-.146 10.855-51.542 39.714-97.161 81.267-128.457 4.663-3.512 9.498-6.835 14.437-9.956 6.981-4.406 14.326-8.45 21.83-12.02.039-.018.077-.037.114-.056 7.05-3.502 15.138-3.502 22.187 0 .038.019.076.038.114.056 7.504 3.57 14.849 7.614 21.83 12.02.079.05.159.098.239.145 3.909 2.469 7.774 5.096 11.499 7.815 43.031 31.338 72.851 77.667 83.966 130.453z"/><path d="m193.542 303.924c-4.142 0-7.5 3.358-7.5 7.5v12c0 4.142 3.358 7.5 7.5 7.5s7.5-3.358 7.5-7.5v-12c0-4.142-3.358-7.5-7.5-7.5z"/><path d="m318.439 330.924c4.143 0 7.5-3.358 7.5-7.5v-12c0-4.142-3.357-7.5-7.5-7.5s-7.5 3.358-7.5 7.5v12c0 4.142 3.357 7.5 7.5 7.5z"/><path d="m277.392 317.428c-3.118-2.729-7.855-2.415-10.584.702-1.086 1.241-2.347 2.27-3.745 3.06-.097.054-.191.111-.285.169-4.125 2.241-9.45 2.241-13.574 0-.094-.059-.189-.115-.286-.17-1.399-.79-2.659-1.819-3.745-3.06-2.728-3.116-7.467-3.429-10.583-.702-3.116 2.729-3.43 7.467-.702 10.583 2.111 2.41 4.562 4.438 7.292 6.031.108.07.219.137.332.201 4.384 2.503 9.391 3.827 14.479 3.827s10.095-1.323 14.479-3.827c.112-.064.223-.131.331-.2 2.729-1.594 5.182-3.622 7.293-6.032 2.728-3.115 2.414-7.853-.702-10.582z"/></g></svg>