<svg id="Capa_1" enable-background="new 0 0 512 512" height="512" viewBox="0 0 512 512" width="512" xmlns="http://www.w3.org/2000/svg"><g><path d="m138.246 447.918-2.8-11.135c-2.551-10.151-7.022-20.953-13.291-32.106-.122-.227-.241-.449-.337-.634-1.675-3.296-1.665-7.561-1.654-12.497.01-4.365.021-9.312-1.31-14.222-1.325-4.828-3.978-9.226-6.542-13.478-2.486-4.124-5.058-8.388-5.186-11.287-.337-9.339 1.109-13.38 2.939-18.496 1.986-5.552 4.238-11.845 4.155-24.021.039-12.241-2.238-18.561-4.248-24.136-1.856-5.154-3.323-9.225-3.028-18.479.418-9.506 2.298-14.353 4.476-19.965 2.326-5.997 4.964-12.793 5.712-24.843.885-12.228-.82-17.997-2.325-23.087-1.321-4.468-2.365-7.999-1.327-17.284l.143-1.127c2.053-14.058 10.727-31.358 21.587-43.052 4.719-5.085 9.549-8.737 13.974-10.567 28.117-11.629 61.821-11.581 89.943-.008 4.409 1.814 9.24 5.47 13.978 10.575 5.331 5.745 10.409 13.236 14.298 21.094 1.836 3.712 6.336 5.233 10.048 3.396 3.713-1.837 5.233-6.336 3.396-10.048-3.341-6.751-7.333-13.106-11.723-18.723l32.986-28.508c7.763-6.717 12.426-16.451 12.793-26.708.367-10.245-3.58-20.275-10.827-27.517l-11.34-11.342c-7.252-7.253-17.303-11.187-27.541-10.826-9.996.363-19.485 4.815-26.173 12.232l.101-1.379c.741-10.235-2.842-20.414-9.83-27.928-6.985-7.505-16.87-11.812-27.121-11.812h-16.04c-10.251 0-20.136 4.307-27.12 11.814-6.988 7.514-10.571 17.692-9.83 27.93l.1 1.377c-6.685-7.416-16.174-11.869-26.172-12.232-10.245-.358-20.289 3.574-27.542 10.827l-11.337 11.339c-7.25 7.244-11.197 17.274-10.83 27.52.367 10.257 5.03 19.991 12.797 26.711l32.988 28.501c-10.462 13.359-18.247 30.382-20.413 45.232-.039.278-.073.556-.108.836l-.067.532c-.006.049-.012.098-.018.146-1.385 12.334.331 18.135 1.844 23.253 1.308 4.424 2.438 8.245 1.744 17.829-.609 9.801-2.611 14.96-4.73 20.423-2.32 5.98-4.95 12.76-5.48 24.822-.39 12.21 1.893 18.544 3.906 24.132 1.819 5.048 3.39 9.407 3.359 19.078.065 9.595-1.484 13.926-3.278 18.94-1.991 5.564-4.247 11.871-3.805 24.149.299 6.774 3.873 12.701 7.329 18.433 2.038 3.38 4.146 6.874 4.916 9.679.797 2.942.789 6.487.78 10.24-.014 6.005-.029 12.812 3.31 19.381.167.322.333.633.5.943.023.044.048.088.072.132 5.634 10.014 9.622 19.593 11.853 28.473l2.8 11.132c.854 3.404 3.91 5.675 7.268 5.675.605 0 1.22-.074 1.833-.228 4.015-1.009 6.454-5.084 5.445-9.101zm111.61-396.423c4.051-4.687 9.691-7.391 15.883-7.615 6.197-.216 12.01 2.064 16.39 6.442l11.343 11.344c4.376 4.372 6.663 10.186 6.441 16.371-.222 6.196-2.928 11.844-7.614 15.898l-33.381 28.849c-4.683-4.173-9.44-7.27-14.206-9.21-.052-.021-.104-.042-.156-.062-3.525-1.344-7.053-2.531-10.547-3.582l3.19-43.783zm-79.861-29.465c4.218-4.533 9.948-7.03 16.137-7.03h16.04c6.188 0 11.919 2.497 16.137 7.03 4.222 4.54 6.301 10.444 5.853 16.626l-4.929 67.648c-6.182-1.17-12.406-1.923-18.593-2.226-4.305-.211-8.67-.211-12.973 0-6.173.302-12.398 1.056-18.594 2.229l-4.929-67.65c-.45-6.182 1.629-12.087 5.851-16.627zm-81.603 56.007c-.222-6.186 2.065-11.999 6.444-16.374l11.34-11.34c4.38-4.38 10.199-6.657 16.391-6.443 6.191.225 11.831 2.929 15.88 7.613l12.659 14.654 3.191 43.791c-3.507 1.057-7.035 2.245-10.548 3.585-.056.021-.11.044-.166.066-4.766 1.95-9.517 5.042-14.184 9.198l-33.39-28.849c-4.69-4.057-7.396-9.705-7.617-15.901z"/><path d="m161.989 231.156c14.313 0 25.959-11.646 25.959-25.959s-11.646-25.959-25.959-25.959-25.959 11.646-25.959 25.959 11.646 25.959 25.959 25.959zm0-36.918c6.043 0 10.959 4.916 10.959 10.959s-4.916 10.959-10.959 10.959-10.959-4.916-10.959-10.959 4.916-10.959 10.959-10.959z"/><path d="m229.748 362.123c13.281 0 24.087-10.806 24.087-24.087s-10.806-24.087-24.087-24.087-24.087 10.806-24.087 24.087 10.806 24.087 24.087 24.087zm0-33.174c5.011 0 9.087 4.076 9.087 9.087s-4.076 9.087-9.087 9.087-9.087-4.076-9.087-9.087 4.076-9.087 9.087-9.087z"/><path d="m180.448 465.558c12.011 0 21.782-9.771 21.782-21.781 0-12.011-9.771-21.782-21.782-21.782s-21.782 9.771-21.782 21.782c0 12.009 9.772 21.781 21.782 21.781zm0-28.564c3.739 0 6.782 3.043 6.782 6.782s-3.043 6.781-6.782 6.781-6.782-3.042-6.782-6.781 3.043-6.782 6.782-6.782z"/><path d="m148.64 381.393h17.104c10.736 0 19.472-8.735 19.472-19.473 0-10.736-8.735-19.472-19.472-19.472h-17.104c-10.737 0-19.473 8.735-19.473 19.472s8.735 19.473 19.473 19.473zm0-23.945h17.104c2.466 0 4.472 2.006 4.472 4.472s-2.006 4.473-4.472 4.473h-17.104c-2.466 0-4.473-2.007-4.473-4.473s2.007-4.472 4.473-4.472z"/><path d="m129.167 271.292v11.046c0 4.143 3.357 7.5 7.5 7.5s7.5-3.357 7.5-7.5v-11.046c0-4.143-3.357-7.5-7.5-7.5s-7.5 3.357-7.5 7.5z"/><path d="m259.137 282.338v-11.046c0-4.143-3.357-7.5-7.5-7.5s-7.5 3.357-7.5 7.5v11.046c0 4.143 3.357 7.5 7.5 7.5s7.5-3.358 7.5-7.5z"/><path d="m214.962 286.937c2.722-3.122 2.396-7.86-.728-10.581-3.123-2.722-7.86-2.397-10.581.728-2.398 2.752-5.861 4.331-9.501 4.331s-7.103-1.579-9.501-4.331c-2.721-3.124-7.46-3.448-10.581-.728-3.123 2.721-3.449 7.459-.728 10.581 5.248 6.023 12.833 9.478 20.81 9.478s15.562-3.455 20.81-9.478z"/><path d="m419.432 392.49h-3.079c-.299-12.975-6.276-25.158-17.366-35.29-.041-.037-.171-.211-.282-.564-.023-.073-.048-.147-.074-.221-8.943-27.931-27.473-35.624-37.738-37.724-6.367-1.3-12.839 1.333-16.472 6.7-1.136 1.67-4.177 5.03-11.973 9.382-13.015.196-25.511 2.516-36.777 6.784-.727-5.308-2.066-9.08-3.308-12.552-1.793-5.015-3.341-9.346-3.271-19.023-.035-9.599 1.535-13.958 3.353-19.006 2.013-5.588 4.293-11.92 3.9-24.216-.527-11.979-3.157-18.758-5.479-24.739-2.118-5.459-4.12-10.616-4.733-20.493-.688-9.507.44-13.328 1.748-17.753 1.043-3.526 2.225-7.524 2.349-13.75.084-4.142-3.206-7.565-7.348-7.648-.051-.002-.103-.002-.153-.002-4.072 0-7.413 3.26-7.495 7.35-.085 4.209-.814 6.677-1.737 9.8-1.505 5.091-3.21 10.86-2.329 23.011.753 12.125 3.39 18.919 5.716 24.913 2.177 5.611 4.058 10.458 4.473 19.881.298 9.342-1.241 13.615-3.023 18.564-2.009 5.577-4.284 11.898-4.24 24.062-.089 12.253 2.162 18.547 4.147 24.101 1.542 4.313 2.806 7.875 2.965 14.475-18.186 10.913-28.664 26.703-29.062 43.959h-3.07c-10.582 0-19.19 8.608-19.19 19.189v14.45c0 13.752 6.005 26.598 16.305 35.383-6.177 15.537-20.9 31.795-35.863 33.896-10.731 1.469-21.614 1.469-32.316.004-9.037-1.271-18.8-7.877-26.784-18.124-2.545-3.269-7.259-3.853-10.525-1.307-3.268 2.546-3.853 7.259-1.307 10.525 10.355 13.291 23.669 21.95 36.553 23.763 6.038.827 12.118 1.241 18.202 1.241 6.09 0 12.183-.415 18.239-1.245 20.338-2.855 38.372-21.744 46.768-40.92 4.76 1.902 9.818 3.004 14.998 3.253l2.435 12.719c2.953 15.461 18.129 26.682 36.083 26.682h43.16c17.954 0 33.13-11.221 36.086-26.68l2.435-12.718c24.611-1.184 44.269-21.574 44.269-46.473v-14.45c0-10.58-8.608-19.189-19.19-19.189zm-127.255-32.935c12.079-6.408 26.629-9.795 42.075-9.795h.13c1.227 0 2.436-.301 3.519-.877 9.147-4.859 15.337-9.783 18.933-15.068.232-.343.651-.506 1.056-.427 8.631 1.765 20.234 8.012 26.505 27.753h.001c.024.077.051.154.077.23.894 2.707 2.413 5.092 4.401 6.906 5.535 5.057 12.102 13.31 12.49 24.213h-134.223c.46-12.754 9.526-24.71 25.036-32.935zm63.655 137.445h-43.16c-10.593 0-19.772-6.233-21.354-14.5l-1.884-9.84h89.635l-1.884 9.842c-1.58 8.265-10.76 14.498-21.353 14.498zm67.79-70.87c0 17.386-14.145 31.53-31.53 31.53h-115.68c-6.172 0-12.142-1.777-17.268-5.143-8.931-5.855-14.263-15.72-14.263-26.388v-14.45c0-2.311 1.88-4.189 4.19-4.189h170.359c2.311 0 4.19 1.879 4.19 4.189v14.451z"/></g></svg>