<svg id="Capa_1" enable-background="new 0 0 512.002 512.002" height="512" viewBox="0 0 512.002 512.002" width="512" xmlns="http://www.w3.org/2000/svg"><g><path d="m444.585 141.245c-23.462-30.955-57.761-49.192-96.596-51.354l-.171-.009c-1.434-.077-2.865-.146-4.296-.216-11.075-8.227-23.219-14.65-36.193-19.145v-36.521c0-18.748-15.252-34-34-34h-34.7c-18.748 0-34 15.252-34 34v36.52c-12.974 4.496-25.118 10.919-36.193 19.146-1.431.071-2.862.139-4.296.216l-.188.01c-42.388 2.359-79.848 24.323-102.776 60.259-2.228 3.492-1.203 8.129 2.289 10.356 3.491 2.229 8.129 1.205 10.357-2.288 17.49-27.412 44.52-45.641 75.647-51.498-29.493 31.979-42.994 76.955-34.839 120.122.018.093.037.186.058.278 11.347 49.647 22.085 100.98 31.916 152.565 4.134 27.592 12.579 53.085 24.424 73.729 9.348 16.291 20.849 29.64 33.719 39.235-6.425 2.519-13.115 3.952-19.998 4.277-43.156 2.077-80.237-40.757-92.251-106.586-.018-.101-.039-.2-.061-.3-10.875-48.328-22.574-96.429-34.775-142.975-4.238-19.24-3.422-39.559 2.361-58.771 1.194-3.967-1.054-8.149-5.02-9.344-3.963-1.192-8.149 1.054-9.343 5.02-6.535 21.71-7.438 44.698-2.611 66.479.021.093.043.187.067.279 12.158 46.371 23.817 94.3 34.654 142.454 13.125 71.67 54.61 118.82 103.947 118.815 1.242 0 2.496-.03 3.747-.091 12.141-.574 23.76-3.923 34.604-9.951 11.395 5.478 23.434 8.26 35.872 8.26h.07c12.439 0 24.488-2.783 35.883-8.26 10.844 6.028 22.465 9.378 34.63 9.953 1.343.059 2.566.087 3.737.087 24.897 0 48.019-11.765 66.865-34.023 17.976-21.229 30.791-50.545 37.065-84.787.985-4.378 1.977-8.754 2.976-13.129.922-4.038-1.604-8.059-5.643-8.98-4.036-.923-8.059 1.604-8.981 5.643-1.013 4.438-2.02 8.879-3.019 13.321-.022.1-.043.199-.061.299-11.649 63.798-47.497 106.66-89.203 106.66-.951 0-1.959-.023-3.056-.071-6.885-.326-13.577-1.767-20.006-4.29 12.873-9.596 24.384-22.929 33.733-39.223 11.845-20.645 20.29-46.138 24.424-73.729 9.82-51.539 20.558-102.866 31.916-152.566.021-.093.041-.186.058-.278 8.155-43.171-5.358-88.143-34.858-120.122 28.014 5.219 52.544 20.342 70.16 43.584 21.17 27.931 29.063 63.19 21.666 96.765-8.201 31.286-16.213 63.417-23.813 95.502-.955 4.03 1.539 8.071 5.569 9.026.582.138 1.163.204 1.735.204 3.397 0 6.475-2.324 7.292-5.773 7.585-32.018 15.581-64.08 23.765-95.297.024-.093.047-.187.067-.28 8.403-37.92-.463-77.724-24.326-109.207zm-205.956-126.245h34.7c10.477 0 19 8.523 19 19v32.27c-9.598-2.132-19.514-3.254-29.593-3.34-4.484-.039-9.031-.039-13.51 0-10.083.085-19.999 1.208-29.597 3.34v-32.27c0-10.477 8.524-19 19-19zm143.987 208.922c-11.397 49.877-22.172 101.39-32.024 153.104-.019.099-.035.197-.05.297-7.722 51.753-30.885 92.688-61.962 109.501-10.293 5.57-21.252 8.396-32.606 8.396-.019 0-.037 0-.056 0-11.293 0-22.239-2.824-32.539-8.396-31.076-16.812-54.239-57.747-61.961-109.5-.015-.1-.032-.198-.05-.297-9.863-51.764-20.638-103.277-32.024-153.104-8.493-45.242 9.687-92.697 46.342-120.939 25.357-19.909 55.501-25.317 86.921-25.053 26.076.219 52.681 8.889 73.666 25.052 36.655 28.24 54.836 75.696 46.343 120.939z"/><path d="m194.457 198.136c-11.726 0-21.265 9.54-21.265 21.266 0 4.143 3.358 7.5 7.5 7.5s7.5-3.357 7.5-7.5c0-3.455 2.811-6.266 6.265-6.266s6.265 2.811 6.265 6.266c0 4.143 3.358 7.5 7.5 7.5s7.5-3.357 7.5-7.5c0-11.726-9.539-21.266-21.265-21.266z"/><path d="m317.502 198.136c-11.726 0-21.265 9.54-21.265 21.266 0 4.143 3.358 7.5 7.5 7.5s7.5-3.357 7.5-7.5c0-3.455 2.811-6.266 6.265-6.266s6.265 2.811 6.265 6.266c0 4.143 3.358 7.5 7.5 7.5s7.5-3.357 7.5-7.5c0-11.726-9.54-21.266-21.265-21.266z"/><path d="m275.508 229.835c-3.123-2.722-7.86-2.396-10.582.727-2.259 2.593-5.521 4.08-8.947 4.08s-6.688-1.487-8.947-4.08c-2.721-3.122-7.459-3.447-10.582-.727-3.123 2.721-3.448 7.459-.727 10.582 5.109 5.862 12.492 9.225 20.255 9.225 7.764 0 15.146-3.362 20.255-9.225 2.723-3.123 2.398-7.861-.725-10.582z"/></g></svg>