<svg id="Capa_1" enable-background="new 0 0 511.973 511.973" height="512" viewBox="0 0 511.973 511.973" width="512" xmlns="http://www.w3.org/2000/svg"><g><path d="m290.498 342.481v9.746c0 4.143 3.358 7.5 7.5 7.5s7.5-3.357 7.5-7.5v-9.746c0-4.143-3.358-7.5-7.5-7.5s-7.5 3.358-7.5 7.5z"/><path d="m391.938 342.481v9.746c0 4.143 3.358 7.5 7.5 7.5s7.5-3.357 7.5-7.5v-9.746c0-4.143-3.358-7.5-7.5-7.5s-7.5 3.358-7.5 7.5z"/><path d="m356.436 347.011c-1.949 2.236-4.762 3.519-7.718 3.519s-5.769-1.282-7.718-3.519c-2.722-3.123-7.459-3.449-10.582-.728s-3.448 7.459-.727 10.581c4.798 5.507 11.733 8.665 19.026 8.665s14.229-3.158 19.026-8.665c2.721-3.122 2.396-7.86-.727-10.581-3.123-2.722-7.86-2.397-10.58.728z"/><path d="m381.92 246.355c-4.06-17.523-9.761-34.637-17.006-51.083 13.88-.156 30.12-5.736 47.438-16.631.091-.058.182-.117.271-.179 2.573-1.778 4.926-3.737 7.032-5.853 3.536.852 7.211 1.586 10.977 2.191.106.018.213.032.32.045 15.985 1.87 30.262-3.819 40.195-16.029 10.635-13.091 14.808-31.829 10.896-48.915-1.881-8.735-5.728-16.987-11.236-24.178 12.293-18.852 8.169-44.371-9.975-58.302-18.144-13.929-43.861-11.32-58.899 5.427-8.368-3.462-17.331-5.041-26.257-4.607-17.518.635-34.543 9.508-44.444 23.168-9.227 12.745-11.037 28.005-5.097 42.968.04.1.082.199.125.298 1.538 3.434 3.173 6.751 4.884 9.909-1.567 2.57-2.89 5.35-3.951 8.309-.041.113-.078.227-.113.341-1.566 5.123-2.766 10.129-3.617 14.984-9.821-11.86-20.603-22.946-32.236-33.089-6.441-9.53-14.973-18.938-25.454-27.848-.091-.077-.184-.152-.278-.226-3.364-2.594-6.908-4.75-10.584-6.441-.322-4.852-.866-9.851-1.625-14.92-.016-.106-.034-.213-.055-.318-3.751-19.324-15.67-33.84-33.566-40.875-19.337-7.588-42.895-5.472-61.497 5.517-9.977 5.717-18.535 13.751-25.037 23.452-12.625-3.861-26.046-2.917-38.083 2.734-12.854 6.035-22.587 16.714-27.409 30.07-9.646 26.718 3.517 56.214 29.435 67.073-1.194 11.619.259 23.268 4.285 34.039 7.295 20.337 24.07 37.012 43.796 43.525 5.802 1.912 11.62 2.856 17.35 2.856 12.303 0 24.19-4.358 34.58-12.867.083-.068.165-.139.246-.21 3.862-3.452 7.509-6.987 10.885-10.553 3.903.946 7.999 1.498 12.23 1.646.108.004.216.004.324.005 27.451-.221 49.409-6.013 64.077-16.458 15.751 21.118 27.559 44.551 35.201 69.843-22.507 5.424-43.22 17.185-60.076 34.422-3.074 3.143-5.963 6.417-8.673 9.803-23.853-29.954-59.538-47.591-97.402-47.643-23.611.03-46.672 6.881-66.69 19.812-3.479 2.247-4.478 6.89-2.23 10.369 2.247 3.479 6.89 4.477 10.369 2.23 17.593-11.364 37.847-17.385 58.551-17.411 34.7.048 67.368 16.966 88.348 45.486-3.586 5.807-6.688 11.866-9.284 18.126-3.837-6.381-8.439-12.336-13.791-17.806-17.588-17.993-40.745-27.925-65.229-27.966-24.519.04-47.708 9.972-65.294 27.962-17.616 18-27.317 41.605-27.317 66.468 0 51.061 37.148 88.218 88.37 88.35 25.348-.069 50.298-9.54 68.455-25.984 5.298-4.802 9.892-10.051 13.765-15.697 2.453 6.256 5.4 12.232 8.807 17.884-21.731 26.093-55.366 41.573-91.033 41.638-60.546-.112-106.205-45.765-106.205-106.19 0-27.716 10.309-54.475 29.026-75.345 2.766-3.084 2.508-7.826-.576-10.591-3.083-2.767-7.825-2.508-10.591.575-21.189 23.627-32.859 53.942-32.859 85.36 0 68.961 52.095 121.062 121.204 121.19 38.698-.071 75.312-16.342 99.897-43.948 16.534 20.591 40.039 35.326 68.136 41.197.875.184 1.374.852 1.594 1.233.011.02.021.038.031.054l5.425 9.396c4.998 8.655 13.948 13.823 23.943 13.823 9.994 0 18.944-5.168 23.941-13.823l5.424-9.395c.457-.789.879-1.611 1.257-2.444.199-.438.708-.816 1.33-.986 26.339-7.212 50.052-22.338 66.771-42.591 2.637-3.194 2.185-7.921-1.009-10.559-3.195-2.636-7.921-2.186-10.558 1.01-14.769 17.891-35.781 31.27-59.167 37.673-4.957 1.358-8.976 4.733-11.027 9.258-.176.386-.372.769-.585 1.138l-5.425 9.396c-2.285 3.959-6.379 6.323-10.951 6.323-8.947.001-12.463-8.938-16.36-15.688-.011-.019-.021-.037-.032-.056-2.503-4.358-6.706-7.436-11.532-8.445-49.344-10.31-82.496-52.007-82.494-103.759.002-59.223 50.594-112.186 110.407-112.27 60.892.085 110.427 51.968 110.427 112.27 0 13.615-2.682 26.792-7.974 39.164-1.628 3.809.138 8.216 3.947 9.845 3.809 1.634 8.216-.137 9.845-3.946 6.093-14.247 9.182-29.408 9.182-45.062 0-33.487-13.023-65.247-36.67-89.429-15.719-16.071-34.788-27.386-55.546-33.239zm-173.837 173.922c-15.441 13.985-36.736 22.04-58.384 22.1-42.513-.109-73.369-30.958-73.369-73.349 0-42.003 35.184-79.359 77.611-79.43 31.621-.053 61.478 22.293 72.437 51.548-2.031 9.066-3.076 18.403-3.076 27.879 0 9.149.915 18.021 2.665 26.529-3.994 9.244-9.985 17.562-17.884 24.723zm133.286-302.482c1.116-3.062 2.624-5.795 4.482-8.125 1.941-2.434 2.177-5.813.593-8.493-2.274-3.848-4.437-8.046-6.428-12.479-4.027-10.26-2.896-19.845 3.361-28.487 5.688-7.849 17.313-16.43 32.88-16.979.037-.001.074-.003.111-.005 10.5-.531 18.983 2.747 24.251 5.585 3.424 1.849 7.693.767 9.827-2.487.452-.688.842-1.243 1.225-1.742 9.583-12.484 27.539-14.845 40.023-5.26s14.844 27.539 5.257 40.026c-.379.494-.813 1.013-1.366 1.634-2.588 2.902-2.529 7.302.138 10.134 4.103 4.356 9.457 11.707 11.66 21.984.008.036.016.072.024.109 3.492 15.179-1.795 28.626-7.905 36.146-6.736 8.28-15.7 11.847-26.654 10.611-4.798-.778-9.411-1.783-13.713-2.985-2.903-.815-6.009.192-7.887 2.551-1.902 2.389-4.266 4.575-7.029 6.501-9.373 5.88-29.642 16.893-45.671 13.839l.127-.63c4.438-22.021 13.403-42.391 26.649-60.549 8.619-11.83 18.884-22.377 30.509-31.348 3.279-2.53 3.886-7.24 1.355-10.52-2.53-3.28-7.239-3.887-10.52-1.355-9.166 7.074-17.548 15.055-25.056 23.797-4.264-12.129-6.65-21.865-6.687-27.573-.027-4.143-3.393-7.462-7.549-7.451-4.142.027-7.478 3.407-7.451 7.549.072 11.061 5.643 27.976 10.871 41.457-12.371 17.841-21.067 37.55-25.895 58.706-10.789-12.689-9.122-35.756-3.532-54.161zm-133.11 56.753c-2.853-.973-6.011-.145-8.017 2.105-3.826 4.287-8.126 8.573-12.782 12.742-11.252 9.157-24.254 11.67-37.606 7.271-12.109-3.998-27.502-15.132-34.391-34.388-.012-.035-.025-.069-.038-.104-3.825-10.213-4.75-21.448-2.673-32.492.718-3.821-1.604-7.559-5.348-8.607-1.062-.298-1.928-.57-2.719-.855-19.792-7.146-30.081-29.061-22.936-48.852 3.461-9.588 10.448-17.254 19.675-21.586 5.154-2.42 10.662-3.638 16.192-3.638 4.37 0 8.755.761 12.989 2.289.782.282 1.618.624 2.634 1.077 3.553 1.589 7.725.193 9.613-3.207 5.456-9.823 13.344-17.878 22.811-23.292.032-.019.064-.037.096-.057 17.6-10.415 36.555-9.149 48.422-4.492 13.088 5.145 21.485 15.384 24.294 29.616.92 6.183 1.491 12.229 1.696 17.974.111 3.111 2.132 5.83 5.079 6.833 3.797 1.292 7.479 3.291 10.946 5.942 20.085 17.122 39.007 43.16 33.214 65.84-20.259-20.612-44.026-36.598-70.719-47.572-3.588-17.971-9.204-40.206-16.673-52.038-2.21-3.502-6.842-4.552-10.345-2.338-3.503 2.211-4.55 6.843-2.338 10.346 4.239 6.715 8.743 20.223 12.739 37.97-14.882-4.731-30.262-7.82-45.89-9.193-4.129-.359-7.765 2.688-8.127 6.815-.362 4.126 2.688 7.765 6.815 8.128 18.722 1.644 37.063 5.926 54.519 12.729 11.948 4.647 23.279 10.362 33.944 17.092 13.322 8.408 25.614 18.441 36.562 29.766l1.922 1.987c-.37.432-.806.81-1.198 1.216-15.518 14.898-45.454 17.083-59.803 17.213-4.478-.171-8.702-.924-12.559-2.24zm126.672 68.002c-8.293-28.188-21.418-54.24-39.105-77.601 7.804-9.878 10.74-22.474 9.269-35.078 6.03 6.733 11.72 13.759 17.034 21.053 1.095 15.072 6.53 27.45 16.065 35.459 2.459 2.07 5.14 3.768 8.014 5.114.175.098.357.186.542.27 7.986 16.378 14.315 33.537 18.883 51.179-5.568-.777-11.218-1.185-16.926-1.192-4.634.007-9.23.281-13.776.796z"/></g></svg>