<svg id="Capa_1" enable-background="new 0 0 511.938 511.938" height="512" viewBox="0 0 511.938 511.938" width="512" xmlns="http://www.w3.org/2000/svg"><g><path d="m486.395 212.368c-13.729-10.629-32.785-16.031-61.785-17.517-26.708-1.369-53.149 8.139-74.47 26.764-3.337 2.915-7.293 4.966-11.528 6.04-1.858-17.12-9.434-56.594-40.222-78.525-22.535-16.056-52.419-19.141-88.922-9.238v-30.096c17.831-21.359 29.272-47.031-1.451-77.753-44.966-44.966-120.822-42.279-169.093 5.99-9.438 9.438-17.333 20.117-23.467 31.742-1.933 3.664-.53 8.2 3.133 10.134s8.201.529 10.133-3.134c5.432-10.295 12.432-19.761 20.807-28.135 42.422-42.422 108.761-45.108 147.88-5.99 20.68 20.68 19.773 36.397-3.594 62.287-9.923 10.994-24.11 17.637-39.95 18.705-5.069.342-9.937 1.907-14.22 4.507l-13.583-13.583 13.262-41.147c1.271-3.942-.895-8.169-4.837-9.439-3.944-1.271-8.169.896-9.439 4.838l-10.904 33.83-15.316-15.316 7.56-23.457c1.271-3.942-.895-8.169-4.837-9.439-3.944-1.269-8.169.896-9.439 4.838l-5.202 16.14-9.607-9.607c-2.928-2.927-7.677-2.929-10.606 0-2.929 2.93-2.929 7.678 0 10.607l9.606 9.606-16.14 5.202c-3.942 1.271-6.108 5.497-4.837 9.439 1.024 3.178 3.968 5.201 7.137 5.201.762 0 1.538-.117 2.302-.363l23.458-7.561 15.315 15.315-33.83 10.903c-3.942 1.271-6.108 5.497-4.837 9.439 1.024 3.178 3.968 5.201 7.137 5.201.762 0 1.538-.117 2.302-.363l41.147-13.262 13.583 13.583c-2.599 4.283-4.164 9.15-4.506 14.219-1.069 15.84-7.712 30.027-18.705 39.95-25.891 23.367-41.608 24.273-62.289 3.593-22.465-22.465-32.106-55.575-25.789-88.571.779-4.068-1.888-7.997-5.956-8.776-4.072-.78-7.998 1.888-8.776 5.956-7.253 37.884 3.93 76.015 29.915 101.999 13.838 13.838 26.649 19.122 38.505 19.121 16.635-.001 31.388-10.406 44.44-22.187.505-.456.988-.934 1.479-1.404v301.781c0 4.143 3.358 7.5 7.5 7.5h77.11c4.142 0 7.5-3.357 7.5-7.5v-107.706c32.059 27.818 75.048 44.87 122.245 44.87 54.082 0 104.74-22.364 138.985-61.358 2.732-3.112 2.426-7.852-.687-10.585-3.114-2.732-7.851-2.425-10.585.687-31.396 35.752-77.946 56.257-127.714 56.257-90.636 0-164.374-68.122-164.374-151.854 0-24.494 5.998-40.546 18.875-50.516 4.795-3.712 10.578-6.645 17.648-8.892.24-.062.476-.136.706-.222 9.259-2.848 20.698-4.551 35.017-5.284 22.779-1.168 45.46 7.028 63.835 23.08 5.929 5.179 13.129 8.594 20.793 9.949v17.363l-58.806 30.14c-3.687 1.89-5.143 6.409-3.254 10.096 1.328 2.592 3.956 4.081 6.681 4.081 1.151 0 2.32-.267 3.415-.827l51.964-26.633v36.496l-34.362 17.612c-3.687 1.89-5.143 6.409-3.254 10.096 1.328 2.591 3.956 4.081 6.681 4.081 1.151 0 2.32-.267 3.415-.827l27.521-14.105v24.288c0 4.143 3.357 7.5 7.5 7.5s7.5-3.357 7.5-7.5v-24.288l27.521 14.105c1.095.561 2.264.827 3.415.827 2.725 0 5.353-1.49 6.681-4.081 1.889-3.687.433-8.206-3.254-10.096l-34.362-17.612v-36.497l51.964 26.633c1.095.561 2.264.827 3.415.827 2.725 0 5.353-1.49 6.681-4.081 1.889-3.687.433-8.206-3.254-10.096l-58.806-30.14v-17.363c7.665-1.355 14.865-4.77 20.795-9.949 18.373-16.051 41.047-24.249 63.834-23.08 25.753 1.319 42.213 5.759 53.37 14.397 12.878 9.97 18.876 26.021 18.876 50.516 0 24.01-5.89 46.975-17.504 68.257-1.984 3.636-.646 8.191 2.99 10.176 3.635 1.986 8.191.646 10.176-2.99 12.832-23.511 19.338-48.894 19.338-75.442-.002-29.109-8.079-49.513-24.695-62.377zm-309.363 0c-16.616 12.864-24.693 33.268-24.693 62.377 0 40.829 15.856 78.272 42.129 107.303v114.891h-62.11v-315.127c4.026-8.506 6.474-17.918 7.142-27.826.269-3.986 1.976-7.74 4.806-10.57s6.584-4.537 10.57-4.806c14.747-.996 28.398-5.93 39.591-14.153v78.284c-6.673 2.553-12.413 5.739-17.435 9.627zm61.785-17.517c-11.173.572-20.865 1.729-29.35 3.539v-42.911c33.751-9.944 60.703-7.998 80.155 5.823 24.646 17.509 31.762 50.215 33.793 65.96-3.706-1.148-7.163-3.056-10.129-5.647-21.323-18.626-47.765-28.12-74.469-26.764z"/><path d="m261.171 374.142v12.114c0 4.143 3.357 7.5 7.5 7.5s7.5-3.357 7.5-7.5v-12.114c0-4.143-3.357-7.5-7.5-7.5s-7.5 3.358-7.5 7.5z"/><path d="m394.755 366.642c-4.143 0-7.5 3.357-7.5 7.5v12.114c0 4.143 3.357 7.5 7.5 7.5s7.5-3.357 7.5-7.5v-12.114c0-4.142-3.358-7.5-7.5-7.5z"/><path d="m342.68 380.969c-2.769 3.177-6.766 4.999-10.967 4.999-4.2 0-8.197-1.822-10.966-4.999-2.722-3.124-7.459-3.448-10.581-.728-3.123 2.721-3.449 7.458-.728 10.581 5.617 6.447 13.736 10.146 22.274 10.146 8.539 0 16.658-3.698 22.275-10.146 2.722-3.123 2.396-7.86-.728-10.581-3.121-2.722-7.859-2.397-10.579.728z"/></g></svg>