<svg id="Capa_1" enable-background="new 0 0 511.992 511.992" height="512" viewBox="0 0 511.992 511.992" width="512" xmlns="http://www.w3.org/2000/svg"><g><path d="m425.553 89.453c-9.263-15.22-22.148-26.753-38.296-34.277-14.917-6.958-32.777-3.879-44.445 7.664-11.146 11.025-22.035 22.91-32.957 35.939 1.043-20.958.989-40.611-.162-59.551-.994-16.384-12.249-30.592-28.002-35.354-17.051-5.166-34.338-5.165-51.385-.001-15.757 4.764-27.012 18.972-28.006 35.354-1.151 18.938-1.206 38.587-.163 59.541-10.922-13.029-21.811-24.904-32.956-35.928-11.668-11.545-29.529-14.627-44.443-7.666-16.15 7.525-29.036 19.059-38.3 34.279-8.556 14.06-7.464 32.151 2.716 45.021 18.474 23.353 40.46 46.548 67.011 70.704-30.779 23.86-48.9 60.481-48.9 99.773v44.91c0 28.901 9.503 56.097 27.481 78.648 2.512 3.151 7.405 3.691 10.54 1.19 3.239-2.582 3.771-7.301 1.189-10.539-15.838-19.868-24.21-43.831-24.21-69.3v-44.327c2.031 1.307 4.625 2.516 8.5 3.615 4.166 1.18 8.323.908 12.345.642 2.854-.187 5.552-.365 7.724.041 2.007.377 4.316 1.396 6.762 2.474 3.878 1.71 8.272 3.648 13.135 3.648 4.143 0 7.5-3.357 7.5-7.5s-3.357-7.5-7.5-7.5c-1.701 0-4.437-1.206-7.081-2.373-2.973-1.311-6.341-2.796-10.052-3.492-4.031-.754-7.987-.497-11.474-.265-2.877.19-5.594.368-7.266-.105-3.945-1.12-4.878-1.973-6.422-3.385-1.158-1.059-2.584-2.363-4.826-3.694 4.8-30.65 22.224-58.093 48.629-75.557 12.51-8.291 26.338-13.868 41.099-16.575 2.28-.417 4.571-.764 6.818-1.029 23.014-2.72 48.643-2.725 71.688.001 2.237.265 4.527.611 6.809 1.028 14.762 2.707 28.59 8.284 41.105 16.579 25.548 16.896 42.884 43.307 48.219 73.13-2.637.835-5.141 1.421-7.388 1.467-8.862.201-11.843-1.208-15.632-2.996-3.85-1.818-8.641-4.081-17.964-4.652-4.134-.218-7.69 2.894-7.944 7.028-.253 4.134 2.894 7.691 7.028 7.944 6.442.394 9.104 1.651 12.474 3.243 4.435 2.094 9.427 4.452 20.444 4.452.62 0 1.262-.008 1.921-.023 2.956-.059 5.842-.567 8.703-1.321.063 1.532.106 3.064.106 4.593v44.91c0 29.362-11.24 56.878-31.706 77.779-1.51.001-3.335-.208-5.24-.431-3.228-.379-6.887-.806-10.636-.379-4.077.466-7.778 1.879-11.045 3.126-2.692 1.027-5.235 1.998-6.976 2.037-4.121.086-5.25-.446-7.144-1.34-2.264-1.069-5.363-2.533-11.166-2.889-4.133-.241-7.691 2.894-7.944 7.028-.252 4.135 2.895 7.691 7.028 7.944 2.923.179 3.959.668 5.676 1.479 3.225 1.523 6.438 2.787 12.735 2.787.374 0 .758-.005 1.154-.014 4.327-.097 8.221-1.583 11.985-3.02 1.103-.421 2.179-.83 3.219-1.185-11.917 7.871-25.249 13.394-39.382 16.211-13.958 2.771-25.978 11.312-32.974 23.433l-6.964 12.048c-1.31 2.271-3.48 2.516-4.353 2.516-.872 0-3.043-.245-4.356-2.523l-6.958-12.035c-6.998-12.125-19.018-20.667-32.972-23.437-14.857-2.956-28.735-8.829-41.248-17.456-3.409-2.352-8.08-1.492-10.432 1.918-2.351 3.41-1.492 8.08 1.918 10.432 14.204 9.793 29.961 16.461 46.838 19.818 9.719 1.929 18.067 7.842 22.907 16.228l6.956 12.032c3.618 6.276 10.103 10.023 17.347 10.023s13.729-3.747 17.343-10.016l6.962-12.045c4.838-8.381 13.187-14.294 22.911-16.224 23.972-4.777 45.921-16.369 63.475-33.52 24.53-23.954 38.04-56.032 38.04-90.326v-44.91c0-5.224-.325-10.494-.967-15.661-4.134-33.41-21.436-63.572-47.927-84.115 8.811-8.019 17.191-15.996 24.976-23.787 2.928-2.93 2.926-7.679-.005-10.606-2.929-2.928-7.678-2.927-10.606.005-8.391 8.396-17.485 17.019-27.091 25.684-12.882-7.713-26.899-12.993-41.753-15.716-.022-.004-.045-.007-.067-.011.355-2.35.691-4.63 1.012-6.87 2.508-17.365 4.389-33.433 5.753-49.046 15.162-19.369 30-36.18 45.31-51.324 7.226-7.148 18.299-9.05 27.557-4.732 13.419 6.253 24.126 15.836 31.821 28.48 5.311 8.727 4.641 19.946-1.665 27.918-5.291 6.688-10.983 13.481-16.917 20.19-2.745 3.103-2.454 7.842.648 10.586 1.427 1.263 3.199 1.883 4.966 1.883 2.074 0 4.139-.855 5.62-2.531 6.116-6.913 11.985-13.919 17.446-20.821 10.184-12.869 11.276-30.962 2.719-45.023zm-256.659 107.018c-27.129-24.465-49.408-47.831-67.976-71.302-6.306-7.972-6.976-19.191-1.665-27.917 7.695-12.646 18.402-22.229 31.824-28.482 9.257-4.319 20.328-2.416 27.555 4.734 15.309 15.144 30.147 31.954 45.309 51.324 1.364 15.613 3.245 31.68 5.752 49.041.322 2.243.658 4.524 1.013 6.875-.024.004-.048.008-.072.012-14.848 2.723-28.862 8.006-41.74 15.715zm56.711-17.536c-.374-2.466-.729-4.863-1.065-7.204-2.584-17.901-4.498-34.391-5.85-50.41-2.486-29.416-2.95-55.972-1.417-81.184.615-10.146 7.598-18.95 17.379-21.907 14.162-4.291 28.527-4.29 42.693.001 9.777 2.956 16.76 11.76 17.375 21.907 1.533 25.211 1.069 51.767-1.417 81.184-1.352 16.019-3.266 32.508-5.851 50.414-.337 2.343-.688 4.729-1.062 7.194-.057-.003-.115-.005-.172-.008-2.582-.154-5.175-.239-7.761-.239-14.973 0-29.947 0-44.92 0-2.638 0-5.289.087-7.932.252z"/><path d="m201.047 347.24v-12c0-4.143-3.357-7.5-7.5-7.5s-7.5 3.357-7.5 7.5v12c0 4.143 3.357 7.5 7.5 7.5s7.5-3.358 7.5-7.5z"/><path d="m325.945 347.24v-12c0-4.143-3.357-7.5-7.5-7.5s-7.5 3.357-7.5 7.5v12c0 4.143 3.357 7.5 7.5 7.5s7.5-3.358 7.5-7.5z"/><path d="m255.996 361.883c8.478 0 16.539-3.671 22.118-10.072 2.721-3.122 2.396-7.86-.727-10.582s-7.86-2.396-10.582.727c-2.729 3.132-6.669 4.928-10.81 4.928s-8.08-1.796-10.81-4.928c-2.723-3.122-7.46-3.447-10.582-.727-3.123 2.722-3.447 7.46-.727 10.582 5.581 6.401 13.643 10.072 22.12 10.072z"/></g></svg>