<svg id="Capa_1" enable-background="new 0 0 512.045 512.045" height="512" viewBox="0 0 512.045 512.045" width="512" xmlns="http://www.w3.org/2000/svg"><g><path d="m392.21 221.965c16.583-8.525 29.567-23.253 36.562-41.47 6.994-18.217 7.204-37.85.589-55.282-6.728-17.73-19.663-31.039-36.422-37.475-16.759-6.435-35.277-5.204-52.143 3.467-16.583 8.524-29.568 23.252-36.563 41.469-6.994 18.217-7.204 37.85-.589 55.283 6.728 17.73 19.663 31.039 36.423 37.475 7.077 2.717 14.471 4.068 21.919 4.068 10.188 0 20.482-2.526 30.224-7.535zm-74.541-39.33c-5.305-13.98-5.104-29.814.568-44.584 5.671-14.77 16.118-26.669 29.418-33.506 7.574-3.895 15.54-5.859 23.384-5.859 5.635 0 11.207 1.015 16.523 3.057 12.719 4.883 22.582 15.108 27.774 28.792 5.306 13.98 5.104 29.814-.568 44.584-5.671 14.77-16.118 26.669-29.417 33.506-13.016 6.692-27.188 7.689-39.907 2.804-12.718-4.885-22.582-15.111-27.775-28.794z"/><path d="m249.413 365.158c7.078 2.717 14.472 4.068 21.919 4.068 10.188 0 20.481-2.526 30.224-7.535 16.583-8.525 29.567-23.252 36.562-41.469 14.577-37.962-1.498-79.573-35.833-92.758-16.759-6.436-35.277-5.205-52.143 3.467-16.583 8.525-29.568 23.253-36.563 41.47-6.994 18.217-7.204 37.85-.589 55.282 6.728 17.731 19.664 31.04 36.423 37.475zm-21.83-87.38c5.671-14.77 16.118-26.669 29.418-33.506 7.575-3.895 15.541-5.86 23.385-5.86 5.634 0 11.206 1.015 16.522 3.057 26.614 10.219 38.818 43.136 27.206 73.377-5.671 14.77-16.118 26.669-29.417 33.506-13.016 6.692-27.19 7.687-39.907 2.803-12.719-4.883-22.583-15.108-27.775-28.792-5.305-13.981-5.104-29.815.568-44.585z"/><path d="m172.831 324.002c-34.336-13.181-74.129 6.975-88.706 44.937-14.576 37.962 1.499 79.573 35.834 92.758 7.078 2.718 14.47 4.068 21.919 4.068 10.188 0 20.481-2.526 30.224-7.535 16.583-8.525 29.568-23.253 36.563-41.47 6.994-18.217 7.204-37.85.589-55.283-6.727-17.731-19.663-31.039-36.423-37.475zm21.83 87.381c-5.671 14.77-16.118 26.669-29.418 33.506-13.016 6.692-27.188 7.689-39.907 2.804-26.613-10.219-38.818-43.136-27.207-73.377 9.261-24.118 30.917-39.361 52.808-39.361 5.557 0 11.13.982 16.518 3.052 12.719 4.884 22.583 15.109 27.775 28.793 5.304 13.979 5.103 29.813-.569 44.583z"/><path d="m484.747 141.882c-.515-4.111-4.275-7.024-8.373-6.511-4.11.516-7.025 4.265-6.51 8.374 2.11 16.854-.015 34.201-6.146 50.169-10.095 26.288-29.879 46.948-55.707 58.175-17.266 7.505-28.261 24.331-28.01 42.869.179 13.215-2.155 26.229-6.938 38.684-14.375 37.437-49.519 63.557-89.532 66.544-17.812 1.329-33.446 13.007-39.828 29.748-.009.021-.044.116-.052.138l-.042.107c-20.404 53.138-80.369 80.147-133.673 60.216-10.351-3.871-19.953-9.334-28.542-16.237-2.936-2.361-7.171-2.178-9.892.435-5.754 5.522-14.562 6.524-21.421 2.435-4.082-2.435-6.972-6.312-8.137-10.92s-.466-9.393 1.968-13.474c1.433-2.403 3.35-4.38 5.698-5.877 3.184-2.029 4.363-6.109 2.752-9.524-9.639-20.429-12.441-42.797-8.104-64.686.805-4.063-1.837-8.01-5.9-8.815-4.062-.796-8.009 1.837-8.814 5.899-4.58 23.122-2.21 46.696 6.838 68.547-2.062 1.993-3.852 4.257-5.352 6.772-4.486 7.523-5.774 16.343-3.627 24.835s7.474 15.64 14.997 20.125c10.729 6.398 24.053 6.032 34.324-.453 8.591 6.223 17.971 11.253 27.958 14.987 13.567 5.074 27.676 7.602 41.757 7.602 16.638 0 33.235-3.529 48.851-10.557 28.849-12.982 50.981-36.398 62.323-65.933.005-.013.036-.094.04-.106l.065-.172c4.387-11.507 14.705-19.221 26.93-20.133 22.204-1.658 43.471-9.485 61.499-22.634 18.519-13.507 32.668-32.004 40.92-53.492 5.468-14.242 8.137-29.135 7.932-44.264-.168-12.474 7.286-23.821 18.991-28.909 29.548-12.844 52.182-36.479 63.731-66.555 7.014-18.264 9.443-38.116 7.026-57.409z"/><path d="m45.567 344.335c1.166.659 2.433.972 3.683.972 2.616 0 5.157-1.371 6.536-3.812 17.177-30.398 48.295-50.041 83.242-52.543 17.601-1.259 33.11-12.927 39.521-29.744l.087-.226c10.093-26.286 29.876-46.945 55.703-58.174 17.315-7.527 28.313-24.249 28.018-42.601-.225-13.984 2.355-27.715 7.667-40.812 17.945-44.242 63.584-70.521 110.988-63.921 3.777.52 7.365-1.878 8.306-5.586.423-1.672 1.086-3.271 1.968-4.75 2.435-4.082 6.312-6.972 10.92-8.137 4.604-1.165 9.392-.467 13.474 1.968 8.13 4.849 11.045 15.197 6.636 23.561-1.786 3.389-.731 7.579 2.445 9.719 15.548 10.47 28 25.026 36.01 42.097 1.759 3.749 6.226 5.359 9.977 3.604 3.749-1.76 5.362-6.227 3.604-9.977-8.298-17.681-20.767-33.008-36.263-44.645 3.866-13.357-1.169-27.978-12.892-36.057 1.801-3.164 4.781-6.936 9.375-8.873 7.043-2.971 16.503-1.202 28.119 5.256 3.615 2.012 8.187.709 10.199-2.912 2.012-3.62.709-8.187-2.912-10.199-15.944-8.862-29.886-10.843-41.431-5.883-9.247 3.973-14.568 11.508-17.4 17.106-4.156-.585-8.427-.366-12.618.694-8.491 2.147-15.639 7.473-20.126 14.997-.482.809-.929 1.638-1.339 2.482-23.923-2.062-48.373 3.261-69.473 15.241-23.213 13.181-41.491 33.983-51.467 58.576-6.072 14.974-9.021 30.683-8.765 46.691.197 12.272-7.26 23.5-19 28.604-29.547 12.845-52.179 36.48-63.715 66.522l-.118.312c-4.333 11.368-14.762 19.259-26.567 20.104-39.976 2.861-75.575 25.338-95.23 60.125-2.04 3.609-.769 8.184 2.838 10.221z"/></g></svg>