<svg id="Capa_1" enable-background="new 0 0 512.012 512.012" height="512" viewBox="0 0 512.012 512.012" width="512" xmlns="http://www.w3.org/2000/svg"><g><path d="m442.922 125.526c-23.092-33.236-55.867-54.031-94.782-60.135-.057-.009-.114-.018-.172-.025-13.676-1.823-29.34 1.969-43.223 5.914-1.626-.414-3.265-.81-4.918-1.182v-35.128c0-19.282-15.688-34.97-34.97-34.97h-17.72c-19.283 0-34.97 15.688-34.97 34.97v35.125c-1.208.271-2.416.559-3.624.856-12.557-3.781-26.832-7.381-40.306-5.586-.058.008-.115.017-.172.025-23.696 3.718-45.318 12.832-64.266 27.089-3.31 2.491-3.974 7.192-1.483 10.503 2.473 3.287 7.22 3.953 10.502 1.483 16.938-12.745 36.277-20.901 57.483-24.242 3.392-.445 6.959-.431 10.736-.062-4.769 2.074-9.352 4.347-13.726 6.812-50.24 27.551-78.071 70.734-72.636 112.664 6.017 48.258 15.049 108.357 24.178 160.85 10.773 58.092 35.297 108.4 64.162 133.249-13.208 4.618-26.782 4.089-39.654-1.659-21.217-9.473-38.06-31.671-46.201-60.872-17.229-62.793-32.277-119.49-41.935-177.507-.015-.089-.031-.177-.049-.264-8.229-40.44 5.264-90.958 33.576-125.707 2.616-3.211 2.134-7.936-1.077-10.552s-7.936-2.135-10.552 1.077c-31.449 38.6-45.836 92.767-36.673 138.039 9.776 58.676 24.916 115.729 42.252 178.911 9.353 33.549 29.233 59.271 54.542 70.571 9.139 4.08 18.537 6.118 27.971 6.118 10.556 0 21.154-2.553 31.474-7.653.273-.138.548-.274.822-.411 7.007 3.741 14.112 5.967 21.195 6.595 12.543 1.059 24.909 1.589 37.282 1.588 12.38 0 24.768-.53 37.335-1.591 7.042-.628 14.111-2.836 21.063-6.542l.768.385c10.288 5.085 20.866 7.632 31.411 7.632 9.433 0 18.84-2.039 27.982-6.121 25.311-11.301 45.19-37.022 54.552-70.601 1.519-5.533 3.033-11.061 4.538-16.585 1.089-3.997-1.269-8.119-5.265-9.208-3.994-1.083-8.119 1.269-9.208 5.265-1.503 5.517-3.016 11.036-4.522 16.529-8.149 29.231-24.992 51.43-46.21 60.902-12.833 5.731-26.364 6.274-39.516 1.71 28.89-24.82 53.44-75.151 64.238-133.382 9.115-52.403 18.148-112.503 24.16-160.729 5.438-41.95-22.38-85.125-72.596-112.681-4.153-2.335-8.484-4.49-12.966-6.469 4.998-.668 9.808-.869 14.151-.302 43.875 6.913 70.276 33.103 84.699 53.862 23.635 34.018 33.847 80.865 26.015 119.349-.018.088-.034.177-.049.265-5.857 35.192-15.367 77.705-29.071 129.965-1.051 4.007 1.346 8.106 5.353 9.157.638.167 1.277.247 1.907.247 3.327 0 6.366-2.23 7.25-5.6 13.804-52.643 23.4-95.552 29.336-131.175 8.691-42.922-2.194-93.016-28.421-130.766zm-195.785-110.526h17.72c11.012 0 19.97 8.958 19.97 19.97v32.378c-9.453-1.358-19.113-2.048-28.83-2.048-9.72 0-19.384.691-28.83 2.047v-32.377c0-11.012 8.958-19.97 19.97-19.97zm90.334 85.126c44.701 24.518 69.596 61.923 64.964 97.656-5.989 48.038-14.982 107.871-24.042 159.971-11.197 60.375-38.582 113.113-68.151 131.236-6.146 3.775-12.286 5.959-18.215 6.487-24.243 2.048-47.814 2.047-72.026.003-5.966-.529-12.136-2.729-18.332-6.537-29.531-18.171-56.885-70.893-68.052-131.107-9.075-52.187-18.068-112.02-24.061-160.089-4.628-35.701 20.266-73.107 65.043-97.662 24.102-13.217 54.023-19.784 81.398-19.784 26.714 0 57.518 6.347 81.402 19.786.024.014.047.026.072.04z"/><path d="m194.425 233.196c-4.142 0-7.5 3.357-7.5 7.5v11.832c0 4.143 3.358 7.5 7.5 7.5s7.5-3.357 7.5-7.5v-11.832c0-4.142-3.358-7.5-7.5-7.5z"/><path d="m317.568 260.028c4.143 0 7.5-3.357 7.5-7.5v-11.832c0-4.143-3.357-7.5-7.5-7.5s-7.5 3.357-7.5 7.5v11.832c0 4.143 3.358 7.5 7.5 7.5z"/><path d="m277.157 246.521c-3.125-2.721-7.859-2.396-10.582.727-2.671 3.065-6.527 4.823-10.579 4.823s-7.908-1.758-10.579-4.823c-2.721-3.122-7.458-3.447-10.582-.727-3.123 2.722-3.448 7.459-.727 10.582 5.521 6.335 13.499 9.968 21.887 9.968 8.389 0 16.367-3.633 21.887-9.968 2.723-3.123 2.397-7.86-.725-10.582z"/></g></svg>