<svg id="Capa_1" enable-background="new 0 0 511.87 511.87" height="512" viewBox="0 0 511.87 511.87" width="512" xmlns="http://www.w3.org/2000/svg"><path d="m510.298 208.386-3.443-25.78c-.944-7.448-4.926-14.111-11.211-18.761-7.036-5.206-16.277-7.293-25.36-5.728-22.241 3.823-44.399 8.802-66.195 14.816l61.439-61.431c12.488-12.489 12.488-32.809-.002-45.299l-20.518-20.509c-6.051-6.05-14.094-9.381-22.647-9.381-8.556 0-16.598 3.332-22.64 9.381l-62.586 62.578c6.245-22.399 11.37-45.171 15.29-68.009 1.568-9.088-.521-18.336-5.731-25.374-4.649-6.28-11.309-10.256-18.697-11.186l-25.89-3.467c-16.013-2.038-30.766 9.221-33.584 25.61-17.476 101.708-61.222 197.678-126.504 277.549l-38.299 38.288c-13.364 13.365-29.652 22.426-47.1 26.202-.795.172-1.586.356-2.372.554-13.587 3.412-25.804 10.624-35.465 20.968-7.581 8.123-13.067 17.643-16.303 28.296-1.204 3.964 1.032 8.152 4.995 9.356.728.221 1.461.326 2.184.326 3.216 0 6.189-2.085 7.173-5.321 2.566-8.447 6.915-15.993 12.923-22.427 8.114-8.687 18.5-14.596 30.037-17.089 20.271-4.388 39.13-14.851 54.535-30.256l38.57-38.561c.176-.176.343-.368.506-.565.014-.018.031-.032.046-.049 6.022-7.361 11.859-14.86 17.521-22.48l48.933 48.933c-5.228 3.889-10.405 7.861-15.522 11.925-.008.006-.014.014-.022.02-.213.171-.42.352-.618.55l-44.82 44.819c-15.42 15.421-25.876 34.268-30.238 54.504-9.506 44.845-66.299 61.139-98.102 28.07-6.993-7.188-11.998-16.156-14.474-25.933-1.017-4.015-5.102-6.444-9.111-5.43-4.016 1.017-6.446 5.097-5.43 9.111 3.121 12.325 9.437 23.637 18.262 32.709 27.143 29.01 76.257 29.28 103.819.744 9.887-9.866 16.77-22.467 19.699-36.112.938-4.352 2.207-8.634 3.793-12.816 4.756-12.548 12.357-24.209 22.389-34.24l44.52-44.519c56.12-44.497 119.136-78.27 187.295-100.376 3.94-1.277 6.099-5.508 4.82-9.447-1.278-3.941-5.508-6.104-9.447-4.82-58.955 19.121-114.151 46.755-164.518 82.325l-39.501-39.5c29.608-21.534 61.14-40.724 93.856-57.1 35.729-17.905 73.125-32.604 111.48-43.833 24.573-7.195 49.56-12.984 74.795-17.321 5.069-.875 10.133.221 13.895 3.004 2.962 2.191 4.826 5.241 5.258 8.638l3.443 25.78c.999 7.896-4.953 15.488-13.261 16.926-17.204 2.956-34.489 6.694-51.376 11.11-4.008 1.048-6.406 5.146-5.358 9.153 1.048 4.006 5.147 6.402 9.153 5.358 16.475-4.308 33.338-7.954 50.13-10.84 16.377-2.833 27.619-17.589 25.586-33.643zm-99.969-152.086c3.212-3.215 7.484-4.985 12.031-4.985 4.548 0 8.823 1.771 12.042 4.989l20.518 20.509c6.641 6.64 6.641 17.443.001 24.083l-81.166 81.156c-25.323 8.262-50.302 18.074-74.528 29.265 10.903-23.596 20.5-47.911 28.626-72.55zm-230.46 222.025c52.451-74.385 87.977-159.964 103.437-249.935 1.43-8.318 9.002-14.275 16.865-13.278l25.896 3.468c3.339.42 6.384 2.28 8.571 5.235 2.785 3.762 3.881 8.828 3.005 13.905-5.474 31.888-13.338 63.638-23.376 94.378-.036.096-.069.192-.102.29-.01.029-.019.058-.029.087-.002.007-.005.014-.007.021-9.98 30.519-22.276 60.544-36.551 89.291-33.343 16.847-65.471 36.545-95.616 58.631z"/></svg>