<svg id="Capa_1" enable-background="new 0 0 512 512" height="512" viewBox="0 0 512 512" width="512" xmlns="http://www.w3.org/2000/svg"><g><path d="m435.817 140.191c-24.302-27.385-57.646-42.543-93.898-42.681-1.324-.006-2.646-.005-3.968-.006-9.785-6.892-20.339-12.407-31.491-16.4v-47.104c0-18.748-15.248-34-33.99-34h-32.94c-18.742 0-33.99 15.252-33.99 34v47.103c-11.152 3.994-21.707 9.509-31.491 16.401-1.324.001-2.646 0-3.977.006-36.243.138-69.587 15.296-93.889 42.681-25.166 28.358-37.089 66.284-32.713 104.052.015.127.032.253.054.379 7.963 47.402 15.659 95.487 22.874 142.922 3.553 34.72 15.922 66.097 34.838 88.365 20.058 23.612 45.874 36.091 74.709 36.091h.055c13.815 0 27.051-2.931 39.403-8.701 12.747 5.771 26.365 8.701 40.577 8.701h.069c14.189 0 27.81-2.931 40.548-8.7 12.353 5.77 25.586 8.7 39.434 8.7h.067c28.796 0 54.619-12.487 74.68-36.11 18.907-22.266 31.271-53.636 34.823-88.345.924-6.071 1.854-12.142 2.788-18.211.631-4.094-2.176-7.924-6.27-8.555-4.099-.629-7.925 2.176-8.555 6.271-.946 6.14-1.887 12.28-2.821 18.422-.019.124-.034.247-.047.372-6.634 65.447-45.534 111.156-94.651 111.156h-.057c-7.792 0-15.361-1.115-22.633-3.312 31.837-22.422 53.278-63.526 58.357-113.262 7.725-50.7 15.889-101.693 24.265-151.563.021-.126.039-.252.054-.379 4.952-42.751-9.815-85.009-39.144-114.904 26.045 3.592 49.691 16.26 67.712 36.568 22.293 25.121 32.876 58.711 29.053 92.182-4.987 29.693-9.893 59.785-14.58 89.447-.646 4.092 2.146 7.933 6.237 8.579.396.062.791.093 1.18.093 3.626 0 6.815-2.635 7.399-6.331 4.689-29.678 9.598-59.788 14.589-89.495.021-.126.039-.252.054-.379 4.375-37.769-7.548-75.695-32.714-104.053zm-196.287-125.191h32.939c10.472 0 18.99 8.523 18.99 19v42.724c-9.521-2.174-19.313-3.295-29.231-3.334-4.153-.01-8.305-.01-12.468 0-9.911.039-19.701 1.16-29.221 3.334v-42.724c.001-10.477 8.52-19 18.991-19zm141.621 211.568c-8.387 49.944-16.562 101.011-24.296 151.782-.02.124-.035.249-.048.374-5.198 51.348-28.938 92.298-63.507 109.545-11.605 5.793-24.139 8.73-37.306 8.73-.021 0-.039 0-.059 0-13.094 0-25.624-2.938-37.239-8.731-34.574-17.25-58.318-58.201-63.516-109.544-.013-.125-.028-.249-.047-.373-6.953-45.705-14.316-91.941-21.886-137.425-.68-4.085-4.534-6.847-8.63-6.167-4.086.68-6.847 4.544-6.167 8.63 7.548 45.354 14.891 91.459 21.825 137.035 5.078 49.733 26.517 90.851 58.36 113.275-7.277 2.193-14.863 3.3-22.691 3.3-.016 0-.028 0-.043 0-49.067 0-87.967-45.702-94.602-111.156-.013-.124-.028-.248-.047-.371-7.226-47.507-14.932-95.666-22.906-143.143-3.823-33.471 6.76-67.061 29.053-92.182 18.032-20.32 41.694-33.006 67.771-36.591-24.054 24.626-38.682 58.107-40.039 93.155-.16 4.139 3.064 7.625 7.204 7.785 4.149.145 7.623-3.066 7.784-7.204 1.475-38.064 20.44-74.043 50.734-96.245 23.401-18.633 52.348-22.769 81.325-22.658 23.953.092 49.336 8.277 68.966 22.659 35.991 26.377 55.14 70.627 50.007 115.52z"/><path d="m194.537 190.461c-4.143 0-7.5 3.358-7.5 7.5v11.811c0 4.142 3.357 7.5 7.5 7.5s7.5-3.358 7.5-7.5v-11.811c0-4.142-3.357-7.5-7.5-7.5z"/><path d="m317.463 190.461c-4.143 0-7.5 3.358-7.5 7.5v11.811c0 4.142 3.357 7.5 7.5 7.5s7.5-3.358 7.5-7.5v-11.811c0-4.142-3.358-7.5-7.5-7.5z"/><path d="m277.131 203.766c-3.123-2.722-7.86-2.396-10.581.727-2.663 3.057-6.509 4.81-10.55 4.81s-7.887-1.753-10.55-4.81c-2.721-3.123-7.459-3.448-10.581-.727-3.123 2.721-3.449 7.458-.728 10.582 5.513 6.327 13.479 9.955 21.858 9.955s16.346-3.628 21.858-9.955c2.723-3.124 2.397-7.861-.726-10.582z"/></g></svg>