<svg id="Capa_1" enable-background="new 0 0 515.826 515.826" height="512" viewBox="0 0 515.826 515.826" width="512" xmlns="http://www.w3.org/2000/svg"><path d="m459.817 106.558c-34.232-39.879-80.953-67.007-132.168-76.91-.164-2.021-.566-4.047-1.235-6.041-2.846-8.484-9.762-14.624-18.502-16.425-17.298-3.563-35.118-5.322-52.934-5.268-44.567.174-88.472 12.085-126.966 34.444-3.581 2.081-4.798 6.671-2.718 10.253 2.079 3.58 6.671 4.796 10.253 2.718 36.226-21.043 77.544-32.252 119.489-32.415.316-.001.63-.002.947-.002 16.474 0 32.923 1.669 48.9 4.961 4.971 1.024 6.767 4.889 7.308 6.503 1.146 3.419.415 7.073-1.957 9.775-6.272 7.146-13.383 15.245-20.912 20.725-7.679 5.589-17.179 9.698-27.235 14.05-16.177 6.999-32.905 14.236-43.372 28.618-10.357 14.232-12.097 32.31-13.779 49.792-1.058 10.983-2.056 21.356-5.037 30.537-2.807 8.646-7.963 17.306-13.422 26.474-9.121 15.32-18.554 31.161-18.554 49.565s9.433 34.246 18.554 49.566c5.459 9.169 10.615 17.828 13.422 26.474 2.981 9.181 3.979 19.554 5.037 30.537 1.683 17.482 3.422 35.561 13.779 49.792 10.467 14.382 27.194 21.618 43.371 28.617 10.057 4.352 19.557 8.462 27.236 14.051 7.537 5.485 14.288 13.177 21.436 21.319l1.11 1.266c2.022 2.302 2.657 5.416 1.698 8.331-.449 1.364-1.945 4.636-6.126 5.545-16.794 3.651-34.102 5.502-51.441 5.502-62.555 0-119.651-24.014-162.556-63.297 12.006-3.474 23.037-8.06 32.901-13.72 10.881-6.234 20.427-13.829 28.372-22.573 2.785-3.066 2.559-7.81-.507-10.595s-7.81-2.559-10.595.507c-6.89 7.583-15.209 14.192-24.731 19.648-11.027 6.327-23.768 11.177-37.894 14.479-20.765-21.951-37.464-47.783-48.867-76.283 4.724.372 9.377.564 13.948.564 9.802 0 19.233-.856 28.213-2.566 13.985-2.653 26.857-7.427 38.257-14.187 3.563-2.113 4.738-6.714 2.626-10.276-2.112-3.563-6.715-4.736-10.276-2.626-9.896 5.868-21.135 10.024-33.408 12.354-13.827 2.632-28.941 3-44.98 1.114-7.409-23.041-11.448-47.574-11.502-73.024-.017-8.011.386-15.966 1.152-23.85 13.89 6.518 27.784 11.105 41.425 13.668 8.358 1.573 16.56 2.359 24.563 2.359 9.203 0 18.142-1.04 26.738-3.119 4.026-.974 6.501-5.027 5.527-9.053-.975-4.025-5.027-6.495-9.053-5.527-13.995 3.385-29.134 3.584-45.003.599-13.807-2.594-27.969-7.51-42.167-14.617 4.422-26.925 13.397-52.746 26.43-76.478 13.656 6.376 27.302 10.896 40.654 13.453 8.535 1.633 16.905 2.448 25.062 2.448 9.202 0 18.134-1.039 26.719-3.114 4.026-.974 6.501-5.026 5.527-9.053-.973-4.025-5.021-6.505-9.053-5.527-14.102 3.409-29.39 3.583-45.437.514-11.706-2.242-23.718-6.174-35.803-11.701 13.409-21.157 30.192-40.381 50.02-56.864 3.185-2.648 3.62-7.377.973-10.562-2.648-3.185-7.375-3.62-10.562-.973-49.442 41.103-81.158 98.21-90.101 160.497-.064.303-.112.607-.138.912-1.657 11.846-2.498 23.876-2.472 36.019.141 67.083 25.935 130.187 72.685 178.119.176.201.363.391.559.571.64.652 1.268 1.313 1.916 1.959 48.331 48.236 112.555 74.801 180.839 74.801 18.409 0 36.789-1.966 54.628-5.844 8.148-1.771 14.573-7.571 17.188-15.514.722-2.194 1.104-4.429 1.181-6.648 10.142-2.018 20.218-4.728 30.04-8.107 39.252-13.511 74.303-37.444 101.362-69.214 2.686-3.153 2.307-7.887-.847-10.573-3.155-2.686-7.888-2.306-10.573.847-21.413 25.141-48.17 45.034-78.124 58.219 12.346-28.946 21.856-57.748 28.442-86.135 28.598-4.172 52.039-19.23 68.933-44.625 2.295-3.449 1.358-8.104-2.09-10.398-3.448-2.297-8.104-1.358-10.398 2.09-13.427 20.183-31.202 32.589-53.076 37.155 1.842-9.457 3.366-18.863 4.546-28.205 1.791-14.178 2.816-28.223 3.087-42.085 22.083-4.784 43.517-17.428 58.969-44.211 2.07-3.588.84-8.175-2.748-10.244-3.589-2.072-8.175-.841-10.244 2.748-12.004 20.806-28.542 31.449-45.998 36.076-.402-18.215-2.134-36.072-5.211-53.444-.983-5.549-2.071-10.865-3.235-15.955 18.33-5.724 33.035-17.732 43.391-35.681 2.07-3.588.84-8.175-2.748-10.244-3.59-2.073-8.175-.84-10.244 2.748-8.271 14.336-19.686 23.89-34.094 28.61-11.529-41.28-27.101-63.859-27.9-65-2.376-3.391-7.055-4.214-10.446-1.837s-4.215 7.054-1.837 10.446c.178.254 14.567 21.12 25.442 59.43-5.665.562-11.68.546-18.051-.066-23.62-2.272-43.779-12.031-46-13.137-.007-.003-.071-.035-.078-.038-3.711-1.835-8.174-.301-10.012 3.406-1.839 3.707-.298 8.218 3.406 10.061 4.038 2.01 25.487 12.16 51.247 14.639 3.777.363 7.46.544 11.056.544 4.195 0 8.259-.255 12.196-.745 1.13 4.918 2.185 10.064 3.136 15.435 2.692 15.198 4.667 33.087 4.953 53.416-35.117 3.045-69.811-13.041-75.805-15.982l-.247-.121c-3.729-1.794-8.206-.226-10.004 3.504-1.798 3.729-.229 8.213 3.499 10.013l.146.071c6.093 2.989 38.423 17.968 74.023 17.968 2.745 0 5.51-.09 8.283-.281-.58 21.131-3.026 44.566-8.264 70.074-7.991.316-16.437-.253-25.335-1.723-31.602-5.217-57.414-20.028-60.253-21.7-3.568-2.102-8.167-.912-10.269 2.657s-.912 8.167 2.657 10.269c3.086 1.817 31.139 17.914 65.421 23.574 8.047 1.328 15.812 1.988 23.291 1.988.378 0 .751-.012 1.128-.015-6.896 28.541-17.302 59.473-32.389 92.494-8.703 2.851-17.594 5.153-26.535 6.866-.456-.634-.936-1.257-1.46-1.854l-1.105-1.26c-7.373-8.4-14.998-17.088-23.883-23.554-9.023-6.567-19.741-11.204-30.106-15.688-14.987-6.484-29.144-12.609-37.198-23.677-7.947-10.92-9.419-26.213-10.978-42.402-1.088-11.304-2.213-22.991-5.7-33.733-3.326-10.243-9.159-20.04-14.801-29.515-8.455-14.201-16.442-27.615-16.442-41.893 0-14.276 7.986-27.69 16.442-41.892 5.642-9.475 11.475-19.271 14.801-29.515 3.487-10.742 4.612-22.43 5.7-33.733 1.559-16.189 3.03-31.482 10.978-42.402 8.055-11.068 22.212-17.193 37.199-23.678 10.365-4.484 21.082-9.121 30.105-15.688 8.877-6.461 16.571-15.225 23.359-22.957 1.047-1.193 1.959-2.463 2.748-3.787 102.663 19.465 176.57 108.394 176.57 213.647 0 41.865-11.92 82.514-34.472 117.552-2.242 3.483-1.235 8.124 2.247 10.366 1.256.809 2.662 1.194 4.053 1.194 2.465 0 4.88-1.215 6.313-3.441 24.113-37.465 36.858-80.921 36.858-125.671.002-55.52-19.889-109.271-56.007-151.349z"/></svg>