<svg id="Capa_1" enable-background="new 0 0 512.004 512.004" height="512" viewBox="0 0 512.004 512.004" width="512" xmlns="http://www.w3.org/2000/svg"><path d="m327.678 294.578c-11.776-2.433-24.143-2.212-35.774.628-36.5 8.904-61.992 41.368-61.992 78.946 0 44.812 36.457 81.271 81.27 81.271 44.807 0 81.26-36.458 81.26-81.271v-.306c-.043-12.178-2.734-23.908-8.005-34.874-10.96-22.707-32.176-39.303-56.759-44.394zm49.763 79.574c0 36.542-29.724 66.271-66.26 66.271-36.541 0-66.269-29.729-66.27-66.27 0-35.886 30.383-66.26 66.269-66.26 35.44 0 66.134 30.545 66.26 65.98v.279z"/><path d="m392.651 158.342c-60.434 0-109.803 48.271-111.594 108.284-19.433 5.411-36.855 15.915-50.673 30.434-4.218-50.114-.713-100.454 10.473-149.904.017-.076.033-.153.048-.229 4.871-25.161 1.978-55.714-7.74-81.73-11.595-31.042-31.958-53-57.34-61.829-.068-.024-.138-.047-.207-.069-27.688-8.735-62.546.119-93.199 23.649-29.468 22.27-51.963 55.491-58.692 86.629-21.423 94.729-21.375 190.77.126 285.388 6.779 31.17 29.27 64.266 58.648 86.338 22.809 17.409 47.939 26.7 70.719 26.7 7.805 0 15.334-1.09 22.398-3.319.068-.021.136-.044.204-.067 24.196-8.404 43.552-28.255 55.416-56.501 20.934 21.557 49.421 33.696 79.943 33.696 60.442 0 109.815-48.282 111.596-108.305 22.089-6.19 42.016-19.219 56.591-37.162 16.085-19.802 24.943-44.783 24.943-70.343 0-61.569-50.091-111.66-111.66-111.66zm-221.648 336.069c-22.676 7.102-53.09-.949-79.446-21.065-26.269-19.736-47.091-50.183-53.062-77.636-21.017-92.486-21.063-186.295-.122-278.894 5.927-27.429 26.767-58.007 53.134-77.935 26.379-20.248 56.828-28.405 79.493-21.309 48.001 16.792 63.1 85.318 55.199 126.392-12.682 56.124-15.763 113.363-9.179 170.183-11.448 17.924-17.5 38.602-17.5 60.004 0 23.504 7.157 45.809 20.719 64.774-6.257 17.801-20.327 45.393-49.236 55.486zm140.178-23.599c-52.048 0-96.66-44.712-96.66-96.66 0-55.173 48.818-100.413 103.823-96.39 48.408 3.54 89.262 47.348 89.486 95.865.001.175.001.35.002.525 0 53.299-43.358 96.66-96.651 96.66zm103.583-138.349c-7.23-17.993-19.001-33.767-34.37-45.925-15.646-12.378-34.084-20.229-53.687-22.952 3.238-33.542 31.572-59.854 65.944-59.854 36.542 0 66.271 29.729 66.271 66.27-.001 28.395-17.857 53.197-44.158 62.461zm7.401 29.58c-.559-5.172-1.47-10.29-2.743-15.318 32.446-11.265 54.5-41.777 54.5-76.724 0-44.812-36.458-81.27-81.271-81.27-42.281 0-77.107 32.468-80.901 73.781-.191-.001-.377-.01-.569-.01-5.023 0-10.026.338-14.956 1 3.355-50.279 45.317-90.16 96.426-90.16 53.299 0 96.66 43.361 96.66 96.66 0 42.003-27.763 79.389-67.146 92.041z"/><path d="m283.8 370.334h-14.8c-4.143 0-7.5 3.358-7.5 7.5s3.357 7.5 7.5 7.5h14.8c4.143 0 7.5-3.358 7.5-7.5s-3.357-7.5-7.5-7.5z"/><path d="m430.133 277.558h-14.8c-4.143 0-7.5 3.358-7.5 7.5s3.357 7.5 7.5 7.5h14.8c4.143 0 7.5-3.358 7.5-7.5s-3.357-7.5-7.5-7.5z"/><path d="m347.251 349.816c3.648-1.961 8.195-.593 10.157 3.056 1.961 3.649.593 8.196-3.056 10.157l-13.032 7.005c-3.591 1.936-8.223.55-10.16-3.043-1.966-3.646-.603-8.195 3.043-10.16z"/><path d="m414.161 255.811 8.919-11.81c2.496-3.305 1.84-8.009-1.466-10.505-3.304-2.496-8.008-1.84-10.505 1.465l-8.919 11.81c-2.496 3.305-1.84 8.008 1.465 10.504 3.163 2.39 8.024 1.822 10.506-1.464z"/><path d="m320.933 326.247c0-4.142-3.357-7.5-7.5-7.5s-7.5 3.358-7.5 7.5v14.799c0 4.142 3.357 7.5 7.5 7.5s7.5-3.358 7.5-7.5z"/><path d="m369.907 230.486c-4.143 0-7.5 3.358-7.5 7.5v14.799c0 4.142 3.357 7.5 7.5 7.5s7.5-3.358 7.5-7.5v-14.799c0-4.142-3.358-7.5-7.5-7.5z"/><path d="m343.95 400.119-14.164-4.289c-3.972-1.201-8.152 1.041-9.352 5.005-1.201 3.964 1.04 8.151 5.004 9.352 0 0 14.156 4.286 14.164 4.289 3.863 1.17 8.16-1.068 9.352-5.005 1.201-3.965-1.04-8.152-5.004-9.352z"/><path d="m91.142 296.368c-.101-4.142-3.542-7.43-7.681-7.315-4.141.101-7.416 3.54-7.315 7.68 1.469 60.269 10.748 112.111 28.368 158.489 1.138 2.996 3.987 4.838 7.012 4.838.886 0 1.786-.158 2.663-.491 3.872-1.471 5.818-5.803 4.347-9.675-17.007-44.763-25.967-94.983-27.394-153.526z"/><path d="m82.044 173.575c-2.404 23.399-4.049 44.347-5.026 64.04-.205 4.137 2.982 7.657 7.119 7.862.127.006.253.009.378.009 3.972 0 7.286-3.118 7.485-7.128.964-19.426 2.588-40.116 4.966-63.25.423-4.12-2.574-7.804-6.694-8.228-4.143-.421-7.806 2.574-8.228 6.695z"/><path d="m173.643 193.05c-4.059-.813-8.014 1.82-8.826 5.881-7.879 39.34-11.889 81.368-12.259 128.484 0 .059 0 .118.001.177.394 24.964 1.48 54.501 6.553 84.295.623 3.657 3.795 6.243 7.385 6.242.418 0 .842-.035 1.268-.107 4.083-.695 6.83-4.569 6.135-8.652-4.896-28.76-5.954-57.547-6.341-81.924.367-46.122 4.281-87.195 11.966-125.57.813-4.061-1.82-8.013-5.882-8.826z"/><path d="m80.201 111.575c3.688 0 6.903-2.722 7.42-6.479l1.459-10.605c.564-4.104-2.304-7.888-6.407-8.452-4.11-.556-7.888 2.304-8.452 6.408l-1.459 10.605c-.564 4.104 2.304 7.888 6.407 8.452.347.048.691.071 1.032.071z"/><path d="m193.056 101.234c-4.091-.567-7.888 2.304-8.452 6.407l-1.46 10.605c-.565 4.104 2.304 7.888 6.407 8.453.347.048.691.071 1.032.071 3.688 0 6.903-2.722 7.42-6.478l1.46-10.605c.566-4.104-2.303-7.889-6.407-8.453z"/><path d="m155.629 108.429c-2.725-3.122-7.461-3.445-10.582-.723-2.617 2.282-6.086 3.32-9.511 2.848-3.428-.472-6.484-2.408-8.388-5.312-2.271-3.464-6.919-4.432-10.384-2.162s-4.433 6.919-2.163 10.384c4.281 6.532 11.166 10.888 18.89 11.951 7.594 1.045 15.571-1.307 21.415-6.404 3.121-2.723 3.445-7.46.723-10.582z"/></svg>