<svg id="Capa_1" enable-background="new 0 0 512.018 512.018" height="512" viewBox="0 0 512.018 512.018" width="512" xmlns="http://www.w3.org/2000/svg"><g><path d="m132.547 244.313c4.142 0 7.5-3.358 7.5-7.5v-11.057c0-4.142-3.358-7.5-7.5-7.5s-7.5 3.358-7.5 7.5v11.057c0 4.142 3.358 7.5 7.5 7.5z"/><path d="m255.133 236.813v-11.057c0-4.142-3.358-7.5-7.5-7.5s-7.5 3.358-7.5 7.5v11.057c0 4.142 3.358 7.5 7.5 7.5s7.5-3.358 7.5-7.5z"/><path d="m190.09 250.895c7.982 0 15.573-3.457 20.825-9.483 2.721-3.123 2.396-7.86-.727-10.582-3.123-2.721-7.86-2.396-10.582.727-2.403 2.757-5.872 4.339-9.517 4.339s-7.113-1.582-9.516-4.339c-2.722-3.122-7.459-3.447-10.582-.727-3.123 2.722-3.448 7.459-.727 10.582 5.254 6.027 12.844 9.483 20.826 9.483z"/><path d="m355.303 405.813c-1.207-3.961-5.394-6.197-9.36-4.989-3.962 1.207-6.196 5.397-4.989 9.36l3.657 12.006c.985 3.234 3.958 5.316 7.172 5.316.724 0 1.459-.105 2.188-.328 3.962-1.207 6.196-5.397 4.989-9.36z"/><path d="m420.07 280.616-12.006 3.658c-3.962 1.207-6.196 5.397-4.989 9.36.985 3.234 3.958 5.316 7.172 5.316.724 0 1.46-.105 2.188-.328l12.006-3.658c3.962-1.207 6.196-5.397 4.989-9.36s-5.398-6.196-9.36-4.988z"/><path d="m509.313 256.294c-1.716-11.699-8.412-22.028-18.372-28.338-9.893-6.267-21.993-7.905-33.2-4.491l-79.039 24.078c1.017-8.487 1.52-17.042 1.471-25.571-.299-26.745-5.02-49.475-14.029-67.557-9.097-18.258-22.598-31.958-40.124-40.721-6.682-3.523-14.089-6.391-22.456-8.707 1.259-6.452 1.339-13.025.195-19.356-.8-4.457-3.513-8.336-7.442-10.643-4.014-2.356-8.847-2.836-13.258-1.319-18.744 6.457-38.141 10.946-57.78 13.384l3.41-46.22c.611-8.231-2.26-16.42-7.875-22.469-5.618-6.051-13.576-9.521-21.833-9.521h-17.782c-8.256 0-16.214 3.471-21.832 9.521-5.616 6.049-8.487 14.241-7.875 22.469l3.411 46.225c-19.655-2.444-39.051-6.932-57.77-13.378-4.394-1.521-9.205-1.042-13.201 1.315-4.012 2.366-6.772 6.366-7.571 10.973-1.081 6.221-.962 12.675.276 19.016-8.358 2.311-15.769 5.178-22.468 8.706-9.357 4.677-17.652 10.827-24.656 18.28-2.836 3.019-2.688 7.765.33 10.602 1.448 1.36 3.293 2.034 5.134 2.034 1.998 0 3.991-.793 5.467-2.364 5.804-6.176 12.699-11.279 20.495-15.167.052-.026.103-.052.154-.079 5.969-3.15 12.686-5.707 20.368-7.777 6.253 12.68 16.943 22.869 30.381 29.107-8.569 5.694-17.502 10.815-26.685 15.291-3.782 1.845-6.55 5.233-7.595 9.297-1.048 4.076-.253 8.395 2.179 11.847 6.951 9.876 17.736 16.516 30.37 18.696 14.376 2.48 29.33-1.131 42.107-10.172 13.457-9.527 26.173-20.264 37.872-31.972 11.699 11.708 24.416 22.445 37.874 31.973 10.146 7.178 21.663 10.934 33.176 10.934 2.984 0 5.97-.252 8.93-.763 12.634-2.18 23.419-8.82 30.369-18.693 2.434-3.456 3.228-7.774 2.18-11.85-1.045-4.063-3.812-7.452-7.596-9.297-9.18-4.475-18.113-9.595-26.682-15.29 13.438-6.238 24.127-16.429 30.38-29.111 7.697 2.075 14.415 4.634 20.37 7.78.052.028.104.055.157.081 29.937 14.931 45.389 46.915 45.927 95.021.058 10.084-.703 20.24-2.261 30.254l-202.78 61.774s0 0-.001 0l-5.882 1.792c-11.206 3.414-20.339 11.519-25.058 22.238-4.75 10.791-4.551 23.099.547 33.768 3.117 6.523 6.508 12.874 10.136 19.045-29.641-7.306-54.548-20.864-74.17-40.478-.026-.026-.052-.052-.078-.077-31.988-31.055-50.913-79.023-50.625-128.274.264-23.435 4.128-43.291 11.484-59.017 1.755-3.752.136-8.216-3.616-9.971-3.751-1.756-8.216-.136-9.971 3.616-8.269 17.677-12.607 39.614-12.896 65.244-.313 53.278 20.298 105.283 55.136 139.128 24.516 24.49 57.72 40.891 96.19 47.559 21.844 30.854 50.202 55.949 82.458 72.51 28.371 14.566 58.716 21.964 88.748 21.964 17.675 0 35.245-2.564 52.229-7.738 31.326-9.542 59.764-27.742 82.241-52.631 2.776-3.074 2.535-7.817-.539-10.593-3.074-2.777-7.817-2.534-10.593.539-20.655 22.871-46.755 39.585-75.48 48.336-76.081 23.177-158.738-11.179-208.132-82.781-.254-.477-.555-.926-.904-1.338-6.683-9.832-12.75-20.347-18.084-31.51-3.212-6.722-3.341-14.47-.353-21.257 2.774-6.302 7.985-11.162 14.419-13.504l1.488 4.884c11.722 38.479 35.48 72.568 66.898 95.987 8.092 6.033 16.639 11.373 25.401 15.872 22.939 11.777 47.369 17.762 71.436 17.762 13.957 0 27.795-2.015 41.14-6.08 36.354-11.077 67.231-36.811 86.941-72.462 4.766-8.62 8.883-17.817 12.238-27.336 13.025-36.958 13.742-78.504 2.02-116.983l-1.488-4.884c6.647-1.643 13.682-.514 19.499 3.172 6.265 3.969 10.477 10.472 11.559 17.843 7.899 53.854-2.717 107.007-29.892 149.667-2.226 3.493-1.197 8.129 2.296 10.355 3.493 2.225 8.129 1.197 10.355-2.296 29.11-45.697 40.504-102.485 32.082-159.903zm-338.954-227.722c2.831-3.049 6.68-4.728 10.839-4.728h17.782c4.16 0 8.009 1.679 10.84 4.728 2.829 3.047 4.217 7.009 3.909 11.155v.004l-4.563 61.838c-.567 7.684-7.049 13.702-14.756 13.702h-8.641c-7.311 0-13.452-5.226-14.606-12.446-.071-.44-.12-.847-.15-1.259l-4.563-61.839c-.307-4.147 1.081-8.108 3.909-11.155zm80.06 110.069c-2.851.637-5.072 2.871-5.693 5.725s.472 5.809 2.8 7.573c12.598 9.542 26.12 17.887 40.2 24.808-4.657 6.254-11.802 10.479-20.207 11.93-10.423 1.8-21.393-.913-30.89-7.632-14.399-10.195-27.905-21.85-40.143-34.643-1.437-1.501-3.422-2.351-5.51-2.315-.589.007-1.184.007-1.772 0-2.079-.042-4.074.813-5.51 2.315-12.236 12.792-25.742 24.448-40.141 34.641-9.499 6.721-20.468 9.433-30.891 7.634-8.404-1.45-15.548-5.674-20.207-11.93 14.082-6.923 27.604-15.267 40.2-24.808 2.329-1.764 3.421-4.718 2.8-7.573-.621-2.854-2.842-5.088-5.692-5.725-17.63-3.941-31.404-15.433-36.845-30.741-2.26-6.36-2.875-13.056-1.779-19.363.048-.278.187-.487.413-.62.314-.185.586-.09.686-.057 20.656 7.113 42.085 11.954 63.789 14.434l.027.368c.061.845.161 1.685.301 2.55 2.321 14.521 14.691 25.06 29.415 25.06h8.641c15.52 0 28.573-12.123 29.715-27.596l.029-.388c21.688-2.473 43.116-7.315 63.788-14.435.362-.126.645-.009.781.072.232.136.259.286.273.365 1.154 6.39.555 13.168-1.734 19.603-5.441 15.314-19.215 26.808-36.844 30.748zm198.316 215.696c-3.079 8.737-6.854 17.17-11.218 25.064-17.814 32.221-45.582 55.437-78.186 65.372-32.604 9.931-68.598 6.14-101.353-10.677-8.025-4.12-15.86-9.017-23.288-14.554-28.872-21.521-50.718-52.892-61.514-88.333l-1.499-4.918 57.131-17.404c16.024 26.962 44.801 42.822 75.226 42.822 8.541 0 17.216-1.251 25.77-3.857 39.022-11.887 64.31-48.544 62.098-88.649l57.151-17.41 1.499 4.919c10.798 35.44 10.152 73.662-1.817 107.625zm-71.678-90.612c.139 31.775-20.474 60.289-51.623 69.778-31.149 9.487-64.158-2.69-81.758-29.146z"/><path d="m229.392 338.703-12.006 3.658c-3.962 1.207-6.196 5.397-4.989 9.36.985 3.234 3.958 5.316 7.172 5.316.724 0 1.46-.105 2.188-.328l12.006-3.658c3.962-1.207 6.196-5.397 4.989-9.36s-5.396-6.196-9.36-4.988z"/><path d="m280.515 394.458c-3.653-1.948-8.197-.564-10.146 3.091l-5.903 11.076c-1.948 3.655-.564 8.198 3.091 10.146 1.124.599 2.331.883 3.521.883 2.681 0 5.276-1.442 6.625-3.974l5.903-11.076c1.948-3.656.564-8.198-3.091-10.146z"/><path d="m417.931 361.874-11.076-5.903c-3.654-1.948-8.198-.564-10.146 3.091s-.564 8.198 3.091 10.146l11.076 5.903c1.124.599 2.331.883 3.521.883 2.681 0 5.276-1.442 6.625-3.974 1.948-3.656.564-8.198-3.091-10.146z"/></g></svg>