<svg id="Capa_1" enable-background="new 0 0 511.991 511.991" height="512" viewBox="0 0 511.991 511.991" width="512" xmlns="http://www.w3.org/2000/svg"><g><path d="m508.084 315.168c-.368-2.091-.755-4.193-1.165-6.312-2.383-12.261-5.155-24.233-7.599-34.479.742-11.258-10.616-22.418-33.825-33.2-20.948-9.732-49.491-18.199-80.369-23.839-30.877-5.641-60.567-7.812-83.606-6.114-19.598 1.444-32.736 5.568-39.27 12.291-3.111-7.139-6.05-14.078-8.706-20.844-.014-.035-.027-.068-.041-.103-7.084-17.296-12.394-33.661-17.079-48.099-2.062-6.356-4.012-12.364-5.994-18.108-6.409-22.16-20.631-50.869-36.272-73.207-14.646-20.917-37.257-45.851-61.801-45.852-.002 0 .002 0 0 0-35.303 0-44.303 48.768-51.529 87.95-2.126 11.528-4.135 22.422-6.561 31.092-2.34 6.541-4.613 13.44-7.019 20.739-.873 2.648-1.762 5.346-2.676 8.092-1.308 3.93.818 8.176 4.748 9.484 3.931 1.31 8.177-.818 9.485-4.748.918-2.76 1.812-5.472 2.689-8.133 2.358-7.154 4.587-13.912 6.846-20.235h36.402c4.142 0 7.5-3.358 7.5-7.5s-3.358-7.5-7.5-7.5h-32.735c.97-4.644 1.898-9.523 2.832-14.56h16.365c4.142 0 7.5-3.358 7.5-7.5s-3.358-7.5-7.5-7.5h-13.569c5.982-31.184 14.331-64.682 34.723-64.681 14.114 0 31.699 14.013 49.514 39.455 16.845 24.058 29.314 51.96 34.199 68.941.036.126.076.251.119.375 1.958 5.667 3.905 11.669 5.967 18.024 2.318 7.145 4.792 14.761 7.556 22.742h-9.229c-4.142 0-7.5 3.358-7.5 7.5s3.358 7.5 7.5 7.5h14.657c1.412 3.732 2.884 7.514 4.46 11.363 4.771 12.147 10.331 24.642 16.217 37.869 6.315 14.189 12.844 28.862 18.701 43.853 12.419 31.792 16.921 56.61 14.168 78.103-.005.042-.011.083-.015.125-2.375 21.386-12.465 42.436-29.988 62.567-41.991 44.199-88.425 48.973-106.451 48.973-18.042 0-64.495-4.776-106.232-48.984-17.657-19.978-27.821-41.024-30.208-62.554-.004-.042-.009-.083-.015-.125-2.75-21.498 1.752-46.315 14.171-78.104 5.79-14.821 12.238-29.33 18.485-43.369h17.578c4.142 0 7.5-3.358 7.5-7.5s-3.358-7.5-7.5-7.5h-10.936c3.497-7.984 6.798-15.736 9.787-23.352.644-1.573 1.272-3.135 1.887-4.689 1.524-3.852-.363-8.209-4.214-9.733s-8.209.362-9.733 4.215c-.6 1.516-1.214 3.041-1.842 4.575-.014.034-.027.067-.041.101-4.192 10.684-9.078 21.789-14.267 33.461-.001.002-.002.004-.002.005-.57 1.283-1.142 2.567-1.719 3.864-6.38 14.336-12.977 29.161-18.955 44.464-13.356 34.189-18.151 61.33-15.085 85.402 2.751 24.676 14.175 48.518 33.955 70.865.052.059.105.117.159.174 32.226 34.179 74.954 53.782 117.229 53.781h.002c37.514 0 75.479-15.477 106.208-42.884 22.176 20.457 49.144 34.355 76.657 39.378 8.317 1.519 16.807 2.265 25.376 2.265 33.144 0 67.434-11.176 97.103-32.113.907-.633 1.815-1.287 2.722-1.952.081-.06.161-.121.239-.183 11.165-8.895 20.662-18.614 28.229-28.886 2.457-3.335 1.745-8.03-1.59-10.487s-8.031-1.745-10.487 1.59c-6.72 9.122-15.201 17.805-25.207 25.814l-32.991-6.025c-4.074-.741-7.981 1.956-8.725 6.031s1.956 7.981 6.03 8.725l17.14 3.13c-42.172 23.311-79.779 20.14-95.146 17.334-24.48-4.469-48.555-16.847-68.533-35.074.138-.144.278-.283.416-.428.072-.076.142-.153.21-.232 19.617-22.495 30.951-46.321 33.687-70.822 3.069-24.068-1.724-51.21-15.082-85.406-3.175-8.127-6.526-16.115-9.924-23.971 3.752 2.233 7.994 4.452 12.737 6.656 20.949 9.732 49.491 18.198 80.369 23.839 24.027 4.389 47.332 6.677 67.346 6.677 5.706 0 11.149-.186 16.26-.563 14.124-1.041 24.891-3.474 32.253-7.268 1.267 5.546 2.546 11.365 3.749 17.285l-8.235-1.504c-4.074-.745-7.981 1.955-8.726 6.03-.744 4.075 1.956 7.981 6.03 8.726l13.81 2.523c4.369 27.758 3.692 50.115-2.061 68.208-.012.038-.024.076-.036.115-.13.433-.263.864-.399 1.294-1.252 3.948.933 8.164 4.881 9.417.754.239 1.519.353 2.27.353 3.181 0 6.134-2.04 7.147-5.234.154-.484.303-.971.45-1.458 6.836-21.547 7.383-47.853 1.67-80.421zm-53.907-33.024c-21.803 1.608-50.146-.492-79.808-5.911-29.662-5.418-56.917-13.475-76.744-22.687-21.666-10.066-25.405-17.449-25.17-18.737s6.343-6.872 30.168-8.627c4.781-.353 9.876-.526 15.232-.526 19.065 0 41.419 2.207 64.576 6.437 29.662 5.418 56.917 13.476 76.744 22.687 21.666 10.065 25.405 17.448 25.17 18.736s-6.343 6.872-30.168 8.628z"/><path d="m332.087 418.041c3.552 0 6.708-2.535 7.369-6.154.744-4.075-1.956-7.981-6.03-8.726l-18.551-3.389c-4.075-.743-7.981 1.956-8.726 6.03s1.956 7.981 6.03 8.726l18.551 3.389c.456.084.91.124 1.357.124z"/><path d="m334.185 443.743 18.551 3.389c.456.083.909.124 1.356.124 3.552 0 6.708-2.535 7.369-6.154.744-4.075-1.956-7.981-6.03-8.726l-18.551-3.389c-4.074-.742-7.981 1.956-8.726 6.03s1.956 7.982 6.031 8.726z"/><path d="m96.367 438.644h42.031c4.142 0 7.5-3.358 7.5-7.5s-3.358-7.5-7.5-7.5h-42.031c-4.142 0-7.5 3.358-7.5 7.5s3.358 7.5 7.5 7.5z"/><path d="m152.234 463.428h18.858c4.142 0 7.5-3.358 7.5-7.5s-3.358-7.5-7.5-7.5h-18.858c-4.142 0-7.5 3.358-7.5 7.5s3.358 7.5 7.5 7.5z"/><path d="m134.172 187.442h-18.857c-4.142 0-7.5 3.358-7.5 7.5s3.358 7.5 7.5 7.5h18.857c4.142 0 7.5-3.358 7.5-7.5s-3.358-7.5-7.5-7.5z"/><path d="m229.051 221.275c0-4.142-3.358-7.5-7.5-7.5h-18.858c-4.142 0-7.5 3.358-7.5 7.5s3.358 7.5 7.5 7.5h18.858c4.142 0 7.5-3.358 7.5-7.5z"/><path d="m101.775 261.489h-41.97c-4.142 0-7.5 3.358-7.5 7.5s3.358 7.5 7.5 7.5h41.971c4.142 0 7.5-3.358 7.5-7.5s-3.359-7.5-7.501-7.5z"/><path d="m96.966 329.43v-12.062c0-4.142-3.358-7.5-7.5-7.5s-7.5 3.358-7.5 7.5v12.062c0 4.142 3.358 7.5 7.5 7.5s7.5-3.358 7.5-7.5z"/><path d="m215.002 309.868c-4.142 0-7.5 3.358-7.5 7.5v12.062c0 4.142 3.358 7.5 7.5 7.5s7.5-3.358 7.5-7.5v-12.062c0-4.142-3.358-7.5-7.5-7.5z"/><path d="m173.71 323.417c-3.122-2.722-7.86-2.397-10.582.726-2.751 3.156-6.722 4.966-10.895 4.966-4.172 0-8.144-1.81-10.895-4.966-2.722-3.123-7.459-3.448-10.582-.726s-3.448 7.459-.726 10.582c5.601 6.426 13.693 10.111 22.202 10.111 8.51 0 16.602-3.685 22.203-10.111 2.723-3.123 2.398-7.86-.725-10.582z"/></g></svg>