<svg id="Capa_1" enable-background="new 0 0 512.002 512.002" height="512" viewBox="0 0 512.002 512.002" width="512" xmlns="http://www.w3.org/2000/svg"><g><path d="m272.67 266.882c-5.392-1.138-11.462-1.292-16.688-1.292-5.423 0-11.711.171-17.224 1.437-13.23 3.008-20.219 12.117-20.207 26.333 0 13.208 5.854 25.673 15.651 33.341 6.379 5.004 13.921 7.649 21.809 7.649h.005c20.649-.013 37.438-18.42 37.425-41.036-.012-14.601-6.995-23.493-20.771-26.432zm-16.662 52.469c-4.497 0-8.836-1.54-12.555-4.457-6.2-4.853-9.902-12.903-9.902-21.54-.007-8.25 2.868-10.413 8.548-11.704 4.068-.934 9.301-1.06 13.883-1.06 4.452 0 9.549.115 13.575.965 5.887 1.256 8.877 3.421 8.884 11.77.008 14.343-10.055 26.017-22.433 26.026z"/><path d="m477.053 168.897c-22.326-21.803-53.58-24.4-89.142-25.394-.142-.003-.28-.003-.42 0-19.507.546-38.426 1.469-55.41 6.409-9.423-2.022-20.093-3.513-32.39-4.528v-81.953c0-19.658-15.993-35.65-35.65-35.65h-16.08c-19.657 0-35.65 15.993-35.65 35.65v81.953c-12.533 1.028-23.073 2.509-32.6 4.575-17.013-4.983-35.929-5.91-55.429-6.455-.141-.003-.279-.003-.42 0-35.499.994-66.699 3.592-88.976 25.397-22.549 21.255-34.612 61.462-34.885 116.302-.132 54.516 12.958 108.174 34.974 143.468 21.466 35.262 53.065 54.989 88.979 55.549.039 0 .078.001.117.001s.078 0 .117-.001c20.484-.319 39.258-6.616 55.892-18.703 22.566 12.101 48.051 18.391 75.836 18.703h.084.085c27.693-.313 53.113-6.567 75.642-18.597 16.639 12.018 35.402 18.279 55.856 18.597.039 0 .078.001.117.001s.078 0 .117-.001c35.972-.56 67.631-20.285 89.104-55.476 7.421-11.879 13.886-25.859 19.216-41.552 1.332-3.922-.768-8.182-4.689-9.514-3.925-1.332-8.182.767-9.514 4.689-4.959 14.6-10.926 27.529-17.776 38.496-18.984 31.112-45.422 47.831-76.457 48.356-15.106-.255-29.138-4.348-41.85-12.181 11.135-7.643 21.253-16.822 30.141-27.371 30.652-35.552 48.843-89.561 48.659-144.5-.389-55.304-17.075-95.765-48.262-117.017-4.393-3.111-9.132-5.881-14.256-8.333 8.246-.742 16.835-1.068 25.567-1.314 33.434.94 60.475 3.123 78.914 21.167.037.036.074.072.112.107 19.553 18.361 30.021 54.836 30.273 105.461.053 21.812-2.048 43.384-6.243 64.116-.822 4.06 1.803 8.017 5.863 8.839.502.102 1.002.15 1.495.15 3.495 0 6.623-2.456 7.343-6.014 4.396-21.721 6.598-44.306 6.542-67.146-.27-54.814-12.356-95.023-34.946-116.286zm-229.092-126.116h16.08c11.387 0 20.65 9.264 20.65 20.65v80.985c-9.571-.473-19.291-.723-28.535-.914-.104-.002-.207-.002-.311 0-9.244.192-18.963.441-28.535.914v-80.985c.001-11.387 9.264-20.65 20.651-20.65zm119.932 137.731c26.966 18.346 41.406 54.572 41.759 104.733.172 51.404-16.657 101.732-45.075 134.693-27.525 31.925-66.628 48.788-108.575 49.282-40.499.476-82.546-18.363-108.63-49.347-28.363-32.896-45.192-83.224-45.021-134.6.085-12.062.986-23.457 2.679-33.869.664-4.088-2.111-7.941-6.2-8.606-4.086-.667-7.941 2.112-8.606 6.2-1.814 11.17-2.781 23.34-2.872 36.198-.184 54.912 18.007 108.92 48.603 144.405 8.881 10.549 18.959 19.705 30.046 27.333-12.723 7.903-26.781 12.031-41.928 12.286-30.969-.525-57.347-17.241-76.327-48.418-20.628-33.071-32.869-83.748-32.743-135.543.252-50.654 10.701-87.129 30.218-105.484.039-.036.077-.073.114-.109 18.389-18.039 45.373-20.221 78.738-21.161 8.797.247 17.448.578 25.753 1.337-5.107 2.447-9.832 5.21-14.215 8.311-15.399 10.497-27.333 25.67-35.468 45.102-1.6 3.821.201 8.215 4.021 9.814 3.82 1.601 8.215-.2 9.814-4.021 7.006-16.733 17.144-29.698 30.132-38.535.04-.027.078-.054.119-.082 30.465-21.544 75.734-22.676 111.773-21.927 35.377.735 81.278.297 111.771 21.926.039.027.08.054.12.082z"/><path d="m190.99 255.854c-.004 0-.008 0-.012 0-5.888.003-11.422 2.299-15.583 6.464s-6.451 9.702-6.448 15.589c.002 4.142 3.359 7.497 7.5 7.497h.004c4.142-.002 7.498-3.361 7.496-7.503-.001-1.882.73-3.651 2.061-4.982 1.329-1.331 3.097-2.064 4.979-2.065h.003c1.88 0 3.647.732 4.978 2.061 1.331 1.33 2.064 3.098 2.065 4.979.002 4.141 3.359 7.497 7.5 7.497h.004c4.142-.002 7.498-3.361 7.496-7.503-.003-5.888-2.299-11.422-6.464-15.583-4.164-4.161-9.696-6.451-15.579-6.451z"/><path d="m320.975 255.789c-12.154.007-22.037 9.9-22.031 22.054.002 4.142 3.359 7.497 7.5 7.497h.004c4.142-.002 7.498-3.361 7.496-7.503-.002-3.884 3.156-7.045 7.039-7.047h.003c1.88 0 3.647.732 4.978 2.061 1.331 1.33 2.064 3.098 2.065 4.979.002 4.141 3.359 7.497 7.5 7.497h.004c4.142-.002 7.498-3.361 7.496-7.503-.003-5.888-2.299-11.422-6.464-15.583-4.163-4.159-9.695-6.449-15.579-6.449-.005-.003-.008-.003-.011-.003z"/></g></svg>